<svg id="Layer_1" data-name="Layer 1" xmlns="http://www.w3.org/2000/svg" xmlns:xlink="http://www.w3.org/1999/xlink" viewBox="0 0 150 150"><defs><style>.cls-1{fill:none;}.cls-2{clip-path:url(#clip-path);}.cls-3{fill:url(#Degradado_sin_nombre_12);}.cls-4{fill:#0071bb;fill-rule:evenodd;}</style><clipPath id="clip-path"><path class="cls-1" d="M-140.88,53.08A46.89,46.89,0,0,1-94,6.25,46.89,46.89,0,0,1-47.21,53.08,46.9,46.9,0,0,1-94,99.92a46.89,46.89,0,0,1-46.83-46.84m-.42,0A47.3,47.3,0,0,0-94,100.34,47.31,47.31,0,0,0-46.79,53.08,47.3,47.3,0,0,0-94,5.83,47.3,47.3,0,0,0-141.3,53.08"/></clipPath><linearGradient id="Degradado_sin_nombre_12" x1="-1941.77" y1="1747.66" x2="-1941.27" y2="1747.66" gradientTransform="matrix(0, 175.88, -175.88, 0, 307293.55, 341542.3)" gradientUnits="userSpaceOnUse"><stop offset="0" stop-color="#fff"/><stop offset="0.28" stop-color="#fff"/><stop offset="0.68" stop-color="#969596"/><stop offset="1" stop-color="#3f3d3f"/></linearGradient></defs><g class="cls-2"><rect class="cls-3" x="-160.88" y="-13.75" width="133.66" height="133.66" transform="translate(-65.08 -50.96) rotate(-45)"/></g><path class="cls-4" d="M41.88,55.89,25.32,48.3l-.09-19.87L63.49,46l10.22-4.67A2.14,2.14,0,0,0,75,39.53a2.06,2.06,0,0,0-1.36-1.74L39.15,22.11,69.92,8a7.25,7.25,0,0,1,2.63-.49A7.72,7.72,0,0,1,75.18,8l46.15,21.13c2.14,1.07,4.77,2.14,4.77,5.16s-2.43,3.89-4.67,5L85.11,55.89l36.32,16.56c2.24,1.07,4.67,2,4.67,5s-2.63,4.09-4.77,5.16L75.18,103.7a8,8,0,0,1-2.63.49,7.46,7.46,0,0,1-2.63-.49L39.15,89.58,73.62,73.91A2.08,2.08,0,0,0,75,72.15a2.14,2.14,0,0,0-1.27-1.75L63.49,65.73,25.23,83.25l.09-19.86Z"/><path class="cls-4" d="M129.41,138.45c1.38,0,2.54-.7,2.54-2.09V123.27h6.14V137c0,4.13-2.7,5.52-6.25,5.52H121.61a2.28,2.28,0,0,1-2-1.08l-1.59-2.63v-.34Zm-11.36,4.05h.2l-.2-.31Zm0-3.71-.19-.34h.19v.34Zm0,3.4-11.39-18.92H98.75L87.51,142v.54h6.91l8.3-14.59,4.06,7.14h-4.64a2.39,2.39,0,0,0-2,1.08l-1.78,2.93h10.7l2,3.44h7v-.31Zm-30.54-3V123.27h.31V137A6.5,6.5,0,0,1,87.51,139.18Zm0-15.91v15.91c-.81,2.43-3.09,3.32-5.91,3.32H71.37a2.42,2.42,0,0,1-2-1.08l-1.58-2.63v-.34H79.17c1.39,0,2.51-.7,2.51-2.09V123.27Zm0,18.69-.31.54h.31V142Zm-19.73.54H68l-.19-.31Zm0-4.05v.34l-.19-.34Zm0,3.74L56.43,123.27H48.55L37.32,142v.54h6.91l8.26-14.59,4,7.14H51.91a2.35,2.35,0,0,0-2,1.08l-1.77,2.93H58.82l1.93,3.44h7v-.31Zm-30.46-3v-3.55a4.2,4.2,0,0,1,.34,1.7,4.69,4.69,0,0,1-.34,1.85Zm0-9.31v-3.28a4.13,4.13,0,0,1,.34,1.74A3.47,3.47,0,0,1,37.32,129.87Zm0-3.28v3.28a5.66,5.66,0,0,1-3.86,2.86c2,.62,3.32,1.62,3.86,2.9v3.55c-1.2,3-5.49,3.32-8.65,3.32H24.46v-4.05h4.13a2,2,0,1,0,0-4H24.46v-4.05h4.21c1.19,0,2.2-.58,2.2-1.55s-1-1.5-2.2-1.5H24.46v-4.06h4.21c2.93,0,7.41.35,8.65,3.32Zm0,15.37-.31.54h.31ZM24.46,123.27v4.06H18.05v7.1l1.77-3a2.42,2.42,0,0,1,2-1.08h2.63v4.05H18.05v8.07l1.77-3a2.53,2.53,0,0,1,2-1.08h2.63v4.05H11.91V123.27Zm-6.41,11.16Z"/></svg>