<svg id="Layer_1" data-name="Layer 1" xmlns="http://www.w3.org/2000/svg" xmlns:xlink="http://www.w3.org/1999/xlink" viewBox="0 0 150 150"><defs><style>.cls-1{fill:none;}.cls-2{fill:#010001;}.cls-3{fill:#009141;}.cls-4{fill:#fff;}.cls-5{fill:#e03133;}.cls-6{fill:url(#linear-gradient);}.cls-7{clip-path:url(#clip-path);}.cls-8{fill:url(#Degradado_sin_nombre_10);}.cls-9{clip-path:url(#clip-path-2);}.cls-10{fill:#009647;}.cls-11{clip-path:url(#clip-path-3);}.cls-12{fill:url(#Degradado_sin_nombre_12);}.cls-13{clip-path:url(#clip-path-4);}.cls-14{fill:url(#Degradado_sin_nombre_12-2);}</style><linearGradient id="linear-gradient" x1="28.69" y1="53.08" x2="123.21" y2="53.08" gradientUnits="userSpaceOnUse"><stop offset="0" stop-color="#58585a"/><stop offset="0.13" stop-color="#fff"/><stop offset="0.28" stop-color="#a6a8a9"/><stop offset="0.32" stop-color="#b9babb"/><stop offset="0.36" stop-color="#cecfd0"/><stop offset="0.51" stop-color="#e2e2e3"/><stop offset="0.61" stop-color="#fff"/><stop offset="0.75" stop-color="#919294"/><stop offset="0.78" stop-color="#b8b9ba"/><stop offset="0.82" stop-color="#dfdfe0"/><stop offset="0.85" stop-color="#f6f6f7"/><stop offset="0.87" stop-color="#fff"/><stop offset="1" stop-color="#58585a"/></linearGradient><clipPath id="clip-path"><path class="cls-1" d="M31.79,53.08a44.16,44.16,0,0,0,88.32.2v-.4a44.16,44.16,0,0,0-88.32.2"/></clipPath><radialGradient id="Degradado_sin_nombre_10" cx="-1763.66" cy="1751.36" r="0.5" gradientTransform="translate(287844.02 -285733.23) scale(163.17)" gradientUnits="userSpaceOnUse"><stop offset="0" stop-color="#f1f2f2"/><stop offset="0.2" stop-color="#f1f2f2"/><stop offset="0.24" stop-color="#edeeef"/><stop offset="0.74" stop-color="#cacbcc"/><stop offset="1" stop-color="#bcbebf"/></radialGradient><clipPath id="clip-path-2"><rect class="cls-1" x="28.18" y="5.31" width="95.57" height="95.52"/></clipPath><clipPath id="clip-path-3"><path class="cls-1" d="M29.12,53.08A46.84,46.84,0,1,1,76,99.92,46.89,46.89,0,0,1,29.12,53.08m-.42,0A47.26,47.26,0,1,0,76,5.83,47.3,47.3,0,0,0,28.7,53.08"/></clipPath><linearGradient id="Degradado_sin_nombre_12" x1="-1771.77" y1="1747.66" x2="-1771.27" y2="1747.66" gradientTransform="matrix(0, 175.88, -175.88, 0, 307463.55, 311641.88)" gradientUnits="userSpaceOnUse"><stop offset="0" stop-color="#fff"/><stop offset="0.28" stop-color="#fff"/><stop offset="0.68" stop-color="#969596"/><stop offset="1" stop-color="#3f3d3f"/></linearGradient><clipPath id="clip-path-4"><path class="cls-1" d="M32,53.08A44,44,0,1,1,76,97,44,44,0,0,1,32,53.08m-.43,0A44.38,44.38,0,1,0,76,8.71,44.43,44.43,0,0,0,31.57,53.08"/></clipPath><linearGradient id="Degradado_sin_nombre_12-2" x1="-1774.13" y1="1769.17" x2="-1773.63" y2="1769.17" gradientTransform="translate(-339736.75 -340663.65) rotate(-90) scale(192.07)" xlink:href="#Degradado_sin_nombre_12"/></defs><path class="cls-2" d="M20.55,135.56h0a.56.56,0,0,0,.2,0c.32,0,.52-.16.52-.42s-.17-.38-.47-.38a1.14,1.14,0,0,0-.25,0Zm-.6-1.17a5.21,5.21,0,0,1,.81,0,1.33,1.33,0,0,1,.83.21.72.72,0,0,1,.28.59.82.82,0,0,1-.25.62,1.29,1.29,0,0,1-.87.27l-.2,0v.93H20Z"/><path class="cls-2" d="M25.94,134.35v1.49c0,.45.18.68.48.68s.5-.22.5-.68v-1.49h.6v1.46A1,1,0,0,1,26.4,137c-.67,0-1.06-.37-1.06-1.19v-1.45Z"/><path class="cls-2" d="M31.73,135.5H32c.3,0,.48-.14.48-.37s-.16-.36-.44-.36a1.43,1.43,0,0,0-.28,0Zm-.59-1.11a5.56,5.56,0,0,1,.8,0,1.35,1.35,0,0,1,.86.2.65.65,0,0,1,.26.54.7.7,0,0,1-.48.64h0a.64.64,0,0,1,.36.48c.08.29.16.63.21.73h-.62a5,5,0,0,1-.18-.6c-.07-.33-.19-.41-.44-.41h-.18v1h-.59Z"/><path class="cls-2" d="M37.91,135.84h0l-.17-.55-.13-.5h0c0,.16-.08.35-.12.5l-.16.55Zm-.68.44-.18.66h-.63l.82-2.59H38l.83,2.59h-.65l-.21-.66Z"/><path class="cls-2" d="M46.79,135.56h0a.65.65,0,0,0,.21,0c.32,0,.52-.16.52-.42s-.17-.38-.48-.38l-.25,0Zm-.59-1.17a5.12,5.12,0,0,1,.81,0,1.3,1.3,0,0,1,.82.21.72.72,0,0,1,.29.59.82.82,0,0,1-.25.62A1.29,1.29,0,0,1,47,136l-.21,0v.93H46.2Z"/><path class="cls-2" d="M52.63,135.84h0l-.17-.55c-.05-.15-.09-.35-.13-.5h0c0,.16-.08.35-.12.5l-.17.55Zm-.68.44-.19.66h-.62l.81-2.59h.79l.83,2.59h-.65l-.2-.66Z"/><path class="cls-2" d="M57,136.34a1.57,1.57,0,0,0,.67.16c.28,0,.42-.11.42-.28s-.12-.25-.44-.36-.74-.39-.74-.77.38-.78,1-.78a1.67,1.67,0,0,1,.68.13l-.13.47a1.33,1.33,0,0,0-.56-.12c-.26,0-.39.12-.39.25s.15.24.5.37.69.4.69.77-.34.81-1.08.81a1.77,1.77,0,0,1-.75-.17Z"/><path class="cls-2" d="M62.27,136.34a1.57,1.57,0,0,0,.67.16c.28,0,.43-.11.43-.28s-.13-.25-.45-.36-.74-.39-.74-.77.38-.78,1-.78a1.63,1.63,0,0,1,.68.13l-.13.47a1.29,1.29,0,0,0-.56-.12c-.26,0-.38.12-.38.25s.14.24.49.37.69.4.69.77-.34.81-1.07.81a1.78,1.78,0,0,1-.76-.17Z"/><rect class="cls-2" x="67.49" y="134.35" width="0.6" height="2.59"/><path class="cls-2" d="M72.86,136.52h0c.41,0,.64-.37.64-.88s-.22-.86-.64-.86-.65.39-.65.87.24.87.65.87Zm0,.47a1.23,1.23,0,0,1-1.25-1.32,1.27,1.27,0,0,1,1.3-1.36,1.23,1.23,0,0,1,1.27,1.31A1.26,1.26,0,0,1,72.84,137Z"/><path class="cls-2" d="M77.63,136.94v-2.59h.71l.55,1a8.16,8.16,0,0,1,.44.89h0a9.22,9.22,0,0,1,0-1.08v-.76h.56v2.59h-.64l-.57-1a7.76,7.76,0,0,1-.46-.91h0c0,.34,0,.71,0,1.13v.78Z"/><polygon class="cls-2" points="85.05 135.85 84.06 135.85 84.06 136.46 85.16 136.46 85.16 136.94 83.46 136.94 83.46 134.35 85.11 134.35 85.11 134.84 84.06 134.84 84.06 135.37 85.05 135.37 85.05 135.85"/><path class="cls-2" d="M93.15,136.5h.22a.81.81,0,0,0,.91-.9.76.76,0,0,0-.85-.83,1.47,1.47,0,0,0-.28,0Zm-.6-2.11a4.93,4.93,0,0,1,.82,0,1.74,1.74,0,0,1,1.09.27,1.12,1.12,0,0,1,.45,1,1.34,1.34,0,0,1-.43,1,2.05,2.05,0,0,1-1.24.33,5.29,5.29,0,0,1-.69,0Z"/><path class="cls-2" d="M99.7,135.84h0l-.17-.55-.13-.5h0c0,.16-.08.35-.12.5l-.16.55Zm-.68.44-.19.66h-.62l.81-2.59h.79l.83,2.59H100l-.21-.66Z"/><polygon class="cls-2" points="104.09 134.35 104.7 134.35 104.7 136.45 105.76 136.45 105.76 136.94 104.09 136.94 104.09 134.35"/><polygon class="cls-2" points="113.77 134.97 113.76 134.97 113.27 135.19 113.17 134.75 113.85 134.45 114.35 134.45 114.35 136.94 113.77 136.94 113.77 134.97"/><path class="cls-2" d="M119.19,134.83h0c-.2,0-.35.18-.35.44a.36.36,0,0,0,.36.4.41.41,0,0,0,.35-.16.31.31,0,0,0,0-.15c0-.27-.11-.53-.38-.53Zm-.71,1.69h.26a1.09,1.09,0,0,0,.51-.15.8.8,0,0,0,.33-.46h0a.71.71,0,0,1-.53.18.76.76,0,0,1-.8-.78.92.92,0,0,1,1-.89,1,1,0,0,1,1,1.07,1.47,1.47,0,0,1-.45,1.15,1.58,1.58,0,0,1-1,.35,2.42,2.42,0,0,1-.27,0Z"/><polygon class="cls-2" points="124.35 134.97 124.34 134.97 123.85 135.19 123.75 134.75 124.43 134.45 124.93 134.45 124.93 136.94 124.35 136.94 124.35 134.97"/><polygon class="cls-2" points="129.66 134.97 129.65 134.97 129.16 135.19 129.06 134.75 129.75 134.45 130.24 134.45 130.24 136.94 129.66 136.94 129.66 134.97"/><path class="cls-2" d="M107.68,127.85l-.84-.49v-22c-.14-.58-.47-.73-1.07-.42l-7.3,3.57a.64.64,0,0,0,0,1.14l1.2.49c.19.06.09.25.13.2v17l-1.09.6c-.84.45-.65,1.19.12,1.33h8.67c.93,0,1.19-1,.13-1.39m-21.27-9.66c-.2-1.32.25-4,2.76-4.32A2.61,2.61,0,0,1,92,116.62c0,.19,0,.27-.05.31l-5.08,1.8C86.6,118.87,86.41,118.52,86.41,118.19Zm10.28,4.75c-1.61,1.39-3.46,2.51-5,2.45a4.43,4.43,0,0,1-4.31-2.78.12.12,0,0,1,.07-.17c.11,0,10.29-3.71,10.29-3.71.33-.22.31-.37.33-.81a8.81,8.81,0,0,0-8.86-7.15c-4.84,0-8.84,4.34-8.86,9.55a9.08,9.08,0,0,0,9,9.61,10.57,10.57,0,0,0,9.16-5.62C98.91,123,97.23,122.29,96.69,122.94Zm32.91,4.91-.83-.49V112.9c-.14-.57-.48-.73-1.07-.42l-7.3,3.57a.64.64,0,0,0,0,1.14l1.2.49c.19,0,.09.25.13.2v9.43l-1.09.6c-.84.45-.65,1.19.12,1.33h8.67C130.41,129.26,130.66,128.25,129.6,127.85Zm-11,0-.84-.49v-22c-.14-.58-.47-.73-1.07-.42l-7.29,3.57a.64.64,0,0,0,0,1.14l1.2.49c.19.06.09.25.13.2v17l-1.09.6c-.84.45-.65,1.19.13,1.33h8.66C119.38,129.26,119.64,128.25,118.58,127.85Zm-38.76,0-.83-.49V116.8A5.5,5.5,0,0,0,77.5,113a5.87,5.87,0,0,0-4.33-1.81,7,7,0,0,0-4.47,1.45c-.82.6-.74.15-.75-.11V111.1a.69.69,0,0,0-1.09-.42l-7,3.4c-.76.37-.61,1-.23,1.18l1.12.5c.22.07.18.38.18.38v11.17l-1.16.6c-.84.45-.64,1.19.13,1.33H68.6c.94,0,1.19-1,.13-1.39l-.84-.49,0-9.63a2.17,2.17,0,0,1,2.39-2.34c1.1,0,2,.46,2.06,2.34v9.58l-1.09.6c-.84.45-.65,1.19.12,1.33H79.7C80.63,129.26,80.88,128.25,79.82,127.85Zm-47.31-2.67a2.91,2.91,0,0,1-1.89.78c-.92,0-1.78-.14-1.78-.9v-6.27c.08-.55.73-.7,1.48-.71a2.65,2.65,0,0,1,2.2.88c.8.93.66,2.08.73,3.09A5.68,5.68,0,0,1,32.51,125.18Zm-3.72-15.77c.21-.85,2.49-1,3.26-.13a3.55,3.55,0,0,1,.85,2.78,3.22,3.22,0,0,1-.49,2.28,3.62,3.62,0,0,1-2.44.82c-.62,0-1.18,0-1.18-.68Zm6.66,7.36c-.08,0-.16-.18,0-.22,2,0,4.2-2.25,4.2-5s-2-5.58-7.1-5.85h-12c-1,0-.72,1.12-.21,1.34l1,.57c.28.19.33.09.36.51v18.7c0,.51-.22.55-.22.55l-1.14.59a.69.69,0,0,0,.33,1.34c-.85,0,12.34,0,12.34,0a7,7,0,0,0,7.27-7C40.34,119.63,37.56,116.85,35.45,116.77Zm12,1.42c-.2-1.32.24-4,2.75-4.32a2.63,2.63,0,0,1,2.88,2.75c0,.19,0,.27,0,.31l-5.08,1.8C47.61,118.87,47.42,118.52,47.42,118.19Zm10.28,4.75c-1.62,1.39-3.46,2.51-5,2.45a4.43,4.43,0,0,1-4.31-2.78.11.11,0,0,1,.07-.17c.11,0,10.28-3.71,10.28-3.71.33-.22.31-.37.33-.81a8.81,8.81,0,0,0-8.86-7.15c-4.84,0-8.83,4.34-8.85,9.55a9.07,9.07,0,0,0,9,9.61,10.55,10.55,0,0,0,9.15-5.62C59.92,123,58.23,122.29,57.7,122.94Zm67.48-10.63a3.8,3.8,0,1,0-3.7-3.79A3.75,3.75,0,0,0,125.18,112.31Z"/><rect class="cls-3" x="19.95" y="139.48" width="36.69" height="0.83"/><rect class="cls-4" x="56.75" y="139.48" width="36.69" height="0.83"/><rect class="cls-5" x="93.55" y="139.48" width="36.69" height="0.83"/><circle class="cls-6" cx="75.95" cy="53.08" r="47.26"/><g class="cls-7"><rect class="cls-8" x="31.79" y="8.92" width="88.33" height="88.33"/></g><g class="cls-9"><path class="cls-10" d="M78.77,14.38c.27.63.94.46,1.38.87.26,0,.49.28.8.24.34.2.8.15,1.12.4a20.49,20.49,0,0,1,3.23.38l.08,0c-.2-.26-.4-.69-.74-.82A29.85,29.85,0,0,0,80.52,14l-1.45-.68c-.3,0-.44-.4-.75-.25-.18,0-.41-.12-.31-.33a3.69,3.69,0,0,1,1.73.53c.21-.26-.19-.47-.22-.7s.11-.14.19-.19l.35.39c.29,1,1.36,1.07,2.22,1.23,0,0,.53.18,1.33.38.26,0,.4.48.65.24-.12-1.16-1.4-.9-2-1.55l-.86-.69-1.09-.57a6.56,6.56,0,0,0-4.07.43c.81.65,1.46,1.76,2.52,2.11"/><path class="cls-10" d="M66.42,14.55c-.18.34-.73.49-.66.9a11.33,11.33,0,0,0,4.9-2.5c.39-.15.8-.52,1.19-.43-.33.52-1,.58-1.43,1,0,0,.09,0,.14.11a6.29,6.29,0,0,1,2.5-.44c-2.68.8-5.3,2-6.18,2.25l0,.13,1.75,0c.65-.08,1.2-.49,1.85-.57,1-.43,2.29-.58,3-1.57.4-.61,1-1,1.33-1.58a3.5,3.5,0,0,0-2.2.17,9.86,9.86,0,0,0-4.19.63c-1,.2-1.23,1.32-1.92,1.86"/><path class="cls-10" d="M64.22,15.83c-1.4.09-2.18,1.16-3.17,2A4.64,4.64,0,0,0,63,17.26a21.06,21.06,0,0,0,3.87-3.91l-.25-.43a4.5,4.5,0,0,0-2,.69c-1,.06-1.77,1-2.57,1.66-.69.42-.52,1.4-.83,1.86.74-.52,2.57-2.48,4.63-3.43l.12.11a10.26,10.26,0,0,1-2,1.58c0,.08.32,0,.46.14s-.06.24-.17.3"/><path class="cls-10" d="M88.28,16.61c.19,0,.59.26.67-.08a3.09,3.09,0,0,0-1.54-.84,7.87,7.87,0,0,1-2.81-2c0-.05,0-.15.06-.19a14.8,14.8,0,0,0,3.76,2.08c.68.31,1,1.06,1.77,1.17l0-.14a20.5,20.5,0,0,0-4.11-3.2,7.32,7.32,0,0,0-2-.4c0,1.13,1,1.85,1.59,2.65.75.51,1.58,1.38,2.59.92"/><path class="cls-10" d="M92.53,17.81c1.51,1.6,3.52,2.15,4.69,4,.26.34.57.75.89.83,0-.37-.51-.58-.55-.94A17.14,17.14,0,0,1,94.3,18.3a6.09,6.09,0,0,0-1.42-1c-.84-.62-2-.85-2.53-1.9,0-.2-.25-.4-.09-.6.44.25.55.77,1,1.13.2.09,3,1.18,3.71,2.61a34.54,34.54,0,0,0,3.32,3.28h0A17.5,17.5,0,0,0,97.34,20c-1.52-1.15-2.06-2.94-3.76-3.87-1-.4-2-1.08-3-1.44l-.18-.16c-.25-.05-.56-.32-.77-.08a7,7,0,0,0,.77,1.28,7.23,7.23,0,0,0,2.18,2.12"/><path class="cls-10" d="M52.23,24.13c.38-.46.49-1.07,1-1.55.35-.65,2.46-3,2.84-4,.52-.05-.09.43.11.61A17.79,17.79,0,0,1,58.3,17.6a6,6,0,0,1,1.09-.78c.26-.21.34-.49.68-.64.08,0,.06.12.06.2-1.05,1.32-2.6,2.1-3.84,3.15a3.87,3.87,0,0,0-.57.65,24.56,24.56,0,0,0-3.43,4.75h.11a19.56,19.56,0,0,1,2.24-2.62c1.23-2,3.6-2.46,5.15-4.15A4.77,4.77,0,0,0,61,15.07a4.79,4.79,0,0,0-.93.29c-2,1.93-4.68,2.28-6.42,4.6-.71.46-.83,1.28-1.22,1.94-.05.75-.56,1.57-.22,2.23"/><path class="cls-10" d="M74.59,17.6a15.82,15.82,0,0,0-3-1.16l-.95.09c-1.28-.67-2.72-.47-4.2-.47a2.88,2.88,0,0,0-1.86.38.19.19,0,0,0,0,.29,41.62,41.62,0,0,1,6,.37l1.78-.34c.19.48-.6.06-.64.48.41.11.77,0,1.15.2,0,.06-.09.11-.11.15-1.2-.15-6.48-.57-6.87-.49a2.69,2.69,0,0,0-1.94.14l.08.14a9.36,9.36,0,0,1,1.67.26c1.69.52,3.74.17,5.51.43.74.15,1.52,0,2.24.12.36-.29,1.05-.07,1.24-.59"/><path class="cls-10" d="M76,18.33c.57.53,1.43.36,2.12.48,1.82-.71,3.77-2.08,5.9-1.52l.13-.14c-.46-.25-1.08,0-1.57-.16-2,0-3.57,1.4-5.59.8,1.21-.37,2.59-.35,3.27-.64a7.19,7.19,0,0,1,1.46-.28c.15-.11.38-.05.46-.23a.34.34,0,0,0-.26-.18,3.74,3.74,0,0,0-2.1-.42,13.57,13.57,0,0,0-4.11,2.15c0,.17.18.17.29.14"/><path class="cls-10" d="M85.84,16.82c-.23-.06-.54-.18-.77,0a.15.15,0,0,1-.09-.14l-2.4-.28-.12.08c.15.23.49.11.68.26.93,0,1.76.47,2.7.25Z"/><path class="cls-10" d="M96,21.53c.23.34.37.74.62,1.08.55.47,1.18.77,1.78,1.24l.11-.09c-.45-.26-.61-.73-1-1.11-.58-.78-1.22-1.18-1.84-2-.72-.36-1.28-.87-2-1.25a6.73,6.73,0,0,0-5.64-2.29l-.18.23a4.92,4.92,0,0,1,.7,1.23c.56.54.91,1.3,1.62,1.69s1.38,1,2.23,1.21a3.33,3.33,0,0,1,1.37.68c1.72.52,2.49,2.26,4.18,2.8a.87.87,0,0,0,.74,0c0-.06,0-.12,0-.18a7.44,7.44,0,0,0-1.36-1.26c-1.77-.58-3.7-2.91-6.87-4.36a7.37,7.37,0,0,1-1.73-1.43l.18-.17c.2.2,5.56,3,7,4.77.74.22-.26-.56.14-.83"/><path class="cls-10" d="M81.2,20.76l.18.14c1-.41,2.23-.08,3-.94.92-.81,1.51-1.94,2.83-2.17v-.15c-1.2.17-3.95,2.52-4.4,2.35a2.45,2.45,0,0,1,.76-.74,21.12,21.12,0,0,1,2-1.41c.29-.2.77-.12.94-.43l0-.12a10.37,10.37,0,0,1-1.06.12,4.51,4.51,0,0,0-2.21.86c-1,.48-1.22,1.69-2,2.49"/><path class="cls-10" d="M78.72,19.67c-.06.2-.44.32-.38.57.26.14.26-.2.52-.08.52-.34,1.25-.14,1.72-.6s1.54-.41,1.63-1.14a4.51,4.51,0,0,0-2,.73c-.22.18-.54.43-.79.32a4,4,0,0,1,2-1.14c.48-.41,1.34,0,1.74-.57v-.12a4.29,4.29,0,0,0-4.4,2"/><path class="cls-10" d="M63.24,17.76a.34.34,0,0,0-.26.43,3.53,3.53,0,0,0,2,.8c.43.05.87.16,1.28.23s1.41.91,1.1,1l.1.43a2.28,2.28,0,0,0,2.36,1c0-.61-.69-.58-.92-1a29.77,29.77,0,0,0-2.24-2,5.85,5.85,0,0,0-3.4-.91"/><path class="cls-10" d="M56.22,23A47.17,47.17,0,0,0,52.61,26c1.33-.68,2.37-1.94,3.86-2.35.26-.35.71-.15,1-.51,2.21-.72,3.55-2.87,4.72-4.68.12-.09.14-.32,0-.38a8.7,8.7,0,0,1-1.75.32c-.79.48-1.45,1-2.2,1.6-.16,0-.26.11-.37.19-1.77.8-3.06,2.5-4.32,3.87-.23.4-.65.73-.83,1.14.24,0,.37-.29.58-.41.5-.41,4.12-3.19,4.12-3.19a43,43,0,0,1,3.6-2.4c-.37,1-1.54,1.33-2.2,2a1.39,1.39,0,0,0,.83-.2c.05.06.14.12.14.17-.63.6-1.52.28-2.17.75-.5.4-1,.64-1.4,1"/><path class="cls-10" d="M86.79,19A4.38,4.38,0,0,1,88,18.77v-.23l-.29-.42c-1.16,0-2.08,1.12-2.79,1.95l.11.11c.8-.16,1.55-.42,2.37-.57l1.34.11,0-.08c-.67-.81-2-.37-2.88-.11,0-.06,0-.09,0-.14a3.93,3.93,0,0,1,1-.38"/><path class="cls-10" d="M67.29,18.27v.21c1.22.44,2.24,1.51,3.79,1.24.32,0,.66.21.91.1a2.93,2.93,0,0,0-3.09-1.57l0,.17c.34.39,1.06.25,1.52.53,0,.12.11.29,0,.38-.54,0-2.52-1-3.13-1.06"/><path class="cls-10" d="M62.5,18.69a1.74,1.74,0,0,0,1,.58,2.22,2.22,0,0,0-.46-.63c-.14-.16-.47-.16-.54.05"/><path class="cls-10" d="M66.36,19.56c-.74-.34-1.78-.09-2.51-.46l-.14.09c-.09.66.76.45,1.1.8.21.1.41-.12.58.08a5,5,0,0,1,1.84.42c0-.36-.52-.62-.87-.93"/><path class="cls-10" d="M61.64,20.16c.52-.2,1.1-.14,1.58-.31-.07-.41-.65-.46-1-.63a1.52,1.52,0,0,0-.58.94"/><path class="cls-10" d="M100.51,23.27c1.14.4,1.57,1.48,2.46,2.21h.2L103,25a26.8,26.8,0,0,1-3.61-4.14c-.08-.17-.28-.41-.11-.61a1.68,1.68,0,0,1,.68.89,15.39,15.39,0,0,0,2.37,2.62c0-.38-.3-.64-.1-.92a10.07,10.07,0,0,0,.79,1.76c.06,0,.15,0,.21,0-.28-.52-.35-1.12-.67-1.63-.36-.34-.39-.87-.86-1.09.09-.3-.22-.34-.41-.51-.63-.9-1.84-1-2.47-2h-.17a5.53,5.53,0,0,0,.46,2.32c-.17,1,1,1,1.43,1.6"/><path class="cls-10" d="M69,20.18c.28.08.49.55.81.34,0-.14.11-.26,0-.36a4.19,4.19,0,0,1-1.32-.66c0,.37.38.41.51.68"/><path class="cls-10" d="M49,25.45c.28-.49.91-.55,1.11-1.12a17,17,0,0,1,1.09-2.43c.52.05-.18.46.08.66a1.61,1.61,0,0,0,1-1.24c.15-.17-.05-.5.17-.65,0-.29.33-.63,0-.82a6.57,6.57,0,0,0-1.15.91c-.51.66-.71,1.55-1.2,2.17,0,.74-.85.92-1.14,1.52,0,.28-.06.77.09,1"/><path class="cls-10" d="M89.44,21.36a19.15,19.15,0,0,0,3.47,1.12c.19,0,.39.2.56.08l-.26-.2c-1.51-.63-2.86-1.67-4.47-2a5,5,0,0,0-1.9-.17c-.64.1-1.2.36-1.8.48.37.26.62.72,1.06.87a9.29,9.29,0,0,0,4.22,1.73c.32,0,.58.28.9.2a9.91,9.91,0,0,1,2.65,1.1c.69,0,1.57.06,2.26.08a2.82,2.82,0,0,0-2.42-1.32c-.3-.09-.52.34-.68,0,0-.33.5,0,.55-.24A18.47,18.47,0,0,0,91,22.39c-.69-.15-2.38-1.07-3-1.28-.24-.14-.86-.07-.89-.38a4.5,4.5,0,0,1,2.4.63"/><path class="cls-10" d="M63.77,23.42c1.22-.49,1.51-1.75,1.92-2.83-.16-.24-.47-.1-.7-.24l-.81-.06c-.64-.2-1.28.23-2,.13-1.6.19-2,2.06-3.44,2.48-.82.69-2,.83-2.77,1.47l.06.08a17.19,17.19,0,0,1,3.27-.86c1-.21,1.39-1.28,2.07-1.89l.09.06c.08.25-.17.34-.29.55s-.4.4-.4.65c0,0,2.81-1.54,3.64-1.85.09,0,.11.13.14.21-.51.3-2.69,1.39-3.29,1.84a14.18,14.18,0,0,1-3.34,1.14,13.26,13.26,0,0,1-2.27.52,4,4,0,0,0-1.48.75,13.47,13.47,0,0,0,2,0A37.81,37.81,0,0,1,60.42,25c1.13,0,1.65-1.08,2.73-1.32a1.2,1.2,0,0,1,.62-.25"/><path class="cls-10" d="M51.77,22.56l-.05-.08a2.58,2.58,0,0,0-.66.62c-.09.42-.5.81-.4,1.23a2.33,2.33,0,0,0,.92-.42Z"/><path class="cls-10" d="M102.17,25.28c-.75-1.2-2.06-1.58-3.11-2.53h-.33a4.11,4.11,0,0,0,.89,2.09,2,2,0,0,0,.43,1c.11.48.53.89.58,1.4a5.12,5.12,0,0,1,.71,1.26c1.37,1.11,1.83,2.71,3.2,3.83A4.88,4.88,0,0,1,106.17,34c.11-.06,0-.17.14-.26s.35.2.53.31.13.11.15,0a5.85,5.85,0,0,0-1.51-1.49,40.08,40.08,0,0,0-6-8.26l.14-.17a27.64,27.64,0,0,1,2.69,2.6c.71.78,1.24,1.72,1.83,2.5,0-.06.11-.12,0-.15a18.14,18.14,0,0,0-.27-2.41c-.43-.7-1.29-.7-1.72-1.39"/><path class="cls-10" d="M104.35,27.06l.07.1a6.7,6.7,0,0,0,.73,1.66c.27.35.17.74.5,1a8.35,8.35,0,0,0,1.95,3.58c1.08,1,1.15,2.71,2.57,3.56l0-.05a5.67,5.67,0,0,0-.67-2.06,19.94,19.94,0,0,0-1.92-2.46l.16-.11c.16,0,.18.17.32.17.13-1.2-2.81-4-2.51-5.2a5.93,5.93,0,0,1-.92-2.83c-.14-.12,0-.46-.31-.35-.38,1,.12,1.92,0,3"/><path class="cls-10" d="M50.21,28.22c-1.46.41-1.86,2.09-2.67,3-.33.54-2.47,4.05-2.74,5.3a5.85,5.85,0,0,0-.18,2l.06.15a4.67,4.67,0,0,0,.52-1c.12-.19,0-.45.2-.58,0-2,1.77-3.48,2.92-4.89,1-.65,1.49-2,2.21-2.87a4.17,4.17,0,0,0,1.34-3.11c0-.43-.24-.88,0-1.26-.07-.48-.48-.31-.75-.14a2.77,2.77,0,0,0-1.75.95c-.65.37-.82,1.05-1.25,1.59,0,.35-.29.54-.33.86A6.55,6.55,0,0,0,46.28,31a8.73,8.73,0,0,0-.5,2.18H46c.42-.78,2.44-3.94,2.83-4.73a7.45,7.45,0,0,1,1.8-2.11l.11.09c-.22.54-.71.95-1,1.45v.27l.26-.07c.23-.2.51-.51.77-.51,0,.29-.34.37-.54.66"/><path class="cls-10" d="M105.76,26.93c0-.25-.11-.46.15-.63l.17.12c-.11.58-.28,1.35.26,1.8a31,31,0,0,0,1.73,2.91c.14-.22,0-.59.14-.82.33.15.06.6.11.88a4,4,0,0,0,.36,1.46c.12.49,1.41,2.26,1.43,2.81.26.14-.08.88.32.57a6.71,6.71,0,0,0-.37-2.58,18.14,18.14,0,0,0-1.49-4c0-.22-.09-.19-.28-.49a11.47,11.47,0,0,1-2.23-3.29c-.41-.28-.55-.74-1-1a2.9,2.9,0,0,0,.28,1.4,2.9,2.9,0,0,0,.42.85"/><path class="cls-10" d="M41.14,39a1.06,1.06,0,0,0,0-.44c.13-1,.54-3.1.6-3.46a10.87,10.87,0,0,1,.68-1.47c.46-.87.59-1.42.91-1.93.06-.28.29-.52.35-.8a4.43,4.43,0,0,0,.75-2.49c.1-.25-.09-.7.16-.82.34.45-.06,1,.09,1.52,0,0,.54-1,.66-1.38a11.84,11.84,0,0,1,.6-1.71s.14,0,.17,0a7.76,7.76,0,0,1-.4,1.47c0,.83-.6,1.05-.72,1.67a12.67,12.67,0,0,0-.84,1.64,15.41,15.41,0,0,0-.72,1.67c-.31.6-.63,1.26-.93,1.78-.12.55-.35.94-.48,1.6,0,.15-.43,2-.51,3,1-.65.94-1.91,1.45-2.85s.86-2,1.21-3c.2-.73.51-1.34.73-2.08.7-.75.7-1.81,1.34-2.58,0-.43.2-.74.2-1.14.27-.53-.2-1,0-1.55l-.17-.66c-.35.09-.35.7-.67,1A11.49,11.49,0,0,0,43,30.08a8.75,8.75,0,0,0-1.63,2.28,9.35,9.35,0,0,0-1,3.58c-.09,1.09.5,2,.64,3Z"/><path class="cls-10" d="M91.22,25.7l.25.29c.65.29,1.11,1,1.83,1a4.77,4.77,0,0,0,2.89.39L96.13,27a32.7,32.7,0,0,0-3.25-1.32c.48-.28,2.19.27,2.6.6l.17-.05c.17-.31-.32-.28-.32-.6.11-.61.92,0,1-.55a12.81,12.81,0,0,0-1.85-.23c-1.21-.08-2.23.55-3.29.83"/><path class="cls-10" d="M55.46,26.88c-.05.08,0,.2.06.22l1.35.06c1.29-.1,2.69-.43,3.31-1.63-1.74,0-3.29.63-5,.38-.9.17-2,0-2.53.8l.15.14a16.62,16.62,0,0,1,5.57-.47c-.65.41-1.48.09-2.16.29.23.7-.47,0-.73.21"/><path class="cls-10" d="M102,31.54a2.61,2.61,0,0,0,.92,1.17,38.78,38.78,0,0,1,3.25,3.21,1,1,0,0,0,.08-.63,9.91,9.91,0,0,0-2.7-3.29,29.15,29.15,0,0,0-2.24-2.87c-.8-1-1.06-2.32-2-3.22-1-.54-2.09-.24-3.15-.12a1.4,1.4,0,0,0,.34.74c0,.6.46,1,.43,1.61a6.24,6.24,0,0,0,1.29,2.66c.31.13.51.42.79.57a9.17,9.17,0,0,1,2.33,2.71c.39.4.63,1,1.13,1.24.9,1.14,2.47,1.43,3.67,2.2l.11,0c.09-1.46-1.51-1.81-2.45-2.37a1.28,1.28,0,0,1,.94.05A7.08,7.08,0,0,0,103,33.64a14.27,14.27,0,0,1-2.39-3.1c-.41-.67-1.29-1.63-.86-1.21a12.44,12.44,0,0,0-2.84-3.08.25.25,0,0,1,.32-.11,6.86,6.86,0,0,1,2.61,2.41c.66.76,1.53,2.53,1.59,2.47a1.28,1.28,0,0,1-.26-.85h.12c0,.17.26.26.17.46a3,3,0,0,0,.55.91"/><path class="cls-10" d="M44.57,33.12c1.52-.89,1.12-2.81,2.07-4,.82-.92,1.07-2.08,1.79-3l0,0c-1.64.42-1.6,2.43-2.49,3.54a22.06,22.06,0,0,0-1.35,3.53"/><path class="cls-10" d="M50.56,30c-1,2.06-3.21,3.49-4.31,5.5-.06.57-.47,1-.33,1.53l.14,0,.86-1c.22-.25,1.77-1.86,1.77-1.86.48-.44,0-1.37.57-1.74.17.19-.09.42.05.66l.26-.28c.39-1,2.72-2.82,3.58-4.18.09,0,.09.11.12.17a1.78,1.78,0,0,0-.37.71,4.53,4.53,0,0,0,1.28-.79c.15.05,0,.11,0,.19-1,.88-3.52,2.64-3.39,2.81a17.17,17.17,0,0,1-1.29,1.57,7.11,7.11,0,0,1-1.32,1.85c-.82,1.21-2.48,2-2.86,3.44,1.89-.94,3-2.81,4.58-4.06a4.22,4.22,0,0,1,1.43-1.58c1-1.48,3.26-2.08,3.46-4.09-.05-.54.06-1.17,0-1.74a3.85,3.85,0,0,0-2.66.66c-.34.86-1.18,1.49-1.62,2.28"/><path class="cls-10" d="M104.37,28.57a7.16,7.16,0,0,0,1,3.17,8.5,8.5,0,0,0,1.33,1.35l-.06-.18a7.38,7.38,0,0,1-1.27-2.28,11.44,11.44,0,0,0-1-2.06"/><path class="cls-10" d="M43.6,35.48a2.93,2.93,0,0,0-.43,1.36A9.05,9.05,0,0,1,45,34.6a1.9,1.9,0,0,0,.54-1.83,11,11,0,0,0-1.91,2.71"/><path class="cls-10" d="M107.3,33.72l-.1.19c.46.46.43,1.17,1.09,1.49a3.08,3.08,0,0,0-1-1.68"/><path class="cls-10" d="M106.8,34.63a7.16,7.16,0,0,0,0,3.29c.24.5.54,1.09.85,1.63.85,1.23.88,2.86,1.26,4.32,0,.37.37.63.37,1a3,3,0,0,1,.77,1.46c0,.5.19.89.22,1.35.15.25,0,.51.18.72a6.77,6.77,0,0,0,1,2.69c.27,0,.22-.34.42-.5,0-.1,0-.31-.2-.31a3.53,3.53,0,0,1-.74-1.71c-.48-1.24-.41-2.5-1-4.92-1.41-2.51-2.09-6.89-2.75-7.61,0,0,.09-.09.15-.06a9.22,9.22,0,0,1,1.85,4.15c.38-.31.35.16.21,1.34.17.48.84,1.72.84,1.72a5.16,5.16,0,0,1,.24,1.08c.26.21,0,.69.4.77.09-.34-.08-.82.11-1.1.24.31.15.67.09,1.1a7.55,7.55,0,0,0-.15,1.89s.15,1.09.3,1.64a5.07,5.07,0,0,0,.8,1.65c.2-.07,0-.43.14-.55.14-1.44-1-2.51-.57-4,.13-1.76-.83-3.23-.77-5-.21-.71.16-1.63-.35-2.25a17,17,0,0,0-3.66-3.78"/><path class="cls-10" d="M103.05,37a2,2,0,0,0-.91-1.14c-.14-.56-1.21-1.48-1.73-2-.17.24.31,1.46.34,1.71a3,3,0,0,0,2.3,1.43"/><path class="cls-10" d="M47.94,38.35c.26.33.55-.32.92-.26,1.23-.52,1.26-2,1.17-3.14h-.17a18.23,18.23,0,0,0-1.94,2.11v.25c0,.12,0,.38.2.35.29-.35.65-.8,1-1.17.28.17.42-.49.72-.28-.42.9-1.52,1.24-1.87,2.14"/><path class="cls-10" d="M111.21,40.43a4.64,4.64,0,0,0,.22,1.51c-.11.52.32.83.28,1.35.72,1.4-.17,3.15.61,4.52.4.85.09,2,.37,2.93h.09c.06-.69.71-1.25.42-2,.27-.95-.31-2.35-.16-2.35-.4-1-.26-2.32-1.12-3.18V43h.14a2,2,0,0,0,.58.65c0-.62-.09-1.58,0-2,0-.17-.4-2-.35-2a10.22,10.22,0,0,1-.49-1.63c-.42-.9.38-2-.48-2.74-.66.62-.57,1.62-.57,2.51a4.48,4.48,0,0,1,.46,2.6"/><path class="cls-10" d="M113,40.66c.31,1.55-.09,3.18.13,4.23,0,.21.11.49.26.46a3.48,3.48,0,0,1,.49-1.26c.08,0,.13-.09.19.07a5.75,5.75,0,0,0-.51,2.39c.26.49.06,1.23.18,1.78A4.06,4.06,0,0,0,115,45c0-.31-.24-.5-.15-.84-.25-.38-.18-.9-.48-1.21-.8-1.31-.38-3.11-1-4.46a6.86,6.86,0,0,0-1.12-2.06l-.22-.11a5.55,5.55,0,0,0,.46,2.8,6.4,6.4,0,0,1,.49,1.54"/><path class="cls-10" d="M40.33,53.76c.12-.11,0-.29.12-.41.07-.88.07-2.77.07-2.77,0-.53-.07-1.94-.07-1.94l.09-.08c-.09-1,.58-3.38.83-3.26a5.2,5.2,0,0,0,.43-2.75,19.28,19.28,0,0,0,.51-3.26h.12c.22.12,0,.35,0,.46.32-.09.23-.6.6-.72.05.06,0,.15,0,.21a8.37,8.37,0,0,0-.6,1.68A30.36,30.36,0,0,1,42,44.78c.23,0-.63,1.85-.92,2.69a9.94,9.94,0,0,0-.19,1.82c.13.37,0,.82.08,1.15.4-.42.21-1.12.6-1.57A7.73,7.73,0,0,1,42,47.12c1-1.54.8-3.54,1.48-5.2-.06-.28.21-.46.29-.69.11-.54.34-1,.41-1.62-.07-1,.08-2.09,0-3.12l-.05,0a13.44,13.44,0,0,0-2.53,3.23c-1.22,1.8-.68,4.09-1.46,6.09a11.92,11.92,0,0,0-.45,4.27,13.18,13.18,0,0,0-.41,2.6,5.33,5.33,0,0,1,1,1.11"/><path class="cls-10" d="M107.54,43.81c0,.19.61,1.1.84,1.72a7.18,7.18,0,0,0-.06-2.13,10.37,10.37,0,0,0-1-3.59c-.52-1.63-2.12-2.29-3.47-3l-.08.13c.45,1.07.26,2.27.68,3.26a4.92,4.92,0,0,0,1.29,2.13c0,.49.57.65.76,1.08a2.92,2.92,0,0,0,.16.78,10,10,0,0,0,.94,1.45A3.91,3.91,0,0,0,109,48.22s.1,0,.16-.07c-.14-.46-4-8.85-4.54-10.11A8.83,8.83,0,0,1,106.52,41a14.06,14.06,0,0,1,.5,1.37c.46.49,0-.41.42-.43.14.58,0,1.34.1,1.89"/><path class="cls-10" d="M37.68,51.62c.43.09.06-.41.31-.52l0-2.72c.14-.71.1-1.65.25-2.26a4.54,4.54,0,0,0,.31-1.6,16.55,16.55,0,0,0,.11-2.07,7.93,7.93,0,0,1,.21-1.87c.25-.46.32-1.06.77-1.34.15.24-.13.57-.11.88A3.07,3.07,0,0,0,39.2,42c.35,0,.31-.39.58-.57s.1-.65.38-.88c.06,0,.15,0,.2,0a4.39,4.39,0,0,1-.51,1.26c-.92.69-.57,1.92-.8,3a3.82,3.82,0,0,0-.08,1,4.15,4.15,0,0,0-.33,2,12.41,12.41,0,0,1-.45,4.34c.09.72.27,1.45.37,2.16.29.2,0,.66.35.86.32-.24.23-.7.25-1.11,0-.22-.25-.49-.08-.69a3.83,3.83,0,0,1-.17-2c.11-.49.2-1,.35-1.44L39.2,47.5c-.29-.57.45-.89.35-1.47.93-1.48.28-3.51,1.05-5.05A6.89,6.89,0,0,0,40,37.37l-1.29,1.84a5.25,5.25,0,0,1-.54,1.25c0,.41-.09.67-.08,1a16.26,16.26,0,0,1-.6,2.5,10.94,10.94,0,0,0-1.1,4.14c.13.74,0,1.6.55,2.2,0,.54.55.79.72,1.29"/><path class="cls-10" d="M38.7,42.44h0"/><path class="cls-10" d="M43.42,43.64A17.27,17.27,0,0,1,43,45.9a35.24,35.24,0,0,0-1.52,4.66,10.18,10.18,0,0,0-.55,2.75h.12c.14-.06.12-.29.17-.41.22-.09,0-.41.2-.49a28.28,28.28,0,0,1,1.26-3.59,6.68,6.68,0,0,1,.51-1.49A14.18,14.18,0,0,0,44,44.7a1.49,1.49,0,0,0,.29-.8,4.48,4.48,0,0,0,.36-2.44c.08-.26,0-.59.14-.83.2.29,0,.78.15,1.06.69-.77.81-2,1.63-2.68l.09.05c-.38.52-.47,1.12-.94,1.57-.17.73-.63,1.29-.76,2,.06.33,0,.38-.11.94-.38,1-.51,1.89-.9,2.74a15.77,15.77,0,0,1-1.12,3c.06.31-.63,1.55-.52,1.89a13.36,13.36,0,0,0,2.13-2.68c.24-.47-.06-1,0-1.46.78-.58.93-1.34,1.37-2.07a11.57,11.57,0,0,0,1.73-7l-.13-.22c-1.84.54-2.78,2.4-3.5,4,0,.38-.46.75-.28,1.18-.24.14-.11.45-.24.69"/><path class="cls-10" d="M111.15,51.75v-.28a3.7,3.7,0,0,1-.78-1.81,13,13,0,0,1-.71-3.34,6.88,6.88,0,0,0-1-1.77l-.08.28c0,1.46,1,2.46,1,3.9.29.76.65,1.46.94,2.2.17.28.37.78.69.82"/><path class="cls-10" d="M108.71,49.53c.06-.07,1.45,2.39,2,3.19l.17-.33c-.26-.68-.75-1.27-.94-2-.28,0,0-.42-.26-.45-.32-1.3-1.79-1.75-2.71-2.41a3.24,3.24,0,0,0,.07,1l0,.08a9.44,9.44,0,0,0,.37,1.35,38.05,38.05,0,0,1,2.94,4l.06,0c.47-.62,0-1.16-.39-1.64A8.93,8.93,0,0,0,108,50c-.08-.1-.2-.26,0-.32.22.22.51.6.8.63a6.26,6.26,0,0,0-1.38-1.89l.11-.08a5.19,5.19,0,0,1,1.23,1.17"/><path class="cls-10" d="M114.38,54.51a6,6,0,0,0,.59-1.38,5.61,5.61,0,0,0-.31-4.11c-.16-.2,0-.66-.31-.66a9.78,9.78,0,0,0-1.18,2.88c-.19.88.38,1.73.67,2.54.16-.36-.06-.76-.06-1.13a1.7,1.7,0,0,1,.09-.66,8.11,8.11,0,0,1,.37-2.6c.26.45-.08,3-.08,3.74.34.06,0-.61.39-.48,0,.6-.63,1.26-.17,1.86"/><path class="cls-10" d="M44.82,48.69c-.41.36-.38,1-.82,1.36-.66.14-.48,1.05-1.22,1.13,0,.38-.5.48-.47.81.09.16.17.34.34.34.46-.09.72-.65.83-.71-.06-.23.24-.23.3-.44s.22-.79.51-1c.2.51-.31,1.14-.51,1.65l-.77.84a.6.6,0,0,0,.16.51c.31-.16,1.34-.92,1.18-1.35a5.73,5.73,0,0,0,.47-3.12"/><path class="cls-10" d="M37.48,56.25l.06,0c-.09-.26.06-.57-.21-.78a3.15,3.15,0,0,0-.92-1.54c.3-.53-.1-1.09-.16-1.64,0-.12.06-.25.2-.19.35.39.12,1.26.71,1.45.11-.16-.09-.53.2-.57s.12.26.18.41c-.3.44-.06,1,.08,1.47s.32.75.18,1.07c.31.57.31,1.25.7,1.77l.2.06v-1.6c-.06-.12-.16-.29-.08-.44a8.86,8.86,0,0,1-.68-2.36,6.65,6.65,0,0,0-.87-1.87c-.5-.4-.5-1-.91-1.52l-.34.92c0,.11.09.4-.09.52a7.06,7.06,0,0,0-.08,2.06,3.7,3.7,0,0,0,1.83,2.83"/><path class="cls-10" d="M113.09,53a5.23,5.23,0,0,1-.62-1.76l-.15-.42c-.26,0-.31.42-.49.6a5.89,5.89,0,0,0-1,2.3c-.18.88-.18,2-.27,2.85a9.31,9.31,0,0,1-.62,3.28c-.35.36-.28.92-.44,1.38-.53,1.25.16,2.72-.22,4.09,0,.31-.23.56-.09.88a1.55,1.55,0,0,0,1-.63c0-.08,0-.17-.09-.22a10.27,10.27,0,0,0-.28-3c.28,0,.37.52.45.64a9.32,9.32,0,0,0,.47-1.38c.27-1,.35-1.56.49-2.09.14-1,.49-4.26.56-6,.23-.38,0-1.1.38-1.3a26.83,26.83,0,0,1-.29,5.69c.32,0,.43-.54.75-.69l0,0a9.9,9.9,0,0,1-.78,1.35c-.26.43-.09,1.06-.43,1.43a26.35,26.35,0,0,1-.77,3.31c0,.75-.42,1.75.28,2l.15-.21a14.57,14.57,0,0,1,1.37-3.88,40.67,40.67,0,0,1,.71-4.35c.58-1.25.12-2.75-.11-3.91"/><path class="cls-10" d="M41.43,55.24l0-.25c.09-.09.2-.28.37-.2,0-.44.23-.76.18-1.16s.34-1,0-1.24a3.74,3.74,0,0,0-.67,2.85Z"/><path class="cls-10" d="M110.06,54.57a8.14,8.14,0,0,0-1-1.82c-.52.69-1.32,1.28-1.55,2.13a6.29,6.29,0,0,0-.53,3.29,12.5,12.5,0,0,1,.16,2.85c.06,1.06-.14,2.28-.09,3.43a5,5,0,0,1,.42,1.52c.07.6-.24,1.23,0,1.8.31-.26,0-.82.22-1.2s0-.77.21-1a10.91,10.91,0,0,0-.55-2.32l.05-.11.17.14c.09.23.15.64.43.58a13.5,13.5,0,0,1,0-3c.2-.78.41-2.73.36-2,0,0,.52-3.54.67-4.69a1.57,1.57,0,0,1,.21,1.17,1.2,1.2,0,0,1,0,.33c-.07.87-.21,1.42-.23,2.17-.08.41-.38.79-.11,1l.11-.06c.18-.17.23-.68.52-.65a15.31,15.31,0,0,1-1,1.94c-.06.34-.22,2.69-.22,3.5a25.73,25.73,0,0,0-.14,3.42l.2-.17a18.44,18.44,0,0,0,.47-2.35,9.09,9.09,0,0,1,.64-4.91,12.89,12.89,0,0,0,.54-5"/><path class="cls-10" d="M44.42,65.2a17.58,17.58,0,0,1-.79-4c-.29-1.7-.92-3.32-1.06-5.12,0-.09.12-.06.21-.06A3.18,3.18,0,0,0,43,57a2,2,0,0,0,.28-.42.25.25,0,0,1,.11.19,3,3,0,0,0,0,2.2,2.21,2.21,0,0,0,.32.83A11.14,11.14,0,0,0,44.11,62c.26.3,0,.71.3.94a6.42,6.42,0,0,0,.48,2.23c.08.26-.07.48.13.68a5.34,5.34,0,0,0,.56,2.2c.17.07.08.53.34.29.27-.68-.38-1.14-.23-1.71a15.51,15.51,0,0,1-.37-2.6A12.74,12.74,0,0,0,45,59.34a6.61,6.61,0,0,1-.5-1.52c-.55-1-.41-2.34-1.15-3.31a3.74,3.74,0,0,1-.4-1c-.16-.06-.29-.46-.49-.22,0,.41-.22.75-.17,1.16a6.75,6.75,0,0,0-.66,3.7l.12.1c-.15.43.35.58.18,1a12.43,12.43,0,0,1,1,3c.17,1.11.94,2,.86,3.18.2.1.08.37.25.51a4.64,4.64,0,0,0,.86,2.21,4.78,4.78,0,0,0,1,1.65c.08-.14,0-.43.06-.6-1.33-1-1.59-4-1.59-4"/><path class="cls-10" d="M116.09,56.2l-.13-.26c0-.89-.47-1.75-.44-2.66-.42.29-.42.94-.72,1.39a11.9,11.9,0,0,0-1.71,5.78c0,.49-.37,1,.06,1.4.14.18,0,.53.14.66l.17-.56c.23-1.19.66-1.5.66-1.5.15-.33,0-.4.19-.91.12-1.24.58-2.41.7-3.63l.23-.28.14.19c-.18,2.85-1,4.42-.91,4.8a9.38,9.38,0,0,1,1-.77c.11,0,.11.11.11.17a11.09,11.09,0,0,0-1.37,1.21A28.91,28.91,0,0,0,113,63.92c.19.22-.43,1.19-.52,1.79a5.72,5.72,0,0,1-.92,2.06,7.64,7.64,0,0,1-1.26,2.15c-.12,0-.14.21-.09.31,1.24-.92,1.38-2.46,2.53-3.43a26.47,26.47,0,0,1,1.64-3.44c.1-.31.35-.54.44-.85a12.08,12.08,0,0,0,1.49-4.89,11.78,11.78,0,0,1-.26-1.42"/><path class="cls-10" d="M39.85,61.7c.29.46.37,1,.6,1.44a16.51,16.51,0,0,1,1.2,3.2,3.77,3.77,0,0,0,.4,1.23c.09.55.66.63,1.12.78l.08-.17c-.56-1-1.37-2.84-1.13-3a15.11,15.11,0,0,1-1.06-3c-.12-.08-.32-1-.17-.63A8.51,8.51,0,0,1,40.63,60C40.6,59,40,58.11,40,57.1c0-.05.16,0,.22.11-.11.56.35.87.38,1.36.09,0,.17-.07.25-.09.15.9.19,1.75.37,2.68a9.84,9.84,0,0,0,.52,2.09,5.21,5.21,0,0,1,.4,1.08c.4.41.14,1.1.83,1.21a2.78,2.78,0,0,0,0,.91c.45.64.11,1.63,1,2.13l.73.33c.18,0,.09-.28,0-.3A25.08,25.08,0,0,1,43.6,66c-.18-.19.06-.57-.23-.68-.12-.53,0-1.13-.4-1.52a2.2,2.2,0,0,1-.28-1c-.32-.36-.29-.91-.44-1.4a5.89,5.89,0,0,0-.34-1c.09-.4-.29-.6-.32-.94A13.81,13.81,0,0,1,41.06,57a16.16,16.16,0,0,0-1.31-3.24,3.48,3.48,0,0,0-.35,1.46,11.51,11.51,0,0,0,.45,6.46"/><path class="cls-10" d="M41.06,67.88c.09-.25-.17-.4-.29-.53-.35-.84-1.12-1.89-1.09-2-.45-.52-.75-1.28-1.2-1.82-.14-.84-.86-1.41-1.29-2.13,0-.46.38,0,.57-.09a13.78,13.78,0,0,0-.43-2.3c-.26-.53-.42-1.13-.67-1.64-.09-.31-.53-.69-.33-1a3.18,3.18,0,0,1,.77,1.29c.32.4.32,1,.66,1.32.28-.16.35,2.11.74,3.4a3.15,3.15,0,0,0,.55.93A17.23,17.23,0,0,1,40.94,67c.68.5.34,1.45,1.15,1.9.19-.33-.21-.62-.33-.91a16.65,16.65,0,0,0-.53-1.6,11.63,11.63,0,0,0-1-2.75c-.17-.57-.54-1.08-.73-1.65-.41-1.09-.56-2.29-.93-3.38-.08-.38-.52-.54-.52-1-.62-.92-1.59-1.54-2.28-2.41a8.41,8.41,0,0,0,.46,5.1c-.09.52.4.91.23,1.36.4.35,0,1,.46,1.35a6.09,6.09,0,0,0,4.15,4.83"/><path class="cls-10" d="M106,61.05l-.8,1.38a5.8,5.8,0,0,0,.34,4,1.28,1.28,0,0,0,.06-1.31,6.39,6.39,0,0,1,0-1.75,11.81,11.81,0,0,1,0-1.19c.25,0,.42.45.45,1A5.35,5.35,0,0,0,106,65c.08.15.2.33.37.27.06-.29-.12-.64.16-.81V63.22c-.07-.11-.19-.29,0-.43a8,8,0,0,0-.46-1.74"/><path class="cls-10" d="M111.24,67.48l.05.06c.34-.28.42-.86.6-1.31.14-1.51,1.37-2.75.93-4.35a3,3,0,0,0-.5.89,16.42,16.42,0,0,0-1.08,4.71"/><path class="cls-10" d="M46.36,67.09a1,1,0,0,0,.28-.54c.22-.58-.14-.49-.13-1.47-.06-.32-.26-.75,0-.94a3.51,3.51,0,0,1,.35,1.29,4.87,4.87,0,0,0,.31,1.08,1.07,1.07,0,0,0-.34,1.09c.17.2.4.6.71.46l0-.49a9.14,9.14,0,0,0-1.09-4.15c-.26,0-.34.41-.29.64-.44.63-.26,1.27-.26,2,.29.26.05.86.46,1"/><path class="cls-10" d="M113.2,67.14c-.16.4-.71.66-.77,1.12a14.1,14.1,0,0,1-1.4,1.83l.07.09.14-.05a3.51,3.51,0,0,0,1.25,0,6.64,6.64,0,0,1,.94-1.52,4.6,4.6,0,0,0,.95-3.84,15.63,15.63,0,0,0-1.18,2.35"/><path class="cls-10" d="M109.05,71.09c.41-.83,1.1-1.52,1.47-2.37s.17-1.86.11-2.87c-1.88.58-3,2.56-3.79,4.16-.06.59-.62,1-.41,1.68l.14,0c.27-.55,1.45-1.92,2.23-3.27.29-.54.41-1.42,1.12-1.65,0,.46-.79,1.69-.91,2.37a19.44,19.44,0,0,0-1.23,1.72c.31.21.57-.46,1-.24a3.92,3.92,0,0,1-.64.41,5.58,5.58,0,0,0-2.37,2.51c.17-.09-.8.8-1.29,1.48-.23.26.26.17.18.44a3.79,3.79,0,0,0-2.1,1.37c.27.17.64-.12,1-.12,2.42-1,3.53-3.82,5.53-5.57"/><path class="cls-10" d="M41.08,70.69a17.2,17.2,0,0,1-1.66-2.08c.07-.73.33.33.63.2l-.12-.4c.07-.09.14-.06.23-.06a3.35,3.35,0,0,0,.47,1.08c.39.92,1.45,1.49,2.15,2.26l0,0a.3.3,0,0,0-.14-.35c.11-.35-.21-.55-.12-.87a9.74,9.74,0,0,0-1.66-2A7.87,7.87,0,0,1,38,66.48a.62.62,0,0,0,.06.58,6.19,6.19,0,0,0,.88,2.77c.93,1,1.83,2.11,3.21,2.17-.38-.53-1-1.31-1-1.31"/><path class="cls-10" d="M106.75,67.69c-.18-.4-.09-1-.47-1.21a9.07,9.07,0,0,0-1.54,1.38,35.47,35.47,0,0,0-2.46,4.2c-.59.59-.59,1.62-.74,2.86a2,2,0,0,0,0,1.06c.26-.54.9-.84.9-1.51.21-.79.59-2,.59-2l.76-1.46a3.15,3.15,0,0,1,.65-1c.29-.55,1.6-2.75,1.6-2.75s.14,0,.22.11c-1.17,3-2,3.17-2.39,4.29,0,.25-1,1.69-.84,2.46.23,0,.49-.29.73-.47l.11.09a3.47,3.47,0,0,1-.69.69c-.52,1.09-2,1.81-2,3.1.93-.55,1.46-1.69,2.24-2.47a37.15,37.15,0,0,1,2.74-4.43,7.28,7.28,0,0,0,.58-2.94"/><path class="cls-10" d="M47.23,72.14a25.29,25.29,0,0,0,2.32,3.17c.8.91,1.51,2,2.2,2.93.14.17.29.46.5.35v-.12c-.44-2.06-2.22-3.35-3.33-5.07-.17-.37-.37-.56-.26-.74-.23-.77-.69-1.43-.9-2.21-.07-.25-.56-.44-.35-.73.11,0,.2.11.3.17.26.53.66,1.13.95,1.72.24-.29-.31-.8.15-1,0,.46.18,1,.18,1.37a6.36,6.36,0,0,0,.7,1.83,14.52,14.52,0,0,1,1.06,1.27c.4.25.44.72.78,1,0,.05.19.09.22,0s0-.14,0-.2c-.28-.21,0-.64-.19-.87a.28.28,0,0,0-.12-.45A9.19,9.19,0,0,0,51,73.15l-1-1.21c-1.16-1.45-1.71-3.22-3.58-4-.33.43.07,1-.06,1.44a8.48,8.48,0,0,0,.87,2.76"/><path class="cls-10" d="M50.75,75.1l-.06,0,.06,0"/><path class="cls-10" d="M43.37,71.2A3.13,3.13,0,0,0,44.23,73c.76.39,1.23,1.28,2,1.8s1,1.12,1.64,1.48a5.26,5.26,0,0,0,3.53,2.12c0-.37-.5-.49-.61-.85-1.18-.93-3.24-2.25-3.24-2.25-.46-.59-1.2-1.74-1.68-2.39s-1.2-1-1.68-1.48l.05-.1a5.54,5.54,0,0,0,1.12.66c-.23-.71-.88-1.14-1.27-1.82l.1-.05c.7.27.9,1.19,1.45,1.65,0,0,1.06,1.46,1.43,2,.32.2.29.38.51.52a4.31,4.31,0,0,0,2,1.8c-.54-1-1.35-1.8-2-2.72C47,72.6,46.64,71.8,46.11,71c-.21,0-.45-.15-.39-.47a3.44,3.44,0,0,0-1.67-1.46c-.33-.42-.85-.14-1.27-.36a1,1,0,0,0,.16.88c.23.52,0,1.21.43,1.63"/><path class="cls-10" d="M104.22,74.7a5.58,5.58,0,0,0,1.69-2.7h-.15a24.05,24.05,0,0,0-1.39,2.12c-.09.17-.34.41-.15.58"/><path class="cls-10" d="M47.29,79.44a4.38,4.38,0,0,0,3,1.18c.06-.33-.23-.58-.43-.86a16,16,0,0,1-2.74-1.17l.17-.2c-.9-.77-1.57-1.93-2.52-2.6-.45-.59-1.2-.56-1.69-1.07a.22.22,0,0,1,.2-.11c.24.11.46.33.67.28-.43-.65-1.15-.6-1.55-1.32l0,0a8.47,8.47,0,0,1,2.18,1.6.31.31,0,0,0,.48-.06l.44,1A11.88,11.88,0,0,0,48.75,79c.34,0,.59.35.91.18,0-.11.06-.35,0-.46-1.59-1.63-3.21-2.91-4.79-4.58a5,5,0,0,0-1.71-1.2,4.2,4.2,0,0,0-1.79-.61c-.35.09-.63-.47-.9,0a8.54,8.54,0,0,0,1.72,2.6c.92,1,2.4,1.09,3.18,2.37.84.58,1,1.72,2,2.18"/><path class="cls-10" d="M100.93,73.21a8.26,8.26,0,0,0-3.33,4c-1.32,2.12-3.3,3.81-4.36,6.06-.08.3-.44.58-.36.86A15.12,15.12,0,0,0,95,82.5c.48-.44.63-.51,1-.86a36.76,36.76,0,0,0,2.79-3.49l.64-1.63c.21-.93.47-2.08,1.24-2.43.06,0,0,.11,0,.17A6,6,0,0,0,99.56,77a5.81,5.81,0,0,1-1.4,2.74c.2.12.34-.19.57-.14,1-.8,2.35-1.31,2.11-2.81a9.15,9.15,0,0,0,.35-2.34c-.15-.37.21-1-.26-1.19"/><path class="cls-10" d="M52.9,78.75a15.26,15.26,0,0,1,3.17,2.84,6.09,6.09,0,0,1,1.14.86c.15.3.63.42.72.76l.89.87a2.74,2.74,0,0,0,1.1.56A8.48,8.48,0,0,0,58.63,83c-.39-.07-.7-.41-1-.6.11-.11.31-.32.13-.5-.77-.59-1.34-1.42-2.06-2-.42-.06-1.52-1.52-1.92-2,0-.14-.3-.34-.15-.52.53.21.71.86,1.16,1.12.18-.2,0-.51,0-.8,0-.11-.06-.32.12-.32.26.3.23.83.31,1.24.25.82.92,1.24,1.46,1.89a14,14,0,0,1,1.63,1.64c0-.26.14-.28.26-.53a13,13,0,0,0-2.66-3.18,7.44,7.44,0,0,0-1.18-1.78c-.77-.59-1.54-1.49-2.62-1.6-.3.72.33,1.26.3,2a2.66,2.66,0,0,0,.53,1.74"/><path class="cls-10" d="M107.88,76.41c-.72.71-1.54,1.43-2.34,2.18l0,0c1.07-.72,2-1.57,3.19-2.23l.11.09a4.74,4.74,0,0,1-1.17.94c-.12.06,0,.29-.21.26-.73.14-.76,1-1.51,1.11,0,.06,0,.15.09.17,1.81-.09,3.11-1.63,3.77-3.17l-.08-.06a17.91,17.91,0,0,1-1.87.66"/><path class="cls-10" d="M103.91,77.67c.14,0,.28-.17.44-.32s.3-.48.19-.75l-.35.32c0,.29-.34.49-.28.75"/><path class="cls-10" d="M95.62,79.22a4.39,4.39,0,0,0,.4-1.55c-.29,0-.35.41-.58.54,0,.45-.48.69-.28,1.18-.6.82-1.45,1.4-1.52,2.4.49-.89,1.41-1.72,2-2.57"/><path class="cls-10" d="M51,81.39c-.19-.37-.64-.33-1-.33-1.19-.36-2.4-.42-3.63-.7,0-.26.2,0,.32-.16s-.12-.19-.15-.3c.2-.29.26.26.49,0,0-.06,0-.12,0-.17-.78-.32-1-1.43-1.94-1.29a1.74,1.74,0,0,0,.66,1.66c1.48,1.08,3.45,1,5.22,1.37,0,0,.09-.06.05-.11"/><path class="cls-10" d="M54.84,83.38c.51.77,1.45.7,2.14,1.21.44.2.89.8,1.32.43,0-.07,0-.14,0-.17A19.49,19.49,0,0,1,55.43,83l-1-.94c-.6-.48-1.4-.46-2-.83l-.17-.18c.38-.24.78.32,1.09.18-.6-.51-1.48-.72-2-1.4l.06-.11L52,80c.09-.06.07-.26.23-.17A7.36,7.36,0,0,0,54,81.33c.63.36,1.07,1,1.65,1.33.19.22.76.58,1.35,1.16a9.44,9.44,0,0,1,1.43.69v-.16a13.71,13.71,0,0,0-3.12-2.85c-.53-.63-1.26-1.12-1.73-1.78a16.75,16.75,0,0,0-3.42-1.06c-.28.53.24.92.46,1.35.73,1.83,2.84,2.3,4.21,3.37"/><path class="cls-10" d="M93,82.12l.15.22a4.72,4.72,0,0,1,.71-1.72c.26-.69.91-1.15,1.08-1.9l0,0c-.89,1-1.94,2-1.89,3.42"/><path class="cls-10" d="M61.78,85l-1-2.06c-.2-.37-.29-.84-.51-1.17A12.69,12.69,0,0,0,57.93,79l0,.57c.18.14,0,.46.18.55.69,1.89,2.52,2.94,3.31,4.77.09.12.23.26.34.12"/><path class="cls-10" d="M104.28,79.58c-.85,0-1.43.92-2.11,1.24-.64.51-1.33,1.14-2,1.63A7.94,7.94,0,0,0,96,85.16l0,.12c.34-.08.77-.18.69-.64a6.12,6.12,0,0,0,3.19-1.71l.32.06c.89-.43,3.35-1.93,3.47-1.78a4.25,4.25,0,0,1,1.85-1c-.09.24-.46.35-.6.62A36.47,36.47,0,0,1,101.11,83c.12.08,0,.17-.09.22a5.14,5.14,0,0,0-1.87.9s-1,.54-1.61.77v.07l2.28-.17c1.6-.65,3.12-1.62,4.63-2.41a2.52,2.52,0,0,1,1-.59,21,21,0,0,0,2.15-2.17l0-.31h-.43a17,17,0,0,0-2.92.31"/><path class="cls-10" d="M56,85.55c-.59-.6-1.12-.51-1.55-.67a7,7,0,0,0-1.9-1,14.19,14.19,0,0,0-1.77-.39,8.26,8.26,0,0,1-1.94-.84l0-.18c.48-.21.85.51,1.37.45,0-.24-.4-.4-.21-.62a16.5,16.5,0,0,0,1.36,1,13.55,13.55,0,0,1,1.73.34c.06-.27.69.2,1.14.43a6.47,6.47,0,0,0,3.1,1.36c.11-.24-.24-.19-.32-.39-.48-.13-.86-.52-1.38-.54a21.27,21.27,0,0,0-4.05-2.44c-1.46-.63-3.29-.32-4.72-1l0,.18a7.27,7.27,0,0,1,1,1.37l1.51,1a15.81,15.81,0,0,1,4.33,1.9,9.74,9.74,0,0,1,2.35,0"/><path class="cls-10" d="M60.76,84.73a10.6,10.6,0,0,0-2-2.66l-.06.12a8.78,8.78,0,0,0,1.1,1.7c.45.21.33,1,.94.84"/><path class="cls-10" d="M72.6,90.83c1.09-.17,2.13,0,3.21-.06v-.06c-1-.15-1.82-.6-2.77-.3a15.4,15.4,0,0,1-3.33-2.51c-.35-.57-1.06-.93-1.52-1.42-1.59-.81-3-2.18-4.51-3.12a6.48,6.48,0,0,0-2.41-.77l-.09.22a13.19,13.19,0,0,0,2,3.12A14.1,14.1,0,0,0,70,89.13c-.11-.82-1.09-1.06-1.7-1.37a9.78,9.78,0,0,0-1.55-.46,5.61,5.61,0,0,1-1.27-.71c-.39-.21-1.51-.87-1.43-1.2A15.27,15.27,0,0,0,62.16,84a.13.13,0,0,1,.06-.17c.46.14.79.42,1.23.6.14-.1-.06-.38.11-.46s.12.17.17.25a5.45,5.45,0,0,0,2.43,2.41c.14-.32-.29-.49-.33-.84a.11.11,0,0,1,.16,0,2.76,2.76,0,0,0,2.35,1.58c0-.25,1.46.78,2.14,1.61.06.14,0,.25-.08.34.39.2.8.37,1.2.61s.66.59,1,.94"/><path class="cls-10" d="M90.5,87.21a3.24,3.24,0,0,0-1.09.41,16.38,16.38,0,0,1-1.82,1.08l.13.14c1-.25,2.1-.48,3.11-.77a6.18,6.18,0,0,0,1.61-.57,7.17,7.17,0,0,0,3.21-2.58l-.15-.17c-.57-.16-1.2-.08-1.79-.19-1.3.54-2.84.51-3.83,1.57-1.35.58-2.13,1.89-3.5,2.38-.06.11-.31.08-.22.25,1.13-.11,3.07-1.55,3.13-1.49.47-.19.72-.35,1.41-.65.91-.34,3.55-1.18,3.55-1.18l.09.11c-.12.34-.63.32-1,.49-.54.32-1.23.3-1.71.73,0,.11.1.17,0,.28a2.79,2.79,0,0,0-1.18.16"/><path class="cls-10" d="M68.32,89.48c-.7.11-1.21-.37-1.81-.12l.13.18c1,.54,2.35.08,3.38.54a2.65,2.65,0,0,1,1.23.28s.07-.09.1-.06c.14-.39-.48-.36-.64-.68-.34.27-.57-.34-1-.17A10.47,10.47,0,0,0,68.16,89a13,13,0,0,1-4.81-2.3,5.93,5.93,0,0,0-1.54-1.2,4.77,4.77,0,0,0-4.28.33l0,.32A17.46,17.46,0,0,0,60,87.65c1.69,1.16,3.89,1.16,5.92,1.54l.15-.15L66,89a10.57,10.57,0,0,0-4-.94c-.17-.08-.46.32-.51-.08,0-.2.28-.09.34-.26l-.06-.15a9.43,9.43,0,0,0-2.92-1.33l-.11-.18a2.88,2.88,0,0,1,2.35.7c.09-.27.86,1,1.94,1,.7,0,.52,0,.89.14.29,0,2.89,1,4,1.29.57.23,1.29.06,1.67.46l-.21,0c-.34-.17-.8-.06-1.1-.23"/><path class="cls-10" d="M96.05,85.72c-.91.35-1.63,1.28-2.58,1.72,0,.06-.15.14-.06.21a5.47,5.47,0,0,0,1.52-.52c.23,0,3.93-1.35,4.13-1.2a4.79,4.79,0,0,0,1.22-.35c0,.07.09.09.06.14-.72.58-1.86.53-2.74.9a8.46,8.46,0,0,0-1.38.51c0,.11-.31.08-.22.26a1,1,0,0,1,.71.23,12.16,12.16,0,0,1-1.35,0c-.31-.06-.74-.06-.9.23a3.91,3.91,0,0,0,1,.42,1.48,1.48,0,0,0,.78-.16,6.28,6.28,0,0,0,3.94-1.73c.3-.27.76-.6.8-1a9.3,9.3,0,0,0-5,.33"/><path class="cls-10" d="M75,87.27c.17-.62.55-.89.76-1.49l-.17-.11a3.55,3.55,0,0,0-2,.35c-.12.17-.37.36-.28.6a1.87,1.87,0,0,0-.13,1c.19.58.72,1.08.41,1.77.31.74,1.16.5,1.79.77.19.06.48.17.61,0a13.87,13.87,0,0,1-1-2.46c0-.22.16-.83,0-.46"/><path class="cls-10" d="M80,88.76c.48-.33,1.18-.74,1.21-1.39a1.25,1.25,0,0,0-.1-1.05l-.66-.57a10.75,10.75,0,0,0-2.86.27c-.62,0-1.06-.26-1.51-.22a9.62,9.62,0,0,1-.73,1.61s2.88,0,3.46.09c.32.32.8.67.6,1.2.12.38.39.11.59.06"/><path class="cls-10" d="M59.48,89a9.46,9.46,0,0,0-2.33-.8c-.86-.76-2.22-.41-3-1.26l.09-.08c.41.14.85.3,1.26.41s.63.34.93.2c-.18-.29-.61-.44-.9-.7,0-.09,0-.15.09-.18,1,.18,1.45,1.34,2.49,1.4a6.75,6.75,0,0,0,.83.31,6.23,6.23,0,0,1,1.14.43c.2,0,.61.27.58-.16a6.21,6.21,0,0,1-1.43-.87c-.81-.34-1.52-.88-2.33-1.22a3.23,3.23,0,0,0-1.6-.52c-.19.18-.31-.18-.48,0a1.25,1.25,0,0,0-.87.06,2.46,2.46,0,0,0-1.07.46,18.31,18.31,0,0,0,2.62,1.86,4.67,4.67,0,0,0,2.89,1.31c.44-.11.93-.26,1.1-.68"/><path class="cls-10" d="M83.06,88.11c-.25-.35-.71-.09-1-.09s-.46,0-.65.12c-.46.6-1.23.8-1.69,1.4a8.93,8.93,0,0,0,2.2-.7c.4-.22,1-.3,1.17-.73"/><path class="cls-10" d="M109.43,71.34c-1.11,1.09-1.89,2.1-2.91,3.27-.5.59-1,1.11-1.49,1.68,0,.15-.14.28,0,.39.88-1,2.67-2.49,2.91-3a.41.41,0,0,1,.41.08,2.41,2.41,0,0,0,1.14-.29c0,.08.12.1.08.21a8.66,8.66,0,0,0-4.2,3.3c.16.14-1.12,1.11-1.71,1.55-.14.22-.47.46-.29.77,1.28-.46,2.31-1.62,3.38-2.44,1.22-1.63,3.08-2.54,4.49-3.82.44-.78.85-1.49,1.22-2.32a5.36,5.36,0,0,0-3.06.65m1.84.13-1,.76c.06.2.32.13.47.09a.44.44,0,0,1,.35-.11c-.21.45-.9.15-1.27.37a9.59,9.59,0,0,1-1.12.66c.26-.47.86-.58,1.23-1l.23,0a3.25,3.25,0,0,1,1.1-.91Z"/><path class="cls-10" d="M97.17,83.47c1.42-1,3.34-1.3,4.48-2.83.94-.4,1.11-1.51,1.57-2.35.06-.42.3-.76.35-1.17-.11-.11-.35-.22-.44,0-2,.49-3.25,2.63-5.21,3.29-1.5,1-2.56,2.69-4.21,3.64.16.22.54,0,.77.16a4.09,4.09,0,0,0,1.29-1.05c.53-.47.85-1.06,1.37-1.54l.08.08c-.08.32-.54.55-.4.92a7.69,7.69,0,0,0,2.49-1.8l.14.11c0,.19-.55.65-1.46,1.69a4.39,4.39,0,0,0-2.69,1.73c.89.6,1.17-.55,1.87-.85m2.54-3c.26-.38,1.94-2,2.61-1.93L100.6,79.9c.28.3.9-.35,1,.17-.77-.2-1.34.46-1.88.66Z"/><path class="cls-10" d="M86.53,88.07a39,39,0,0,1,3.29-2.4,5.17,5.17,0,0,0,2.79-2.8c0-.53.13-1.08.19-1.64-.06-.25.3-.36.08-.59a7.68,7.68,0,0,0-4.24,2.52c-.45,1-1.46,1.37-2.26,2a23.18,23.18,0,0,1-2.57,3c-.83.61-1.89.91-2.64,1.48a42.49,42.49,0,0,0,5-1.45.34.34,0,0,1,.36-.13M84,88.7c-.17-.27.26-.18.34-.39a15.57,15.57,0,0,1,4-3.15c.42-.57.87-1.27.67-.69.26.24.43-.15.7-.26a4.55,4.55,0,0,0,1.13-1.57c.17-.14.27-.52.56-.57,0,.15-.47.83-.73,1.67-.36.36-1.4,1.17-2,1.77a21.58,21.58,0,0,0-2.27,1.37c.18.39-.28.3-.45.45-.74.38-1.15,1.1-1.92,1.37"/><path class="cls-10" d="M91.68,88.25l-1.75.37a6,6,0,0,1-3.58.49,13.22,13.22,0,0,0-4.28.78c-.23.17-.73-.06-.69.33l1.86.44c.49.3,1.17.14,1.63.54.63-.11,1.11.33,1.72.26,1.19.31,2.13-.53,3.34-.46,2.31.25,4.11-.75,6-1.61v-.2a3.92,3.92,0,0,0-2.4-1c-.68-.18-1.29.17-1.85.11m3,1.4a11.65,11.65,0,0,0-5.56.48v.06l1.14.37c-.05.21-.41,0-.59,0-1.17-.06-3.08.08-3.08.08-.35-.08-.21-.11-.35-.08a18.15,18.15,0,0,0-2.94-.45c-.06,0,0-.12,0-.17,1.75-.21,3.61.84,5.29,0a12.32,12.32,0,0,1,4.45-.7l1.68.27Z"/><path class="cls-10" d="M71.74,90.68c-.57.12-.89-.29-1.46-.15-1.35-.42-3-.08-4.2-.82a1,1,0,0,0-.91-.14c-.27-.26-.73,0-1-.21-1.79-.39-3.84-.52-5.32.67l0,.16c1.12,1,2.6,1,4.09,1.09a2.82,2.82,0,0,1,1.35.06c1.65.34,3.31.8,5,.12a19.21,19.21,0,0,1,2.58-.58s0-.15,0-.2m-1.54.2c-1.24-.17-2.38.6-3.43.28-.41,0-.86.3-1.12,0,.21-.3-.17-.27-.32-.35-.52,0-1.08-.29-1.6-.26-.69-.14-2-.29-2-.29a3.82,3.82,0,0,0-1.6-.17l0-.1,1-.2c.05-.18-.29-.18-.18-.35.38.17.82.17,1.08.51.38,0,.73.14,1.06,0a14,14,0,0,0,2.68.67c1.51.44,3-.07,4.51.17Z"/><path class="cls-10" d="M77.85,90.51a.69.69,0,0,0-1.13-.32l.21.29c0,.23,0,.52-.12.72.12.32.54.08.79.08a.73.73,0,0,0,.25-.77"/><path class="cls-10" d="M80.06,90.39c-.29.29-.92,0-1,.38a11.51,11.51,0,0,1,1.51.48,1.71,1.71,0,0,1,.74,1.14c-.06.35-.12.72-.19,1,.34-.1.31-.59.39-.94.31.18,0,.69.17.85.17-.25.14-.56.29-.85.37.2,0,.52.11.8.52-.17,0-.8.34-1,.24.19.09.43.24.68l.11-.08A4.59,4.59,0,0,0,82,90.93a5.76,5.76,0,0,0-1.89-.54"/><path class="cls-10" d="M79.2,92c.13,0,.3.06.32-.08a2.48,2.48,0,0,0-1.2-.8,2.44,2.44,0,0,1-.54.52,4.27,4.27,0,0,0,.88,1.26c.11-.29-.4-.31-.21-.63.24.08.44.41.73.49,0-.23-.49-.32-.29-.6l.63.6c.17-.35-.42-.41-.32-.76"/><path class="cls-10" d="M72.17,93c-.43-.09-.07-.46-.18-.72.09-.38.49-.11.69-.23.63.32,1-.4,1.49-.56v-.09c-.21-.27-.57-.09-.94-.15-.55,0-1,.55-1.32.88-.22.82.31,1.32.57,2a1.64,1.64,0,0,0,1.26-.49,7.82,7.82,0,0,0-.85-.62c-.23.2-.47-.06-.72,0"/><path class="cls-10" d="M79.74,91.42l0,.15a3.06,3.06,0,0,1,.51.57c.21.28,0,1,.47.94a1.36,1.36,0,0,0,0-1.21c-.18-.3-.56-.35-.88-.45"/><path class="cls-10" d="M74.61,92.8l.07.08c.18-.11.18-.31.31-.43.21.09.47-.08.64.12.23-.2.14-.55.23-.84l-.09-.21c-.72,0-.93.71-1.16,1.28"/><path class="cls-10" d="M73.54,92.45c-.12.27,0,.46.17.66.52.06.46-.46.63-.8s.37-.44.22-.69c-.33.23-.82.43-1,.83"/><path class="cls-10" d="M86.17,93.48a7.7,7.7,0,0,0-2.87-1.06c-.1.15-.26.35-.13.52a7.93,7.93,0,0,1,2.18,1c.34-.13.54.48.89.1,0-.17.05-.4-.07-.54"/><path class="cls-10" d="M70.76,92.74c-.77.51-2,.57-2.39,1.57a.35.35,0,0,0,.4.17c.82-.46,1.77-.65,2.58-1.09l.08-.28c0-.28-.38-.74-.67-.37"/><polygon class="cls-4" points="60.37 31.14 61.69 35.23 65.98 35.23 62.51 37.76 63.84 41.83 60.37 39.31 56.89 41.83 58.22 37.76 54.75 35.23 59.04 35.23 60.37 31.14"/><path class="cls-2" d="M56.89,42a.2.2,0,0,1-.13,0,.21.21,0,0,1-.07-.24L58,37.84,54.63,35.4a.21.21,0,0,1-.08-.24.22.22,0,0,1,.2-.14h4.14l1.28-3.94a.21.21,0,0,1,.4,0L61.84,35H66a.22.22,0,0,1,.2.14.21.21,0,0,1-.08.24l-3.34,2.44L64,41.76A.24.24,0,0,1,64,42a.23.23,0,0,1-.25,0l-3.34-2.43L57,42a.17.17,0,0,1-.12,0m-1.49-6.6,2.94,2.15a.2.2,0,0,1,.08.23l-1.13,3.46,3-2.14a.21.21,0,0,1,.24,0l2.95,2.14-1.13-3.46a.2.2,0,0,1,.08-.23l2.94-2.15H61.68a.19.19,0,0,1-.19-.15l-1.12-3.46-1.13,3.46a.21.21,0,0,1-.2.15Z"/><polygon class="cls-4" points="90.33 31.14 91.66 35.23 95.95 35.23 92.48 37.76 93.8 41.83 90.33 39.31 86.86 41.83 88.19 37.76 84.71 35.23 89.01 35.23 90.33 31.14"/><path class="cls-2" d="M86.86,42a.17.17,0,0,1-.12,0,.2.2,0,0,1-.08-.24l1.28-3.92L84.58,35.4a.21.21,0,0,1-.07-.24.21.21,0,0,1,.2-.14h4.14l1.28-3.94a.21.21,0,0,1,.4,0L91.81,35H96a.21.21,0,0,1,.13.38l-3.35,2.44L94,41.76a.22.22,0,0,1-.08.24.23.23,0,0,1-.25,0l-3.34-2.43L87,42a.2.2,0,0,1-.13,0m3.47-2.94a.25.25,0,0,1,.12,0l3,2.14-1.12-3.46a.19.19,0,0,1,.08-.23l3-2.15H91.66a.21.21,0,0,1-.2-.15l-1.13-3.46-1.12,3.46a.21.21,0,0,1-.2.15H85.35l3,2.15a.2.2,0,0,1,.07.23l-1.13,3.46,2.95-2.14a.25.25,0,0,1,.12,0"/><polygon class="cls-4" points="75.75 22.74 77.07 26.82 81.36 26.82 77.89 29.35 79.21 33.43 75.75 30.9 72.26 33.43 73.59 29.35 70.13 26.82 74.41 26.82 75.75 22.74"/><path class="cls-2" d="M79.21,33.64a.2.2,0,0,1-.13,0l-3.33-2.44L72.39,33.6a.21.21,0,0,1-.33-.23l1.29-3.94L70,27a.21.21,0,0,1-.07-.24.21.21,0,0,1,.2-.14h4.13l1.29-3.93a.21.21,0,0,1,.2-.15h0a.21.21,0,0,1,.2.15l1.27,3.93h4.14a.22.22,0,0,1,.2.14.2.2,0,0,1-.08.24l-3.34,2.44,1.27,3.94a.19.19,0,0,1-.08.23.17.17,0,0,1-.12,0M70.77,27l3,2.15a.2.2,0,0,1,.07.23l-1.13,3.47,3-2.15a.21.21,0,0,1,.24,0l2.94,2.15-1.12-3.47a.2.2,0,0,1,.08-.23L80.71,27H77.07a.21.21,0,0,1-.2-.15l-1.12-3.46-1.14,3.46a.21.21,0,0,1-.2.15Z"/><path class="cls-2" d="M99.37,47.7a1.87,1.87,0,1,1,3.73,0,1.87,1.87,0,1,1-3.73,0"/><path class="cls-2" d="M88.47,57.17l-.55.32c-.43.22-.33.59,0,.67h4.38c.47,0,.6-.51.06-.71L92,57.2V46.09c-.08-.28-.24-.36-.54-.2l-3.68,1.79a.32.32,0,0,0,0,.57l.6.25c.1,0,0,.14.08.11Z"/><path class="cls-2" d="M94,57.17l-.54.32c-.41.22-.32.59.06.67h4.37c.47,0,.6-.51.06-.71l-.4-.25V46.09c-.08-.28-.25-.36-.56-.2l-3.68,1.79a.32.32,0,0,0,0,.57l.6.25a.09.09,0,0,1,.06.11Z"/><path class="cls-2" d="M103,49.91c-.06-.3-.23-.37-.54-.21l-3.67,1.8a.32.32,0,0,0,0,.57l.58.25c.12,0,.06.12.07.1v4.75l-.53.32c-.43.22-.34.59.06.67h4.37c.46,0,.59-.51.07-.71L103,57.2Z"/><path class="cls-2" d="M49.06,56.91c0,.26-.11.27-.11.27l-.58.31c-.36.22-.28.65.17.68h6.22a3.52,3.52,0,0,0,3.66-3.55A3,3,0,0,0,56,51.86a.06.06,0,0,1,0-.12,2.51,2.51,0,0,0,2.12-2.52c0-1.4-1-2.83-3.58-2.95H48.47c-.48,0-.36.56-.11.68l.52.28c.14.1.17,0,.18.26Zm5.45-.8a1.5,1.5,0,0,1-1,.39c-.46,0-.9-.07-.9-.45V52.88c0-.27.37-.36.76-.37a1.36,1.36,0,0,1,1.1.46,2.39,2.39,0,0,1,.37,1.57,3,3,0,0,1-.37,1.57m0-5.48a1.87,1.87,0,0,1-1.24.42c-.3,0-.59,0-.59-.33V48.15c.1-.43,1.25-.51,1.64-.07a1.76,1.76,0,0,1,.42,1.41,1.71,1.71,0,0,1-.23,1.14"/><path class="cls-2" d="M77.39,58.16h.91c.47,0,.6-.51.07-.71L78,57.2V51.88A2.77,2.77,0,0,0,77.19,50,2.94,2.94,0,0,0,75,49.05a3.48,3.48,0,0,0-2.25.73c-.42.31-.37.07-.38-.06V49a.34.34,0,0,0-.54-.21l-3.5,1.72c-.4.17-.32.49-.13.58l.56.26c.11,0,.09.18.09.18v5.63l-.57.32c-.44.22-.34.59.07.67h4.36c.47,0,.6-.51.06-.71l-.43-.25,0-4.85a1.11,1.11,0,0,1,1.22-1.19c.54,0,1,.24,1,1.19v4.82l-.55.32c-.42.22-.33.59.06.67Z"/><path class="cls-2" d="M67.21,55a4.18,4.18,0,0,1-2.52,1.24,2.22,2.22,0,0,1-2.16-1.4s0-.07,0-.08,5.17-1.89,5.17-1.89c.17-.11.16-.17.17-.4a4.41,4.41,0,0,0-4.47-3.59A4.67,4.67,0,0,0,59,53.65a4.56,4.56,0,0,0,4.55,4.85,5.32,5.32,0,0,0,4.62-2.84c.17-.67-.69-1-1-.69M62,52.57a1.81,1.81,0,0,1,1.38-2.16,1.31,1.31,0,0,1,1.45,1.37c0,.11,0,.14,0,.17l-2.56.89c-.14.09-.24-.1-.24-.27"/><path class="cls-2" d="M86.88,55a4.18,4.18,0,0,1-2.52,1.24,2.23,2.23,0,0,1-2.17-1.4s0-.07,0-.08,5.18-1.89,5.18-1.89c.17-.11.16-.17.17-.4a4.41,4.41,0,0,0-4.47-3.59,4.68,4.68,0,0,0-4.46,4.8,4.57,4.57,0,0,0,4.56,4.85,5.32,5.32,0,0,0,4.61-2.84c.17-.67-.68-1-.94-.69m-5.19-2.4a1.8,1.8,0,0,1,1.38-2.16,1.32,1.32,0,0,1,1.46,1.37c0,.11,0,.14,0,.17l-2.57.89c-.15.09-.25-.1-.25-.27"/><path class="cls-4" d="M88.15,82.93c.15-.35.63-.67.92-.92a9.23,9.23,0,0,1,1.61-1.15H60.36a6.14,6.14,0,0,1,.53.89c.13.27.12.25.4.3a9.18,9.18,0,0,1,1.86.45A17.72,17.72,0,0,1,66.88,85,15.07,15.07,0,0,1,70,87.35a7.16,7.16,0,0,0,1.41,1.34c.27.19.55.37.82.54s.77.64,1,.59c-.08-.12-.25-.36-.18-.51a.69.69,0,0,0,0-.61,8.79,8.79,0,0,1-.43-.94,2.19,2.19,0,0,1,.09-1.19,1.33,1.33,0,0,1,.93-1.18,3.54,3.54,0,0,1,1.2-.26,1.72,1.72,0,0,1,.93.06c.23.15.54.06.81.12a3.25,3.25,0,0,0,1.24.14,8.93,8.93,0,0,1,2.72-.23c.31.06.61.45.84.65a1.76,1.76,0,0,1,.32,1.66c.48-.09,1.09-.29,1.54,0l.21.19c.18-.16.35-.33.52-.51a13.09,13.09,0,0,0,1-1.12,8.51,8.51,0,0,1,1.29-1.51c.66-.5,1.53-.89,1.89-1.68"/><path class="cls-2" d="M60,80.62h0c.07.09.17.16.24.26l.09.16H90.56c.16-.14.47-.26.62-.41H60Z"/><path class="cls-2" d="M88,67.33a8,8,0,0,1-.69-1.73l0-.08a2.12,2.12,0,0,0-1.92-1.43h-.14a1.64,1.64,0,0,0-1.26.63l-.07.09c-.76,1.45,0,2.58.68,3.57A4.87,4.87,0,0,1,85.42,70a1.39,1.39,0,0,1-.59,1.46c-.57.28-1.28-.09-1.82-.33l-.79-.36a12.37,12.37,0,0,0-5.1-1c-.15,0-.7-.1-.92-.11a2,2,0,0,1-.71-.18h-.06a4.31,4.31,0,0,1-1.22-.59c-.22-.13-.44-.27-.69-.39a.41.41,0,0,0-.18,0h-.1l-.07-.09a1.32,1.32,0,0,0-.39-.39.43.43,0,0,0-.22-.06.47.47,0,0,0-.17,0c-.11-.24-.24-.49-.37-.72a.47.47,0,0,0-.14-.14,4.66,4.66,0,0,1-1.09-1.12,8.46,8.46,0,0,0-1.05-1.12.65.65,0,0,0-.56-.41.45.45,0,0,0-.16,0,1,1,0,0,0-.26-.25,3.63,3.63,0,0,0-1-.38l-.1,0-.16,0a.48.48,0,0,0-.26.07l-.08,0a1.56,1.56,0,0,0-.43-.12l-.22-.06c-.21-.22-.39-.39-.64-.39a.47.47,0,0,0-.41.24l0,0a.59.59,0,0,0-.41.21h0a1.71,1.71,0,0,0-1.18.48,1,1,0,0,0-.17.47.31.31,0,0,0-.1,0l-.36.21a2.1,2.1,0,0,0-.74.52.39.39,0,0,0-.08.14,2.26,2.26,0,0,1-.69.85,6,6,0,0,0-.6.63l0,.06a.92.92,0,0,0,0,.78.43.43,0,0,0,.23.21,1.3,1.3,0,0,0,.31.71.9.9,0,0,1,.14.24.48.48,0,0,0,.19.27.7.7,0,0,0,.32.12.42.42,0,0,0,0,.1.85.85,0,0,0,.21.74.78.78,0,0,0,.63.35,1.07,1.07,0,0,0,.56-.2l.19-.1.07,0,.17.07a1,1,0,0,0,.43.12h.11c0,.13,0,.26,0,.4a4.31,4.31,0,0,0,0,1.13.4.4,0,0,0-.25-.09h-.25a.41.41,0,0,0-.29-.1l-2,0h-.23a2,2,0,0,1-.92-.12,2.53,2.53,0,0,0-1.36-.48l-.23,0a1,1,0,0,0-.78.59s0,0,0,0a1,1,0,0,0-.1.69.44.44,0,0,0,.19.29l.13.05a.78.78,0,0,0,0,.26.49.49,0,0,0,.45.28.52.52,0,0,0,.17,0c.05.35.24.68.59.71h.07a.72.72,0,0,0,.74-.56c.16.05.33,0,.49.08.35.1.57.39,1,.39s.64.07.86.09a2.46,2.46,0,0,1,.82.1c.22.1.26.37.36.56a1.36,1.36,0,0,0,.5.51l0,0c.26.18.55.47.9.4,0,0,.35.34.38.36a2.89,2.89,0,0,0,.51.31,2,2,0,0,1,.25.12.65.65,0,0,0,.32.09.59.59,0,0,0,.45-.22c0,.53,0,1.08,0,1.62a12.1,12.1,0,0,1-.13,2.58.2.2,0,0,0,0,.07l-.23,0a1.09,1.09,0,0,0-.76.28.47.47,0,0,0-.1.1.91.91,0,0,0-.11.87v0a.41.41,0,0,0,.22.46.45.45,0,0,0,.19,0,.39.39,0,0,0,.23-.07.52.52,0,0,0,.36.14.76.76,0,0,0,.21,0,.39.39,0,0,0,.21-.17,1,1,0,0,0,.57.2.62.62,0,0,0,.19,0,.41.41,0,0,0,.15-.07.72.72,0,0,0,.33-.51.75.75,0,0,0,0-.22,3.63,3.63,0,0,0,.5-.63.06.06,0,0,0,0,0,1.5,1.5,0,0,0,.09-.43c0-.18,0-.37.08-.53.1-.47.16-1,.26-1.43s.13-1.15.75-1.34a6.22,6.22,0,0,1,1-.1c1.44-.2,2.77-.82,4.22-1,.39,0,.76,0,1.14,0a6.61,6.61,0,0,0,.61,2,2.57,2.57,0,0,0,1.8,1.62l-.07.13a4.56,4.56,0,0,0-.26.59,1.86,1.86,0,0,0-.07.34,1.18,1.18,0,0,0-.28,0,.62.62,0,0,0-.4.13.12.12,0,0,0,0,0l-.17.11a2.4,2.4,0,0,1-.26.18,1.13,1.13,0,0,0-.46.41l0,0a.41.41,0,0,0,0,.51.05.05,0,0,1,0,0,.67.67,0,0,0,.52.31.41.41,0,0,0,.3-.11.7.7,0,0,0,.45.16,2,2,0,0,0,.75-.21,1.42,1.42,0,0,0,.62-.73,2.4,2.4,0,0,1,.33-.66l.07-.09a1.35,1.35,0,0,1,.49-.37.3.3,0,0,0,.11-.06,1.85,1.85,0,0,0,.63-.94.43.43,0,0,0,0-.35L81,78.6c-.28-.45,0-1.23.31-1.61a25.51,25.51,0,0,0,3.88,2.7l.12,0q0,.3.06.6l0,.27c0,.17,0,.3,0,.43a.71.71,0,0,1-.32.64.36.36,0,0,0-.15.15.86.86,0,0,0,.06,1,.38.38,0,0,0,.31.16h0a.42.42,0,0,0,.3-.12l.09-.1a.7.7,0,0,0,.38.11,1.49,1.49,0,0,0,.69-.23.46.46,0,0,0,.2-.35L87,81v-.43l0-.67a1.55,1.55,0,0,0-.31-1.52.46.46,0,0,0-.24-.17c-.47-.12-.73-.53-1-1a5.71,5.71,0,0,0-.47-.66,3.29,3.29,0,0,1-.55-1.68,3,3,0,0,1,.21-1.44c.73.43,1.74-.39,2.11-1a3.19,3.19,0,0,0,0-2.7,10,10,0,0,0-.86-1.66,4.19,4.19,0,0,1-.9-2.5,2.18,2.18,0,0,0,.4.79,10.55,10.55,0,0,0,1,1.11c.29.28,1.57,1.28,1.82.51.06-.19,0-.3-.18-.68"/><path class="cls-4" d="M70.41,76.7a5.61,5.61,0,0,1,.58,0l.35,0a13.72,13.72,0,0,0,1.9-.45,13.5,13.5,0,0,1,2.34-.51,4.58,4.58,0,0,1,.64,0,2.75,2.75,0,0,0,.5,0,1,1,0,0,0,.36-.14,15.22,15.22,0,0,0,1-1.23h0c.06,0,.24.19.25.23a.36.36,0,0,1,0,.3c-.12.24-.37.4-.48.64a2.92,2.92,0,0,0-.39,1.4,2,2,0,0,0,.15.55c.06.2,0,.43.17.6a2,2,0,0,0,1.7,1.44h0l.27,0a6,6,0,0,1-.46,1.11,1.18,1.18,0,0,0-.1.42s0,.1,0,.16-.14.21-.25.21-.3-.08-.44-.08-.19,0-.25.2l.15.13.3,0c.26,0-.6.37-.42.63a.21.21,0,0,0,.18.07,1.37,1.37,0,0,0,.56-.17.93.93,0,0,0,.42-.51,3.58,3.58,0,0,1,.29-.59,1.53,1.53,0,0,1,.34-.42l0,0a5.5,5.5,0,0,0,.56-.38,1.92,1.92,0,0,0,.39-.66l-.47-.77a2.84,2.84,0,0,1,0-1.53,2.15,2.15,0,0,1,.72-1,12.16,12.16,0,0,0,1-1.1,3.48,3.48,0,0,0,.9-2.26c.13,0,.19.11.31.16a1.11,1.11,0,0,0,.44.08h.45c.2,0,.41.06.61.06h0a1.91,1.91,0,0,0,1.31-.9,2.76,2.76,0,0,0-.06-2.33c-.58-1.61-2-2.73-1.78-4.52.08-.23.16-.36.66-.43a.6.6,0,0,1,.18.46,2.08,2.08,0,0,0,.59,1c.23.24.45.49.68.72a3.41,3.41,0,0,0,.57.43c.08.06.36.18.39.26s0,0,0,0l.11,0a13.93,13.93,0,0,1-.88-2.19,1.73,1.73,0,0,0-1.56-1.18h-.12a1.24,1.24,0,0,0-.95.5c-1,1.93,1.18,3.19,1.54,4.87A1.82,1.82,0,0,1,85,71.8a1.74,1.74,0,0,1-.78.17,2.73,2.73,0,0,1-1.49-.49c-.5,0-1-.55-1.51-.55h0a9.35,9.35,0,0,0-4.13-.76s-.69-.1-.92-.11a2.32,2.32,0,0,1-.84-.21,9,9,0,0,1-2-1,.27.27,0,0,1-.14,0c-.27,0-.39-.42-.64-.57-.17.2.09.62-.17.73a10.26,10.26,0,0,0-.74-1.63c-.9-.58-1.37-1.64-2.27-2.34,0-.09-.11-.24-.2-.24l-.05,0c-.09.11.11.19,0,.28-.26-.11-.32-.44-.55-.59a3.86,3.86,0,0,0-1-.35h0c-.06,0-.1,0-.07.09h0c.16.09.06.17,0,.29a3.78,3.78,0,0,0-.51-.4c-.23-.11-.51-.08-.73-.22s-.17-.23-.29-.28a1.23,1.23,0,0,0-.62.33c.12.28.61.51.5.86a.74.74,0,0,1-.42-.49.38.38,0,0,0-.41-.24,1.33,1.33,0,0,0-.85.32c-.12.14-.09.62-.19.69l0,0s-.09-.08-.13-.11c-.37.27-.72.32-1,.67-.24.67-1,1.05-1.35,1.6a.44.44,0,0,0,0,.39l.08,0c.2,0,.31-.26.46-.39h.13s.08,0,.08.08l-.38.41c-.32.44.26.75.35,1.14a.35.35,0,0,0,.2.07c.31,0,.43-.56.8-.56h.11c.14,0,.35.11.35.31,0,.66-1.46.46-.87,1.24a.41.41,0,0,0,.3.18c.18,0,.36-.18.59-.27a.4.4,0,0,1,.22-.07c.23,0,.44.19.61.19h0c.17-.12.07-.47.34-.47h0c.32.77,0,1.66.18,2.46a.19.19,0,0,0,0,.08,4.49,4.49,0,0,0,0,.55.7.7,0,0,1,0,.32c0,.23,0,.45-.07.45s-.14,0-.28-.19-.16-.65-.36-.91v0l-.24,0a.42.42,0,0,1-.3-.1l-2,0h-.23a2.51,2.51,0,0,1-1.18-.2,2.07,2.07,0,0,0-1.1-.4l-.16,0a.73.73,0,0,0-.53.45.76.76,0,0,0,0,.38l.3-.09a.52.52,0,0,1,.38-.21h.08a.57.57,0,0,1,.31.07.26.26,0,0,1-.2.23.68.68,0,0,0-.41.21c-.13.14-.18.32-.06.32h.06c.15-.05.2-.12.29-.12h0c.12,0,.19.19.2.32s0,.47.22.49h0c.17,0,.38-.09.4-.46,0-.17.05-.22.12-.22s.21.11.3.18a.29.29,0,0,0,.19.05H61a.44.44,0,0,1,.27.07,1.39,1.39,0,0,0,.72.3h0c.89.12,1.09.09,1.86.21.36,0,.31.39.42.64a1.27,1.27,0,0,0,.5.5l.55.39a4.43,4.43,0,0,0,0-.73c.08-.11-.07-.35.13-.35h0c.29.27.09.71.17,1s.77.63,1.12.82a.19.19,0,0,0,.11,0c.16,0,.2-.27.4-.29a.31.31,0,0,1,.24-.1.27.27,0,0,1,.27.18c-.17,1.41.09,3.14-.18,4.62,0,.14-.07.28-.1.42l0,.1c-.16,0-.35-.06-.54-.06a.65.65,0,0,0-.49.18c-.27.19,0,.58,0,.74.06-.12.24-.19.15-.34a.65.65,0,0,1,.53-.4c.25.35-.32.35-.24.66,0,.1,0,.19.13.19h.07c.09-.2.18-.27.27-.27s.38.28.65.28h.09c.34-.25,0-.42-.1-.62a.25.25,0,0,1,.22-.14.53.53,0,0,1,.17,0,1.27,1.27,0,0,0,.55-1c0-.32,0-.65.09-1s.13-.66.2-1a3.31,3.31,0,0,0,.15-.87,8.5,8.5,0,0,1,0-1.13,5,5,0,0,1,.06-.56c0-.16.09-.29,0-.46s-.13-.09-.11-.19.25,0,.28-.21-.08-.26-.1-.37,0-.39,0-.35a1.13,1.13,0,0,1,.35,1,2.8,2.8,0,0,0-.23,1.54.33.33,0,0,0,.13,0c.15,0,.26-.14.4-.19a.64.64,0,0,1,.2,0"/><path class="cls-4" d="M77.77,82.24h-.06c-.1,0-.16-.11-.22-.19a.69.69,0,0,1,.38-.35.28.28,0,0,0,.08.11.65.65,0,0,0-.11.29.33.33,0,0,0-.07.13"/><path class="cls-2" d="M85,65.53v-.06s0,0,0,.06"/><path class="cls-2" d="M66.39,67.17c-.26-.27-.18-.84-.57-.92a2,2,0,0,1,0,.65A1.3,1.3,0,0,0,65.76,68c.14,0,.2-.22.16-.4s.35-.23.47-.42"/><path class="cls-2" d="M66.61,70.42c.1-.23-.13-.31-.22-.48.18-.14-.1-.28-.06-.47-.18-.44.38-.93-.06-1.31-.12.3-.37.41-.31.74.22.52.08,1.27.65,1.52"/><path class="cls-2" d="M65.45,70.91c0,.57-.24,1.34.2,1.74l.11-.06c-.3-.42-.14-1.16-.23-1.68Z"/><path class="cls-2" d="M66.45,72.52c.12,0,.14-.13.14-.27s-.24-.18-.36-.2a2.32,2.32,0,0,1,0-1.28c-.06-.12,0-.33-.22-.33l0,1.16c.12.31,0,.84.46.91h0"/><path class="cls-2" d="M65.7,70.25c0-.4-.36-.66-.17-1.08s-.24-.33-.42-.33h-.06l0,.19c.38.14.14.68.21,1a.41.41,0,0,0,.32.22.17.17,0,0,0,.1,0"/><path class="cls-2" d="M66.59,73.53c-.15,0-.09-.28-.21-.28l-.09,0c.28.68-.39,1.57.15,2.15a.37.37,0,0,0,.35-.38c-.37-.4-.14-.94-.2-1.52"/><path class="cls-2" d="M67.66,65.31a.64.64,0,0,0-.3-.46.55.55,0,0,0,.14.55c.08,0,.15,0,.16-.09"/><path class="cls-2" d="M64.44,65.9c.08-.36.2-1-.08-1.2a9.86,9.86,0,0,1-.17,1.47s.31-.09.25-.27"/><path class="cls-2" d="M64.6,67.06h-.08c-.08.12-.3.15-.16.34h0c.09,0,.19.1.26.1s.09,0,.11-.15,0-.3-.16-.3"/><path class="cls-2" d="M63.61,66.25c-.16,0-.38.08-.57.08a.28.28,0,0,1-.2-.06l0,.58A.32.32,0,0,0,63,67c.26,0,.48-.4.78-.54,0-.13-.1-.16-.21-.16"/><path class="cls-2" d="M68.76,67.59h0v-.28c-.06-.29.2-.57.06-.81-.14.2-.48.46-.35.78.12.07.07.31.26.31"/><path class="cls-2" d="M68.34,71.45c.23-.23-.38-.52,0-.71a2.84,2.84,0,0,0,.42.81c.06-.1,0-.2,0-.3-.37-.54-.17-1.17-.2-1.75-.12,0-.09.18-.05.23s-.17.38-.3.38a.14.14,0,0,1-.11,0c0,.47-.26,1.08.18,1.39"/><path class="cls-2" d="M67,66.74c.33-.24.12-.66.19-1a1.21,1.21,0,0,0-.6-.6,1.75,1.75,0,0,0,.08.8c.49,0,.23.61.33.81"/><path class="cls-2" d="M71.19,69.73c-.68-.19-.17-1-.35-1.42-.12-.09-.09-.32-.27-.32h0c.35.6-.14,1.57.26,2.24.17.19.09.45.43.45.45-.26-.15-.57,0-1"/><path class="cls-2" d="M69.68,73a1.41,1.41,0,0,1,0-.86c.11-.1.17-.35.06-.43a2.65,2.65,0,0,0-.29,1.52c.43.42,1,1,.83,1.74h.14a1.58,1.58,0,0,0,0-.94A1.91,1.91,0,0,1,70,72.65c-.14.12-.17.38-.31.38"/><path class="cls-2" d="M69.34,66.8c.25,0,.2-.36.39-.5,0-.2.09-.52-.17-.59-.06.19-.21.07-.34.16,0,.3,0,.63.08.93h0"/><path class="cls-2" d="M70.1,68.46l-.11,0c.15.55-.14.86,0,1.44-.09.25.14.36.31.41s.26,0,.16-.16c-.5-.46-.13-1.14-.31-1.71"/><path class="cls-2" d="M69.39,70.33c.43-.67-.12-1.54.34-2.2-.2-.17,0-.6-.31-.66l-.12.9c-.06.25-.34.35-.17.62.37.6,0,1.37.2,2.06.32-.14-.06-.48.06-.72"/><path class="cls-2" d="M72,72.4c-.14-.28.09-.44.26-.6.14-.43-.15-.93-.29-1.38l.12-.09.25.41.09-.06a.28.28,0,0,0,0-.4c.15-.62-.37-1.06-.48-1.63-.24.43.23.77.14,1.2a.26.26,0,0,1-.22.31.16.16,0,0,1-.12,0l.17.74c-.38.32-.06.8-.14,1.2-.15.2.17.57-.17.7.2.31.25.78.48,1.11.09-.18.29-.28.42-.41.5-.6-.31-.68-.51-1"/><path class="cls-2" d="M71,67.93c.2,0,.18-.23.26-.31,0-.37-.31-.57-.54-.82V67c.42.23,0,.69.28.94"/><path class="cls-2" d="M68.28,73.77c-.15-.08-.06-.42-.26-.42l-.09,0a3.89,3.89,0,0,1,.18,1.09h.11c.35-.24,0-.47.06-.69"/><path class="cls-2" d="M67.65,72.14a1.28,1.28,0,0,0-.12,1.23c.13,0,.13-.17.13-.28-.19-.29.15-.65,0-1"/><path class="cls-2" d="M68.11,69c0-.07.08-.07.11-.13s.06-.16-.06-.22c.21-.46-.38-.75-.15-1.17-.17-.49.36-1,.18-1.46a1.07,1.07,0,0,0-.32.8c-.21.29-.12.77-.21,1.11-.41.06.12.39,0,.66a.2.2,0,0,0,.18.15.21.21,0,0,0,.16-.09Z"/><path class="cls-2" d="M67.25,73.83c-.15.13-.08.49-.06.69.28.19.06.65.22.85a.68.68,0,0,0,.06-.66c.09-.35-.25-.54-.22-.88"/><path class="cls-2" d="M67.26,72.11s0,0,0,0c-.23-.82.27-1.54.1-2.31h0c-.21,0-.3.22-.41.35.32.63-.06,1.26.18,1.88,0,0,.08.12.12.12"/><path class="cls-2" d="M68.72,75l-.07,0c-.15,0-.06.2,0,.25,0,.35-.31.82,0,1,.2-.31.07-.79.28-1.11-.09,0-.08-.2-.18-.2"/><path class="cls-2" d="M68.5,72.12l0,0s-.08.07-.12.07c-.06.63.37,1.11.39,1.72.31,0,.12-.38.31-.52a1.6,1.6,0,0,1-.54-1.25"/><path class="cls-4" d="M86.4,78.66c-.88-.23-1.17-1.14-1.72-1.8a2.6,2.6,0,0,1-.51-1.12c-.1-.42-.07-.82-.14-1.24a4.41,4.41,0,0,1,0-.89l-.3,0a4.8,4.8,0,0,1-1,1.87,8.8,8.8,0,0,1-.65.72,3.22,3.22,0,0,0-.28.24s-.23.25-.27.23.11.1.18.15a1.09,1.09,0,0,1,.23.14c.13.1.24.22.37.32.33.25.67.5,1,.73l.64.46c.36.28.75.51,1.11.76.21.15.53.15.59.46s.06.63.09,1c0,.15,0,.29,0,.43a1.1,1.1,0,0,1-.53,1,.44.44,0,0,0,0,.48c.28-.28.45-.8.85-1,.2.37-.36.4-.28.75a.2.2,0,0,0,.2.11,1.11,1.11,0,0,0,.47-.17l0-1.2v-.43l0-.78a1.12,1.12,0,0,0-.24-1.17"/><path class="cls-2" d="M70.91,74c-.22-.05-.42-.38-.47-.58s.12-.86,0-.95a.22.22,0,0,1,.06-.39c.51-.19-.34-.52,0-.84.22.07.22.32.37.46s-.09,1-.14,1.25a1,1,0,0,0,0,.58c.07.15.25.28.15.47"/><path class="cls-2" d="M70.6,75.82c.05-.06.15.15.13.2s-.17.14-.23.18c-.3.17-.06-.13-.09-.26l-.36,0c.23-.32.7-.67.79-1.07.23.08.09.38.23.52a.85.85,0,0,1,.64-.32,6.23,6.23,0,0,1-.5-.64.55.55,0,0,1,.07-.69s.18.4.2.43.17.09.31.19a.43.43,0,0,1,.13.26c.07.2.2.53,0,.72s-.4.1-.56.2-.19.21-.34.25-.16,0-.23,0a.27.27,0,0,0-.23.09"/></g><g class="cls-11"><rect class="cls-12" x="9.12" y="-13.75" width="133.66" height="133.66" transform="translate(-15.29 69.25) rotate(-45)"/></g><g class="cls-13"><rect class="cls-14" x="13.19" y="-9.67" width="125.51" height="125.51" transform="translate(-15.29 69.25) rotate(-45)"/></g></svg>