<svg id="Layer_1" data-name="Layer 1" xmlns="http://www.w3.org/2000/svg" viewBox="0 0 150 150"><defs><style>.cls-1{fill:#e20613;}</style></defs><path class="cls-1" d="M65,57.67v9.66H53.36a8.43,8.43,0,0,0-8.28,7.92c-.24,4.6,3,8.76,7.38,9.06,4.15.28,8.33.18,12.49.15a2.17,2.17,0,0,1,2.41,1.46,22.8,22.8,0,0,0,6.18,8c-.58,0-.93.11-1.27.11-6.35,0-12.69,0-19,0A18.12,18.12,0,0,1,35.58,74.17c.48-4.51,1.54-6.73,5.54-11.58A56,56,0,0,1,37.83,58c-6.66-11.47,1.48-26.42,14.75-27a76.43,76.43,0,0,1,12.2.29c7.44.89,13.91,7.78,14.76,15.28a46.06,46.06,0,0,1,.24,4.85c0,8,0,16.11,0,24.17a8.47,8.47,0,0,0,8.66,8.86c2.78.06,5.57.1,8.34,0A8.56,8.56,0,0,0,98.56,67.6a7.79,7.79,0,0,0-2-.26c-3.52,0-7,0-10.56,0H84.1V57.74c.45,0,.94-.07,1.43-.07,3.52,0,7,0,10.56,0a8.54,8.54,0,0,0,8.78-8.46,8.73,8.73,0,0,0-8.74-8.73q-6.33-.07-12.65,0a1.56,1.56,0,0,1-1.7-1,20.86,20.86,0,0,0-6.12-7.78,5.88,5.88,0,0,0-.6-.35l.15-.33c.48,0,1-.06,1.43-.06,6.44,0,12.88-.06,19.32,0,7.83.09,13.66,3.68,16.85,10.79s1.86,13.91-3.32,19.84c-.21.25-.44.48-.66.72,0,0,0,.08.07-.15,1.48,2.44,3.2,4.61,4.22,7.07C118,80.91,109.07,94,96.4,94a84.27,84.27,0,0,1-10.67-.24A18,18,0,0,1,70.16,76.11c-.06-8.8,0-17.59,0-26.39,0-5.61-3.57-9.21-9.17-9.25-2.41,0-4.82,0-7.23,0a8.7,8.7,0,0,0-8.61,7.38,8.58,8.58,0,0,0,5.72,9.39,9.47,9.47,0,0,0,2.86.41C57.42,57.7,61.12,57.67,65,57.67Z"/><path class="cls-1" d="M36.8,106.67v.07a2.7,2.7,0,0,1-.33,1.27,5.26,5.26,0,0,1-.81,1.14,6.2,6.2,0,0,1-1,.94,5.67,5.67,0,0,1-1,.61,2.48,2.48,0,0,1,.77.83,2.66,2.66,0,0,1,.39,1.18,2.32,2.32,0,0,1-.19.91l-.39.87-.17.36a11.1,11.1,0,0,1-1.23,2,5.12,5.12,0,0,1-1.6,1.31,8.09,8.09,0,0,1-2.36.75,20.91,20.91,0,0,1-3.47.24h-9l1.92-4.41h6.63c.25-.11.46-.2.61-.28l.47-.22a1.42,1.42,0,0,0,.35-.22,5.49,5.49,0,0,1,.35-.51l.06-.17a.45.45,0,0,0,.12-.32c0-.15,0-.31,0-.45H19.19l1.18-2.73,1.76-1.3h6.23s.08,0,.16-.15a3.4,3.4,0,0,0,.29-.33l.32-.38a1,1,0,0,0,.17-.28l.07-.15a.47.47,0,0,1-.07-.17,4.94,4.94,0,0,0-.42-.44c-.2-.18-.31-.27-.36-.27H21.89l1.93-4.41h9a4.09,4.09,0,0,1,1.93.4,3.18,3.18,0,0,1,1.2,1.06,3.89,3.89,0,0,1,.61,1.52A8.15,8.15,0,0,1,36.8,106.67Z"/><polygon class="cls-1" points="22.48 101.91 20.55 106.32 20.54 106.32 19.15 109.51 18.4 111.25 17.16 114.06 16.88 114.69 16.89 114.69 14.96 119.1 7.5 119.1 14.99 101.91 22.48 101.91"/><path class="cls-1" d="M34.33,119.1l7.49-17.2H59.18a4.4,4.4,0,0,1,2.18.49,3.79,3.79,0,0,1,1.31,1.23,4.69,4.69,0,0,1,.63,1.63,8.7,8.7,0,0,1,.16,1.62,3.91,3.91,0,0,1-1,2.72,6.71,6.71,0,0,1-2.44,1.71,13.85,13.85,0,0,1-3.22.91c-1.17.18-2.29.3-3.35.37l7.63,6.52H52.82l-8-6.16-.42.26-2.57,5.9Zm21.61-11.87v-.36a.79.79,0,0,0-.13-.44c-.09-.12-.28-.18-.59-.18H47.4l-2.23,5.06,3.44-2.88h6.22a.93.93,0,0,0,.85-.44A1.6,1.6,0,0,0,55.94,107.23Z"/><path class="cls-1" d="M67.81,101.9h7.37c-.91,2.21-1.62,3.93-2.11,5.15s-.87,2.13-1.11,2.74-.37,1-.42,1.15a1.71,1.71,0,0,0-.06.34,3.86,3.86,0,0,0-.2,1,2.34,2.34,0,0,0,.67,1.77,2.41,2.41,0,0,0,1.73.63H75.6a4.63,4.63,0,0,0,1.73-.32,6.06,6.06,0,0,0,1.43-.82,6.74,6.74,0,0,0,1.09-1,11,11,0,0,0,.74-1l4.19-9.64h7.4l-3.51,8a37,37,0,0,1-2,3.94,12.33,12.33,0,0,1-2.28,2.87,8.76,8.76,0,0,1-3,1.77,12,12,0,0,1-4,.6H72.87a33.08,33.08,0,0,1-4.52-.26,9.28,9.28,0,0,1-2.91-.83,3.41,3.41,0,0,1-1.55-1.47,4.81,4.81,0,0,1-.46-2.21,8.17,8.17,0,0,1,.2-1.59c.13-.56.28-1.12.47-1.69l.63-1.94Z"/><path class="cls-1" d="M86.86,119.1l7.49-17.2h9.44l2.21,9.67,4.25-9.67h7.4l-7.53,17.2h-9.41l-2.17-9.67-4.22,9.67Z"/><path class="cls-1" d="M142.5,107.71a7.05,7.05,0,0,1-.07,1c0,.34-.11.7-.19,1.07a9.28,9.28,0,0,1-1.53,3.6,12.44,12.44,0,0,1-2.89,3,14.48,14.48,0,0,1-3.87,2,13.52,13.52,0,0,1-4.46.75h-3.81l1.92-4.38h1.46a3.23,3.23,0,0,0,1.11-.28,10.7,10.7,0,0,0,1.49-.73,11.44,11.44,0,0,0,1.48-1,5.32,5.32,0,0,0,1.05-1.11,1.89,1.89,0,0,0,.42-.72l.17-.32a2.17,2.17,0,0,1,.05-.25s0-.05,0-.05a5.56,5.56,0,0,0,.1-1.1,4.63,4.63,0,0,0-.13-1,2.37,2.37,0,0,0-.47-.92,2.43,2.43,0,0,0-.94-.65,4.34,4.34,0,0,0-1.58-.24h-.53l1.91-4.38a14.82,14.82,0,0,1,6.85,1.34A4.69,4.69,0,0,1,142.5,107.71Z"/><path class="cls-1" d="M131.86,101.91,130,106.29h-1.27a3.94,3.94,0,0,0-1.35.27,8,8,0,0,0-1.43.73,9.12,9.12,0,0,0-1.3,1,5.84,5.84,0,0,0-.95,1.12,6.29,6.29,0,0,0-.37.73,2.19,2.19,0,0,0-.18.6s0,.1,0,.23v.19a2.92,2.92,0,0,0,.28,1.22,4.48,4.48,0,0,0,.73,1.15,3.52,3.52,0,0,0,1.09.85,3,3,0,0,0,1.11.31l-1.91,4.36a23,23,0,0,1-2.74-.26,10.36,10.36,0,0,1-3.17-1,5.29,5.29,0,0,1-2.07-1.9,5.61,5.61,0,0,1-.75-3c0-.26,0-.53,0-.81s.06-.57.1-.88a9,9,0,0,1,1.47-3.5,12.81,12.81,0,0,1,2.78-3,14.2,14.2,0,0,1,3.68-2,11.1,11.1,0,0,1,4.08-.78Z"/></svg>