<svg xmlns="http://www.w3.org/2000/svg" xmlns:xlink="http://www.w3.org/1999/xlink" viewBox="0 0 561.2 850.39"><defs><style>.cls-1,.cls-10,.cls-11,.cls-15,.cls-18,.cls-20,.cls-23,.cls-7,.cls-9{fill:none;}.cls-2,.cls-5{fill:#c50b0b;}.cls-18,.cls-2,.cls-21,.cls-22,.cls-23,.cls-3,.cls-7{stroke:#000;}.cls-10,.cls-11,.cls-15,.cls-18,.cls-2,.cls-20,.cls-21,.cls-22,.cls-23,.cls-3,.cls-7,.cls-9{stroke-miterlimit:10;}.cls-18,.cls-2,.cls-20,.cls-21,.cls-22,.cls-3,.cls-7{stroke-width:15px;}.cls-3,.cls-4{fill:#fff;}.cls-6{fill:#900000;}.cls-8{clip-path:url(#clip-path);}.cls-9{stroke:#146ab2;}.cls-10,.cls-11,.cls-9{stroke-width:2px;}.cls-10,.cls-15{stroke:#c50b0b;}.cls-11{stroke:#900000;}.cls-12{fill:#146ab2;}.cls-13{opacity:0.08;}.cls-14{clip-path:url(#clip-path-2);}.cls-15{stroke-width:7px;}.cls-16{fill:#10426e;}.cls-17{fill:#efeeee;}.cls-18,.cls-20,.cls-23{stroke-linecap:round;}.cls-19{fill:#254577;}.cls-20{stroke:#efeeee;}.cls-21{fill:#c61618;}.cls-22{fill:#c61819;}.cls-23{stroke-width:9px;}</style><clipPath id="clip-path"><rect class="cls-1" x="377.41" y="743.51" width="22.81" height="24.79" transform="translate(714.16 1541.22) rotate(-175.28)"/></clipPath><clipPath id="clip-path-2"><path id="cuerpo" class="cls-1" d="M238.55,486.63S199.14,587,179,771.1h90.29l25.66-63.28a1.48,1.48,0,0,1,2.22-.66c4.75,3.29,18.92,16.85,24.72,63.94h89.41s-5.92-183.23-49.85-284.47C361.42,486.63,292.87,502.84,238.55,486.63Z"/></clipPath></defs><g id="ZAPATOS"><path class="cls-2" d="M403.17,768h-60a232.15,232.15,0,0,0-4.48,45.32v7h70.42V813.6A177.7,177.7,0,0,0,403.17,768Z"/><path class="cls-3" d="M420.79,830.84H327.07a0,0,0,0,1,0,0c.23-1.31,6.85-38,46-38.54s47.45,37.19,47.73,38.54A0,0,0,0,1,420.79,830.84Z"/><line class="cls-2" x1="387.66" y1="779.13" x2="360.2" y2="779.13"/><polygon class="cls-4" points="375.49 788.29 379.55 786.01 379.55 783.02 375.49 785.22 375.49 786.11 373.86 784.12 373.86 784.12 381.08 780.13 381.08 786.95 373.86 790.85 373.86 787.92 373.86 787.32 375.49 786.55 375.49 788.29"/><polyline class="cls-4" points="374.46 787.06 376.95 785.85 375.46 787.45"/><path class="cls-4" d="M373.21,790.85v-6.77l-7.27-4v6.41Zm-1.54-5.71v3.13l-4.53-2.68v-3Z"/><path class="cls-2" d="M252.41,768h-60A231.38,231.38,0,0,0,188,813.27v7h70.42V813.6A177.7,177.7,0,0,0,252.41,768Z"/><path class="cls-3" d="M270,830.84H176.31a0,0,0,0,1,0,0c.22-1.31,6.85-38,46.05-38.54s47.45,37.19,47.73,38.54A0,0,0,0,1,270,830.84Z"/><line class="cls-2" x1="236.9" y1="779.13" x2="209.44" y2="779.13"/><polygon class="cls-4" points="224.73 788.29 228.79 786.01 228.79 783.02 224.73 785.22 224.73 786.11 223.1 784.12 223.1 784.12 230.32 780.13 230.32 786.95 223.1 790.85 223.1 787.92 223.1 787.32 224.73 786.55 224.73 788.29"/><polyline class="cls-4" points="223.7 787.06 226.19 785.85 224.7 787.45"/><path class="cls-4" d="M222.45,790.85v-6.77l-7.27-4v6.41Zm-1.54-5.71v3.13l-4.53-2.68v-3Z"/></g><g id="BRAZO_MOVIL" data-name="BRAZO MOVIL"><path class="cls-3" d="M344.64,517.63s154-142.41,186.94-90.35c0,0,20.65,29.62-12.72,59.32s-142.53,61.32-142.53,61.32l-31.69-30.29"/></g><g id="COLA"><g id="COLA-2" data-name="COLA"><path class="cls-5" d="M177.6,721.27c-16.53-2.78-56.89-13.48-95.51-53.8-29.67-31-49-70.4-56.36-112.7q-.87-5-1.68-10.48A339.53,339.53,0,0,1,28.7,421.94c4.1-18.66,8.18-46.84,8.6-86.06a.41.41,0,0,1,.58-.37C42.73,337.9,77,356,94.68,397.74a94.37,94.37,0,0,0,21.82,31.92l1.57,1.48c14.64,13.62,73.69,45.77,106.53,100.18,0,0-39.9,143.39-38.54,185.76C186.18,720.84,181.31,721.9,177.6,721.27Z"/><path class="cls-6" d="M140.64,706.4s76.64-193.36-6-250.1l31.45,10.59L198.51,503l20.08,33.21L182.14,709.4l-3.92,10.88Z"/><path class="cls-4" d="M91.65,400.89c-4.39-4.79-6.71-10.78-10.2-16.09-9-13.7-19.11-26.53-31.59-37.51-1-.84-1.72-2.12-3.88-2.12C42.57,367.94,36,390.2,33,413.11c-3.66,22.27.19,44,5.27,65.61,6.4,27.24,16,53.32,30.53,77.6a282.44,282.44,0,0,0,19.85,28.62c1.24,1.6,2.61,3.13,4.77,3.67,3.5-.31,4.71-3.16,6.19-5.49,9.17-14.36,13.27-30.19,14.24-46.86a79.43,79.43,0,0,0-3.65-29.54c-1.39-4.24-.81-5,4-4.82a85.39,85.39,0,0,1,34.93,8.44c6,2.92,12,5.87,17,10.37,2,1.77,4.51,3.33,5.64-1-.81-15.4-6.75-29.07-15.33-41.85a144.11,144.11,0,0,0-11.93-15.1c-9.24-10.31-19.91-19.33-29.37-29.42a138.28,138.28,0,0,1-18.45-25.13A43.64,43.64,0,0,0,91.65,400.89Z"/><path class="cls-7" d="M180.06,720.28c-16.36-2.76-56.3-13.33-94.53-53.2C56.16,636.44,37,597.48,29.75,555.66q-.87-4.95-1.67-10.36a335.32,335.32,0,0,1,4.6-121c4.06-18.44,8.1-46.3,8.52-85.08a.4.4,0,0,1,.57-.36c4.8,2.36,38.75,20.28,56.23,61.53A93.33,93.33,0,0,0,119.59,432c.5.48,1,1,1.56,1.46,14.48,13.47,72.93,45.26,105.43,99,0,0-39.49,141.77-38.14,183.66C188.56,719.85,183.74,720.89,180.06,720.28Z"/></g></g><g id="CUERPO_2" data-name="CUERPO 2"><g class="cls-8"><path class="cls-4" d="M383.34,745.39h9.59s-.2,46.11,5.76,104.75l-7.64-1S381.93,748.23,383.34,745.39Z"/><path class="cls-9" d="M388.22,745.16s2.43,78.55,7.37,106.09"/><path class="cls-10" d="M384,745.31s2.48,78.17,7.45,105.59"/><path class="cls-11" d="M392.09,745.45s2.46,78.35,7.41,105.83"/></g><path class="cls-4" d="M378.24,593.1l-9.51,1.31s-6.08-45.71-20-103h7.7S379.24,590.1,378.24,593.1Z"/><path class="cls-9" d="M373.43,594s-13.1-77.49-21.75-104.11"/><path class="cls-10" d="M377.57,593.28s-13.11-77.11-21.76-103.6"/><path class="cls-11" d="M369.55,594.24S356.45,517,347.8,490.4"/><path class="cls-4" d="M374.34,598.86a8.66,8.66,0,0,1,9.73,8.09,9.25,9.25,0,0,1-2.56,7.45L375,615l-.75-8,3.18-.3.43,4.53,2-.19a5.66,5.66,0,0,0,1-3.75,5.67,5.67,0,0,0-11.26,1.06,4.77,4.77,0,0,0,2.54,3.77l-1.37,3.13a7.86,7.86,0,0,1-4.4-6.6A8.62,8.62,0,0,1,374.34,598.86Z"/><path class="cls-4" d="M385.83,628l-3.19.3-.68-7.21L368,622.44l-.35-3.69,17.11-1.61Z"/><path class="cls-4" d="M377.37,629.84a9,9,0,1,1-8,9.77A8.63,8.63,0,0,1,377.37,629.84ZM378.7,644c3.19-.3,5.43-2.59,5.14-5.75s-2.93-5-6.12-4.66-5.44,2.56-5.14,5.72S375.49,644.3,378.7,644Z"/><path class="cls-4" d="M388.72,658.79c.31,3.26-1.58,5.17-4.15,5.42a4.17,4.17,0,0,1-4.51-2.89,3.83,3.83,0,0,1-3.65,3.32c-2.28.21-4.52-1.26-4.82-4.52l-.85-9,17.11-1.61Zm-14.61-4.26.43,4.67a1.94,1.94,0,1,0,3.86-.37l-.44-4.67Zm6.87-.65.44,4.69a2,2,0,0,0,2.21,2,2,2,0,0,0,1.82-2.4L385,653.5Z"/><path class="cls-4" d="M391,682.51l-17.72-5L372.8,673l16.48-8.23.37,3.89L386.73,670l.74,7.83,3.12.81Zm-6.6-5.48-.54-5.67L376.22,675Z"/><path class="cls-4" d="M392.13,695l-3.19.3-.68-7.21-13.92,1.31-.35-3.69,17.11-1.61Z"/><path class="cls-5" d="M384.27,704.36a8.66,8.66,0,0,1,9.73,8.09,9.25,9.25,0,0,1-2.56,7.45l-6.55.62-.76-8,3.19-.3.42,4.53,2-.19a5.68,5.68,0,0,0,1-3.75,5.32,5.32,0,0,0-6.12-4.73c-3.24.31-5.42,2.74-5.13,5.79a4.75,4.75,0,0,0,2.53,3.77l-1.37,3.12a7.83,7.83,0,0,1-4.4-6.59A8.63,8.63,0,0,1,384.27,704.36Z"/><path class="cls-5" d="M386.1,722.62a9,9,0,1,1-8,9.78A8.65,8.65,0,0,1,386.1,722.62Zm1.33,14.16c3.19-.3,5.44-2.58,5.14-5.74s-2.93-5-6.12-4.67-5.43,2.56-5.13,5.72S384.22,737.08,387.43,736.78Z"/><path class="cls-4" d="M211.54,743.23a8.67,8.67,0,0,1-7.67-10.07,9.28,9.28,0,0,1,4.17-6.68l6.53.87-1.07,8-3.17-.42.6-4.51-2-.27a5.59,5.59,0,0,0-1.79,3.43,5.67,5.67,0,0,0,11.21,1.5,4.78,4.78,0,0,0-1.63-4.25l2-2.73a7.85,7.85,0,0,1,2.81,7.41A8.63,8.63,0,0,1,211.54,743.23Z"/><path class="cls-4" d="M206.9,712.22l3.17.42-1,7.18L223,721.67l-.49,3.67-17-2.27Z"/><path class="cls-4" d="M215.54,712.37a9,9,0,1,1,10-7.73A8.65,8.65,0,0,1,215.54,712.37Zm1.88-14.1c-3.17-.42-5.87,1.3-6.29,4.45s1.74,5.49,4.91,5.91,5.87-1.27,6.29-4.42S220.62,698.7,217.42,698.27Z"/><path class="cls-4" d="M211,681.6c.43-3.24,2.7-4.68,5.25-4.34a4.16,4.16,0,0,1,3.76,3.82,3.8,3.8,0,0,1,4.29-2.41c2.28.3,4.12,2.24,3.69,5.48l-1.19,9-17-2.27ZM224.26,689l.62-4.65a1.94,1.94,0,1,0-3.84-.51l-.62,4.65Zm-6.85-.91.63-4.67a2,2,0,0,0-1.7-2.47,2,2,0,0,0-2.31,1.93l-.62,4.67Z"/><path class="cls-4" d="M214.12,658l16.16,8.84-.6,4.54-17.91,4.32.51-3.87,3.15-.7,1-7.78-2.86-1.5Zm5.21,6.83-.75,5.65,8.21-1.8Z"/><path class="cls-4" d="M215.78,645.59,219,646l-1,7.18L231.85,655l-.49,3.67-17-2.27Z"/><path class="cls-5" d="M225.54,638.2a8.68,8.68,0,0,1-7.67-10.07,9.3,9.3,0,0,1,4.17-6.69l6.53.87-1.07,8-3.17-.43.6-4.51-2-.26a5.53,5.53,0,0,0-1.79,3.43,5.67,5.67,0,0,0,11.21,1.49,4.76,4.76,0,0,0-1.63-4.24l2-2.74a7.86,7.86,0,0,1,2.81,7.41A8.63,8.63,0,0,1,225.54,638.2Z"/><path class="cls-5" d="M227.85,620a9,9,0,1,1,10-7.73A8.64,8.64,0,0,1,227.85,620Zm1.88-14.1c-3.17-.42-5.87,1.3-6.29,4.45s1.74,5.49,4.91,5.91,5.87-1.27,6.29-4.42S232.93,606.32,229.73,605.89Z"/><ellipse class="cls-4" cx="333.48" cy="532.4" rx="17.6" ry="10.61"/><g id="Q4h4sg"><path class="cls-5" d="M343.07,531.11l-.05.25.16-.06a.38.38,0,0,1,.1,0s0,.08,0,.11-.11.06-.13.11a.64.64,0,0,0-.1.26c0,.09.07.14.18.11l0,0c.26.11.17-.1.18-.2s0-.28,0-.46c.25.06.51.1.75.18a4.25,4.25,0,0,1,.22,8,.51.51,0,0,1-.42.06c-.05,0-.15.05-.24.08-.13-.13-.17-.13-.28,0l-.29-.07,0,.27s-.11,0-.13-.08a.32.32,0,0,0-.58,0l-.07,0v-.46h-.25v.44l-.2-.11c-.06,0-.13-.09-.19-.08a1.36,1.36,0,0,1-.74-.21,4.25,4.25,0,0,1-.94-7,.22.22,0,0,0,.06-.33c-.21-.4-.4-.8-.63-1.25-.2.2-.4.37-.56.56a5.93,5.93,0,0,0-1.39,4.17,7.54,7.54,0,0,0,.12.81.84.84,0,0,1-.78,1H330.5a.78.78,0,0,1-.84-.54.46.46,0,0,0-.57-.35,2.25,2.25,0,0,1-.58,0c-.12,0-.16,0-.19.16a4.11,4.11,0,0,1-1.52,2.28,4.19,4.19,0,0,1-3.13.85,4.25,4.25,0,0,1-.37-8.37h.09c.05.07.08.22.19,0h.09s0,.07,0,.08-.1.07-.13.12a.6.6,0,0,0-.1.27c0,.09.07.14.17.11s0,0,.06,0c.25.11.16-.09.17-.19s0-.3,0-.48a4.33,4.33,0,0,1,2.29.43l.74-1a2,2,0,0,0-.26-.18,13.78,13.78,0,0,0-2.47-1.28.58.58,0,0,0-.26,0,5.52,5.52,0,0,0-3.52,2.21c-.07.1-.14.24-.27.17a.45.45,0,0,1-.22-.25,1.29,1.29,0,0,1,.17-1,3.81,3.81,0,0,1,.92-1c.4-.33.83-.63,1.25-.94l.13-.09-.68-.6-.36-.36a.31.31,0,0,1-.09-.38.34.34,0,0,1,.35-.21h3.86a1.39,1.39,0,0,1,1,.4,6.36,6.36,0,0,1,.61.66,2.09,2.09,0,0,0,1.61.83l1.73.1a.77.77,0,0,0,.76-.46,8.14,8.14,0,0,1,.77-1.17,2.51,2.51,0,0,1,2.41-.9,10.79,10.79,0,0,1,2.77.83l.62.25-.18-.37a.27.27,0,0,1,.2-.41l1.11-.19a.52.52,0,0,1,.58.32c.19.38.39.75.57,1.13.06.12.12.13.24.1a.76.76,0,0,0,.58-.69,2.53,2.53,0,0,0-.24-1.24c-.23-.49-.47-1-.69-1.46a2.52,2.52,0,0,1-.13-.49c0-.24.08-.34.31-.28a1.76,1.76,0,0,1,.4.16,8.5,8.5,0,0,1,3.6,4.22,2.41,2.41,0,0,1,.16,1.19,1.09,1.09,0,0,1-.6.86,3.51,3.51,0,0,1-1.42.36l-.8,0c.15.29.28.57.43.84,0,0,.09,0,.14,0Zm-2.2,2.33a2.82,2.82,0,1,0,4.57.75,2.75,2.75,0,0,0-2.9-1.56l.51,1a.31.31,0,0,0,.23.2,1.61,1.61,0,1,1-1.87.93s.06-.13,0-.18C341.26,534.21,341.07,533.84,340.87,533.44Zm-14,2.89h-1.16a.29.29,0,0,0-.26.13,1.61,1.61,0,0,1-1.77.46,1.58,1.58,0,0,1-1.06-1.48,1.61,1.61,0,0,1,1.71-1.65.22.22,0,0,0,.18,0c.25-.31.49-.63.73-1a2.79,2.79,0,0,0-2.93.54,2.83,2.83,0,0,0,2.35,4.87A2.79,2.79,0,0,0,326.85,536.33ZM335,532c0,.19,0,.21-.19.23,0,0-.1,0-.11.08s0,.11,0,.12a.35.35,0,0,0,.51-.23c0-.41,0-.81,0-1.23H335c0,.27,0,.52,0,.77,0,0,0,.09-.07.13s-.07-.08-.07-.12a5.42,5.42,0,0,1,0-.57c0-.12,0-.25-.21-.24l.38-.28,0,0a.12.12,0,0,0-.07-.21H333.8a.71.71,0,0,0-.36.15c-.25.19-.48.41-.72.62v-.39c0-.1-.05-.11-.13-.11s-.11,0-.11.12,0,.38,0,.57a.58.58,0,0,1-.06.17,1.17,1.17,0,0,1-.06-.35.27.27,0,0,0-.35-.25c-.18,0-.26.12-.26.33.09,0,.2.1.24-.07,0,0,.06,0,.09,0s.05.09,0,.11a.69.69,0,0,1-.17.17.38.38,0,0,0-.21.35.5.5,0,0,0,.13.26c.05,0,.16,0,.19,0l.41,0h1.26l.12-.16v.07a.76.76,0,0,0,.18.09c.12,0,.08-.1.1-.16a1.7,1.7,0,0,1,.1-.32s0,0,0,0a2.35,2.35,0,0,1,0,.26c0,.21,0,.23.23.15a5.49,5.49,0,0,1,.06-1,6,6,0,0,1,0,.73C334.61,532,334.73,532.11,335,532Zm-7.61.58a4.37,4.37,0,0,1,1,1.85.15.15,0,0,0,.12.08h.86s.11-.05.11-.08a2.48,2.48,0,0,0,.07-.71,3.8,3.8,0,0,0-1.4-2.12Zm-.47,1.93-.41-.77-.58.77Zm11.65-6.87a5.71,5.71,0,0,0,0-.58c0-.12-.12-.17-.24-.14a.16.16,0,0,0-.14.23l.11,0,.12-.05a.37.37,0,0,1-.07.14c0,.06-.12.09-.14.15a.48.48,0,0,0,0,.24s.08.05.12.06Zm-10.21,8,.14,0,.1,0s0,.1,0,.13a1.25,1.25,0,0,1-.12.08c-.1.08-.13.29,0,.33a1,1,0,0,0,.35,0,.31.31,0,0,0,0-.07c0-.16,0-.31,0-.46a.19.19,0,0,0-.21-.21C328.39,535.37,328.32,535.45,328.33,535.6Z"/><path class="cls-5" d="M338.54,527.59l-.26,0s-.11,0-.12-.06a.48.48,0,0,1,0-.24c0-.06.1-.09.14-.15a.37.37,0,0,0,.07-.14l-.12.05-.11,0a.16.16,0,0,1,.14-.23c.12,0,.23,0,.24.14A5.71,5.71,0,0,1,338.54,527.59Z"/><path class="cls-5" d="M332.12,531.53a1.41,1.41,0,0,1,0,.2s0,.06-.07.09-.07-.08-.07-.11a.93.93,0,0,1,.1-.2Z"/></g><path class="cls-5" d="M323.14,531.28a2.49,2.49,0,0,1,1.06-.13c.48.08.09.91.09.91l-.92.21Z"/><polygon class="cls-5" points="328.06 535.18 329.03 535.28 328.89 536.25 328.21 536.25 328.06 535.18"/><path class="cls-5" d="M332.91,531h0a1.29,1.29,0,0,0-.41.64l-.05.21a2.57,2.57,0,0,0-.08.4l0,.26-1.53-1,.47-1.09.92-.19.84.14Z"/><path class="cls-5" d="M334.81,530.77a2.09,2.09,0,0,0-1.09,1.26c-.15.8,1.09,1.11,1.09,1.11l1.37-1.48-.42-.89Z"/><polygon class="cls-5" points="337.96 526.6 338.88 526.6 338.88 528.14 337.96 527.99 337.96 526.6"/><path class="cls-5" d="M343.45,531.17a1.08,1.08,0,0,0-.39-.06c-.17,0-.3.39-.3.39l.07.39,1,.12-.1-.48Z"/><path class="cls-5" d="M340,538.52a4.19,4.19,0,0,0,5.19.45l-.47-.67h-4.3Z"/><rect class="cls-5" x="342.19" y="652.02" width="8.3" height="13.27" transform="translate(692.68 1317.32) rotate(-180)"/><rect class="cls-5" x="325.59" y="652.02" width="8.3" height="13.27" transform="translate(659.48 1317.32) rotate(-180)"/><rect class="cls-4" x="333.89" y="652.02" width="8.3" height="13.27" transform="translate(676.08 1317.32) rotate(-180)"/><polygon class="cls-4" points="277.29 537.53 277.29 520.79 261.3 530.37 259.46 530.48 243.01 520.79 243.01 536.54 259.46 547.12 260.94 547.12 277.29 537.53"/><polygon class="cls-12" points="264.31 540.24 272.84 535.46 272.84 529.17 264.31 533.78 264.31 535.67 260.88 531.48 260.88 531.48 276.06 523.11 276.06 537.42 260.88 545.62 260.88 539.47 260.88 538.2 264.31 536.6 264.31 540.24"/><polyline class="cls-12" points="262.14 537.66 267.38 535.11 264.24 538.48"/><path class="cls-5" d="M259.51,545.62V531.4l-15.28-8.29v13.46Zm-3.24-12v6.57l-9.51-5.62v-6.24Z"/><path id="cuerpo-2" data-name="cuerpo" class="cls-4" d="M238.55,486.63S199.14,587,179,771.1h90.29l25.66-63.28a1.48,1.48,0,0,1,2.22-.66c4.75,3.29,18.92,16.85,24.72,63.94h89.41s-5.92-183.23-49.85-284.47C361.42,486.63,292.87,502.84,238.55,486.63Z"/><g class="cls-13"><g class="cls-14"><polygon class="cls-12" points="411.83 484.11 421.08 479.02 421.08 472.31 411.83 477.23 411.83 479.24 408.12 474.77 408.12 474.77 424.56 465.85 424.56 481.11 408.12 489.85 408.12 483.29 408.12 481.94 411.83 480.23 411.83 484.11"/><polyline class="cls-12" points="409.48 481.36 415.16 478.65 411.76 482.24"/><path class="cls-12" d="M406.63,489.85V474.68l-16.55-8.83V480.2Zm-3.51-12.78v7l-10.3-6v-6.65Z"/><polygon class="cls-12" points="374.44 484.11 383.68 479.02 383.68 472.31 374.43 477.23 374.43 479.24 370.72 474.77 370.72 474.77 387.16 465.85 387.16 481.11 370.72 489.85 370.72 483.29 370.72 481.94 374.43 480.23 374.44 484.11"/><polyline class="cls-12" points="372.08 481.36 377.76 478.65 374.36 482.24"/><path class="cls-12" d="M369.23,489.85V474.68l-16.55-8.83V480.2Zm-3.5-12.78v7l-10.31-6v-6.65Z"/><polygon class="cls-12" points="337.04 484.11 346.28 479.02 346.28 472.31 337.03 477.23 337.03 479.24 333.32 474.77 333.32 474.77 349.77 465.85 349.77 481.11 333.32 489.85 333.32 483.29 333.32 481.94 337.03 480.23 337.04 484.11"/><polyline class="cls-12" points="334.68 481.36 340.36 478.65 336.96 482.24"/><path class="cls-12" d="M331.84,489.85V474.68l-16.56-8.83V480.2Zm-3.51-12.78v7l-10.31-6v-6.65Z"/><polygon class="cls-12" points="299.64 484.11 308.88 479.02 308.88 472.31 299.63 477.23 299.63 479.24 295.92 474.77 295.92 474.77 312.37 465.85 312.37 481.11 295.92 489.85 295.92 483.29 295.92 481.94 299.63 480.23 299.64 484.11"/><polyline class="cls-12" points="297.28 481.36 302.96 478.65 299.56 482.24"/><path class="cls-12" d="M294.44,489.85V474.68l-16.56-8.83V480.2Zm-3.51-12.78v7l-10.31-6v-6.65Z"/><polygon class="cls-12" points="262.24 484.11 271.48 479.02 271.48 472.31 262.23 477.23 262.23 479.24 258.52 474.77 258.52 474.77 274.97 465.85 274.97 481.11 258.52 489.85 258.52 483.29 258.52 481.94 262.24 480.23 262.24 484.11"/><polyline class="cls-12" points="259.88 481.36 265.56 478.65 262.16 482.24"/><path class="cls-12" d="M257,489.85V474.68l-16.56-8.83V480.2Zm-3.51-12.78v7l-10.31-6v-6.65Z"/><polygon class="cls-12" points="224.84 484.11 234.08 479.02 234.08 472.31 224.83 477.23 224.84 479.24 221.12 474.77 221.12 474.77 237.57 465.85 237.57 481.11 221.12 489.85 221.12 483.29 221.12 481.94 224.84 480.23 224.84 484.11"/><polyline class="cls-12" points="222.48 481.36 228.17 478.65 224.76 482.24"/><path class="cls-12" d="M219.64,489.85V474.68l-16.56-8.83V480.2Zm-3.51-12.78v7l-10.31-6v-6.65Z"/><polygon class="cls-12" points="187.44 484.11 196.68 479.02 196.68 472.31 187.43 477.23 187.44 479.24 183.72 474.77 183.72 474.77 200.17 465.85 200.17 481.11 183.72 489.85 183.72 483.29 183.72 481.94 187.44 480.23 187.44 484.11"/><polyline class="cls-12" points="185.08 481.36 190.77 478.65 187.36 482.24"/><path class="cls-12" d="M182.24,489.85V474.68l-16.56-8.83V480.2Zm-3.51-12.78v7l-10.31-6v-6.65Z"/><polygon class="cls-12" points="411.83 502.99 421.08 497.9 421.08 491.19 411.83 496.11 411.83 498.12 408.12 493.65 408.12 493.65 424.56 484.72 424.56 499.99 408.12 508.73 408.12 502.17 408.12 500.82 411.83 499.11 411.83 502.99"/><polyline class="cls-12" points="409.48 500.24 415.16 497.52 411.76 501.11"/><path class="cls-12" d="M406.63,508.73V493.56l-16.55-8.84v14.36Zm-3.51-12.79v7l-10.3-6V490.3Z"/><polygon class="cls-12" points="374.44 502.99 383.68 497.9 383.68 491.19 374.43 496.11 374.43 498.12 370.72 493.65 370.72 493.65 387.16 484.72 387.16 499.99 370.72 508.73 370.72 502.17 370.72 500.82 374.43 499.11 374.44 502.99"/><polyline class="cls-12" points="372.08 500.24 377.76 497.52 374.36 501.11"/><path class="cls-12" d="M369.23,508.73V493.56l-16.55-8.84v14.36Zm-3.5-12.79v7l-10.31-6V490.3Z"/><polygon class="cls-12" points="337.04 502.99 346.28 497.9 346.28 491.19 337.03 496.11 337.03 498.12 333.32 493.65 333.32 493.65 349.77 484.72 349.77 499.99 333.32 508.73 333.32 502.17 333.32 500.82 337.03 499.11 337.04 502.99"/><polyline class="cls-12" points="334.68 500.24 340.36 497.52 336.96 501.11"/><path class="cls-12" d="M331.84,508.73V493.56l-16.56-8.84v14.36Zm-3.51-12.79v7L318,497V490.3Z"/><polygon class="cls-12" points="299.64 502.99 308.88 497.9 308.88 491.19 299.63 496.11 299.63 498.12 295.92 493.65 295.92 493.65 312.37 484.72 312.37 499.99 295.92 508.73 295.92 502.17 295.92 500.82 299.63 499.11 299.64 502.99"/><polyline class="cls-12" points="297.28 500.24 302.96 497.52 299.56 501.11"/><path class="cls-12" d="M294.44,508.73V493.56l-16.56-8.84v14.36Zm-3.51-12.79v7l-10.31-6V490.3Z"/><polygon class="cls-12" points="262.24 502.99 271.48 497.9 271.48 491.19 262.23 496.11 262.23 498.12 258.52 493.65 258.52 493.65 274.97 484.72 274.97 499.99 258.52 508.73 258.52 502.17 258.52 500.82 262.24 499.11 262.24 502.99"/><polyline class="cls-12" points="259.88 500.24 265.56 497.52 262.16 501.11"/><path class="cls-12" d="M257,508.73V493.56l-16.56-8.84v14.36Zm-3.51-12.79v7l-10.31-6V490.3Z"/><polygon class="cls-12" points="224.84 502.99 234.08 497.9 234.08 491.19 224.83 496.11 224.84 498.12 221.12 493.65 221.12 493.65 237.57 484.72 237.57 499.99 221.12 508.73 221.12 502.17 221.12 500.82 224.84 499.11 224.84 502.99"/><polyline class="cls-12" points="222.48 500.24 228.17 497.52 224.76 501.11"/><path class="cls-12" d="M219.64,508.73V493.56l-16.56-8.84v14.36Zm-3.51-12.79v7l-10.31-6V490.3Z"/><polygon class="cls-12" points="187.44 502.99 196.68 497.9 196.68 491.19 187.43 496.11 187.44 498.12 183.72 493.65 183.72 493.65 200.17 484.72 200.17 499.99 183.72 508.73 183.72 502.17 183.72 500.82 187.44 499.11 187.44 502.99"/><polyline class="cls-12" points="185.08 500.24 190.77 497.52 187.36 501.11"/><path class="cls-12" d="M182.24,508.73V493.56l-16.56-8.84v14.36Zm-3.51-12.79v7l-10.31-6V490.3Z"/><polygon class="cls-12" points="411.83 521.86 421.08 516.77 421.08 510.06 411.83 514.98 411.83 516.99 408.12 512.53 408.12 512.53 424.56 503.6 424.56 518.86 408.12 527.61 408.12 521.04 408.12 519.69 411.83 517.99 411.83 521.86"/><polyline class="cls-12" points="409.48 519.12 415.16 516.4 411.76 519.99"/><path class="cls-12" d="M406.63,527.61V512.44l-16.55-8.84V518Zm-3.51-12.79v7l-10.3-6v-6.65Z"/><polygon class="cls-12" points="374.44 521.86 383.68 516.77 383.68 510.06 374.43 514.98 374.43 516.99 370.72 512.53 370.72 512.53 387.16 503.6 387.16 518.86 370.72 527.61 370.72 521.04 370.72 519.69 374.43 517.99 374.44 521.86"/><polyline class="cls-12" points="372.08 519.12 377.76 516.4 374.36 519.99"/><path class="cls-12" d="M369.23,527.61V512.44l-16.55-8.84V518Zm-3.5-12.79v7l-10.31-6v-6.65Z"/><polygon class="cls-12" points="337.04 521.86 346.28 516.77 346.28 510.06 337.03 514.98 337.03 516.99 333.32 512.53 333.32 512.53 349.77 503.6 349.77 518.86 333.32 527.61 333.32 521.04 333.32 519.69 337.03 517.99 337.04 521.86"/><polyline class="cls-12" points="334.68 519.12 340.36 516.4 336.96 519.99"/><path class="cls-12" d="M331.84,527.61V512.44l-16.56-8.84V518Zm-3.51-12.79v7l-10.31-6v-6.65Z"/><polygon class="cls-12" points="299.64 521.86 308.88 516.77 308.88 510.06 299.63 514.98 299.63 516.99 295.92 512.53 295.92 512.53 312.37 503.6 312.37 518.86 295.92 527.61 295.92 521.04 295.92 519.69 299.63 517.99 299.64 521.86"/><polyline class="cls-12" points="297.28 519.12 302.96 516.4 299.56 519.99"/><path class="cls-12" d="M294.44,527.61V512.44l-16.56-8.84V518Zm-3.51-12.79v7l-10.31-6v-6.65Z"/><polygon class="cls-12" points="262.24 521.86 271.48 516.77 271.48 510.06 262.23 514.98 262.23 516.99 258.52 512.53 258.52 512.53 274.97 503.6 274.97 518.86 258.52 527.61 258.52 521.04 258.52 519.69 262.24 517.99 262.24 521.86"/><polyline class="cls-12" points="259.88 519.12 265.56 516.4 262.16 519.99"/><path class="cls-12" d="M257,527.61V512.44l-16.56-8.84V518Zm-3.51-12.79v7l-10.31-6v-6.65Z"/><polygon class="cls-12" points="224.84 521.86 234.08 516.77 234.08 510.06 224.83 514.98 224.84 516.99 221.12 512.53 221.12 512.53 237.57 503.6 237.57 518.86 221.12 527.61 221.12 521.04 221.12 519.69 224.84 517.99 224.84 521.86"/><polyline class="cls-12" points="222.48 519.12 228.17 516.4 224.76 519.99"/><path class="cls-12" d="M219.64,527.61V512.44l-16.56-8.84V518Zm-3.51-12.79v7l-10.31-6v-6.65Z"/><polygon class="cls-12" points="187.44 521.86 196.68 516.77 196.68 510.06 187.43 514.98 187.44 516.99 183.72 512.53 183.72 512.53 200.17 503.6 200.17 518.86 183.72 527.61 183.72 521.04 183.72 519.69 187.44 517.99 187.44 521.86"/><polyline class="cls-12" points="185.08 519.12 190.77 516.4 187.36 519.99"/><path class="cls-12" d="M182.24,527.61V512.44l-16.56-8.84V518Zm-3.51-12.79v7l-10.31-6v-6.65Z"/><polygon class="cls-12" points="411.83 540.74 421.08 535.65 421.08 528.94 411.83 533.86 411.83 535.87 408.12 531.41 408.12 531.41 424.56 522.48 424.56 537.74 408.12 546.48 408.12 539.92 408.12 538.57 411.83 536.86 411.83 540.74"/><polyline class="cls-12" points="409.48 538 415.16 535.28 411.76 538.87"/><path class="cls-12" d="M406.63,546.48V531.31l-16.55-8.83v14.35Zm-3.51-12.78v7l-10.3-6v-6.65Z"/><polygon class="cls-12" points="374.44 540.74 383.68 535.65 383.68 528.94 374.43 533.86 374.43 535.87 370.72 531.41 370.72 531.41 387.16 522.48 387.16 537.74 370.72 546.48 370.72 539.92 370.72 538.57 374.43 536.86 374.44 540.74"/><polyline class="cls-12" points="372.08 538 377.76 535.28 374.36 538.87"/><path class="cls-12" d="M369.23,546.48V531.31l-16.55-8.83v14.35Zm-3.5-12.78v7l-10.31-6v-6.65Z"/><polygon class="cls-12" points="337.04 540.74 346.28 535.65 346.28 528.94 337.03 533.86 337.03 535.87 333.32 531.41 333.32 531.41 349.77 522.48 349.77 537.74 333.32 546.48 333.32 539.92 333.32 538.57 337.03 536.86 337.04 540.74"/><polyline class="cls-12" points="334.68 538 340.36 535.28 336.96 538.87"/><path class="cls-12" d="M331.84,546.48V531.31l-16.56-8.83v14.35Zm-3.51-12.78v7l-10.31-6v-6.65Z"/><polygon class="cls-12" points="299.64 540.74 308.88 535.65 308.88 528.94 299.63 533.86 299.63 535.87 295.92 531.41 295.92 531.41 312.37 522.48 312.37 537.74 295.92 546.48 295.92 539.92 295.92 538.57 299.63 536.86 299.64 540.74"/><polyline class="cls-12" points="297.28 538 302.96 535.28 299.56 538.87"/><path class="cls-12" d="M294.44,546.48V531.31l-16.56-8.83v14.35Zm-3.51-12.78v7l-10.31-6v-6.65Z"/><polygon class="cls-12" points="262.24 540.74 271.48 535.65 271.48 528.94 262.23 533.86 262.23 535.87 258.52 531.41 258.52 531.41 274.97 522.48 274.97 537.74 258.52 546.48 258.52 539.92 258.52 538.57 262.24 536.86 262.24 540.74"/><polyline class="cls-12" points="259.88 538 265.56 535.28 262.16 538.87"/><path class="cls-12" d="M257,546.48V531.31l-16.56-8.83v14.35Zm-3.51-12.78v7l-10.31-6v-6.65Z"/><polygon class="cls-12" points="224.84 540.74 234.08 535.65 234.08 528.94 224.83 533.86 224.84 535.87 221.12 531.41 221.12 531.41 237.57 522.48 237.57 537.74 221.12 546.48 221.12 539.92 221.12 538.57 224.84 536.86 224.84 540.74"/><polyline class="cls-12" points="222.48 538 228.17 535.28 224.76 538.87"/><path class="cls-12" d="M219.64,546.48V531.31l-16.56-8.83v14.35Zm-3.51-12.78v7l-10.31-6v-6.65Z"/><polygon class="cls-12" points="187.44 540.74 196.68 535.65 196.68 528.94 187.43 533.86 187.44 535.87 183.72 531.41 183.72 531.41 200.17 522.48 200.17 537.74 183.72 546.48 183.72 539.92 183.72 538.57 187.44 536.86 187.44 540.74"/><polyline class="cls-12" points="185.08 538 190.77 535.28 187.36 538.87"/><path class="cls-12" d="M182.24,546.48V531.31l-16.56-8.83v14.35Zm-3.51-12.78v7l-10.31-6v-6.65Z"/><polygon class="cls-12" points="411.83 559.62 421.08 554.53 421.08 547.82 411.83 552.74 411.83 554.75 408.12 550.28 408.12 550.28 424.56 541.35 424.56 556.62 408.12 565.36 408.12 558.8 408.12 557.45 411.83 555.74 411.83 559.62"/><polyline class="cls-12" points="409.48 556.87 415.16 554.15 411.76 557.75"/><path class="cls-12" d="M406.63,565.36V550.19l-16.55-8.84v14.36Zm-3.51-12.79v7l-10.3-6v-6.65Z"/><polygon class="cls-12" points="374.44 559.62 383.68 554.53 383.68 547.82 374.43 552.74 374.43 554.75 370.72 550.28 370.72 550.28 387.16 541.35 387.16 556.62 370.72 565.36 370.72 558.8 370.72 557.45 374.43 555.74 374.44 559.62"/><polyline class="cls-12" points="372.08 556.87 377.76 554.15 374.36 557.75"/><path class="cls-12" d="M369.23,565.36V550.19l-16.55-8.84v14.36Zm-3.5-12.79v7l-10.31-6v-6.65Z"/><polygon class="cls-12" points="337.04 559.62 346.28 554.53 346.28 547.82 337.03 552.74 337.03 554.75 333.32 550.28 333.32 550.28 349.77 541.35 349.77 556.62 333.32 565.36 333.32 558.8 333.32 557.45 337.03 555.74 337.04 559.62"/><polyline class="cls-12" points="334.68 556.87 340.36 554.15 336.96 557.75"/><path class="cls-12" d="M331.84,565.36V550.19l-16.56-8.84v14.36Zm-3.51-12.79v7l-10.31-6v-6.65Z"/><polygon class="cls-12" points="299.64 559.62 308.88 554.53 308.88 547.82 299.63 552.74 299.63 554.75 295.92 550.28 295.92 550.28 312.37 541.35 312.37 556.62 295.92 565.36 295.92 558.8 295.92 557.45 299.63 555.74 299.64 559.62"/><polyline class="cls-12" points="297.28 556.87 302.96 554.15 299.56 557.75"/><path class="cls-12" d="M294.44,565.36V550.19l-16.56-8.84v14.36Zm-3.51-12.79v7l-10.31-6v-6.65Z"/><polygon class="cls-12" points="262.24 559.62 271.48 554.53 271.48 547.82 262.23 552.74 262.23 554.75 258.52 550.28 258.52 550.28 274.97 541.35 274.97 556.62 258.52 565.36 258.52 558.8 258.52 557.45 262.24 555.74 262.24 559.62"/><polyline class="cls-12" points="259.88 556.87 265.56 554.15 262.16 557.75"/><path class="cls-12" d="M257,565.36V550.19l-16.56-8.84v14.36Zm-3.51-12.79v7l-10.31-6v-6.65Z"/><polygon class="cls-12" points="224.84 559.62 234.08 554.53 234.08 547.82 224.83 552.74 224.84 554.75 221.12 550.28 221.12 550.28 237.57 541.35 237.57 556.62 221.12 565.36 221.12 558.8 221.12 557.45 224.84 555.74 224.84 559.62"/><polyline class="cls-12" points="222.48 556.87 228.17 554.15 224.76 557.75"/><path class="cls-12" d="M219.64,565.36V550.19l-16.56-8.84v14.36Zm-3.51-12.79v7l-10.31-6v-6.65Z"/><polygon class="cls-12" points="187.44 559.62 196.68 554.53 196.68 547.82 187.43 552.74 187.44 554.75 183.72 550.28 183.72 550.28 200.17 541.35 200.17 556.62 183.72 565.36 183.72 558.8 183.72 557.45 187.44 555.74 187.44 559.62"/><polyline class="cls-12" points="185.08 556.87 190.77 554.15 187.36 557.75"/><path class="cls-12" d="M182.24,565.36V550.19l-16.56-8.84v14.36Zm-3.51-12.79v7l-10.31-6v-6.65Z"/><polygon class="cls-12" points="411.83 578.5 421.08 573.4 421.08 566.69 411.83 571.61 411.83 573.62 408.12 569.16 408.12 569.16 424.56 560.23 424.56 575.5 408.12 584.24 408.12 577.68 408.12 576.32 411.83 574.62 411.83 578.5"/><polyline class="cls-12" points="409.48 575.75 415.16 573.03 411.76 576.62"/><path class="cls-12" d="M406.63,584.24V569.07l-16.55-8.84v14.36Zm-3.51-12.79v7l-10.3-6v-6.65Z"/><polygon class="cls-12" points="374.44 578.5 383.68 573.4 383.68 566.69 374.43 571.61 374.43 573.62 370.72 569.16 370.72 569.16 387.16 560.23 387.16 575.5 370.72 584.24 370.72 577.68 370.72 576.32 374.43 574.62 374.44 578.5"/><polyline class="cls-12" points="372.08 575.75 377.76 573.03 374.36 576.62"/><path class="cls-12" d="M369.23,584.24V569.07l-16.55-8.84v14.36Zm-3.5-12.79v7l-10.31-6v-6.65Z"/><polygon class="cls-12" points="337.04 578.5 346.28 573.4 346.28 566.69 337.03 571.61 337.03 573.62 333.32 569.16 333.32 569.16 349.77 560.23 349.77 575.5 333.32 584.24 333.32 577.68 333.32 576.32 337.03 574.62 337.04 578.5"/><polyline class="cls-12" points="334.68 575.75 340.36 573.03 336.96 576.62"/><path class="cls-12" d="M331.84,584.24V569.07l-16.56-8.84v14.36Zm-3.51-12.79v7l-10.31-6v-6.65Z"/><polygon class="cls-12" points="299.64 578.5 308.88 573.4 308.88 566.69 299.63 571.61 299.63 573.62 295.92 569.16 295.92 569.16 312.37 560.23 312.37 575.5 295.92 584.24 295.92 577.68 295.92 576.32 299.63 574.62 299.64 578.5"/><polyline class="cls-12" points="297.28 575.75 302.96 573.03 299.56 576.62"/><path class="cls-12" d="M294.44,584.24V569.07l-16.56-8.84v14.36Zm-3.51-12.79v7l-10.31-6v-6.65Z"/><polygon class="cls-12" points="262.24 578.5 271.48 573.4 271.48 566.69 262.23 571.61 262.23 573.62 258.52 569.16 258.52 569.16 274.97 560.23 274.97 575.5 258.52 584.24 258.52 577.68 258.52 576.32 262.24 574.62 262.24 578.5"/><polyline class="cls-12" points="259.88 575.75 265.56 573.03 262.16 576.62"/><path class="cls-12" d="M257,584.24V569.07l-16.56-8.84v14.36Zm-3.51-12.79v7l-10.31-6v-6.65Z"/><polygon class="cls-12" points="224.84 578.5 234.08 573.4 234.08 566.69 224.83 571.61 224.84 573.62 221.12 569.16 221.12 569.16 237.57 560.23 237.57 575.5 221.12 584.24 221.12 577.68 221.12 576.32 224.84 574.62 224.84 578.5"/><polyline class="cls-12" points="222.48 575.75 228.17 573.03 224.76 576.62"/><path class="cls-12" d="M219.64,584.24V569.07l-16.56-8.84v14.36Zm-3.51-12.79v7l-10.31-6v-6.65Z"/><polygon class="cls-12" points="187.44 578.5 196.68 573.4 196.68 566.69 187.43 571.61 187.44 573.62 183.72 569.16 183.72 569.16 200.17 560.23 200.17 575.5 183.72 584.24 183.72 577.68 183.72 576.32 187.44 574.62 187.44 578.5"/><polyline class="cls-12" points="185.08 575.75 190.77 573.03 187.36 576.62"/><path class="cls-12" d="M182.24,584.24V569.07l-16.56-8.84v14.36Zm-3.51-12.79v7l-10.31-6v-6.65Z"/><polygon class="cls-12" points="411.83 597.37 421.08 592.28 421.08 585.57 411.83 590.49 411.83 592.5 408.12 588.04 408.12 588.04 424.56 579.11 424.56 594.37 408.12 603.12 408.12 596.55 408.12 595.2 411.83 593.49 411.83 597.37"/><polyline class="cls-12" points="409.48 594.63 415.16 591.91 411.76 595.5"/><path class="cls-12" d="M406.63,603.11V588l-16.55-8.84v14.35Zm-3.51-12.78v7l-10.3-6v-6.65Z"/><polygon class="cls-12" points="374.44 597.37 383.68 592.28 383.68 585.57 374.43 590.49 374.43 592.5 370.72 588.04 370.72 588.04 387.16 579.11 387.16 594.37 370.72 603.12 370.72 596.55 370.72 595.2 374.43 593.49 374.44 597.37"/><polyline class="cls-12" points="372.08 594.63 377.76 591.91 374.36 595.5"/><path class="cls-12" d="M369.23,603.11V588l-16.55-8.84v14.35Zm-3.5-12.78v7l-10.31-6v-6.65Z"/><polygon class="cls-12" points="337.04 597.37 346.28 592.28 346.28 585.57 337.03 590.49 337.03 592.5 333.32 588.04 333.32 588.04 349.77 579.11 349.77 594.37 333.32 603.12 333.32 596.55 333.32 595.2 337.03 593.49 337.04 597.37"/><polyline class="cls-12" points="334.68 594.63 340.36 591.91 336.96 595.5"/><path class="cls-12" d="M331.84,603.11V588l-16.56-8.84v14.35Zm-3.51-12.78v7l-10.31-6v-6.65Z"/><polygon class="cls-12" points="299.64 597.37 308.88 592.28 308.88 585.57 299.63 590.49 299.63 592.5 295.92 588.04 295.92 588.04 312.37 579.11 312.37 594.37 295.92 603.12 295.92 596.55 295.92 595.2 299.63 593.49 299.64 597.37"/><polyline class="cls-12" points="297.28 594.63 302.96 591.91 299.56 595.5"/><path class="cls-12" d="M294.44,603.11V588l-16.56-8.84v14.35Zm-3.51-12.78v7l-10.31-6v-6.65Z"/><polygon class="cls-12" points="262.24 597.37 271.48 592.28 271.48 585.57 262.23 590.49 262.23 592.5 258.52 588.04 258.52 588.04 274.97 579.11 274.97 594.37 258.52 603.12 258.52 596.55 258.52 595.2 262.24 593.49 262.24 597.37"/><polyline class="cls-12" points="259.88 594.63 265.56 591.91 262.16 595.5"/><path class="cls-12" d="M257,603.11V588l-16.56-8.84v14.35Zm-3.51-12.78v7l-10.31-6v-6.65Z"/><polygon class="cls-12" points="224.84 597.37 234.08 592.28 234.08 585.57 224.83 590.49 224.84 592.5 221.12 588.04 221.12 588.04 237.57 579.11 237.57 594.37 221.12 603.12 221.12 596.55 221.12 595.2 224.84 593.49 224.84 597.37"/><polyline class="cls-12" points="222.48 594.63 228.17 591.91 224.76 595.5"/><path class="cls-12" d="M219.64,603.11V588l-16.56-8.84v14.35Zm-3.51-12.78v7l-10.31-6v-6.65Z"/><polygon class="cls-12" points="187.44 597.37 196.68 592.28 196.68 585.57 187.43 590.49 187.44 592.5 183.72 588.04 183.72 588.04 200.17 579.11 200.17 594.37 183.72 603.12 183.72 596.55 183.72 595.2 187.44 593.49 187.44 597.37"/><polyline class="cls-12" points="185.08 594.63 190.77 591.91 187.36 595.5"/><path class="cls-12" d="M182.24,603.11V588l-16.56-8.84v14.35Zm-3.51-12.78v7l-10.31-6v-6.65Z"/><polygon class="cls-12" points="411.83 616.25 421.08 611.16 421.08 604.45 411.83 609.37 411.83 611.38 408.12 606.91 408.12 606.91 424.56 597.98 424.56 613.25 408.12 621.99 408.12 615.43 408.12 614.08 411.83 612.37 411.83 616.25"/><polyline class="cls-12" points="409.48 613.5 415.16 610.78 411.76 614.38"/><path class="cls-12" d="M406.63,622V606.82L390.08,598v14.36Zm-3.51-12.78v7l-10.3-6v-6.64Z"/><polygon class="cls-12" points="374.44 616.25 383.68 611.16 383.68 604.45 374.43 609.37 374.43 611.38 370.72 606.91 370.72 606.91 387.16 597.98 387.16 613.25 370.72 621.99 370.72 615.43 370.72 614.08 374.43 612.37 374.44 616.25"/><polyline class="cls-12" points="372.08 613.5 377.76 610.78 374.36 614.38"/><path class="cls-12" d="M369.23,622V606.82L352.68,598v14.36Zm-3.5-12.78v7l-10.31-6v-6.64Z"/><polygon class="cls-12" points="337.04 616.25 346.28 611.16 346.28 604.45 337.03 609.37 337.03 611.38 333.32 606.91 333.32 606.91 349.77 597.98 349.77 613.25 333.32 621.99 333.32 615.43 333.32 614.08 337.03 612.37 337.04 616.25"/><polyline class="cls-12" points="334.68 613.5 340.36 610.78 336.96 614.38"/><path class="cls-12" d="M331.84,622V606.82L315.28,598v14.36Zm-3.51-12.78v7l-10.31-6v-6.64Z"/><polygon class="cls-12" points="299.64 616.25 308.88 611.16 308.88 604.45 299.63 609.37 299.63 611.38 295.92 606.91 295.92 606.91 312.37 597.98 312.37 613.25 295.92 621.99 295.92 615.43 295.92 614.08 299.63 612.37 299.64 616.25"/><polyline class="cls-12" points="297.28 613.5 302.96 610.78 299.56 614.38"/><path class="cls-12" d="M294.44,622V606.82L277.88,598v14.36Zm-3.51-12.78v7l-10.31-6v-6.64Z"/><polygon class="cls-12" points="262.24 616.25 271.48 611.16 271.48 604.45 262.23 609.37 262.23 611.38 258.52 606.91 258.52 606.91 274.97 597.98 274.97 613.25 258.52 621.99 258.52 615.43 258.52 614.08 262.24 612.37 262.24 616.25"/><polyline class="cls-12" points="259.88 613.5 265.56 610.78 262.16 614.38"/><path class="cls-12" d="M257,622V606.82L240.48,598v14.36Zm-3.51-12.78v7l-10.31-6v-6.64Z"/><polygon class="cls-12" points="224.84 616.25 234.08 611.16 234.08 604.45 224.83 609.37 224.84 611.38 221.12 606.91 221.12 606.91 237.57 597.98 237.57 613.25 221.12 621.99 221.12 615.43 221.12 614.08 224.84 612.37 224.84 616.25"/><polyline class="cls-12" points="222.48 613.5 228.17 610.78 224.76 614.38"/><path class="cls-12" d="M219.64,622V606.82L203.08,598v14.36Zm-3.51-12.78v7l-10.31-6v-6.64Z"/><polygon class="cls-12" points="187.44 616.25 196.68 611.16 196.68 604.45 187.43 609.37 187.44 611.38 183.72 606.91 183.72 606.91 200.17 597.98 200.17 613.25 183.72 621.99 183.72 615.43 183.72 614.08 187.44 612.37 187.44 616.25"/><polyline class="cls-12" points="185.08 613.5 190.77 610.78 187.36 614.38"/><path class="cls-12" d="M182.24,622V606.82L165.68,598v14.36Zm-3.51-12.78v7l-10.31-6v-6.64Z"/><polygon class="cls-12" points="411.83 635.13 421.08 630.03 421.08 623.32 411.83 628.24 411.83 630.25 408.12 625.79 408.12 625.79 424.56 616.86 424.56 632.13 408.12 640.87 408.12 634.31 408.12 632.96 411.83 631.25 411.83 635.13"/><polyline class="cls-12" points="409.48 632.38 415.16 629.66 411.76 633.25"/><path class="cls-12" d="M406.63,640.87V625.7l-16.55-8.84v14.36Zm-3.51-12.79v7l-10.3-6v-6.65Z"/><polygon class="cls-12" points="374.44 635.13 383.68 630.03 383.68 623.32 374.43 628.24 374.43 630.25 370.72 625.79 370.72 625.79 387.16 616.86 387.16 632.13 370.72 640.87 370.72 634.31 370.72 632.96 374.43 631.25 374.44 635.13"/><polyline class="cls-12" points="372.08 632.38 377.76 629.66 374.36 633.25"/><path class="cls-12" d="M369.23,640.87V625.7l-16.55-8.84v14.36Zm-3.5-12.79v7l-10.31-6v-6.65Z"/><polygon class="cls-12" points="337.04 635.13 346.28 630.03 346.28 623.32 337.03 628.24 337.03 630.25 333.32 625.79 333.32 625.79 349.77 616.86 349.77 632.13 333.32 640.87 333.32 634.31 333.32 632.96 337.03 631.25 337.04 635.13"/><polyline class="cls-12" points="334.68 632.38 340.36 629.66 336.96 633.25"/><path class="cls-12" d="M331.84,640.87V625.7l-16.56-8.84v14.36Zm-3.51-12.79v7l-10.31-6v-6.65Z"/><polygon class="cls-12" points="299.64 635.13 308.88 630.03 308.88 623.32 299.63 628.24 299.63 630.25 295.92 625.79 295.92 625.79 312.37 616.86 312.37 632.13 295.92 640.87 295.92 634.31 295.92 632.96 299.63 631.25 299.64 635.13"/><polyline class="cls-12" points="297.28 632.38 302.96 629.66 299.56 633.25"/><path class="cls-12" d="M294.44,640.87V625.7l-16.56-8.84v14.36Zm-3.51-12.79v7l-10.31-6v-6.65Z"/><polygon class="cls-12" points="262.24 635.13 271.48 630.03 271.48 623.32 262.23 628.24 262.23 630.25 258.52 625.79 258.52 625.79 274.97 616.86 274.97 632.13 258.52 640.87 258.52 634.31 258.52 632.96 262.24 631.25 262.24 635.13"/><polyline class="cls-12" points="259.88 632.38 265.56 629.66 262.16 633.25"/><path class="cls-12" d="M257,640.87V625.7l-16.56-8.84v14.36Zm-3.51-12.79v7l-10.31-6v-6.65Z"/><polygon class="cls-12" points="224.84 635.13 234.08 630.03 234.08 623.32 224.83 628.24 224.84 630.25 221.12 625.79 221.12 625.79 237.57 616.86 237.57 632.13 221.12 640.87 221.12 634.31 221.12 632.96 224.84 631.25 224.84 635.13"/><polyline class="cls-12" points="222.48 632.38 228.17 629.66 224.76 633.25"/><path class="cls-12" d="M219.64,640.87V625.7l-16.56-8.84v14.36Zm-3.51-12.79v7l-10.31-6v-6.65Z"/><polygon class="cls-12" points="187.44 635.13 196.68 630.03 196.68 623.32 187.43 628.24 187.44 630.25 183.72 625.79 183.72 625.79 200.17 616.86 200.17 632.13 183.72 640.87 183.72 634.31 183.72 632.96 187.44 631.25 187.44 635.13"/><polyline class="cls-12" points="185.08 632.38 190.77 629.66 187.36 633.25"/><path class="cls-12" d="M182.24,640.87V625.7l-16.56-8.84v14.36Zm-3.51-12.79v7l-10.31-6v-6.65Z"/><polygon class="cls-12" points="411.83 654 421.08 648.91 421.08 642.2 411.83 647.12 411.83 649.13 408.12 644.67 408.12 644.67 424.56 635.74 424.56 651 408.12 659.75 408.12 653.18 408.12 651.83 411.83 650.12 411.83 654"/><polyline class="cls-12" points="409.48 651.26 415.16 648.54 411.76 652.13"/><path class="cls-12" d="M406.63,659.75V644.58l-16.55-8.84V650.1ZM403.12,647v7l-10.3-6v-6.65Z"/><polygon class="cls-12" points="374.44 654 383.68 648.91 383.68 642.2 374.43 647.12 374.43 649.13 370.72 644.67 370.72 644.67 387.16 635.74 387.16 651 370.72 659.75 370.72 653.18 370.72 651.83 374.43 650.12 374.44 654"/><polyline class="cls-12" points="372.08 651.26 377.76 648.54 374.36 652.13"/><path class="cls-12" d="M369.23,659.75V644.58l-16.55-8.84V650.1ZM365.73,647v7l-10.31-6v-6.65Z"/><polygon class="cls-12" points="337.04 654 346.28 648.91 346.28 642.2 337.03 647.12 337.03 649.13 333.32 644.67 333.32 644.67 349.77 635.74 349.77 651 333.32 659.75 333.32 653.18 333.32 651.83 337.03 650.12 337.04 654"/><polyline class="cls-12" points="334.68 651.26 340.36 648.54 336.96 652.13"/><path class="cls-12" d="M331.84,659.75V644.58l-16.56-8.84V650.1ZM328.33,647v7L318,648v-6.65Z"/><polygon class="cls-12" points="299.64 654 308.88 648.91 308.88 642.2 299.63 647.12 299.63 649.13 295.92 644.67 295.92 644.67 312.37 635.74 312.37 651 295.92 659.75 295.92 653.18 295.92 651.83 299.63 650.12 299.64 654"/><polyline class="cls-12" points="297.28 651.26 302.96 648.54 299.56 652.13"/><path class="cls-12" d="M294.44,659.75V644.58l-16.56-8.84V650.1ZM290.93,647v7l-10.31-6v-6.65Z"/><polygon class="cls-12" points="262.24 654 271.48 648.91 271.48 642.2 262.23 647.12 262.23 649.13 258.52 644.67 258.52 644.67 274.97 635.74 274.97 651 258.52 659.75 258.52 653.18 258.52 651.83 262.24 650.12 262.24 654"/><polyline class="cls-12" points="259.88 651.26 265.56 648.54 262.16 652.13"/><path class="cls-12" d="M257,659.75V644.58l-16.56-8.84V650.1ZM253.53,647v7l-10.31-6v-6.65Z"/><polygon class="cls-12" points="224.84 654 234.08 648.91 234.08 642.2 224.83 647.12 224.84 649.13 221.12 644.67 221.12 644.67 237.57 635.74 237.57 651 221.12 659.75 221.12 653.18 221.12 651.83 224.84 650.12 224.84 654"/><polyline class="cls-12" points="222.48 651.26 228.17 648.54 224.76 652.13"/><path class="cls-12" d="M219.64,659.75V644.58l-16.56-8.84V650.1ZM216.13,647v7l-10.31-6v-6.65Z"/><polygon class="cls-12" points="187.44 654 196.68 648.91 196.68 642.2 187.43 647.12 187.44 649.13 183.72 644.67 183.72 644.67 200.17 635.74 200.17 651 183.72 659.75 183.72 653.18 183.72 651.83 187.44 650.12 187.44 654"/><polyline class="cls-12" points="185.08 651.26 190.77 648.54 187.36 652.13"/><path class="cls-12" d="M182.24,659.75V644.58l-16.56-8.84V650.1ZM178.73,647v7l-10.31-6v-6.65Z"/><polygon class="cls-12" points="411.83 672.88 421.08 667.79 421.08 661.08 411.83 666 411.83 668.01 408.12 663.54 408.12 663.54 424.56 654.62 424.56 669.88 408.12 678.62 408.12 672.06 408.12 670.71 411.83 669 411.83 672.88"/><polyline class="cls-12" points="409.48 670.13 415.16 667.42 411.76 671.01"/><path class="cls-12" d="M406.63,678.62V663.45l-16.55-8.83V669Zm-3.51-12.78v7l-10.3-6V660.2Z"/><polygon class="cls-12" points="374.44 672.88 383.68 667.79 383.68 661.08 374.43 666 374.43 668.01 370.72 663.54 370.72 663.54 387.16 654.62 387.16 669.88 370.72 678.62 370.72 672.06 370.72 670.71 374.43 669 374.44 672.88"/><polyline class="cls-12" points="372.08 670.13 377.76 667.42 374.36 671.01"/><path class="cls-12" d="M369.23,678.62V663.45l-16.55-8.83V669Zm-3.5-12.78v7l-10.31-6V660.2Z"/><polygon class="cls-12" points="337.04 672.88 346.28 667.79 346.28 661.08 337.03 666 337.03 668.01 333.32 663.54 333.32 663.54 349.77 654.62 349.77 669.88 333.32 678.62 333.32 672.06 333.32 670.71 337.03 669 337.04 672.88"/><polyline class="cls-12" points="334.68 670.13 340.36 667.42 336.96 671.01"/><path class="cls-12" d="M331.84,678.62V663.45l-16.56-8.83V669Zm-3.51-12.78v7l-10.31-6V660.2Z"/><polygon class="cls-12" points="299.64 672.88 308.88 667.79 308.88 661.08 299.63 666 299.63 668.01 295.92 663.54 295.92 663.54 312.37 654.62 312.37 669.88 295.92 678.62 295.92 672.06 295.92 670.71 299.63 669 299.64 672.88"/><polyline class="cls-12" points="297.28 670.13 302.96 667.42 299.56 671.01"/><path class="cls-12" d="M294.44,678.62V663.45l-16.56-8.83V669Zm-3.51-12.78v7l-10.31-6V660.2Z"/><polygon class="cls-12" points="262.24 672.88 271.48 667.79 271.48 661.08 262.23 666 262.23 668.01 258.52 663.54 258.52 663.54 274.97 654.62 274.97 669.88 258.52 678.62 258.52 672.06 258.52 670.71 262.24 669 262.24 672.88"/><polyline class="cls-12" points="259.88 670.13 265.56 667.42 262.16 671.01"/><path class="cls-12" d="M257,678.62V663.45l-16.56-8.83V669Zm-3.51-12.78v7l-10.31-6V660.2Z"/><polygon class="cls-12" points="224.84 672.88 234.08 667.79 234.08 661.08 224.83 666 224.84 668.01 221.12 663.54 221.12 663.54 237.57 654.62 237.57 669.88 221.12 678.62 221.12 672.06 221.12 670.71 224.84 669 224.84 672.88"/><polyline class="cls-12" points="222.48 670.13 228.17 667.42 224.76 671.01"/><path class="cls-12" d="M219.64,678.62V663.45l-16.56-8.83V669Zm-3.51-12.78v7l-10.31-6V660.2Z"/><polygon class="cls-12" points="187.44 672.88 196.68 667.79 196.68 661.08 187.43 666 187.44 668.01 183.72 663.54 183.72 663.54 200.17 654.62 200.17 669.88 183.72 678.62 183.72 672.06 183.72 670.71 187.44 669 187.44 672.88"/><polyline class="cls-12" points="185.08 670.13 190.77 667.42 187.36 671.01"/><path class="cls-12" d="M182.24,678.62V663.45l-16.56-8.83V669Zm-3.51-12.78v7l-10.31-6V660.2Z"/><polygon class="cls-12" points="411.83 691.76 421.08 686.67 421.08 679.95 411.83 684.88 411.83 686.88 408.12 682.42 408.12 682.42 424.56 673.49 424.56 688.76 408.12 697.5 408.12 690.94 408.12 689.59 411.83 687.88 411.83 691.76"/><polyline class="cls-12" points="409.48 689.01 415.16 686.29 411.76 689.88"/><path class="cls-12" d="M406.63,697.5V682.33l-16.55-8.84v14.36Zm-3.51-12.79v7l-10.3-6v-6.65Z"/><polygon class="cls-12" points="374.44 691.76 383.68 686.67 383.68 679.95 374.43 684.88 374.43 686.88 370.72 682.42 370.72 682.42 387.16 673.49 387.16 688.76 370.72 697.5 370.72 690.94 370.72 689.59 374.43 687.88 374.44 691.76"/><polyline class="cls-12" points="372.08 689.01 377.76 686.29 374.36 689.88"/><path class="cls-12" d="M369.23,697.5V682.33l-16.55-8.84v14.36Zm-3.5-12.79v7l-10.31-6v-6.65Z"/><polygon class="cls-12" points="337.04 691.76 346.28 686.67 346.28 679.95 337.03 684.88 337.03 686.88 333.32 682.42 333.32 682.42 349.77 673.49 349.77 688.76 333.32 697.5 333.32 690.94 333.32 689.59 337.03 687.88 337.04 691.76"/><polyline class="cls-12" points="334.68 689.01 340.36 686.29 336.96 689.88"/><path class="cls-12" d="M331.84,697.5V682.33l-16.56-8.84v14.36Zm-3.51-12.79v7l-10.31-6v-6.65Z"/><polygon class="cls-12" points="299.64 691.76 308.88 686.67 308.88 679.95 299.63 684.88 299.63 686.88 295.92 682.42 295.92 682.42 312.37 673.49 312.37 688.76 295.92 697.5 295.92 690.94 295.92 689.59 299.63 687.88 299.64 691.76"/><polyline class="cls-12" points="297.28 689.01 302.96 686.29 299.56 689.88"/><path class="cls-12" d="M294.44,697.5V682.33l-16.56-8.84v14.36Zm-3.51-12.79v7l-10.31-6v-6.65Z"/><polygon class="cls-12" points="262.24 691.76 271.48 686.67 271.48 679.95 262.23 684.88 262.23 686.88 258.52 682.42 258.52 682.42 274.97 673.49 274.97 688.76 258.52 697.5 258.52 690.94 258.52 689.59 262.24 687.88 262.24 691.76"/><polyline class="cls-12" points="259.88 689.01 265.56 686.29 262.16 689.88"/><path class="cls-12" d="M257,697.5V682.33l-16.56-8.84v14.36Zm-3.51-12.79v7l-10.31-6v-6.65Z"/><polygon class="cls-12" points="224.84 691.76 234.08 686.67 234.08 679.95 224.83 684.88 224.84 686.88 221.12 682.42 221.12 682.42 237.57 673.49 237.57 688.76 221.12 697.5 221.12 690.94 221.12 689.59 224.84 687.88 224.84 691.76"/><polyline class="cls-12" points="222.48 689.01 228.17 686.29 224.76 689.88"/><path class="cls-12" d="M219.64,697.5V682.33l-16.56-8.84v14.36Zm-3.51-12.79v7l-10.31-6v-6.65Z"/><polygon class="cls-12" points="187.44 691.76 196.68 686.67 196.68 679.95 187.43 684.88 187.44 686.88 183.72 682.42 183.72 682.42 200.17 673.49 200.17 688.76 183.72 697.5 183.72 690.94 183.72 689.59 187.44 687.88 187.44 691.76"/><polyline class="cls-12" points="185.08 689.01 190.77 686.29 187.36 689.88"/><path class="cls-12" d="M182.24,697.5V682.33l-16.56-8.84v14.36Zm-3.51-12.79v7l-10.31-6v-6.65Z"/><polygon class="cls-12" points="411.83 710.63 421.08 705.54 421.08 698.83 411.83 703.75 411.83 705.76 408.12 701.3 408.12 701.3 424.56 692.37 424.56 707.63 408.12 716.38 408.12 709.82 408.12 708.46 411.83 706.75 411.83 710.63"/><polyline class="cls-12" points="409.48 707.89 415.16 705.17 411.76 708.76"/><path class="cls-12" d="M406.63,716.38V701.21l-16.55-8.84v14.36Zm-3.51-12.79v7l-10.3-6V698Z"/><polygon class="cls-12" points="374.44 710.63 383.68 705.54 383.68 698.83 374.43 703.75 374.43 705.76 370.72 701.3 370.72 701.3 387.16 692.37 387.16 707.63 370.72 716.38 370.72 709.82 370.72 708.46 374.43 706.75 374.44 710.63"/><polyline class="cls-12" points="372.08 707.89 377.76 705.17 374.36 708.76"/><path class="cls-12" d="M369.23,716.38V701.21l-16.55-8.84v14.36Zm-3.5-12.79v7l-10.31-6V698Z"/><polygon class="cls-12" points="337.04 710.63 346.28 705.54 346.28 698.83 337.03 703.75 337.03 705.76 333.32 701.3 333.32 701.3 349.77 692.37 349.77 707.63 333.32 716.38 333.32 709.82 333.32 708.46 337.03 706.75 337.04 710.63"/><polyline class="cls-12" points="334.68 707.89 340.36 705.17 336.96 708.76"/><path class="cls-12" d="M331.84,716.38V701.21l-16.56-8.84v14.36Zm-3.51-12.79v7l-10.31-6V698Z"/><polygon class="cls-12" points="299.64 710.63 308.88 705.54 308.88 698.83 299.63 703.75 299.63 705.76 295.92 701.3 295.92 701.3 312.37 692.37 312.37 707.63 295.92 716.38 295.92 709.82 295.92 708.46 299.63 706.75 299.64 710.63"/><polyline class="cls-12" points="297.28 707.89 302.96 705.17 299.56 708.76"/><path class="cls-12" d="M294.44,716.38V701.21l-16.56-8.84v14.36Zm-3.51-12.79v7l-10.31-6V698Z"/><polygon class="cls-12" points="262.24 710.63 271.48 705.54 271.48 698.83 262.23 703.75 262.23 705.76 258.52 701.3 258.52 701.3 274.97 692.37 274.97 707.63 258.52 716.38 258.52 709.82 258.52 708.46 262.24 706.75 262.24 710.63"/><polyline class="cls-12" points="259.88 707.89 265.56 705.17 262.16 708.76"/><path class="cls-12" d="M257,716.38V701.21l-16.56-8.84v14.36Zm-3.51-12.79v7l-10.31-6V698Z"/><polygon class="cls-12" points="224.84 710.63 234.08 705.54 234.08 698.83 224.83 703.75 224.84 705.76 221.12 701.3 221.12 701.3 237.57 692.37 237.57 707.63 221.12 716.38 221.12 709.82 221.12 708.46 224.84 706.75 224.84 710.63"/><polyline class="cls-12" points="222.48 707.89 228.17 705.17 224.76 708.76"/><path class="cls-12" d="M219.64,716.38V701.21l-16.56-8.84v14.36Zm-3.51-12.79v7l-10.31-6V698Z"/><polygon class="cls-12" points="187.44 710.63 196.68 705.54 196.68 698.83 187.43 703.75 187.44 705.76 183.72 701.3 183.72 701.3 200.17 692.37 200.17 707.63 183.72 716.38 183.72 709.82 183.72 708.46 187.44 706.75 187.44 710.63"/><polyline class="cls-12" points="185.08 707.89 190.77 705.17 187.36 708.76"/><path class="cls-12" d="M182.24,716.38V701.21l-16.56-8.84v14.36Zm-3.51-12.79v7l-10.31-6V698Z"/><polygon class="cls-12" points="411.83 729.51 421.08 724.42 421.08 717.71 411.83 722.63 411.83 724.64 408.12 720.18 408.12 720.18 424.56 711.25 424.56 726.51 408.12 735.25 408.12 728.69 408.12 727.34 411.83 725.63 411.83 729.51"/><polyline class="cls-12" points="409.48 726.76 415.16 724.05 411.76 727.64"/><path class="cls-12" d="M406.63,735.25V720.08l-16.55-8.83V725.6Zm-3.51-12.78v7l-10.3-6v-6.65Z"/><polygon class="cls-12" points="374.44 729.51 383.68 724.42 383.68 717.71 374.43 722.63 374.43 724.64 370.72 720.18 370.72 720.18 387.16 711.25 387.16 726.51 370.72 735.25 370.72 728.69 370.72 727.34 374.43 725.63 374.44 729.51"/><polyline class="cls-12" points="372.08 726.76 377.76 724.05 374.36 727.64"/><path class="cls-12" d="M369.23,735.25V720.08l-16.55-8.83V725.6Zm-3.5-12.78v7l-10.31-6v-6.65Z"/><polygon class="cls-12" points="337.04 729.51 346.28 724.42 346.28 717.71 337.03 722.63 337.03 724.64 333.32 720.18 333.32 720.18 349.77 711.25 349.77 726.51 333.32 735.25 333.32 728.69 333.32 727.34 337.03 725.63 337.04 729.51"/><polyline class="cls-12" points="334.68 726.76 340.36 724.05 336.96 727.64"/><path class="cls-12" d="M331.84,735.25V720.08l-16.56-8.83V725.6Zm-3.51-12.78v7l-10.31-6v-6.65Z"/><polygon class="cls-12" points="299.64 729.51 308.88 724.42 308.88 717.71 299.63 722.63 299.63 724.64 295.92 720.18 295.92 720.18 312.37 711.25 312.37 726.51 295.92 735.25 295.92 728.69 295.92 727.34 299.63 725.63 299.64 729.51"/><polyline class="cls-12" points="297.28 726.76 302.96 724.05 299.56 727.64"/><path class="cls-12" d="M294.44,735.25V720.08l-16.56-8.83V725.6Zm-3.51-12.78v7l-10.31-6v-6.65Z"/><polygon class="cls-12" points="262.24 729.51 271.48 724.42 271.48 717.71 262.23 722.63 262.23 724.64 258.52 720.18 258.52 720.18 274.97 711.25 274.97 726.51 258.52 735.25 258.52 728.69 258.52 727.34 262.24 725.63 262.24 729.51"/><polyline class="cls-12" points="259.88 726.76 265.56 724.05 262.16 727.64"/><path class="cls-12" d="M257,735.25V720.08l-16.56-8.83V725.6Zm-3.51-12.78v7l-10.31-6v-6.65Z"/><polygon class="cls-12" points="224.84 729.51 234.08 724.42 234.08 717.71 224.83 722.63 224.84 724.64 221.12 720.18 221.12 720.18 237.57 711.25 237.57 726.51 221.12 735.25 221.12 728.69 221.12 727.34 224.84 725.63 224.84 729.51"/><polyline class="cls-12" points="222.48 726.76 228.17 724.05 224.76 727.64"/><path class="cls-12" d="M219.64,735.25V720.08l-16.56-8.83V725.6Zm-3.51-12.78v7l-10.31-6v-6.65Z"/><polygon class="cls-12" points="187.44 729.51 196.68 724.42 196.68 717.71 187.43 722.63 187.44 724.64 183.72 720.18 183.72 720.18 200.17 711.25 200.17 726.51 183.72 735.25 183.72 728.69 183.72 727.34 187.44 725.63 187.44 729.51"/><polyline class="cls-12" points="185.08 726.76 190.77 724.05 187.36 727.64"/><path class="cls-12" d="M182.24,735.25V720.08l-16.56-8.83V725.6Zm-3.51-12.78v7l-10.31-6v-6.65Z"/><polygon class="cls-12" points="411.83 748.39 421.08 743.3 421.08 736.59 411.83 741.51 411.83 743.52 408.12 739.05 408.12 739.05 424.56 730.12 424.56 745.39 408.12 754.13 408.12 747.57 408.12 746.22 411.83 744.51 411.83 748.39"/><polyline class="cls-12" points="409.48 745.64 415.16 742.92 411.76 746.51"/><path class="cls-12" d="M406.63,754.13V739l-16.55-8.84v14.36Zm-3.51-12.79v7l-10.3-6V735.7Z"/><polygon class="cls-12" points="374.44 748.39 383.68 743.3 383.68 736.59 374.43 741.51 374.43 743.52 370.72 739.05 370.72 739.05 387.16 730.12 387.16 745.39 370.72 754.13 370.72 747.57 370.72 746.22 374.43 744.51 374.44 748.39"/><polyline class="cls-12" points="372.08 745.64 377.76 742.92 374.36 746.51"/><path class="cls-12" d="M369.23,754.13V739l-16.55-8.84v14.36Zm-3.5-12.79v7l-10.31-6V735.7Z"/><polygon class="cls-12" points="337.04 748.39 346.28 743.3 346.28 736.59 337.03 741.51 337.03 743.52 333.32 739.05 333.32 739.05 349.77 730.12 349.77 745.39 333.32 754.13 333.32 747.57 333.32 746.22 337.03 744.51 337.04 748.39"/><polyline class="cls-12" points="334.68 745.64 340.36 742.92 336.96 746.51"/><path class="cls-12" d="M331.84,754.13V739l-16.56-8.84v14.36Zm-3.51-12.79v7l-10.31-6V735.7Z"/><polygon class="cls-12" points="299.64 748.39 308.88 743.3 308.88 736.59 299.63 741.51 299.63 743.52 295.92 739.05 295.92 739.05 312.37 730.12 312.37 745.39 295.92 754.13 295.92 747.57 295.92 746.22 299.63 744.51 299.64 748.39"/><polyline class="cls-12" points="297.28 745.64 302.96 742.92 299.56 746.51"/><path class="cls-12" d="M294.44,754.13V739l-16.56-8.84v14.36Zm-3.51-12.79v7l-10.31-6V735.7Z"/><polygon class="cls-12" points="262.24 748.39 271.48 743.3 271.48 736.59 262.23 741.51 262.23 743.52 258.52 739.05 258.52 739.05 274.97 730.12 274.97 745.39 258.52 754.13 258.52 747.57 258.52 746.22 262.24 744.51 262.24 748.39"/><polyline class="cls-12" points="259.88 745.64 265.56 742.92 262.16 746.51"/><path class="cls-12" d="M257,754.13V739l-16.56-8.84v14.36Zm-3.51-12.79v7l-10.31-6V735.7Z"/><polygon class="cls-12" points="224.84 748.39 234.08 743.3 234.08 736.59 224.83 741.51 224.84 743.52 221.12 739.05 221.12 739.05 237.57 730.12 237.57 745.39 221.12 754.13 221.12 747.57 221.12 746.22 224.84 744.51 224.84 748.39"/><polyline class="cls-12" points="222.48 745.64 228.17 742.92 224.76 746.51"/><path class="cls-12" d="M219.64,754.13V739l-16.56-8.84v14.36Zm-3.51-12.79v7l-10.31-6V735.7Z"/><polygon class="cls-12" points="187.44 748.39 196.68 743.3 196.68 736.59 187.43 741.51 187.44 743.52 183.72 739.05 183.72 739.05 200.17 730.12 200.17 745.39 183.72 754.13 183.72 747.57 183.72 746.22 187.44 744.51 187.44 748.39"/><polyline class="cls-12" points="185.08 745.64 190.77 742.92 187.36 746.51"/><path class="cls-12" d="M182.24,754.13V739l-16.56-8.84v14.36Zm-3.51-12.79v7l-10.31-6V735.7Z"/><polygon class="cls-12" points="411.83 767.26 421.08 762.17 421.08 755.46 411.83 760.38 411.83 762.39 408.12 757.93 408.12 757.93 424.56 749 424.56 764.26 408.12 773.01 408.12 766.45 408.12 765.09 411.83 763.38 411.83 767.26"/><polyline class="cls-12" points="409.48 764.52 415.16 761.8 411.76 765.39"/><path class="cls-12" d="M406.63,773V757.84L390.08,749v14.36Zm-3.51-12.79v7l-10.3-6v-6.65Z"/><polygon class="cls-12" points="374.44 767.26 383.68 762.17 383.68 755.46 374.43 760.38 374.43 762.39 370.72 757.93 370.72 757.93 387.16 749 387.16 764.26 370.72 773.01 370.72 766.45 370.72 765.09 374.43 763.38 374.44 767.26"/><polyline class="cls-12" points="372.08 764.52 377.76 761.8 374.36 765.39"/><path class="cls-12" d="M369.23,773V757.84L352.68,749v14.36Zm-3.5-12.79v7l-10.31-6v-6.65Z"/><polygon class="cls-12" points="337.04 767.26 346.28 762.17 346.28 755.46 337.03 760.38 337.03 762.39 333.32 757.93 333.32 757.93 349.77 749 349.77 764.26 333.32 773.01 333.32 766.45 333.32 765.09 337.03 763.38 337.04 767.26"/><polyline class="cls-12" points="334.68 764.52 340.36 761.8 336.96 765.39"/><path class="cls-12" d="M331.84,773V757.84L315.28,749v14.36Zm-3.51-12.79v7l-10.31-6v-6.65Z"/><polygon class="cls-12" points="299.64 767.26 308.88 762.17 308.88 755.46 299.63 760.38 299.63 762.39 295.92 757.93 295.92 757.93 312.37 749 312.37 764.26 295.92 773.01 295.92 766.45 295.92 765.09 299.63 763.38 299.64 767.26"/><polyline class="cls-12" points="297.28 764.52 302.96 761.8 299.56 765.39"/><path class="cls-12" d="M294.44,773V757.84L277.88,749v14.36Zm-3.51-12.79v7l-10.31-6v-6.65Z"/><polygon class="cls-12" points="262.24 767.26 271.48 762.17 271.48 755.46 262.23 760.38 262.23 762.39 258.52 757.93 258.52 757.93 274.97 749 274.97 764.26 258.52 773.01 258.52 766.45 258.52 765.09 262.24 763.38 262.24 767.26"/><polyline class="cls-12" points="259.88 764.52 265.56 761.8 262.16 765.39"/><path class="cls-12" d="M257,773V757.84L240.48,749v14.36Zm-3.51-12.79v7l-10.31-6v-6.65Z"/><polygon class="cls-12" points="224.84 767.26 234.08 762.17 234.08 755.46 224.83 760.38 224.84 762.39 221.12 757.93 221.12 757.93 237.57 749 237.57 764.26 221.12 773.01 221.12 766.45 221.12 765.09 224.84 763.38 224.84 767.26"/><polyline class="cls-12" points="222.48 764.52 228.17 761.8 224.76 765.39"/><path class="cls-12" d="M219.64,773V757.84L203.08,749v14.36Zm-3.51-12.79v7l-10.31-6v-6.65Z"/><polygon class="cls-12" points="187.44 767.26 196.68 762.17 196.68 755.46 187.43 760.38 187.44 762.39 183.72 757.93 183.72 757.93 200.17 749 200.17 764.26 183.72 773.01 183.72 766.45 183.72 765.09 187.44 763.38 187.44 767.26"/><polyline class="cls-12" points="185.08 764.52 190.77 761.8 187.36 765.39"/><path class="cls-12" d="M182.24,773V757.84L165.68,749v14.36Zm-3.51-12.79v7l-10.31-6v-6.65Z"/><polygon class="cls-12" points="411.83 786.14 421.08 781.05 421.08 774.34 411.83 779.26 411.83 781.27 408.12 776.81 408.12 776.81 424.56 767.88 424.56 783.14 408.12 791.88 408.12 785.32 408.12 783.97 411.83 782.26 411.83 786.14"/><polyline class="cls-12" points="409.48 783.4 415.16 780.68 411.76 784.27"/><path class="cls-12" d="M406.63,791.88V776.71l-16.55-8.83v14.35Zm-3.51-12.78v7l-10.3-6v-6.65Z"/><polygon class="cls-12" points="374.44 786.14 383.68 781.05 383.68 774.34 374.43 779.26 374.43 781.27 370.72 776.81 370.72 776.81 387.16 767.88 387.16 783.14 370.72 791.88 370.72 785.32 370.72 783.97 374.43 782.26 374.44 786.14"/><polyline class="cls-12" points="372.08 783.4 377.76 780.68 374.36 784.27"/><path class="cls-12" d="M369.23,791.88V776.71l-16.55-8.83v14.35Zm-3.5-12.78v7l-10.31-6v-6.65Z"/><polygon class="cls-12" points="337.04 786.14 346.28 781.05 346.28 774.34 337.03 779.26 337.03 781.27 333.32 776.81 333.32 776.81 349.77 767.88 349.77 783.14 333.32 791.88 333.32 785.32 333.32 783.97 337.03 782.26 337.04 786.14"/><polyline class="cls-12" points="334.68 783.4 340.36 780.68 336.96 784.27"/><path class="cls-12" d="M331.84,791.88V776.71l-16.56-8.83v14.35Zm-3.51-12.78v7l-10.31-6v-6.65Z"/><polygon class="cls-12" points="299.64 786.14 308.88 781.05 308.88 774.34 299.63 779.26 299.63 781.27 295.92 776.81 295.92 776.81 312.37 767.88 312.37 783.14 295.92 791.88 295.92 785.32 295.92 783.97 299.63 782.26 299.64 786.14"/><polyline class="cls-12" points="297.28 783.4 302.96 780.68 299.56 784.27"/><path class="cls-12" d="M294.44,791.88V776.71l-16.56-8.83v14.35Zm-3.51-12.78v7l-10.31-6v-6.65Z"/><polygon class="cls-12" points="262.24 786.14 271.48 781.05 271.48 774.34 262.23 779.26 262.23 781.27 258.52 776.81 258.52 776.81 274.97 767.88 274.97 783.14 258.52 791.88 258.52 785.32 258.52 783.97 262.24 782.26 262.24 786.14"/><polyline class="cls-12" points="259.88 783.4 265.56 780.68 262.16 784.27"/><path class="cls-12" d="M257,791.88V776.71l-16.56-8.83v14.35Zm-3.51-12.78v7l-10.31-6v-6.65Z"/><polygon class="cls-12" points="224.84 786.14 234.08 781.05 234.08 774.34 224.83 779.26 224.84 781.27 221.12 776.81 221.12 776.81 237.57 767.88 237.57 783.14 221.12 791.88 221.12 785.32 221.12 783.97 224.84 782.26 224.84 786.14"/><polyline class="cls-12" points="222.48 783.4 228.17 780.68 224.76 784.27"/><path class="cls-12" d="M219.64,791.88V776.71l-16.56-8.83v14.35Zm-3.51-12.78v7l-10.31-6v-6.65Z"/><polygon class="cls-12" points="187.44 786.14 196.68 781.05 196.68 774.34 187.43 779.26 187.44 781.27 183.72 776.81 183.72 776.81 200.17 767.88 200.17 783.14 183.72 791.88 183.72 785.32 183.72 783.97 187.44 782.26 187.44 786.14"/><polyline class="cls-12" points="185.08 783.4 190.77 780.68 187.36 784.27"/><path class="cls-12" d="M182.24,791.88V776.71l-16.56-8.83v14.35Zm-3.51-12.78v7l-10.31-6v-6.65Z"/></g></g><path id="cuerpo-3" data-name="cuerpo" class="cls-12" d="M239.81,488.6S200.39,589,180.23,773.07h90.29l25.65-63.28a1.49,1.49,0,0,1,2.23-.66c4.75,3.29,18.92,16.85,24.72,63.94h89.41s-5.92-183.23-49.86-284.47C362.67,488.6,294.12,504.81,239.81,488.6Z"/><path id="cuerpo-4" data-name="cuerpo" class="cls-1" d="M239.81,488.6S200.39,589,180.23,773.07h90.29l25.65-63.28a1.49,1.49,0,0,1,2.23-.66c4.75,3.29,18.92,16.85,24.72,63.94h89.41s-5.92-183.23-49.86-284.47C362.67,488.6,294.12,504.81,239.81,488.6Z"/><polygon class="cls-4" points="371.23 491.66 384.81 570.86 301.48 641.52 220.77 568.83 241.88 486.93 371.23 491.66"/><polyline class="cls-15" points="220.77 568.83 301.48 641.52 384.81 570.86"/><path class="cls-16" d="M200.53,761.68c23.76.44,47.51,1.24,71.26,2.11,3.49.12,5.26-.62,6.37-4.36,5.27-17.61,11.41-34.92,18.19-52.45-7.12-2-15.91-1.74-14.64-13.62-12.26,11.58-21.2,28.18-26.47,43.61-2.94,7.17-8,16.85-9.53,24-.74,3.49,4.69.86,1.73.76"/><path class="cls-17" d="M234.23,520.33A4.35,4.35,0,0,1,238.3,519c15.37,2.11,30.73,1.08,45.94-1.17,9-1.34,18.16-2.78,26.79-6.13l.3-.15c.62-2.2-.81-3.69-1.95-5.17-2.36-3.07-5-5.88-7.54-8.8-2.17-2.5-5-2.66-7.94-2.27-15.48-1.25-30.91-2.88-46-6.77-1.61-.41-1.91.36-2.37,1.39A252.35,252.35,0,0,0,234.23,520.33Z"/><path class="cls-17" d="M293.9,495.26c4.06-.05,6.67,2.2,9,5.27,2.78,3.68,6.25,6.83,8.43,11,16.7-4.64,33.17-9.87,48.29-18.6,1.91-1.09,3.74-2.32,5.6-3.48-.64-1-1.53-1-2.54-.73a233.28,233.28,0,0,1-68,6.34A2.63,2.63,0,0,0,293.9,495.26Z"/><path id="cuerpo-5" data-name="cuerpo" class="cls-7" d="M241.5,483.83s-38.92,99.13-59.19,281a3.11,3.11,0,0,0,3.08,3.45h84.8a3,3,0,0,0,2.79-1.88L297.87,705a1.48,1.48,0,0,1,2.23-.66c4.65,3.22,18.39,16.34,24.38,61.3a3.05,3.05,0,0,0,3,2.64h83.58a3,3,0,0,0,3-3.15c-1-24.62-9.19-187.89-49.74-281.32C364.37,483.83,295.82,500,241.5,483.83Z"/><path class="cls-18" d="M303,706.82s-6.25-7.64-15.39-9"/><path id="brazo_derecho" data-name="brazo derecho" class="cls-3" d="M201.25,638.18s-49.72-7.58,4.09-110.68L229.57,486a1.32,1.32,0,0,1,2.46.75l-2.18,32.22Z"/><polygon class="cls-5" points="329.95 558.32 311.39 547.93 311.39 534.23 329.97 544.27 329.96 548.37 337.42 539.26 337.42 539.26 304.39 521.04 304.39 552.19 337.42 570.04 337.42 556.64 337.42 553.89 329.96 550.4 329.95 558.32"/><polyline class="cls-5" points="334.69 552.71 323.27 547.16 330.11 554.49"/><path class="cls-12" d="M300.81,558V521l-32.66,18.19v42.3l32.66,18.94V567.81l-20.94-12.6-.18,11.53,2.52-2.86L293.89,571v17.4L275.52,578V542.92Zm-6.19-25.82-.42,14.29-12-7.1Z"/><polygon class="cls-19" points="283.91 540.34 275.52 542.92 282.21 539.33 283.91 540.34"/><path class="cls-6" d="M337.42,581.73V553.86l-33.25,18.61v28Zm-5.52-17,0,12.9-20.7,11.63V576.57Z"/><polygon class="cls-6" points="311.39 534.23 311.39 524.76 313.82 535.54 311.39 534.23"/></g><g id="CABEZA"><ellipse class="cls-4" cx="303.23" cy="286.66" rx="217.43" ry="205.05"/><path id="casco" class="cls-4" d="M519.29,275.29s-193.39-96.13-432.55,0c0,0,27.13-190.33,216.28-193.68S519.29,275.29,519.29,275.29Z"/><path class="cls-5" d="M229.83,240.7s-5-80.23,19.56-156.14l42.65-5S261.72,208.9,278,240.7,229.83,240.7,229.83,240.7Z"/><path class="cls-5" d="M380.55,240.7s5-80.23-19.56-156.14l-42.65-5S348.66,208.9,332.42,240.7,380.55,240.7,380.55,240.7Z"/><path class="cls-17" d="M481.92,244.63s-14.69-89.85-92-123.2l17.1-2L482,194.85,501,235.55l-.51,14.36-12.52,2Z"/><path class="cls-17" d="M114.76,249.51s4.27-64.77,41.93-94.82a9.49,9.49,0,0,0,3.33-4.86c.72-2.7-.06-5.41-8.71-1.73-14.24,6.06-45.62,44.8-45.62,44.8L92.78,240.72l-8.25,15.87Z"/><path class="cls-12" d="M518.92,262.23s-208.81-82.44-431.79,0l4.42,84.43S215.87,401.56,289.22,399c5.81-.21,11.63-.26,17.45-.12,24.33.59,99.75-3.34,212.25-62.1Z"/><path class="cls-17" d="M465.34,366.84s-174,234.05-336.51,1.67l-4.59-11.12L99.37,350l31.3,65.58L192.48,466l38.93,15.36,55.52,8.09,46.47-1,43.62-7.8L432.17,449l36.51-32.72,29.67-37.51,9.33-32.33v-11l-18,13.08-22.46,12.67Z"/><path class="cls-20" d="M505.89,248.5S473.43,146.22,394,115.6"/><path class="cls-16" d="M125.6,354.72s-18.61-53-11.26-98.13L82.62,261.1,90.44,342Z"/><path class="cls-16" d="M483.29,253.77s7.3,63-14.61,101l40.64-8.6,15.73-47.23-2.24-41.61-25.94-8.78Z"/><path class="cls-18" d="M418.31,376.16s62.08-11.16,97.83-48.7"/><path class="cls-18" d="M176,376.16s-47.31-10.6-82.72-37.55"/><circle cx="298.3" cy="392.27" r="20.04"/><ellipse class="cls-7" cx="303.02" cy="286.66" rx="217.43" ry="205.05"/><path class="cls-7" d="M518.92,262.23s-194.24-82.55-431.79,0"/><path id="oreja_izq" data-name="oreja izq" class="cls-21" d="M149.05,138.47c2.24-9.12,18.67-73.86,43-117.76a2.44,2.44,0,0,1,3.93-.47c6.19,6.68,23.52,27.13,36.54,59.1a10.65,10.65,0,0,1-6.75,14.16c-17.72,5.48-53.09,19-76.26,45.21A.28.28,0,0,1,149.05,138.47Z"/><path id="oreja_derecha" data-name="oreja derecha" class="cls-22" d="M370.8,81.27c8.64-17.73,27.16-53.73,38.68-61.6a.41.41,0,0,1,.57.1c2.75,3.67,28.77,40,48,125.81,0,0-34.91-39.35-81.63-52.08A8.71,8.71,0,0,1,370.8,81.27Z"/></g><g id="OJOS"><ellipse cx="254.3" cy="314.65" rx="13.92" ry="19.14" transform="translate(-141.71 231.88) rotate(-39.25)"/><ellipse cx="342.36" cy="314.65" rx="19.14" ry="13.92" transform="translate(-117.91 380.7) rotate(-50.75)"/></g><g id="Capa_11" data-name="Capa 11"><line class="cls-23" x1="364.06" y1="311.31" x2="328.65" y2="317.99"/><line class="cls-23" x1="232.57" y1="311.31" x2="267.98" y2="317.99"/></g></svg>