<svg id="Layer_1" data-name="Layer 1" xmlns="http://www.w3.org/2000/svg" viewBox="0 0 150 150"><defs><style>.cls-1{fill:#e30522;}</style></defs><path class="cls-1" d="M17.87,8H45.69c.06.22.13.46.18.7Q49.44,25.46,53,42.23q1.09,5.19,2.2,10.39a1,1,0,0,0,.08.31c.06.1.15.24.23.24a.36.36,0,0,0,.27-.21c.2-.46.39-.93.57-1.4a59.89,59.89,0,0,0,3.31-12.71A58.24,58.24,0,0,0,60.19,28a63.61,63.61,0,0,0-1.52-11c-.64-2.86-1.23-5.73-1.84-8.6a3.53,3.53,0,0,1,0-.41H84.54a3.19,3.19,0,0,1,.13.37Q86.35,16.2,88,24.06c.71,3.29,1.4,6.58,2.11,9.86a2.72,2.72,0,0,1,0,1.17Q88,44.88,86,54.67L81.59,75.24q-1.92,9-3.83,18.05c-.18.82-.17.82-1,.82-.38,0-.75,0-1.13,0-.53,0-.58,0-.69-.55-.25-1.2-.51-2.39-.76-3.59Q72,79.63,69.77,69.29L65.51,49.24a4,4,0,0,0-.13-.52.22.22,0,0,0-.39,0,1.72,1.72,0,0,0-.21.43A59.08,59.08,0,0,0,60.5,72.72,60.71,60.71,0,0,0,62,84.8c.65,2.88,1.24,5.77,1.86,8.65.11.53,0,.65-.52.66-.11,0-.22,0-.32,0q-13,0-26,0c-.85,0-.82,0-1-.81q-3.59-16.89-7.19-33.77L22.39,29.3q-2.22-10.47-4.46-21C17.91,8.25,17.9,8.15,17.87,8Z"/><path class="cls-1" d="M95.68,8h36.41a5,5,0,0,1,0,.5v5c0,.55,0,.6-.56.64a5.33,5.33,0,0,0-4.73,4.3C126,22.68,125,27,124.11,31.26l-3.84,18.1-4.26,20q-2.15,10.05-4.27,20.1-1.81,8.52-3.62,17c-.17.8-.17.8-1,.8H39.47c-.47,0-.52,0-.62-.5-.49-2.3-1-4.6-1.46-6.91-.11-.52,0-.62.49-.63H81c.89,0,.77,0,.94-.75q3-14.19,6-28.38,3.59-16.89,7.18-33.77,1.91-9,3.83-17.94a3.75,3.75,0,0,0,0-2,3.32,3.32,0,0,0-2.7-2.35c-.58-.11-.6-.12-.6-.68v-5C95.65,8.31,95.67,8.16,95.68,8Z"/><path class="cls-1" d="M39.07,130.15c0-.91,0-1.79,0-2.67a1.33,1.33,0,0,0-.16-.5c-.27-.57-.54-1.13-.82-1.7.43-.12,7.14-.15,7.91,0a5.09,5.09,0,0,1-.3.62,5.45,5.45,0,0,0-.78,3.17c.06,2.95,0,5.9,0,8.85a1.75,1.75,0,0,0,.22.93c.29.54.55,1.09.83,1.63a75.54,75.54,0,0,1-7.89.06,3,3,0,0,1,.2-.48,5.32,5.32,0,0,0,.79-3.44c0-.66,0-1.33,0-2,0-.17,0-.35,0-.55H32.88c0,.12-.05.24-.05.35,0,1.23,0,2.45,0,3.68a1.64,1.64,0,0,0,.14.61c.21.46.44.91.66,1.36.06.14.11.29.18.49H26a3.37,3.37,0,0,1,.09-.34,1.12,1.12,0,0,1,.11-.25A5.41,5.41,0,0,0,27,136.7c0-2.92,0-5.83,0-8.75a2.57,2.57,0,0,0-.28-1.19c-.25-.48-.48-1-.75-1.54h7.9a6.62,6.62,0,0,1-.35.75,4.6,4.6,0,0,0-.68,2.93c0,.41,0,.83,0,1.22A56.16,56.16,0,0,0,39.07,130.15Z"/><path class="cls-1" d="M91.36,127.32H99.3c-.23.43-.4.8-.62,1.14a3,3,0,0,0-.46,1.78c0,1.75,0,3.49,0,5.24,0,.85.31,1.1,1.14.91a3.13,3.13,0,0,0,1.87-1.19,1.3,1.3,0,0,0,.28-.8c0-1.62,0-3.24,0-4.86a1.24,1.24,0,0,0-.16-.55c-.21-.42-.45-.82-.67-1.24-.06-.12-.1-.25-.17-.42h7.85a3.37,3.37,0,0,1-.1.34,1,1,0,0,1-.1.18,4.83,4.83,0,0,0-.81,3.16c.06,2.23,0,4.46,0,6.69a2.63,2.63,0,0,0,.36,1.43c.26.43.47.88.73,1.38-.23,0-.39.05-.54.05h-4.59a1.62,1.62,0,0,1-1.8-1.8V138c-.25,0-.36.19-.49.32a10.21,10.21,0,0,1-3.41,2.11,6.16,6.16,0,0,1-2.33.41A3,3,0,0,1,92.4,138c0-.3,0-.61,0-.91q0-3.65,0-7.29a1.77,1.77,0,0,0-.25-1c-.22-.36-.42-.75-.62-1.13A3,3,0,0,1,91.36,127.32Z"/><path class="cls-1" d="M48.08,131.78a46.24,46.24,0,0,1,3.23-5.21l1.26.41a7.12,7.12,0,0,0,4,.1,7.54,7.54,0,0,1,4.46.12,5.47,5.47,0,0,1,1.4.77,1.83,1.83,0,0,1,.75,1.55v1c0,2.47,0,4.93,0,7.4a2.2,2.2,0,0,0,.29,1.18c.25.45.48.91.74,1.43a3.09,3.09,0,0,1-.43.06H59.13a1.63,1.63,0,0,1-1.76-1.74c0-.15,0-.31,0-.54l-.48.35A10.38,10.38,0,0,1,52,140.77a5.59,5.59,0,0,1-3.41-.51,3.76,3.76,0,0,1-.36-6.53,6.64,6.64,0,0,1,3.28-.94c1.41-.1,2.83-.2,4.25-.33a2.22,2.22,0,0,0,.71-.2,1.58,1.58,0,0,0-.59-3,11,11,0,0,0-2.13.29,21.49,21.49,0,0,0-5,1.94ZM57.3,134s-.09,0-.12,0a10.74,10.74,0,0,1-3.51,1.28,1.73,1.73,0,0,0-1.07.58,1.07,1.07,0,0,0-.21,1.2,1,1,0,0,0,.94.5,1.63,1.63,0,0,0,.38,0,4.72,4.72,0,0,0,1.93-.88,4.06,4.06,0,0,0,1.4-1.54A1.84,1.84,0,0,0,57.3,134Z"/><path class="cls-1" d="M125.8,134.62H115.14c.11.25.16.43.25.59a4.05,4.05,0,0,0,2.17,1.78,7.14,7.14,0,0,0,4.76.08,10.73,10.73,0,0,0,2.68-1.25,4.6,4.6,0,0,1,.55-.25.72.72,0,0,1,0,.73,6.34,6.34,0,0,1-2.86,3.2,10.47,10.47,0,0,1-5.16,1.33,10.63,10.63,0,0,1-4.07-.69,6.68,6.68,0,0,1-4.37-5.08,6.21,6.21,0,0,1,2.56-6.43,9.53,9.53,0,0,1,3.43-1.4,11.36,11.36,0,0,1,6.22.37,6.71,6.71,0,0,1,4.59,6.62C125.84,134.33,125.82,134.43,125.8,134.62Zm-11-2.3a35.23,35.23,0,0,0,5,0,4.14,4.14,0,0,0-.65-2.08,2.09,2.09,0,0,0-3.76,0A4.6,4.6,0,0,0,114.84,132.32Z"/><path class="cls-1" d="M73.15,140.82a10.93,10.93,0,0,1-4.27-.74,6.34,6.34,0,0,1-4.11-6.25,9.27,9.27,0,0,1,.27-2,5.82,5.82,0,0,1,3.35-3.86A9.93,9.93,0,0,1,72,127a12.63,12.63,0,0,1,5.28.58A6.69,6.69,0,0,1,81,137.06,6.29,6.29,0,0,1,77.68,140,11,11,0,0,1,73.15,140.82Zm-2.58-6.94c.06.65.07,1.3.17,1.93a4.17,4.17,0,0,0,1.1,2.3,1.81,1.81,0,0,0,1.59.64,1.89,1.89,0,0,0,1.13-.57,4,4,0,0,0,1.1-2.07,11,11,0,0,0,.07-4.13,4.29,4.29,0,0,0-.93-2.1,1.87,1.87,0,0,0-3.15,0,4.58,4.58,0,0,0-.81,1.64A9.32,9.32,0,0,0,70.57,133.88Z"/><path class="cls-1" d="M82.16,127.32h7.92c0,.13-.07.24-.11.34a.55.55,0,0,1-.08.15,4.9,4.9,0,0,0-.83,3.19c.07,2.13,0,4.25,0,6.37a3.64,3.64,0,0,1-1.48,3,6.71,6.71,0,0,1-3.19,1.37,22.82,22.82,0,0,1-3.87.26.81.81,0,0,1-.22,0,.26.26,0,0,1-.15-.47,1.73,1.73,0,0,1,.31-.22c.43-.32.88-.62,1.31-1A4.37,4.37,0,0,0,82.94,139a2.22,2.22,0,0,0,.3-1.13q0-4.06,0-8.15a1.67,1.67,0,0,0-.23-.87C82.73,128.39,82.48,127.9,82.16,127.32Z"/><path class="cls-1" d="M89.61,124.36v2a63.9,63.9,0,0,1-6.88.07v-2.07A68.63,68.63,0,0,1,89.61,124.36Z"/></svg>