<svg id="Layer_1" data-name="Layer 1" xmlns="http://www.w3.org/2000/svg" viewBox="0 0 150 150"><defs><style>.cls-1{fill:#21325f;}</style></defs><path class="cls-1" d="M81.69,85.82H79.1a1.07,1.07,0,0,0-.76.3.9.9,0,0,0-.31.7v1.41a1,1,0,0,0,.31.71,1,1,0,0,0,.76.29h2.59a1,1,0,0,0,.76-.29.93.93,0,0,0,.31-.71V86.82a.9.9,0,0,0-.31-.7A1.06,1.06,0,0,0,81.69,85.82Zm.16,2.25a.37.37,0,0,1-.13.28.44.44,0,0,1-.3.11h-2a.44.44,0,0,1-.3-.11.37.37,0,0,1-.13-.28V87a.33.33,0,0,1,.13-.28.37.37,0,0,1,.3-.12h2.06a.39.39,0,0,1,.31.12.35.35,0,0,1,.12.28v1.09ZM71.74,85.82H69.15a1.07,1.07,0,0,0-.76.3.9.9,0,0,0-.31.7v1.41a1,1,0,0,0,.31.71,1,1,0,0,0,.76.29h2.59a1,1,0,0,0,.76-.29.93.93,0,0,0,.31-.71V86.82a.9.9,0,0,0-.31-.7A1,1,0,0,0,71.74,85.82Zm.17,2.25a.39.39,0,0,1-.12.28.47.47,0,0,1-.31.11H69.42a.44.44,0,0,1-.3-.11.37.37,0,0,1-.13-.28V87a.33.33,0,0,1,.13-.28.37.37,0,0,1,.3-.12h2.06a.39.39,0,0,1,.31.12.35.35,0,0,1,.12.28Zm1.34-1.49H75v2.65h.91V86.58h1.72v-.76H73.25Zm-9.91-4.87a2.67,2.67,0,0,0,1.78,1.93,10.84,10.84,0,0,0,4.34.7,12.86,12.86,0,0,0,4.72-.82,7,7,0,0,0,2.94-1.92,11.78,11.78,0,0,0,1.69-3.72l.2-.65H72.72l-.65,2.11a5.43,5.43,0,0,1-.77,1.77,1.31,1.31,0,0,1-1,.37c-.49,0-.77-.12-.83-.37a3.9,3.9,0,0,1,.29-1.61l2.44-7.84A5.3,5.3,0,0,1,72.89,70,1.37,1.37,0,0,1,74,69.6c.45,0,.72.11.79.31a4,4,0,0,1-.29,1.6l-.92,2.94h6.3l.49-1.61a7.92,7.92,0,0,0,.52-3.49,2.83,2.83,0,0,0-1.79-1.87,10.37,10.37,0,0,0-4.36-.74,14,14,0,0,0-3.77.48,9,9,0,0,0-2.88,1.33,5.25,5.25,0,0,0-1.62,1.76,18.53,18.53,0,0,0-1,2.73L63.91,78A9.39,9.39,0,0,0,63.34,81.71Zm-4.59-15L55.06,78.88a10.29,10.29,0,0,1-.45,1.32,1.37,1.37,0,0,1-.63.57,2.55,2.55,0,0,1-1.13.24c-.16,0-.43,0-.81,0l-.91,3h3.15a16.94,16.94,0,0,0,3.19-.23,4.6,4.6,0,0,0,1.89-.83,3.14,3.14,0,0,0,1.08-1.34c.2-.49.57-1.6,1.09-3.33l3.52-11.52ZM65,88.2l-1.7-2.38h-.94v3.4h.9V87.07l1.35,1.85h.78l1.35-1.85v2.15h.9v-3.4H66.7Zm21.52-1.09c-.22,0-.56,0-1,0h-1a.27.27,0,0,1-.2-.07.26.26,0,0,1-.08-.19.25.25,0,0,1,.08-.18.22.22,0,0,1,.2-.08h1.89a.22.22,0,0,1,.19.08.23.23,0,0,1,.09.18h.88a.92.92,0,0,0-.32-.72,1.1,1.1,0,0,0-.78-.31H84.3a1.19,1.19,0,0,0-.78.32.9.9,0,0,0-.32.71,1,1,0,0,0,.32.73,1.1,1.1,0,0,0,.78.3h2.14a.33.33,0,0,1,.23.09.3.3,0,0,1,.09.21.26.26,0,0,1-.09.21.36.36,0,0,1-.23.08H84.36a.35.35,0,0,1-.23-.09.31.31,0,0,1-.09-.22h-.85a1,1,0,0,0,.33.75,1.12,1.12,0,0,0,.8.31h2.2a1.12,1.12,0,0,0,.8-.31,1,1,0,0,0,.33-.75.91.91,0,0,0-.33-.75A1.2,1.2,0,0,0,86.52,87.11ZM139.26,55.6,103,63.5h0l-9.47.29a.54.54,0,0,1-.54-.47l-.1-.61a1.11,1.11,0,0,0-1.13-.88h0L75,60.63l-16.7,1.21h0a1.13,1.13,0,0,0-1.13.9l-.1.6a.52.52,0,0,1-.53.46L47,63.5,10.75,55.6a1.54,1.54,0,0,0-1.25.52,1.93,1.93,0,0,0-.39,1.35,1.52,1.52,0,0,0,.17.46L21.38,73.3a.65.65,0,0,0,.57.23h.85a.79.79,0,0,1,.47.27l4.86,6.53a1.15,1.15,0,0,0,1,.4h1.25A.73.73,0,0,1,31,81l5,6.51a1.27,1.27,0,0,0,1.06.36H56a1.7,1.7,0,0,1,1.34.81L58.7,91a1.06,1.06,0,0,0,.74.46L75,94.39l15.58-2.94a1,1,0,0,0,.74-.45l1.39-2.29a1.7,1.7,0,0,1,1.34-.81h19a1.27,1.27,0,0,0,1.06-.36l5-6.51a.74.74,0,0,1,.6-.32h1.21a1.16,1.16,0,0,0,1-.39l0,0,4.83-6.49a.83.83,0,0,1,.49-.28h.84a.67.67,0,0,0,.59-.23l0,0,12.08-15.35a1.48,1.48,0,0,0,.16-.46,2,2,0,0,0-.39-1.35A1.71,1.71,0,0,0,139.26,55.6Zm-.66,2.16-9.09,11.66a1.52,1.52,0,0,1-1.1.61l-27,1.82a.37.37,0,0,0-.35.35.8.8,0,0,0,.81.84l23.36-1.19a.41.41,0,0,1,.33.67l-3.72,5.35a1.4,1.4,0,0,1-1.18.54l-20.63-.82a1,1,0,0,0-.83.38.52.52,0,0,0,.35.84L116.82,80a.46.46,0,0,1,.32.72l-4,5.43a1.38,1.38,0,0,1-1.12.58H92.64a1.22,1.22,0,0,0-1,.58l-1.9,2.84a1.12,1.12,0,0,1-.78.53L75,93.4l-14-2.74a1.13,1.13,0,0,1-.78-.53l-1.9-2.84a1.22,1.22,0,0,0-1-.58H38a1.38,1.38,0,0,1-1.12-.58l-4-5.43a.45.45,0,0,1,.32-.72l17.22-1.08a.53.53,0,0,0,.35-.84,1,1,0,0,0-.83-.39l-20.62.75a1.41,1.41,0,0,1-1.18-.54l-3.72-5.35a.41.41,0,0,1,.33-.67L48.08,73a.79.79,0,0,0,.81-.84.38.38,0,0,0-.35-.35L21.58,70a1.51,1.51,0,0,1-1.1-.61L11.41,57.76a.27.27,0,0,1,.26-.43l34.88,7.59,12.16.49V63.82a.84.84,0,0,1,.84-.86L75,62l15.22,1a.84.84,0,0,1,.84.86v1.59l12.41-.49,34.88-7.59A.27.27,0,0,1,138.6,57.76ZM90.73,72.9H88.85l1.88-6.16H84.44L79.19,84h6.29l2.21-7.24h1.88L87.36,84h6.3L98.9,66.74H92.61Z"/><path class="cls-1" d="M75,96h-.13l-15.65-3a2.77,2.77,0,0,1-2-1.33l-1.32-2.17s0,0,0,0H37.27a3.11,3.11,0,0,1-2.67-1.11l-4.68-6.08h-.75a2.84,2.84,0,0,1-2.4-1.17l-4.5-6h-.19a2.26,2.26,0,0,1-2-.93L8.06,59a3.07,3.07,0,0,1-.18-3.28,3.19,3.19,0,0,1,3-1.71H11l36.22,7.9,8.4.24A2.66,2.66,0,0,1,56.28,61a3.11,3.11,0,0,1,2-.77L75,59h0l16.74,1.22h0a2.88,2.88,0,0,1,1.92.76,2.8,2.8,0,0,1,.67,1.17l8.39-.25L139.05,54h0a3.18,3.18,0,0,1,3,1.71,3.08,3.08,0,0,1-.18,3.28l-12,15.26a2.21,2.21,0,0,1-2,.93h-.2l-4.5,6a2.83,2.83,0,0,1-2.39,1.17h-.76l-4.69,6.09a3,3,0,0,1-2.62,1.1H94.1l0,0-1.33,2.19a2.73,2.73,0,0,1-1.94,1.3c-.86.17-15.48,2.93-15.65,3ZM55.91,88.51a1.1,1.1,0,0,1,.92.52l1.35,2.23a1.77,1.77,0,0,0,1.23.79c1,.18,14.69,2.77,15.6,2.93L90.6,92.05a1.74,1.74,0,0,0,1.21-.76l0-.05L93.18,89a1.11,1.11,0,0,1,.92-.52h18.63a2.18,2.18,0,0,0,1.79-.63l0,0,5-6.52h1.27a1.75,1.75,0,0,0,1.53-.7l0,0,4.81-6.46h.7c.83,0,1.1-.37,1.15-.46l0,0,12-15.29.41.33-.41-.33a2,2,0,0,0,.06-2.17,2.1,2.1,0,0,0-2-1.14l-36.3,7.9-9.37.28-.06-.44a1.89,1.89,0,0,0-.48-1,1.91,1.91,0,0,0-1.17-.47h0L75,60,58.28,61.25h0a1.93,1.93,0,0,0-1.24.47,1.89,1.89,0,0,0-.48,1l-.07.44-9.41-.29L10.78,55a2.1,2.1,0,0,0-2,1.15,2,2,0,0,0,.06,2.16L21,73.67c0,.08.31.46,1.13.46h.72l4.85,6.49a1.73,1.73,0,0,0,1.53.7h1.26l5,6.54a2.06,2.06,0,0,0,1.77.65Z"/></svg>