<svg id="Layer_1" data-name="Layer 1" xmlns="http://www.w3.org/2000/svg" viewBox="0 0 150 150"><defs><style>.cls-1,.cls-2{fill:#ff5b00;}.cls-1{fill-rule:evenodd;}</style></defs><polygon class="cls-1" points="21.43 125.93 14.76 114.33 12.71 125.93 7.5 125.93 11.68 101.38 16.9 101.38 15.08 112.38 25.91 101.38 32.15 101.38 20.65 113.42 28.09 125.93 21.43 125.93"/><polygon class="cls-1" points="89.71 125.93 87.8 108.56 80.59 125.93 74.41 125.93 70.72 101.38 76.3 101.38 78.38 119.31 85.94 101.38 91.97 101.38 94 119.39 101.98 101.38 107.43 101.38 95.9 125.93 89.71 125.93"/><path class="cls-1" d="M109,115.49h6.3l-1.94-8.6Zm8.42,10.44-1.1-5.79h-9.87l-3.15,5.79H97.75c4.53-7.92,9.19-16,14.22-24.55h5.37l5.91,24.55Z"/><polygon class="cls-1" points="49.47 125.93 52.09 111.44 67.98 111.44 67.06 116.7 56.39 116.7 55.51 120.67 66.36 120.67 65.45 125.93 49.47 125.93"/><path class="cls-1" d="M29.9,125.93l2.63-14.49H48.41s-.65,3.84-.91,5.26H36.83l-.88,4H46.8l-.91,5.26Z"/><polygon class="cls-2" points="33.49 106.6 34.32 101.41 69.13 101.41 68.3 106.6 33.49 106.6"/><polygon class="cls-2" points="124.38 125.93 126.17 114.98 119.46 101.38 125.27 101.38 129.65 110.18 136.78 101.38 142.5 101.38 131.42 115.05 129.59 125.93 124.38 125.93"/><path class="cls-2" d="M99.75,51.42A162.78,162.78,0,0,1,76.41,76.77c.36.59.78,1.17,1,1.72a169.55,169.55,0,0,0,29.82-30.92,153.59,153.59,0,0,1-52.83-1s3.19,3.62,6.49,7.56c20.14,2,38.81-2.71,38.81-2.71"/><path class="cls-2" d="M47,70.9a29.66,29.66,0,0,0,5.1,8.88L47.32,83A34.78,34.78,0,0,1,40.4,70L47,70.9"/><path class="cls-2" d="M109.31,49.18A36,36,0,0,1,51.55,87.33l5-3.1A31.25,31.25,0,0,0,107.56,60a31.61,31.61,0,0,0-.94-7.65Z"/><path class="cls-2" d="M39,60a36,36,0,0,1,68.79-14.77l-3.58.72A31.26,31.26,0,0,0,45.05,60c0,.91,0,1.79.11,2.67L39,61c0-.32,0-.66,0-1"/><path class="cls-2" d="M74.94,66.19A90.47,90.47,0,0,1,52.41,66a99.44,99.44,0,0,1-12.25-2.55L39.1,63.1l.68,4.59a122.29,122.29,0,0,0,16.93,1.64C64,69.33,67.52,69,67.52,69A126.39,126.39,0,0,1,56.27,79.1c-4.4,3.21-7.69,5.48-7.69,5.48l1,1.22s10.74-6.43,16-10.77a103.43,103.43,0,0,0,9.39-8.84"/><path class="cls-2" d="M47.47,55.42l4.27,6.32a101.47,101.47,0,0,0,16.2.75c7.17-.43,16-2,16-2s-7.27,8.73-12.16,13S63,80.74,63,80.74l.72,1.78s12.37-8.74,17.59-14,10-11.25,10-11.25a108.61,108.61,0,0,1-25.9,1.46c-13.63-1-17.92-3.26-17.92-3.26"/></svg>