<svg id="Layer_1" data-name="Layer 1" xmlns="http://www.w3.org/2000/svg" viewBox="0 0 150 150"><defs><style>.cls-1{fill:#e40428;}</style></defs><path class="cls-1" d="M122.4,59.86c-.28,1.06-.56,2.1-.83,3.14-.92,3.44-1.8,6.89-2.77,10.31-1.44,5.12-4.88,8.1-10.06,9.08a20.14,20.14,0,0,1-9.07-.19,6.61,6.61,0,0,1-4.46-3.35,6.78,6.78,0,0,1-.55-4.61c.7-3.06,1.52-6.08,2.3-9.12,0-.19.09-.37.16-.69L82.61,71.77l9.1,8.63c-.29,0-.46.06-.62.06-3.46,0-6.92,0-10.38,0a1.47,1.47,0,0,1-.85-.33c-1.76-1.46-3.49-3-5.22-4.45a.73.73,0,0,0-.9-.13L49.12,86.4l-9.64,4.23a.46.46,0,0,1-.39,0l13-8.25,0-.12H36a5.72,5.72,0,0,1,.11-.61l5.34-20c.13-.51.25-1,.42-1.53,0-.14.24-.26.39-.31a1.22,1.22,0,0,1,.47,0H61.79l-.43,1.77.66,0h8.26a1.2,1.2,0,0,1,1.07.52c1.48,1.86,3,3.68,4.51,5.52l.24.31,5.75-3.84c1-.67,2-1.36,3-2a1.72,1.72,0,0,1,.89-.24q5.74,0,11.5,0c.43,0,.63-.11.73-.55s.16-1.15.49-1.41,1-.1,1.49-.1h7.1c-.17.7-.33,1.31-.49,1.92-1.06,4-2.14,8.08-3.18,12.13a5.3,5.3,0,0,0-.09,1.78c.06.73.49,1.09,1.25,1.24a4.78,4.78,0,0,0,5.77-3.41c.87-2.82,1.58-5.7,2.36-8.55.42-1.56.84-3.12,1.24-4.68.07-.27.16-.43.49-.43h7.66A1.88,1.88,0,0,1,122.4,59.86ZM69.75,71.22l-8.88-7.81c-.15.52-.31,1-.39,1.39s-.31.58-.76.58c-3.28,0-6.57,0-9.85,0h-.72l-.69,2.55H59a2.06,2.06,0,0,1,0,.33c-.43,1.64-.86,3.29-1.33,4.92a.67.67,0,0,1-.48.36,7.49,7.49,0,0,1-1.06,0H47.54c-.21,0-.57.07-.6.18-.29.92-.52,1.86-.79,2.88H57.74l-.68,2.66Z"/><path class="cls-1" d="M27.78,72.31l1-3.72c.74-2.77,1.49-5.54,2.22-8.31.08-.28.15-.49.51-.49h7.34a1.8,1.8,0,0,1,.28.06l-.87,3.28q-2.49,9.31-5,18.62c-.12.45-.31.55-.73.55-2.93,0-5.85,0-8.78,0a.64.64,0,0,1-.72-.51c-1.32-3.91-2.66-7.82-4-11.72l-.19-.49c-.08.23-.13.37-.17.51-1,3.92-2.09,7.84-3.12,11.76-.07.25-.13.44-.47.44H7.72a1.16,1.16,0,0,1-.22,0,4.68,4.68,0,0,1,.1-.54Q10.45,71,13.3,60.3a.56.56,0,0,1,.65-.51h8.94a.59.59,0,0,1,.68.48c1.28,3.83,2.59,7.65,3.89,11.48.06.19.14.38.21.57Z"/><path class="cls-1" d="M142.39,66.2l-1.29-.45a13.25,13.25,0,0,0-7.27-.56,4,4,0,0,0-1.38.64c-.54.39-.5.74.09,1a9.85,9.85,0,0,0,1.44.52c1.76.6,3.55,1.11,5.27,1.81a4.5,4.5,0,0,1,2.93,4.72A8.66,8.66,0,0,1,138.65,80a13.84,13.84,0,0,1-6.58,2.51,30.77,30.77,0,0,1-10.22-.31l-.23-.08.17-6.75c1,.33,1.84.67,2.74.93a12.91,12.91,0,0,0,6.14.44,5.92,5.92,0,0,0,1.88-.81c.64-.41.6-.84-.09-1.16a27.36,27.36,0,0,0-2.78-1.05,17.71,17.71,0,0,1-4.43-1.89,4.48,4.48,0,0,1-2.06-5.28,8.52,8.52,0,0,1,5.4-5.88,17.46,17.46,0,0,1,6.95-1.35c2.07,0,4.14.17,6.21.3.76,0,.76.1.75.88,0,1.72-.05,3.44-.07,5.16C142.43,65.81,142.41,66,142.39,66.2Z"/></svg>