<svg id="Layer_1" data-name="Layer 1" xmlns="http://www.w3.org/2000/svg" viewBox="0 0 150 150"><defs><style>.cls-1{fill:#d52b1e;}.cls-2{fill:#003478;}</style></defs><path class="cls-1" d="M15.23,65.93A50.28,50.28,0,0,1,7.57,70L24.44,81.81a.05.05,0,0,1,0,0h0a.05.05,0,0,1,0,0l-.76.5a.09.09,0,0,1-.07,0l-6.16-4.24a7.63,7.63,0,0,0-6.71-.69A12.6,12.6,0,0,0,7.5,79.06l12.83,9a39.4,39.4,0,0,1,6-4.34,35.94,35.94,0,0,1,7.06-3.58L16.48,68.27a.08.08,0,0,1,0,0h0a.05.05,0,0,1,0,0l.72-.48a.08.08,0,0,1,.07,0s2.29,1.51,6.36,4.38c3.82,2.68,9.15-.54,9.88-1L20.49,62A60.06,60.06,0,0,1,15.23,65.93Z"/><path class="cls-2" d="M78.46,67.91v3.76h8.4s.07,0,.07.07,0,0,0,.05L78.16,80v3.17H95.82V79.34H87a.07.07,0,0,1-.06,0,.06.06,0,0,1,0-.07l8.86-8.14V67.91Zm-7.08,0v9.66c0,1.42-1.24,2.26-3.31,2.26s-3.32-.84-3.32-2.29V67.91H59.33v9.93c0,2.12.54,3.44,1.75,4.3s3.54,1.37,7,1.37,5.67-.43,7-1.37S76.8,80,76.8,77.84V67.91Zm38.11,0v9.62c0,1.44-1.24,2.3-3.32,2.3s-3.31-.84-3.31-2.3V67.91H97.44v9.93c0,2.12.53,3.44,1.74,4.3s3.55,1.37,7,1.37,5.67-.43,7-1.37,1.75-2.18,1.75-4.3V67.91Zm27.35,0V83.12h5.66V67.91Zm-8.43,0-6.14,5.28a.06.06,0,0,1-.07,0,.07.07,0,0,1,0-.06V67.91H116.5V83.12h5.66V77.75a.07.07,0,0,1,0-.06.06.06,0,0,1,.07,0l5.7,5.42h7.59l-8.34-7.76a0,0,0,0,1,0,0h0s0,0,0,0l8.61-7.36ZM39.78,72.49a3.66,3.66,0,0,0,2,3.53c1.27.7,3.16,1.13,6.35,1.45l.6,0c1.38.11,2.95.23,2.95,1.37,0,.77-.84,1.2-2.37,1.2a3,3,0,0,1-2.76-1.8H39.45a4.09,4.09,0,0,0,2.06,3.8c1.57.93,4.12,1.38,7.8,1.38,8.21,0,8.85-3.82,8.85-5,0-2.72-2.42-4.35-7.41-5l-.78-.1c-2.27-.28-4.07-.51-4.07-1.3a1,1,0,0,1,.3-.77,3.13,3.13,0,0,1,2.07-.52h0a3.41,3.41,0,0,1,2.88,1.73h6.44c0-3.21-3.43-5.06-9.3-5.06-7.73,0-8.56,3.51-8.56,5Z"/></svg>