<svg id="Layer_1" data-name="Layer 1" xmlns="http://www.w3.org/2000/svg" viewBox="0 0 150 150"><defs><style>.cls-1{fill:#253c80;}.cls-2{fill:#dc4226;}</style></defs><path class="cls-1" d="M12.79,83.12H10.16l-1,3.79H21.89l1-3.79H19.79L22.87,70.5H25l-.17,2.09H29.2L31,66H9.76L8,72.59h4.59l.94-2.14h2.27ZM46.06,66h9.85l-13.15,21H34.51L33.35,69.74h-1.7l1-3.79H43.56l-1,3.79H40.71l-.05,10.75L47,69.74h-2.1Zm25.28,6.2a14.37,14.37,0,0,1,1.52-5.89,27.23,27.23,0,0,0-11.37,0,9.23,9.23,0,0,0-5.35,3.66,5.18,5.18,0,0,0,.62,6.42,9.83,9.83,0,0,0,2.94,1.92c.85.4,2.32,1,2.55,2,.62,2.5-3.39,2.72-5,2.23v-2H53.1l-1.6,5.84A25,25,0,0,0,63,86.78a10.65,10.65,0,0,0,5.84-3.53c1.25-1.56,2-4.46.63-6.15a9,9,0,0,0-2.64-2.23,30.68,30.68,0,0,1-2.94-1.61,1.56,1.56,0,0,1,.09-2.76c.89-.58,2.36-.31,3.35-.14l.17,1.74h3.88Z"/><path class="cls-2" d="M128.87,65.9a8.24,8.24,0,0,0-5.17-.17,11.76,11.76,0,0,0-4.37,2.49,23,23,0,0,1-4.46,2.86c-1.65.71-3.53,1.47-5.31.76a6.16,6.16,0,0,0,3.61-.94c.85-.54,2.32-1.65,2.63-2.68h-1.47a9.84,9.84,0,0,1,3.88-2.58l-.71-.85A11.92,11.92,0,0,1,124,62.74a9.81,9.81,0,0,1,3.25.4A6.09,6.09,0,0,1,130,64.79Zm-28.23,4.69a6,6,0,0,0-1.78.22c-.58.18-1.12.4-1.7.62-1.07.45-2.09,1-3.12,1.57a6,6,0,0,1-1.47.58,3.42,3.42,0,0,1-1.74-.14,6.1,6.1,0,0,1-1.43-.94,14.48,14.48,0,0,0-1.33-1.11c-.49-.31-1-.54-1.48-.85.23,0,1.39,0,1.07-.53a2.14,2.14,0,0,0-1.38-.67,17.05,17.05,0,0,0-3.34-.22,4.67,4.67,0,0,1,3.21-1.21A6,6,0,0,1,89.23,69c.49.31,1.07.84,1.56,1.16a6.47,6.47,0,0,0,1.56.66,5.39,5.39,0,0,0,3.34-.17A7,7,0,0,1,98.23,70a3.35,3.35,0,0,1,2.41.58Z"/><path class="cls-2" d="M91.9,79.55c1.83-.09,3.35-1.87,4.37-3.21s1.87-3.57,3.61-4.37c2.59-1.16,5.31-.18,7.67,1.07a9.58,9.58,0,0,0,7.59,0c2.45-1.07,4.32-2.9,6.42-4.46a8.52,8.52,0,0,1,7.53-1.7l1.34-1.6.27,2.63,4.73,4.77-.94,1.11h-3V73a4.17,4.17,0,0,0-3-.94c-1.16.13-2.4.67-2.23,2,.14.94,1.48,1.78,2.14,2.27.94.63,1.92,1.21,2.9,1.83a62.76,62.76,0,0,1,5.8,4.11A28,28,0,0,1,142,86.86l-4.1-.8c.76-.53-.13-1.11-.63-1.51a13.33,13.33,0,0,0-2-1.3,16.53,16.53,0,0,0-4.37-1.51c-2.9-.72-6.64-1.16-9.18.66-.09,0-.18.14-.27.18L120,81.38a17.52,17.52,0,0,1-14-1.16,12,12,0,0,1-5.75,1.69,29,29,0,0,1-5.89-.08c-4.68,3.87-11.06,6.15-17,4.1l4-1v.89c4.33,0,7.94-3,10.48-6.24Z"/></svg>