<svg id="Layer_1" data-name="Layer 1" xmlns="http://www.w3.org/2000/svg" viewBox="0 0 150 150"><defs><style>.cls-1,.cls-2{fill:#df040b;}.cls-1{fill-rule:evenodd;}</style></defs><polygon class="cls-1" points="13.04 105.7 13.8 104.28 27.38 104.28 15.78 114.1 23.68 114.1 22.62 115.45 8.02 115.45 20.02 105.7 13.04 105.7 13.04 105.7"/><polygon class="cls-1" points="40.72 115.53 42.82 115.53 46.56 109.18 53.71 115.71 54.67 115.71 60.63 104.15 58.76 104.15 55.22 110.53 47.26 103.84 40.72 115.53 40.72 115.53"/><polygon class="cls-1" points="118.89 115.53 121.2 115.53 125.32 109.18 134.34 115.71 135.41 115.71 141.98 104.15 139.92 104.15 136.01 110.53 126.11 103.84 118.89 115.53 118.89 115.53"/><polygon class="cls-1" points="104.82 115.67 106.95 115.67 109.26 115.67 116.81 115.67 117.4 114.53 109.86 114.53 111.89 110.78 118.8 110.78 119.39 109.64 112.5 109.64 114.75 105.47 121.92 105.47 122.51 104.33 115.36 104.33 112.66 104.33 110.93 104.33 104.82 115.67 104.82 115.67"/><polygon class="cls-1" points="88.54 115.67 92.85 115.67 95.68 110.66 99.61 110.66 96.79 115.67 101.1 115.67 107.45 104.41 103.14 104.41 100.25 109.54 96.31 109.54 99.2 104.41 94.89 104.41 88.54 115.67 88.54 115.67"/><path class="cls-1" d="M90,104.32H80.27s-1.55-.26-2.14,1.88.79,3.47,2.33,4.87,2,3.52,1,3.52H74.8v1.1H85.5A1.65,1.65,0,0,0,86.87,114c.11-1.5-.73-2.13-1.54-3.16s-3.24-3.64-2.77-4.53a1.92,1.92,0,0,1,1.22-1H90l-.05-1Z"/><path class="cls-1" d="M76.28,105.65l.58-1.32H63.54l-6.06,11.32H70s1.49.26,3-2.05a20,20,0,0,0,2-4H67.67l-.5.92H70a6.31,6.31,0,0,1-1.55,2.89c-1.17,1.14-1.62,1.27-3.38,1.27s-1.8-1.05-1.08-2.32,3.88-6.71,3.88-6.71Z"/><path class="cls-1" d="M127.31,26.16s-5.21,5.26-21.15,10.62S79.79,46,79.79,46l23.28,29.55L58.36,96l4.73,3.34,49-22.56L89.65,49.84s19.22-5.26,29.55-11.44c9.94-6.57,8.11-12.24,8.11-12.24ZM93,50.78l2.42,3.34s11.27-3.29,17.63-5.82,8.34-5.81,8.93-7.41a7.7,7.7,0,0,0,.6-2.17s-5.6,4.08-17,7.73S93,50.78,93,50.78Zm4.07,5.07,2.53,3.59a108.54,108.54,0,0,0,13.08-4.27c5.72-2.41,5.72-7.29,5.72-7.29s-3.13,2.22-11.78,4.94-9.55,3-9.55,3Zm3.33,18.94-3.53-4.25L51.44,91.43l4.32,2.85,44.66-19.49Z"/><path class="cls-1" d="M22.69,26.16s5.22,5.26,21.15,10.62S70.21,46,70.21,46L46.93,75.54,63.24,83,57.35,85.7,38,76.75l22.4-26.91S41.14,44.58,30.8,38.4c-9.94-6.57-8.11-12.24-8.11-12.24ZM84.23,92.58,91.65,96l-4.74,3.34-8.64-4,6-2.75ZM57,50.78l-2.41,3.34S43.3,50.83,36.93,48.3,28.59,42.49,28,40.89a7.8,7.8,0,0,1-.59-2.17s5.6,4.08,17,7.73S57,50.78,57,50.78Zm-4.06,5.07-2.54,3.59a108.66,108.66,0,0,1-13.07-4.27c-5.71-2.41-5.71-7.29-5.71-7.29s3.11,2.22,11.77,4.94,9.55,3,9.55,3ZM49.59,74.79l3.53-4.25L71.73,79.1l-6,2.74-16.16-7ZM92.64,88.71l5.93,2.72-4.32,2.85-7-3.07,5.43-2.5Z"/><path class="cls-2" d="M32.87,121.4c0-.75-.09-1.66-.08-2.33h0c-.18.63-.4,1.3-.68,2l-.94,2.62h-.53l-.87-2.56c-.26-.77-.48-1.46-.63-2.1h0c0,.67-.06,1.58-.11,2.38l-.13,2.31h-.67l.38-5.38h.89l.91,2.6c.22.66.41,1.25.54,1.81h0c.14-.54.34-1.13.57-1.81l1-2.6h.89l.33,5.38H33Z"/><path class="cls-2" d="M39.35,121a2.52,2.52,0,0,1-2.5,2.83,2.47,2.47,0,0,1-2.42-2.73,2.56,2.56,0,0,1,2.5-2.82A2.45,2.45,0,0,1,39.35,121Zm-4.17.09c0,1.15.62,2.18,1.71,2.18s1.73-1,1.73-2.24-.56-2.19-1.72-2.19S35.18,119.92,35.18,121.1Z"/><path class="cls-2" d="M41.08,119H39.44v-.59h4V119H41.78v4.79h-.7Z"/><path class="cls-2" d="M48.41,121a2.52,2.52,0,0,1-2.5,2.83,2.47,2.47,0,0,1-2.42-2.73,2.55,2.55,0,0,1,2.5-2.82A2.45,2.45,0,0,1,48.41,121Zm-4.17.09c0,1.15.62,2.18,1.71,2.18s1.72-1,1.72-2.24-.55-2.19-1.71-2.19S44.24,119.92,44.24,121.1Z"/><path class="cls-2" d="M53.08,123.58a3.48,3.48,0,0,1-1.43.25A2.51,2.51,0,0,1,49,121.11a2.68,2.68,0,0,1,2.82-2.82,2.77,2.77,0,0,1,1.27.24l-.17.57a2.44,2.44,0,0,0-1.08-.23,2,2,0,0,0-2.1,2.22,2,2,0,0,0,2.07,2.16,2.71,2.71,0,0,0,1.13-.22Z"/><path class="cls-2" d="M54.64,118.38v5.38h-.7v-5.38Z"/><path class="cls-2" d="M59.62,123.58a3.46,3.46,0,0,1-1.42.25,2.51,2.51,0,0,1-2.66-2.72,2.67,2.67,0,0,1,2.81-2.82,2.86,2.86,0,0,1,1.28.24l-.17.57a2.52,2.52,0,0,0-1.09-.23,2,2,0,0,0-2.1,2.22,2,2,0,0,0,2.07,2.16,2.71,2.71,0,0,0,1.13-.22Z"/><path class="cls-2" d="M60.49,118.38h.69v4.79h2.3v.59h-3Z"/><path class="cls-2" d="M67.05,121.24H65v1.93h2.34v.59h-3v-5.38h2.9V119H65v1.7h2.1Z"/><path class="cls-2" d="M69.34,119H67.7v-.59h4V119H70v4.79h-.7Z"/><path class="cls-2" d="M72.55,122.07,72,123.76h-.72l1.82-5.38h.84l1.84,5.38H75l-.58-1.69Zm1.78-.55L73.79,120c-.12-.35-.19-.67-.27-1h0c-.08.32-.17.65-.28,1l-.52,1.56Z"/><path class="cls-2" d="M76.48,122.91a2.48,2.48,0,0,0,1.24.35c.71,0,1.13-.37,1.13-.92s-.29-.78-1-1.06c-.89-.32-1.43-.77-1.43-1.53a1.55,1.55,0,0,1,1.74-1.46,2.54,2.54,0,0,1,1.2.26l-.2.57a2.08,2.08,0,0,0-1-.26c-.73,0-1,.44-1,.81s.32.75,1.07,1c.91.35,1.37.79,1.37,1.58s-.61,1.54-1.88,1.54a2.84,2.84,0,0,1-1.38-.33Z"/><path class="cls-2" d="M86.8,121a2.51,2.51,0,0,1-2.49,2.83,2.47,2.47,0,0,1-2.42-2.73,2.55,2.55,0,0,1,2.49-2.82A2.45,2.45,0,0,1,86.8,121Zm-4.17.09c0,1.15.62,2.18,1.71,2.18s1.73-1,1.73-2.24-.56-2.19-1.72-2.19S82.63,119.92,82.63,121.1Z"/><path class="cls-2" d="M87.71,118.45a7.36,7.36,0,0,1,1.33-.11,2.17,2.17,0,0,1,1.56.44,1.33,1.33,0,0,1,.42,1,1.41,1.41,0,0,1-1,1.37v0a1.38,1.38,0,0,1,.8,1.09,8.5,8.5,0,0,0,.41,1.48H90.5a6,6,0,0,1-.36-1.29c-.17-.74-.45-1-1.08-1h-.65v2.33h-.7Zm.7,2.45h.7c.74,0,1.22-.41,1.22-1s-.51-1-1.24-1a2.27,2.27,0,0,0-.68.07Z"/><path class="cls-2" d="M92.7,118.38v5.38H92v-5.38Z"/><path class="cls-2" d="M98,123.52a5.1,5.1,0,0,1-1.65.29,2.78,2.78,0,0,1-2-.71,2.75,2.75,0,0,1-.74-2,2.69,2.69,0,0,1,2.91-2.78,3.35,3.35,0,0,1,1.34.25l-.16.56a2.83,2.83,0,0,0-1.2-.23,2,2,0,0,0-2.16,2.17,2,2,0,0,0,2.08,2.17,2.45,2.45,0,0,0,.92-.14v-1.61h-1.1v-.56H98Z"/><path class="cls-2" d="M99.77,118.38v5.38h-.69v-5.38Z"/><path class="cls-2" d="M101,123.76v-5.38h.76l1.72,2.72a14.42,14.42,0,0,1,1,1.75h0a21.92,21.92,0,0,1-.08-2.21v-2.25H105v5.38h-.7L102.61,121a17.26,17.26,0,0,1-1-1.8h0c0,.68.06,1.33.06,2.22v2.3Z"/><path class="cls-2" d="M107.11,122.07l-.56,1.69h-.72l1.83-5.38h.84l1.83,5.38h-.74l-.57-1.69Zm1.76-.55-.53-1.55c-.12-.35-.2-.67-.28-1h0c-.08.32-.17.65-.27,1l-.53,1.56Z"/><path class="cls-2" d="M111.12,118.38h.7v4.79h2.3v.59h-3Z"/><path class="cls-2" d="M117.68,121.24h-2.09v1.93h2.33v.59h-3v-5.38h2.91V119h-2.21v1.7h2.09Z"/><path class="cls-2" d="M118.73,122.91a2.49,2.49,0,0,0,1.25.35c.7,0,1.12-.37,1.12-.92s-.29-.78-1-1.06c-.88-.32-1.43-.77-1.43-1.53a1.55,1.55,0,0,1,1.75-1.46,2.48,2.48,0,0,1,1.18.26l-.18.57a2.16,2.16,0,0,0-1-.26c-.73,0-1,.44-1,.81s.32.75,1.06,1c.92.35,1.38.79,1.38,1.58s-.61,1.54-1.89,1.54a2.75,2.75,0,0,1-1.36-.33Z"/><path class="cls-1" d="M42.11,104.24H32.34a3.77,3.77,0,0,0-2.71,1.55l-4.62,7c-.68,1,0,2.74,1,2.74h9.65A3.7,3.7,0,0,0,38.35,114L43,106.82C43.63,105.91,43.2,104.24,42.11,104.24ZM39,106.38l-4.33,7a2.34,2.34,0,0,1-1.76,1H30.07c-.61,0-.85-.46-.49-1l4.31-7a2.31,2.31,0,0,1,1.76-1h2.86C39.14,105.36,39.36,105.81,39,106.38Z"/></svg>