<?xml version="1.0" encoding="UTF-8"?>
<svg id="Capa_1" xmlns="http://www.w3.org/2000/svg" viewBox="0 0 477.96 179.72">
  <defs>
    <style>
      .cls-1 {
        fill: #d2121c;
      }
    </style>
  </defs>
  <path d="M46.37,17.51h53.63l4,13.59-7.26,21.23-12.29,11.45h-27.47l-6.7,19.55h-26.54L46.37,17.51ZM63.79,44.14h9.22l2.42-7.17h-9.22l-2.42,7.17Z"/>
  <path d="M126.82,63.69h9.31l15.83-46.18h26.54l-18.71,54.38-12.1,11.45h-46.18l-3.63-12.66,18.25-53.17h26.54l-15.83,46.18Z"/>
  <path d="M185.95,17.51h26.54l-15.92,46.28h28.77l-6.7,19.55h-47.39l-3.54-12.76,18.25-53.07Z"/>
  <path d="M287.06,41.81l4.75,9.87-6.52,18.9-12.29,12.76h-47.02l6.7-19.55h28.31l1.68-4.75h-18.81l-6.15-9.87,6.52-18.9,12.29-12.76h47.49l-6.7,19.55h-28.86l-1.58,4.75h20.21Z"/>
  <path d="M333.43,83.33v-6.15h-16.11l-4.19,6.15h-27.93l41.99-65.83h37.34l-3.17,65.83h-27.93ZM327.66,60.71h6.89l1.3-13.87-8.19,13.87Z"/>
  <path d="M389.77,17.51h53.63l4,13.59-7.26,21.23-13.04,11.45h9.03l-6.7,19.55h-26.82l-3.35-16.29-5.59,16.29h-26.54l22.63-65.83ZM416.4,44.14l2.42-7.17h-9.22l-2.42,7.17h9.22Z"/>
  <path class="cls-1" d="M5.13,163.8l6.7-19.37h6.05l9.31-27.09h-6.15l6.61-19.37h32.68l-15.92,46.46h6.15l-6.7,19.37H5.13Z"/>
  <path class="cls-1" d="M112.39,122.27l4.75,9.87-6.52,18.9-12.29,12.76h-47.02l6.7-19.55h28.31l1.68-4.75h-18.81l-6.15-9.87,10.89-31.66h55.4l-6.7,19.55h-28.86l-1.58,4.75h20.21Z"/>
  <path class="cls-1" d="M132.13,111.38l12.57-13.41h45.62l4,13.59-14.06,40.78-12.2,11.45h-46l-3.63-12.66,13.69-39.76ZM156.62,144.15l9.12-26.72h-9.22l-9.12,26.72h9.22Z"/>
  <path class="cls-1" d="M183.81,163.8l22.63-65.83h53.63l4,13.59-17.97,52.24h-26.54l15.92-46.37h-9.22l-15.92,46.37h-26.54Z"/>
  <path class="cls-1" d="M271.79,110.73l12.29-12.76h47.21l-6.7,19.55h-28.58l-1.58,4.75h18.34l-5.96,17.23h-18.34l-1.68,4.75h28.58l-6.7,19.55h-47.21l-3.54-12.76,13.87-40.32Z"/>
  <path class="cls-1" d="M334.18,111.38l12.57-13.41h45.62l4,13.59-14.06,40.78-12.2,11.45h-45.9l-3.72-12.66,13.69-39.76ZM358.67,144.15l9.12-26.72h-9.22l-9.12,26.72h9.22Z"/>
  <path class="cls-1" d="M385.85,163.8l22.63-65.83h53.63l4,13.59-17.97,52.24h-26.54l15.92-46.37h-9.22l-15.92,46.37h-26.54Z"/>
</svg>