<?xml version="1.0" encoding="UTF-8"?>
<svg id="Capa_1" xmlns="http://www.w3.org/2000/svg" viewBox="0 0 503.23 192.11">
  <defs>
    <style>
      .cls-1 {
        fill: #d2121c;
      }
    </style>
  </defs>
  <path d="M32.75,10.4h62.14l4.64,15.75-8.42,24.6-14.24,13.27h-31.82l-7.77,22.65H6.54L32.75,10.4ZM52.93,41.25h10.68l2.8-8.31h-10.68l-2.8,8.31Z"/>
  <path d="M125.96,63.9h10.79l18.34-53.51h30.74l-21.68,63-14.02,13.27h-53.51l-4.21-14.67,21.14-61.6h30.74l-18.34,53.51Z"/>
  <path d="M194.46,10.4h30.74l-18.45,53.61h33.33l-7.77,22.65h-54.91l-4.1-14.78,21.14-61.49Z"/>
  <path d="M311.61,38.55l5.5,11.43-7.55,21.9-14.24,14.78h-54.48l7.77-22.65h32.79l1.94-5.5h-21.79l-7.12-11.44,7.55-21.9,14.24-14.78h55.02l-7.77,22.65h-33.44l-1.83,5.5h23.41Z"/>
  <path d="M365.33,86.67v-7.12h-18.66l-4.85,7.12h-32.36l48.65-76.27h43.26l-3.67,76.27h-32.36ZM358.64,60.45h7.98l1.51-16.07-9.49,16.07Z"/>
  <path d="M430.6,10.4h62.14l4.64,15.75-8.42,24.6-15.1,13.27h10.46l-7.77,22.65h-31.07l-3.88-18.88-6.47,18.88h-30.74l26.21-76.27ZM461.45,41.25l2.8-8.31h-10.68l-2.8,8.31h10.68Z"/>
  <path class="cls-1" d="M102.01,179.89l7.77-22.44h7.01l10.79-31.39h-7.12l7.66-22.44h37.86l-18.45,53.83h7.12l-7.77,22.44h-44.88Z"/>
  <path class="cls-1" d="M226.28,131.78l5.5,11.43-7.55,21.9-14.24,14.78h-54.48l7.77-22.65h32.79l1.94-5.5h-21.79l-7.12-11.44,12.62-36.68h64.19l-7.77,22.65h-33.44l-1.83,5.5h23.41Z"/>
  <path class="cls-1" d="M249.15,119.16l14.56-15.53h52.86l4.64,15.75-16.29,47.25-14.13,13.27h-53.29l-4.21-14.67,15.86-46.06ZM277.52,157.13l10.57-30.96h-10.68l-10.57,30.96h10.68Z"/>
  <path class="cls-1" d="M335.24,103.62h62.14l4.64,15.75-8.42,24.6-15.1,13.27h10.46l-7.77,22.65h-31.07l-3.88-18.88-6.47,18.88h-30.74l26.21-76.27ZM366.09,134.48l2.8-8.31h-10.68l-2.8,8.31h10.68Z"/>
</svg>