<svg id="Capa_1" data-name="Capa 1" xmlns="http://www.w3.org/2000/svg" viewBox="0 0 640 470"><defs><style>.cls-1{fill:#d2121c;}</style></defs><path d="M94.24,206.19l3.5,11.9-3.09,9-9,8,3.51,7.9-3.1,9-11.65,11.9H27.5l19.8-57.62ZM64.66,246.77l1.47-4.31H58.06l-1.47,4.31Zm6.6-19.23,1.47-4.32H64.66l-1.47,4.32Z"/><path d="M126.67,263.81v-5.38H112.58l-3.67,5.38H84.46l36.75-57.62h32.68l-2.77,57.62Zm-5-19.81h6l1.14-12.14Z"/><path d="M208.4,252.64l-10.83,11.17h-41.4L162,246.69h25.1l13.93-40.5h23.31Z"/><path d="M250.94,263.81v-5.38h-14.1l-3.66,5.38H208.73l36.75-57.62h32.68l-2.77,57.62ZM245.89,244h6l1.14-12.14Z"/><path d="M332.67,252.64l-10.84,11.17H280.44l5.87-17.12H311.4l13.94-40.5h23.3Z"/><path class="cls-1" d="M351.25,217.36,362,206.19h41.31l-5.87,17.12h-25l-8.07,23.38h25l-5.87,17.12H342.21l-3.1-11.17Z"/><path class="cls-1" d="M418.4,223.31H404l5.87-17.12h52.32l-5.87,17.12H441.7l-13.93,40.5H404.46Z"/><path class="cls-1" d="M448.87,263.81l5.87-16.95H460l8.14-23.72h-5.37l5.78-16.95h28.6l-13.93,40.67h5.38l-5.87,16.95Z"/><path class="cls-1" d="M525.06,223.31H503.22l5.87-17.12h41.56l3.1,11.17-2.86,8.23-29.17,21.1h21.92l-5.86,17.12H489.62l6.68-19.4Z"/><path class="cls-1" d="M597.67,227.46l4.15,8.64-5.7,16.54-10.76,11.17H544.21l5.87-17.12h24.77l1.47-4.15H559.86l-5.38-8.64L564,206.19H612.5l-5.87,17.12H581.37L580,227.46Z"/></svg>