<svg id="Capa_1" data-name="Capa 1" xmlns="http://www.w3.org/2000/svg" viewBox="0 0 640 470"><path d="M370.72,217.49a22.74,22.74,0,0,0,3.78-1.4q5.81-3.33,11.46-6.9a9.42,9.42,0,0,0,2.37-2.26c2.74-3.51,5.28-7.18,8.16-10.56a6.77,6.77,0,0,1,4.15-2.34c4.91-.34,9.85-.26,14.77-.24.82,0,2.34.57,2.33.83a5,5,0,0,1-.94,3c-2.33,2.65-5,5-7.27,7.7q-8.82,10.23-17.41,20.65a25.32,25.32,0,0,0-2.23,3.95l.82.92a36.78,36.78,0,0,0,4.29-2.68c6.27-5.24,12.36-10.71,18.73-15.84,7.24-5.82,14.64-11.45,22.11-17,4-2.93,8.64-1.56,13-2l.59,1L443.62,199l.66,1.17a56.4,56.4,0,0,0,6.9-1.66c13.35-5,26.94-7,41-3.49,4.32,1.1,5.12,3,2.85,6.89a55.29,55.29,0,0,1-5.89,7.7c-10.3,12-24,17-39.24,18.82-1.44.18-3.64-.5-3.95,2-.37,3-1.2,6.13,2.17,8.24,4.57,2.86,9,2.8,13.43-.78,11.53-9.24,23-18.62,34.4-28,.87-.71,1.62-1.55,2.53-2.19,4.19-3,6.36-6.61,4.54-11.9-.55-1.63.16-2.65,2.12-2.58,10.23.38,20.45.63,30.66,1.15,1.54.07,3.68,1,4.3,2.19.49.94-.57,3.16-1.55,4.31-5,5.88-10.19,11.57-15.25,17.38-1.29,1.49-2.31,3.2-3.46,4.81l.52.78a14.45,14.45,0,0,0,3.32-.46c20.91-8,43-10.13,64.94-12.71,2.85-.34,5.88-.75,9.3,1.48-2.27.7-3.88,1.27-5.52,1.69q-16.89,4.27-33.78,8.5c-14.67,3.66-28,10.27-40.89,18-4.93,3-9.92,5.86-14.92,8.72-6.21,3.56-9.5,2.44-12.83-3.75-2.76-5.12-2.76-9.79.79-14.51,4-5.26,7.82-10.6,11.65-16,1.13-1.59,2-3.35,3-5l-.9-.79c-1.29,1-2.64,2-3.84,3.1-9.61,9-19.14,18.16-28.81,27.13-5.53,5.13-11.28,9.9-19,11.64a31.33,31.33,0,0,1-19.61-2,7.48,7.48,0,0,1-3.43-2.71c-3.73-6.4-5.62-13.21-2.59-20.41,3.18-7.54,7.11-14.68,13.42-20.71-2.88-.53-5.06-.12-7.1,1.65q-20,17.29-40.14,34.51c-2.82,2.43-5.5,5-8.43,7.3-3.93,3-8.62,3.89-13.45,3.43-4.1-.39-5.79-2.46-4.34-6.26,3.21-8.48,5-17.6,10.92-25.37-.85.4-1.42.62-1.95.92-8.13,4.51-16.37,8.82-24.32,13.61-6.43,3.87-12.51,8.33-18.77,12.48a34.46,34.46,0,0,1-5,2.94c-10.42,4.61-20-6.14-20.16-15.13-.06-2.69,0-5.38,0-8.77-1.13,1-1.84,1.77-2.62,2.41-7.8,6.28-15.42,12.8-23.47,18.74-5.51,4.07-12.1,4.49-18.72,3.11-6.81-1.42-11.73-11.07-9-17.44.51-1.17,1.07-2.33,1.75-3.8a14.21,14.21,0,0,0-8.58,2.6q-10.59,7.94-21.22,15.83a17,17,0,0,1-10.17,3.31c-10.22.18-20.44.41-30.67.62a5.32,5.32,0,0,1-2.2-.13c-1.19-.58-2.71-1.21-3.19-2.23-.38-.83.25-2.55,1-3.39,5.73-6.66,12.69-10.42,21.9-10,6.85.35,13.76-.26,20.64-.46,3-.1,3.89-1.27,2.33-3.81-3-5-6.19-9.92-9.63-14.63-2.4-3.28-4.37-3.34-7.43-.66a449.2,449.2,0,0,1-40.81,31.51,1.77,1.77,0,0,1-.22.16c-3,1.65-5.79,5-9.45,3.94-4.73-1.39-8.23-5-10.75-9.24-.58-1-.08-3.17.71-4.22,5.11-6.83,10.25-13.66,15.76-20.18,4.78-5.66,10.05-10.9,15.56-16.81-3.44,0-6.43-.07-9.41.07-.44,0-1.06.95-1.21,1.55-1.11,4.53-3.85,7.32-8,9.55a577,577,0,0,1-86.49,37c-10.13,3.42-20,2.28-29.69-1.45-.66-.26-1.5-1.62-1.32-2.18a11,11,0,0,1,2.32-4.57c9.55-9.5,19.21-18.89,28.88-28.27,1.72-1.66,3.64-3.13,5.47-4.69l-.56-1.25c-2.89,0-5.79,0-8.68,0-1.68,0-3.35.07-5,.17-3.75.24-6.64-.11-9.41-3.81-2.27-3-7-4.21-10.57-6.21-1.53-.84-3.66-1.09-3.6-4.1,4.24,0,8.4,0,12.56,0,29-.06,58.07-.2,87.1-.13,7.71,0,15.53,0,23.09,1.23A85.84,85.84,0,0,0,181,196c1.66,0,3.29-.92,5-1.23a73.7,73.7,0,0,1,7.67-1.08c3.15-.24,6.32-.31,9.48-.29,2.65,0,3.38,1.3,2.09,3.59a17.41,17.41,0,0,1-2.11,2.55q-11.66,13.31-23.27,26.62a26.92,26.92,0,0,0-2.29,3.67l.55.76c1.34-.61,2.72-1.12,4-1.84,9.47-5.32,17.42-12.66,25.65-19.6a92.68,92.68,0,0,0,8-7.72c4.89-5.29,10.37-8.56,18.06-8.07,10.86.68,21.76.54,32.63.93,1.59.06,3.13,1.1,4.7,1.68-.91,1.52-1.52,3.37-2.78,4.49-5.92,5.31-12.94,7.57-20.93,7.36-5.29-.13-10.6.29-15.89.52a9,9,0,0,0-3,.58c-2.13.89-2.51,2.23-.83,3.81q6.69,6.3,13.68,12.27c2,1.7,5.34.85,7.34-1.54C254.16,216.9,260,210.74,267,205.9c8.83-6.06,18.36-10.85,29.15-11.6,8.5-.6,17.1.08,25.65.31.84,0,1.66.88,2.49,1.35a12.36,12.36,0,0,1-1.65,2.43c-6.41,5.78-13.85,8.85-22.59,8.2-11.94-.88-20.17,5.59-27.5,13.77-3.44,3.85-2.77,11.92,1.11,15.3,2.19,1.89,4.93,1.68,7.16.79,4.26-1.71,8.66-3.53,12.31-6.24,7.14-5.32,13.74-11.35,20.68-17,3.17-2.56,6.6-4.82,9.95-7.17,15.91-11.16,33.79-14.27,52.78-12.67a20.64,20.64,0,0,1,5.9,1.54c3.27,1.35,4,3.67,1.79,6.38-3.6,4.35-7.57,8.4-11.39,12.58-.85.93-1.72,1.85-2.57,2.77Zm-297,20.23c24-7.17,48.39-15,69.88-29.9a10.14,10.14,0,0,0-4-1q-17.15.28-34.28.75a4.47,4.47,0,0,0-2.6,1.24c-5.23,4.88-10.46,9.76-15.52,14.8C82.51,228.31,78,233.22,73.71,237.72Zm254.34-11.57c2.54-.82,5.36-1.19,7.55-2.56,7-4.38,13.76-9.06,20.51-13.79a15.1,15.1,0,0,0,3.64-4.17c1.53-2.31.55-4.15-2.18-4a17.13,17.13,0,0,0-5.92,1.38,89.26,89.26,0,0,0-25.78,18.22,4.16,4.16,0,0,0-1.09,3.36C325,225.31,326.72,225.58,328.05,226.15Zm124.3-7.85c8.49-1.81,15.87-5.23,21.78-11.4a2.7,2.7,0,0,0,.6-2.43,2.87,2.87,0,0,0-2.43-.77,37.86,37.86,0,0,0-21.36,11,2.88,2.88,0,0,0-.79,2.41C450.4,217.74,451.61,218,452.35,218.3Z"/><path d="M198,176.88c3.56,1.1,7,1.73,10,3.19,3.4,1.65,3.4,5.17,0,6.94a20.86,20.86,0,0,1-20.3,0c-3.31-1.72-3.36-5.33,0-7C190.84,178.55,194.44,177.93,198,176.88Z"/><path d="M111.17,279.36v13.05h-3v-22c4.23-.6,4.23-.6,5.22,3.18.59,2.24,1.18,4.48,1.79,6.71,0,.13.23.22.65.59V270.39l3-.25V292.3c-2.66.9-3.86,0-4.38-2.73-.65-3.5-1.8-6.91-2.74-10.35Z"/><path d="M326.05,270.06c3.33.69,7.3-1.45,9.37,2.21a8.19,8.19,0,0,1-.86,9.39c2.88,3.19,1.18,7.06,1.9,10.76H333.3c-2-2.64,1.75-7.44-3.81-9.22v9.16h-3.44Zm3.51,3.71v6.29c3.6.53,2.85-2,3-3.82C332.68,274.14,331.92,273.12,329.56,273.77Z"/><path d="M484.74,292.46H481.3V270.21c3.22.39,7.05-1.52,9.25,1.87,2,3,1.55,6.54-.71,9.61,2.91,3.18,1.09,7.06,2,10.74h-3.26c-1.86-2.71,1.62-7.39-3.79-9.25Zm.1-18.78V280c2.76.07,3-.08,3-2.67C487.77,275.53,488.48,273.08,484.84,273.68Z"/><path d="M416,270.06c3.4.7,7.4-1.47,9.45,2.24a8.41,8.41,0,0,1-.87,9.42c2.81,3.15,1.36,7,1.82,10.7h-3.07c-2.11-2.63,1.7-7.46-3.88-9.2v9.15H416Zm3.54,3.72v6.31c3.17.45,3.15-1.56,3.15-3.56S422.18,273,419.49,273.78Z"/><path d="M131.48,270.43a3.29,3.29,0,0,1,.49-.18c9.21-.52,10,.25,10,9.52,0,2.51.06,5,0,7.52-.11,3.7-1.68,5.22-5.33,5.27-1.66,0-3.31,0-5.16,0ZM134.94,289c2.56.74,3.49-.17,3.44-2.53-.09-3.33-.08-6.66,0-10,0-2.45-.9-3.41-3.43-2.63Z"/><path d="M85.55,281.14c0-2.22-.12-4.45,0-6.66.19-2.79,1.88-4.31,4.68-4.53,3-.22,5.26,1.05,5.45,3.88a116.66,116.66,0,0,1,0,15.19c-.17,2.76-2.59,4.13-5.47,3.91a4.69,4.69,0,0,1-4.68-4.58C85.43,286,85.55,283.55,85.55,281.14Zm3.49.19a51.65,51.65,0,0,0,.08,6.1c.09.76,1.08,1.41,1.66,2.11.53-.72,1.49-1.43,1.52-2.17q.23-6,0-11.94c0-.71-1-1.38-1.6-2.07-.55.71-1.49,1.38-1.58,2.15A47.05,47.05,0,0,0,89,281.33Z"/><path d="M533,281.6c0,2.12.08,4.26,0,6.38-.14,3.07-1.93,4.81-4.89,4.95s-5.21-1.33-5.4-4.35a121.2,121.2,0,0,1,0-14.39c.19-3,2.38-4.43,5.45-4.25s4.69,1.88,4.82,5C533.11,277.15,533,279.38,533,281.6Zm-3.55-.06h0a53.68,53.68,0,0,0-.08-6.09c-.08-.75-1-1.4-1.62-2.09-.54.62-1.53,1.23-1.55,1.87q-.21,6.24,0,12.47c0,.63,1,1.23,1.59,1.84.55-.64,1.49-1.23,1.56-1.91A58.86,58.86,0,0,0,529.49,281.54Z"/><path d="M155.4,270.32H159v14.26a7.36,7.36,0,0,0,.06,2.49,14.69,14.69,0,0,0,1.73,2.65c.61-.87,1.71-1.71,1.75-2.6.18-4.54.08-9.09.09-13.63v-3.15H166c0,6.27.16,12.46-.06,18.64-.11,2.91-2.26,4.25-5.55,4.14-3-.11-4.86-1.64-4.93-4.56C155.31,282.55,155.4,276.53,155.4,270.32Z"/><path d="M305.76,270.31H311l3.46,22.09h-3.5c-.27-1.29-.51-2.45-.77-3.71h-3.86c-.26,1.22-.53,2.45-.81,3.76h-3.16C303.46,285.05,304.59,277.78,305.76,270.31Zm4,14.86c-.48-3.13-.91-5.95-1.35-8.77l-.41,0c-.41,2.85-.83,5.71-1.27,8.73Z"/><path d="M253.31,292.43H249.8c-.26-1.25-.51-2.41-.79-3.7H245.2c-.76,1.67.17,5-3.95,3.42,1.11-7.17,2.25-14.49,3.39-21.86h5.18C251,277.59,252.11,284.86,253.31,292.43Zm-6-15.43h-.59c-.38,2.65-.75,5.31-1.16,8.16h3"/><path d="M355.23,288.67h-3.85c-.25,1.21-.49,2.36-.77,3.69h-3.19c1.16-7.39,2.29-14.66,3.44-22h5.19c1.14,7.25,2.28,14.56,3.46,22.08h-3.46C355.78,291.18,355.51,290,355.23,288.67Zm-1.67-12.07-.52,0c-.4,2.83-.79,5.67-1.22,8.73l3-.14C354.37,282.18,354,279.39,353.56,276.6Z"/><path d="M402.57,277.8h-2.95a12.27,12.27,0,0,0-.51-3,2.67,2.67,0,0,0-1.68-1.39c-.39-.07-1.37.85-1.38,1.34q-.17,6.65,0,13.31c0,.48,1,1.41,1.39,1.33a2.57,2.57,0,0,0,1.69-1.42,17.82,17.82,0,0,0,.43-3.65h2.76c1.23,5-.55,8.37-4.52,8.57-3.29.16-5.35-1.65-5.49-5.22-.16-4.07-.15-8.15,0-12.22.12-3.88,2-5.68,5.43-5.56,3.19.1,4.89,2,5,5.76C402.74,276.31,402.63,277,402.57,277.8Z"/><path d="M70.62,284.28h2.77c1.48,5.27-.72,8.94-5.15,8.65a4.56,4.56,0,0,1-4.68-4.85c-.12-4.35-.11-8.72,0-13.07.08-3.34,1.86-5,5-5.09s5,1.68,5.26,4.9c.08.9,0,1.82,0,2.91l-3.09.2a11.62,11.62,0,0,0-.39-3c-.25-.64-1.06-1.44-1.63-1.45A2.16,2.16,0,0,0,67.19,275q-.21,6.39,0,12.79c0,.61.91,1.19,1.4,1.79.62-.57,1.55-1,1.79-1.73A13.57,13.57,0,0,0,70.62,284.28Z"/><path d="M288,284.49v7.94h-3.43V270.59c5.79-1.45,9.59-.25,9.93,3.53C295.06,280.1,295.71,284,288,284.49Zm.18-3c1.34-.81,2.7-1.21,2.74-1.72a22.57,22.57,0,0,0-.31-5.68c-.05-.3-1.49-.37-2.43-.58Z"/><path d="M190.07,277.74h-3.13a10.4,10.4,0,0,0-.33-2.8c-.26-.64-1-1.48-1.57-1.47a2.17,2.17,0,0,0-1.58,1.45q-.21,6.52,0,13.05a2.21,2.21,0,0,0,1.63,1.44c.53,0,1.35-.88,1.54-1.52a16.94,16.94,0,0,0,.27-3.49l2.7-.21c1.69,5.5-.87,9.42-5.57,8.68-2.54-.4-4.05-1.92-4.11-4.48-.1-4.62-.17-9.24,0-13.86.13-3.12,2.06-4.64,5.12-4.6s4.77,1.72,5,4.8C190.13,275.64,190.07,276.56,190.07,277.74Z"/><path d="M202.16,292.42V270.36h9.14v3.11h-5.56v6.08h4.33v3.22l-4.3.25v6.08h5.54v3.32Z"/><path d="M463.94,279.55l4.52.22v3l-4.5.36v6.09h5.71c.08,1.17.14,2.06.21,3.18h-9.35v-22h9.18v3l-5.77.28Z"/><path d="M443.18,279.63h4.4v3.16l-4.4.24v6.1h5.68v3.27H439.8v-22H449c.05.91.1,1.8.16,3h-5.93Z"/><path d="M512.06,289.33v3.07h-8.93v-22h3.43v18.68Z"/><path d="M226.91,289.21h5.48c.06,1.12.11,2.07.16,3.19h-8.92v-22h3.28Z"/><path d="M164.36,265.57c-1.49,1.68-2.27,4-5.32,3.36C160,266.62,160.89,264.41,164.36,265.57Z"/></svg>