<?xml version="1.0" encoding="UTF-8"?>
<svg id="Capa_1" xmlns="http://www.w3.org/2000/svg" viewBox="0 0 640 186.49">
  <path d="M362.85,105.53c-6.04-4.72-11.77-9.93-18.26-13.89-2.46-1.5-7.38-1.33-10,.16-16,9.1-31.99,18.31-47.29,28.53-6.21,4.15-11.39,4.96-17.72,1.95-1.93-.92-3.87-1.86-5.9-2.53-5.54-1.85-5.68-4.83-2.33-9.06,2.79-3.52,5.24-7.3,8.59-12.03-2.54,1.21-4.19,1.85-5.69,2.75-10.32,6.12-20.57,12.35-30.91,18.42-12.16,7.14-18.25,6.29-29.5-4.31,4.03-4.64,8.1-9.32,12.17-14-.32-.36-.65-.73-.97-1.09-6.78,3.88-13.56,7.78-20.36,11.64-5.77,3.28-11.85,6.11-17.29,9.86-9.58,6.61-18.05,3.94-26.68-1.78-3.51-2.33-4.31-4.49-1.21-7.58,7.13-7.09,14.25-14.2,21.42-21.26,1.92-1.89,4-3.61,5.51-6.75-2.78.47-6.02.17-8.26,1.52-24.32,14.61-51.21,22.96-78.11,30.6-17.57,4.99-31.14,13.58-42.19,27.86-8.24,10.65-17.98,20.14-27.1,30.09-.79.86-1.98,1.35-2.61,1.76-2.5-4.75-5.11-9.01-7.04-13.56-2.3-5.44-1.13-10.33,3.23-14.62,15.29-15.03,30.42-30.22,45.7-45.26,1.96-1.93,4.42-3.37,6.65-5.04-.42-.59-.84-1.17-1.27-1.76-6.66,0-13.33-.09-19.99.03-5.1.09-9.65.36-14.08-3.9-3.09-2.97-8.56-3.47-12.98-5.04-2.49-.88-5.01-1.69-7.33-3.87,3.13-.25,6.25-.64,9.38-.74,18-.56,36.01-.84,53.99-1.75,3.1-.16,6.8-2.18,8.96-4.51,5.92-6.37,11.18-13.36,16.93-20.39,6.18,5.54,11.52,10.34,17.36,15.57-.39,1.28-.98,3.23-1.69,5.56,14.38-.82,28.45-2.06,42.53-2.2,6.04-.06,13.83-3.96,17.9,5.09.34.76,6.62.46,8.08-1.18,4.82-5.41,10.82-5.4,17.05-5.59,5.02-.16,10.03-.51,14.11-.73-9.74,10.69-19.48,21.37-29.22,32.06.31.45.61.89.92,1.34,2.3-.86,4.82-1.37,6.86-2.64,14.55-9,29.54-17.41,43.29-27.51,9.7-7.12,19.73-4.15,30.38-4.73-8.08,14.48-20.65,24.82-31.61,38.3,2.42-.81,3.64-1.13,4.77-1.63.97-.43,1.79-1.22,2.76-1.62,42.91-17.83,70.05-53.01,97.13-88.26,2.06-2.68,4.33-5.21,6.76-8.11,5.99,6.44,11.83,12.33,17.07,18.71.94,1.14.18,4.9-1.06,6.41-6.38,7.79-13,15.4-19.86,22.77-10.66,11.45-21.61,22.64-32.39,33.99-1.89,1.99-3.53,4.2-6.26,7.5,2.54-.58,3.76-.55,4.62-1.1,11.33-7.27,22.42-14.93,33.97-21.8,4.99-2.96,10.84-5.84,16.44-6.14,16.25-.87,32.57-.45,48.87-.42,2.17,0,4.34.71,7.88,1.34-8.57,8.88-18.09,10.81-28.27,11.24-9.94.42-19.87.99-30.63,1.54,7.09,10.04,25.65,16.6,35.17,12.77,15.87-6.37,31.27-14.03,47.36-19.73,19.44-6.87,39.49-11.65,60.49-8.63,1.48.21,3.14.15,4.39.82,2.89,1.56,5.58,3.49,8.34,5.27-1.57,2.42-2.87,5.08-4.77,7.2-4.69,5.22-9.65,10.19-14.5,15.26.3.44.59.88.89,1.33,7.1-3.19,14.2-6.38,21.29-9.59,2.34-1.06,4.65-2.18,6.99-3.25q10.27-4.67,7.62-15.58c16.99.13,33.83-.58,50.59.48.25.98.5,1.96.76,2.94-7.75,7.37-15.49,14.74-23.24,22.11.32.4.63.8.95,1.2,22.97-3.92,45.94-7.83,68.92-11.75.25.92.51,1.85.76,2.77-1.94.76-3.81,1.81-5.82,2.25-28.88,6.3-55.58,18.44-82.34,30.47-9.16,4.12-13.92,2.7-20.32-4.8-3.04-3.56-3.14-6.9-.38-10.39,4.5-5.68,9.12-11.26,13.28-17.88-3.96,1.78-8.21,3.12-11.84,5.42-12.3,7.78-24.49,15.75-36.53,23.94-9.58,6.52-12.44,6.57-21.71-.27-4.42-3.26-5.02-6.59-1.4-10.71,1.22-1.4,2.34-2.89,2.93-5.26-2.07.87-4.16,1.7-6.22,2.6-12.35,5.42-24.56,11.16-37.07,16.19-11.41,4.59-22.89.52-30.62-10.41,3.64-2.79,7.3-5.6,10.96-8.41l-.35-.85c-1.42.46-2.94.7-4.23,1.4-6.58,3.57-13.48,6.73-19.57,11.01-12.43,8.73-25.98,12.52-41.09,12-8.77-.3-17.57.47-26.36.5-3.02,0-6.04-.78-9.24-2.22,4.98-5.91,10.28-10.79,17.93-11.37,12.18-.92,24.39-1.33,36.59-2,1.95-.11,3.89-.47,5.84-.72.11-.77.22-1.55.33-2.32ZM134.6,92.45l-.59-2.94c-10.08.68-21.14-.97-29.98,2.7-8.95,3.72-15.7,12.72-23.41,19.4,19.16-4.21,37.77-8.65,53.98-19.17ZM433.19,95.66c10.27,4.66,43.52-7.8,46.24-17.34-10.08-3.32-40.63,8.13-46.24,17.34Z"/>
</svg>