<svg id="Capa_1" data-name="Capa 1" xmlns="http://www.w3.org/2000/svg" viewBox="0 0 640 470"><defs><style>.cls-1{fill:#008cfe;}.cls-2{fill:#212121;}.cls-3{fill:#028dfd;}.cls-4{fill:#008dfe;}</style></defs><path class="cls-1" d="M475.77,191.68c1.68-4.28,3.43-8.53,5-12.85.62-1.69,1.22-2.82,3.35-2.8,8.95.1,17.91.05,27.4.05-3.45,9.56-6.75,18.78-10.1,28-6.52,17.91-13.11,35.8-19.55,53.74-.92,2.58-2,3.72-5,3.64q-13-.34-26,0c-3,.08-4.05-1.07-4.91-3.71-5.53-17.14-11.22-34.24-16.87-51.34-.32-1-.7-1.93-1.4-3.82-3.33,9-6.38,17.22-9.39,25.44-3.68,10.08-7.38,20.14-10.91,30.27-.82,2.35-1.93,3.21-4.46,3.15-7.77-.18-15.54-.2-23.31,0-3.27.08-3.26-.95-2.29-3.56,3.79-10.18,7.37-20.44,11-30.67,5.77-15.66,11.62-31.3,17.22-47,1.13-3.19,2.63-4.3,6.05-4.19,8.22.28,16.46.35,24.67,0,3.82-.17,5.07,1.31,6.08,4.65,5.25,17.26,10.73,34.44,16.14,51.65.31,1,.72,1.92,1.48,3.93C465.48,220.75,470.62,206.21,475.77,191.68Z"/><path class="cls-2" d="M194.29,214.57h65.24c-2.53,6.9-4.91,13.42-7.29,19.94-4.79,13.14-9.63,26.27-14.3,39.46-.82,2.32-1.87,3.18-4.43,3.17q-46-.15-91.92,0c-3.15,0-3.84-.51-2.65-3.71,3.53-9.56,3.39-9.61,13.77-9.61,16.59,0,33.18-.08,49.78.08,3,0,4.5-.73,5.51-3.66,3.66-10.67,7.59-21.24,11.57-32.25H155.34c1.34-3.87,2.5-7.35,3.75-10.8,4.68-12.87,9.44-25.71,14.06-38.6.74-2.05,1.58-3.12,4-3.11q49.56.14,99.11.09a6.83,6.83,0,0,1,1.5.63c-3.68,4.08-7.16,8-10.72,11.88-1.17,1.27-2.82.7-4.26.7-18.39,0-36.78.1-55.16-.06-3,0-4.49.78-5.45,3.73C199.82,199.76,197.05,206.94,194.29,214.57Z"/><path class="cls-2" d="M112.94,188.74H50.09c1.38-3.9,2.68-7.36,3.81-10.88.62-1.91,1.78-2.35,3.67-2.34q45.77.07,91.53,0c2.92,0,3.2.88,2.29,3.32q-4.63,12.35-9,24.76c-.81,2.32-2.51,3.59-4.28,4.95q-33.78,25.93-67.53,51.88c-1,.81-2.07,1.67-4,3.22h61.62c-4.46,4.73-8.1,8.58-11.71,12.45-1.06,1.14-2.41,1-3.74,1q-46.42,0-92.87,0c-2.21,0-3.31,0-2.3-2.93,1.77-5,4.12-9.05,8.66-12.41,26.16-19.39,51.94-39.29,78.12-58.66C109.42,199.35,111.33,194.61,112.94,188.74Z"/><path class="cls-1" d="M590.46,176.94a6.64,6.64,0,0,1,2.08-.76c11.73-.05,23.45,0,36.59,0-9.7,6.61-18.26,12.46-26.83,18.29-10.37,7-20.68,14.21-31.18,21.06-2.81,1.82-2.62,3-.86,5.38,8.44,11.58,16.68,23.31,25,35,1.1,1.56,2.18,3.14,3.84,5.53-6.49,0-12.2.08-17.91,0-6.25-.12-13.48,2.12-18.49-.82-4.82-2.82-7.4-9.47-10.94-14.46-5.07-7.17-10.12-14.35-15.65-22.19-3.81,10.42-7.41,20.13-10.93,29.86-2.76,7.62-2.73,7.63-10.68,7.64H492.38c3.52-9.79,6.86-19.13,10.26-28.45,6.47-17.78,13.07-35.52,19.4-53.35,1-2.78,2.24-3.64,5.07-3.56,8.81.25,17.63.24,26.44.33a29.48,29.48,0,0,0-2.63,7.63c-.21,4.41-2.5,8.05-4.37,11.85-.06,2-2.55,3.12-1.93,5.35.58,2.62-1.38,4.74-1.5,7.57,4.94-2.73,8.78-6.81,14-8.49Q574.16,189.1,590.46,176.94Z"/><path class="cls-3" d="M371.46,274.71c.65-7.45,1-8,4.74-8q125.21,0,250.41,0c.84,0,1.8-.72,2.52.78q-1,4.05-1.94,8.09c-1,1.7-2.27,1.33-3.47,1.33h-131q-58.92,0-117.86,0C373.59,276.94,372.16,277.65,371.46,274.71Z"/><path class="cls-4" d="M220.3,290.55H423.06c1.05,0,2.1-.06,3.14,0,.79.05,2-.34,2,1,0,1.14-.13,2.54-1.69,2.76a25.15,25.15,0,0,1-3.58.12H15.61a15.2,15.2,0,0,1-2.24,0c-.9-.15-2.4.63-2.49-1-.08-1.33.45-2.73,2.17-2.86,1.49-.11,3-.09,4.48-.09Z"/><path class="cls-2" d="M395.61,176.26a15.5,15.5,0,0,0-1.71-.25c-32.87,0-65.74.05-98.61-.11-3.11,0-3.68,1.65-4.46,3.79q-16.93,46.56-34,93.07c-1.28,3.47-1,4.42,3,4.4,30.63-.15,61.26-.22,91.89,0,5.11,0,8.61-.68,9.64-6.16,2-1.18,2-3.45,2.85-5.23,2.95-7.9,5.63-15.89,8.68-23.74a5.47,5.47,0,0,0,.24-3.27c2.92-8.26,5.81-16.54,8.78-24.79C386.44,201.46,391,188.91,395.61,176.26ZM354.55,192q-12.65,34.35-25,68.77c-.78,2.16-1.92,2.65-3.95,2.6-4.48-.1-9,0-13.44,0-4.33,0-8.67-.15-13,0-3,.14-3.5-.62-2.43-3.52,6.63-17.85,13.06-35.78,19.56-53.68,1.72-4.75,3.49-9.49,5.13-14.27.67-2,1.73-2.72,3.9-2.68,9.11.13,18.22.11,27.34,0C354.94,189.22,355.38,189.73,354.55,192Z"/></svg>