<svg id="Capa_1" data-name="Capa 1" xmlns="http://www.w3.org/2000/svg" viewBox="0 0 640 470"><defs><style>.cls-1{fill:red;}</style></defs><path d="M308.87,217.73c-3.12,4.66-5.81,8.66-8.49,12.67Q285.44,252.71,270.45,275a4.51,4.51,0,0,1-3.05,1.91c-12.45.13-24.89.08-37.34.08-.42,0-.84-.06-1.59-.12.61-1,1.05-1.71,1.53-2.41q26.88-39.69,53.72-79.39a4.07,4.07,0,0,1,3.91-2q14.64.12,29.28,0c11-.08,18.62,5.08,24.24,14.42,8.26,13.72,17.07,27.11,25.67,40.62a11.33,11.33,0,0,0,2.15,2.39c2.53,2.17,3.87,2,5.75-.81q18.45-27.22,36.86-54.48A4.31,4.31,0,0,1,415.7,193c11.37.1,22.75,0,34.12,0h3c-.6,1-.95,1.73-1.37,2.37q-26.7,39.79-53.39,79.6a3.85,3.85,0,0,1-3.66,2c-10.75-.09-21.5,0-32.24-.06-11-.05-19.31-4.41-25-14.2-8-13.85-16.57-27.41-25-41.06A37.48,37.48,0,0,0,308.87,217.73Z"/><path d="M414.09,276.8c1.3-1.95,2.41-3.64,3.54-5.32q25.61-38,51.16-75.93a5,5,0,0,1,4.75-2.51c12.08.14,24.16.07,36.82.07L490.65,222c1,.07,1.55.13,2.13.13,9.76,0,19.52,0,29.28,0a17.88,17.88,0,0,0,9.43-2.55q21.63-12.71,43.44-25.13a10.31,10.31,0,0,1,4.75-1.3c14.15-.09,28.3,0,43,0-.91.67-1.38,1.09-1.92,1.4q-32.28,18.7-64.57,37.39c-3.37,1.95-3.4,2-.72,4.65q18.9,18.9,37.82,37.79a23,23,0,0,0,2.32,1.82l-.33.63c-.74.06-1.48.16-2.22.16-13.62,0-27.23.05-40.84-.05a5.93,5.93,0,0,1-3.7-1.51q-12.43-11.86-24.67-23.94c-4.67-4.63-9.83-7.23-16.72-6.9-9.65.45-19.34.16-29,.07a3.79,3.79,0,0,0-3.67,2q-9.33,14.27-18.88,28.39a4.54,4.54,0,0,1-3.07,1.89c-12.26.13-24.53.08-36.8.08C415.29,277,414.88,276.88,414.09,276.8Z"/><path d="M177,269.21c-5.08-.26-10.22-.11-15.23-.87-7.66-1.16-10-5.86-6.45-12.77a140.54,140.54,0,0,1,7.47-12.07c5.1-7.89,10.27-15.73,15.38-23.61,7.83-12.07,18.95-18.49,33.29-19,7.6-.25,15.21.08,22.81.21a12.7,12.7,0,0,1,3.16.55c5.52,1.5,7.55,5.13,5.63,10.59a33,33,0,0,1-3.45,6.93c-6.86,10.68-13.83,21.3-20.79,31.92C211.06,263,200,268.8,185.9,269c-3,0-5.91,0-8.86,0ZM213.22,213v0h-5.1c-5.28,0-9.7,2-12.63,6.41q-10.37,15.48-20.37,31.21c-2.3,3.59-1.17,5.78,3.13,6.16,3.55.32,7.15.19,10.72.19a15.94,15.94,0,0,0,14.35-7.83c5.67-8.9,11.49-17.7,17.24-26.53.73-1.13,1.54-2.21,2.19-3.38,2.16-3.84,1-6-3.36-6.19C217.34,212.92,215.28,213,213.22,213Z"/><path d="M79.49,267.93c2.54-3.84,4.56-7.09,6.8-10.16.42-.58,1.74-.7,2.65-.7q12.75-.07,25.51,0c12.38,0,16-6,20.79-14.79,1.14-2.1.22-4-2.13-4.16-7-.38-14.41-2.24-20.24,3.86a2.17,2.17,0,0,1-1.38.64c-4.9,0-9.8,0-15.1,0,.67-1.08,1.09-1.83,1.58-2.52,8.65-12.19,17.33-24.34,25.93-36.56a4.51,4.51,0,0,1,4.16-2.2c14.94.08,29.89.05,44.84.05h3c-2.78,4.19-5.21,8-7.82,11.63-.36.5-1.63.46-2.48.46-9.94,0-19.88.06-29.81,0a3.64,3.64,0,0,0-3.51,1.78c-2.93,4.38-6,8.67-9.56,13.75,7.7-3.73,15.15-2.65,22.5-2.68a19.22,19.22,0,0,1,2.14.14c7.27.8,10.45,5.64,6.95,12-5.69,10.39-11.26,21.11-23.12,26.21A58.76,58.76,0,0,1,106.58,269C97.83,268.86,89.08,268.34,79.49,267.93Z"/><path d="M91.42,202,41.33,242.38l.13.61c3.52,0,7.09-.43,10.53.09,6.44,1,10.59-1.34,13.22-7.26,2.38-5.38,7-9,11.23-12.8a3.19,3.19,0,0,1,1.85-.85c4-.07,8,0,12.6,0L77.36,243H86c-2.13,3.26-3.7,6.29-5.92,8.75-1,1.12-3.25,1.35-5,1.51a9.42,9.42,0,0,0-8.12,5.52,78.3,78.3,0,0,1-5.4,8.32c-.41.6-1.14,1.38-1.74,1.4-5.14.11-10.29.06-16,.06l9.16-14H16.59A10.48,10.48,0,0,1,21,244.89c17.32-13.73,34.45-27.71,51.59-41.66a7.59,7.59,0,0,1,5.34-1.88c4.44.15,8.89.05,13.34.05Z"/><path class="cls-1" d="M623.43,206.39l-19.35,58-30.21-28.67,49.06-29.68Z"/></svg>