<?xml version="1.0" encoding="UTF-8"?>
<svg id="Capa_1" xmlns="http://www.w3.org/2000/svg" viewBox="0 0 640 470">
  <defs>
    <style>
      .cls-1 {
        fill: #d2121c;
      }
    </style>
  </defs>
  <path d="M72.4,239.37H31.38l10.26-29.92h84.76l-11.68,33.9-53.85,66.81H15.14l57.27-70.8Z"/>
  <path d="M130.67,229.96l19.23-20.51h69.8l6.13,20.8-21.51,62.39-18.66,17.52h-70.37l-5.56-19.37,20.94-60.83ZM168.13,280.11l13.96-40.88h-14.1l-13.96,40.88h14.1Z"/>
  <path d="M237.36,229.96l19.23-20.51h69.8l6.13,20.8-21.51,62.39-18.66,17.52h-70.37l-5.56-19.37,20.94-60.83ZM274.83,280.11l13.96-40.88h-14.1l-13.96,40.88h14.1Z"/>
  <path class="cls-1" d="M412.58,253.61l42.02-44.3h50.43l-34.76,100.86h-40.74l13.96-40.46-38.75,40.46h-23.08l-10.54-40.46-13.96,40.46h-40.74l34.62-100.71h50.43l11.11,44.16Z"/>
  <path class="cls-1" d="M515.57,239.08h-9.54l10.11-29.63h94.02l-10.26,29.92h-43.88l-14.1,40.88h34.05l-10.26,29.92h-62.54l-5.41-19.52,17.81-51.57Z"/>
</svg>