<svg id="Capa_1" data-name="Capa 1" xmlns="http://www.w3.org/2000/svg" viewBox="0 0 640 470"><path d="M345.9,288.69c-11.84,0-23.72.62-35.51-.16-14.67-1-22.16-7.3-23-22a555.15,555.15,0,0,1,0-63.59c.83-14.45,7.58-21,22.11-21.63,24.32-1,48.71-.26,73.06-.25a7.42,7.42,0,0,1,1,.14c13.33,2.2,20.58,8.39,21.18,21.81,1,21.19,1,42.48,0,63.67-.64,13.63-8.61,20.22-22.29,21.93a54.88,54.88,0,0,1-6.25.53c-10.11.05-20.21,0-30.32,0Zm.31-21.09c8.71,0,17.43.19,26.14-.05,8.95-.25,11.63-2.53,11.81-11q.49-22,0-43.92C384,205,381.42,202.36,374,202.24q-27.72-.47-55.43,0c-7.81.12-10.46,2.26-10.74,9.86-.55,15-.58,30-.07,44.93.27,8.12,3,10.27,11.28,10.53C328.07,267.81,337.14,267.59,346.21,267.6Z"/><path d="M207.15,288.78c-11.49,0-23,.57-34.47-.14-15.38-1-21.69-7.16-24.35-22.25a56.42,56.42,0,0,1-.83-9.35c-.08-15-.19-30,.06-45a69.27,69.27,0,0,1,2-14.44c2-8.62,7.76-13.87,16.31-15.79a59.33,59.33,0,0,1,12.42-1.64c19.16-.18,38.33-.1,57.5-.09,1,0,2.09.11,3.13.21,20.46,2,27.55,9.23,28.08,30.07.41,16.37.1,32.76,0,49.13a48.38,48.38,0,0,1-.72,8.33c-2.24,12.47-8.88,19.5-21.57,20.43-12.47.91-25.05.2-37.59.2ZM208,267.6v0c8.38,0,16.75.16,25.12-.05,9.91-.24,12.47-2.65,12.65-12.48q.38-20.4,0-40.81c-.18-9.43-2.64-12-11.83-12.14q-26.69-.36-53.38,0c-8.55.12-11.45,2.74-11.71,11.29-.43,14.29-.44,28.62,0,42.9.28,8.4,3.36,10.94,11.92,11.18C189.86,267.8,198.93,267.6,208,267.6Z"/><path d="M124.17,180.64c0,5.62.55,10.83-.22,15.83-.42,2.66-2.7,5.48-4.9,7.32-6.69,5.58-13.78,10.69-20.66,16.05-1.83,1.43-3.46,3.13-6.7,6.09,6.59.59,11.33.95,16,1.46,16.69,1.79,23.3,8.92,24,25.78,1,25.55-7.58,35.29-33.27,36-22.66.62-45.36.22-68,.2a40.4,40.4,0,0,1-5.54-.83v-20.8H36.67c19.89,0,39.78.12,59.67-.06,10.13-.1,14.41-5.87,12.23-15.68-1.4-6.32-4.22-8.7-12.17-9-10.11-.32-20.23-.07-30.35-.15-3.41,0-6.81-.3-10.11-.46-2.86-8.61-.55-14.34,6.43-19.24a195.6,195.6,0,0,0,23.24-19.8C66.88,201.7,48.29,202.5,29,202V180.64Z"/><path d="M580.73,232.3l20.4,24.59c-6.78,0-11.13-.16-15.46.05a9.5,9.5,0,0,1-8.88-4.24c-3.91-5.33-8.34-10.29-12.17-15.67-2.7-3.78-5.86-5.47-10.53-5.2-5.53.32-11.1.08-17.25.08-2.51,8.3-4.9,16.19-7.39,24.44h-14.8c7-25.6,13.75-50.33,20.8-76.16H547c16.37,0,32.75-.14,49.12,0,17.56.2,21.68,5.7,17.53,22.88-.66,2.71-1.56,5.35-2.29,8C608,223.7,600,230.73,586.81,231.48,585.44,231.55,584.09,231.84,580.73,232.3Zm-40.44-13.2c16.69,0,32.24.18,47.79-.2,2.26-.05,5.36-2.24,6.5-4.31,2.82-5.1,4.6-10.74,3.68-16.67-7.8-2.62-41.5-3-52.3-.64C544.23,204,542.42,210.91,540.29,219.1Z"/><path d="M521.64,180.77c-2.36,5.91-4,10-6,15H501.06c-12.19,0-24.39.06-36.59,0-4.8,0-9,.9-11.18,5.89-2.83,6.45-.89,10.3,6.21,10.6,10.44.43,20.91.1,31.36.26,19.76.31,24.36,7.1,17.8,25.53-3.91,11-11.27,17.94-23,18.27-19.78.55-39.59.15-60.71.15,1.57-5.05,2.87-9.23,4.54-14.57h19.73c10.11,0,20.22.06,30.32-.06a30.74,30.74,0,0,0,8.24-1c4.24-1.26,7.82-7.58,6.82-11.63-1.16-4.69-5.21-3.94-8.53-4-10.1-.15-20.21.09-30.32-.12-19-.4-23.51-7.12-17.58-25.28,3.76-11.51,11-18.71,23.35-19C481,180.47,500.35,180.77,521.64,180.77Z"/><path d="M475.3,267.88c0,2.37.22,3.44,0,4.38-5,18.52-6.83,19.61-28.21,15.88,1.71-6.57,3.4-13.08,5.26-20.26Zm-23.62,15.06c6.91,1.9,11.89,3.38,17.69-1.84C463,279.68,458,278.45,451.68,282.94Zm4.22-8.65c4.66,1,9.45,3.8,13.62-1.58C464.88,271.88,460.17,270.25,455.9,274.29Z"/><path d="M475,287.74c6.33-5.71,13.9-.54,19.57-4.89-1.43-4.32-5.12-2.39-7.76-2.88s-5.29-.76-7.82-1.11c0-9.69,1.06-11.25,8.35-11.69,4.76-.28,9.55-.05,15.7-.05-5.74,8.13-14.55,1-20.85,8.07,4.53.39,7.77.28,10.78,1.05,2.37.61,5.84,1.9,6.37,3.64,1,3.38-.4,7.33-4.3,8.4A32.05,32.05,0,0,1,475,287.74Z"/><path d="M417.81,288.66c7.14-13.5,12.09-18.74,19.32-21.36,3.07,6.69,5.86,13.39,5.13,22.6C433.85,281.18,426,282.78,417.81,288.66ZM434.09,272l-5.9,8,8.36-.58Z"/></svg>