<svg id="Capa_1" data-name="Capa 1" xmlns="http://www.w3.org/2000/svg" viewBox="0 0 640 470"><defs><style>.cls-1{fill:red;}</style></defs><path class="cls-1" d="M599.49,274.82H579.22l-27.71-51.17L550,224c-2.27,16.76-4.54,33.52-6.87,50.68H525.51c3.49-26.5,7-52.86,10.48-79.53h20.33l27.43,50.59,1.45-.18c3.17-16.51,4.29-33.38,7.31-50.33H610C606.49,221.82,603,248.18,599.49,274.82Z"/><path d="M342.33,246.07l14.8,28.7H338.27q-7.89-16-15.79-32.06c-4,10.34-3.85,21.13-6.38,31.94H298.31c3.16-26.48,6.83-52.8,10.46-79.44,11.18,0,22-.73,32.71.21A22.21,22.21,0,0,1,361,213.51c2,11.4-1.22,21-10.83,28C347.94,243.08,345.44,244.27,342.33,246.07Zm-19.91-14.58c4.68-.21,8.59,0,12.32-.65,5.27-1,8.5-6,7.95-11.32-.5-5-3.67-8-9.25-8.39-2.67-.22-5.37,0-8.31,0-.8,5.28-1.5,9.81-2.14,14.34C322.77,227,322.69,228.6,322.42,231.49Z"/><path class="cls-1" d="M454.73,195.06h18.2c-1,8-2,15.7-3,23.36-1.07,8-2.32,16-3.26,24-1.12,9.5,2.61,15,10.77,16.31,9.06,1.48,16.65-3,18.26-11.74,1.88-10.2,2.95-20.55,4.37-30.84.94-6.84,1.88-13.68,2.87-20.93h17.55a41.6,41.6,0,0,1,0,5c-2.14,16.25-4.25,32.5-6.56,48.72-1.83,12.86-9,21.7-21.32,25.7-12.82,4.17-25.17,2.75-35.94-6a23,23,0,0,1-8.74-20.91C449.78,230.38,452.36,213.05,454.73,195.06Z"/><path d="M162.87,243.45c.7-10.34,2.42-20.26,7.21-29.5,8.52-16.48,25.6-20.06,40.22-14.93,8.1,2.84,12.85,9.1,14.72,17.14,3.58,15.4,1.86,30.43-5.88,44.29C211.07,274.91,194.33,280.23,179,274c-7.71-3.15-12.12-9.13-14.08-16.88C163.79,252.65,163.53,248,162.87,243.45Zm18.71-2c.3,3.43.19,6.95,1,10.26,1.86,7.83,10.57,10.61,16.79,5.48a15.86,15.86,0,0,0,3.88-4.78c5-9.77,6.1-20.21,4.18-30.87-1.06-5.82-5.23-8.3-11.18-7.81-4.7.38-7.41,3.37-9.53,7.08C183.05,227.17,182.06,234.21,181.58,241.44Z"/><path d="M292.49,203.17l-11,11.67c-3.82-1.5-7.11-3.29-10.61-4a18.19,18.19,0,0,0-8.76.49c-4.87,1.56-5.49,6.47-1.42,9.57a51.13,51.13,0,0,0,6,3.46c4.21,2.39,8.63,4.49,12.6,7.23,14.59,10,14.25,30.28-.53,40.16-8.46,5.65-17.83,6-27.33,4.23-8.36-1.59-15.49-5.75-21.74-12.84l12.85-11.52c2,1.41,3.62,2.64,5.33,3.75a22.71,22.71,0,0,0,15.89,3.41c3.48-.47,6.22-2.12,7.1-5.67s-1.41-5.61-4-7.3c-1.94-1.25-4-2.34-6-3.49-3.81-2.17-7.71-4.19-11.41-6.53-15.25-9.62-12.21-29-.38-37.32,8.41-5.87,17.69-6.33,27.21-4.37A29,29,0,0,1,292.49,203.17Z"/><path d="M85,274.86H30c1.59-2,2.63-3.62,3.9-5,10.4-11.14,20.87-22.21,31.25-33.36A52.65,52.65,0,0,0,71.23,229c3.8-6,2.61-12.28-2.51-15.09a10.47,10.47,0,0,0-14.9,6.6c-.22.89-.54,1.76-1,3.16H35.71a41.85,41.85,0,0,1,.66-6.42c5.52-20.43,32.9-27.91,48.11-13.19a22.72,22.72,0,0,1,3.86,28.57c-3.52,5.86-8.43,10.9-12.88,16.18-2.75,3.26-5.82,6.26-8.75,9.38l.65,1.49H87C86.26,265.15,85.69,269.64,85,274.86Z"/><path d="M116.8,198.18h40.84c-.58,4.88-1.11,9.33-1.76,14.75-6.61,0-13,0-19.39,0-8.17,0-8.17,0-9.75,9.21,2.16.5,4.35,1,6.53,1.5,15.11,3.68,22.72,17.39,17.18,31.94a34.62,34.62,0,0,1-7.82,12c-10.93,10.8-30.72,12.36-43.72,4.22-3.22-2-4.57-4.19-3.1-8,1.32-3.4,2.25-7,3.56-11.09l6.08,3.62c6.48,3.79,13.33,5.1,20.56,2.63,5.64-1.92,9-6.33,8.89-11.09-.14-4.56-3.3-8.74-9-10.14a49,49,0,0,0-12.93-.89c-2.69.07-5.36,1.19-8,1.84C104.68,234.09,113,205.75,116.8,198.18Z"/><path class="cls-1" d="M399.48,195.12h43.8c-.64,5.35-1.23,10.27-1.93,16.07H415.56c-.78,5.3-1.43,9.77-2.23,15.25h25.24l-2,16.45H411.32c-1.57,11-3,21.24-4.54,31.84H388.94C392.47,248.07,395.94,221.89,399.48,195.12Z"/></svg>