<svg id="Capa_1" data-name="Capa 1" xmlns="http://www.w3.org/2000/svg" viewBox="0 0 640 470"><path d="M159.14,277c4.84-6.95,9.11-12.88,13.19-18.94,8.63-12.82,17.16-25.7,25.74-38.54,1.58-2.37,3.34-4.3,6.63-4.26,10.86.12,21.72.07,32.59.13a9.64,9.64,0,0,1,2.35.86,17.69,17.69,0,0,1-1.42,3.64q-25.12,37.76-50.31,75.47c-2.35,3.54-4.93,5.32-9.54,5.14-10.85-.42-21.73-.16-32.59-.14-8.59,0-15.08-3.82-19.55-10.94-8.46-13.47-16.71-27.07-25.07-40.6-1.54-2.49-3.21-4.91-5.38-8.24-2,2.5-3.54,4.11-4.76,5.91-10.73,15.84-21.59,31.59-32,47.64-3,4.63-6.24,6.56-11.78,6.34-10.32-.43-20.67-.13-32.46-.13,1.73-3.16,2.73-5.34,4-7.31C35,268.87,51.27,244.79,67.28,220.52c2.63-4,5.55-5.58,10.24-5.38,7.39.32,14.79,0,22.19.12,12,.19,21.73,4.19,28.22,15.34,7.53,12.92,16,25.31,24.16,37.83C153.91,271.22,156.32,273.62,159.14,277Z"/><path d="M205.36,298.78c3.49-5.33,6.92-10.71,10.48-16,13.67-20.3,27.55-40.47,41-60.92,3.16-4.82,6.57-7,12.37-6.69,8.3.44,16.65.08,25,.13,2.23,0,4.45.25,8.13.48l-18.49,27.47c.76.76,1.07,1.35,1.39,1.36,10.83.12,21.67.45,32.49.11,3-.1,6.15-1.9,8.94-3.44q20.89-11.55,41.6-23.42a19.81,19.81,0,0,1,10.54-2.64c10.4.18,20.8.07,31.21.12a11.22,11.22,0,0,1,5.77,1.44l-71.67,41c14.48,14,28.42,27.48,43.41,42-3.33.34-5.05.65-6.77.66-11.56,0-23.12-.16-34.68.12-4.14.1-7-1.47-9.7-4.24C329.26,289,322,281.94,315,274.55a18,18,0,0,0-14.71-6.12c-9,.34-18,.39-27,0-5.07-.24-8.14,1.69-10.69,5.79-4.52,7.24-9.44,14.22-14,21.43-2.18,3.46-4.82,5-9.08,4.88-11-.29-22.08-.09-33.13-.09Z"/><path d="M42.66,202.59c-6.23,0-12.48.19-18.7-.11-2.08-.11-5.15-1-5.85-2.42s.63-4.29,1.75-6.1c1.42-2.29,3.6-4.1,5.3-6.24a17.2,17.2,0,0,0,2.76-4.48c3.19-8.56,9.75-13,18.38-13.46,12-.6,24-.18,36-.12a11.61,11.61,0,0,1,4,.73c2.79,1.07,4.4,3.38,2.62,6-2.68,3.89-7.28,6.84-8.84,11a26.8,26.8,0,0,1-7.82,11.72c-3.17,2.69-6.94,3.5-11,3.51-6.23,0-12.47,0-18.7,0Zm28.6-25.15c-7.49,0-14.34,0-21.19,0-3.44,0-5.21,1.87-5.87,6.13,7.86,0,15.12.18,22.36-.1C69.17,183.39,71.06,181.58,71.26,177.44Zm-8.12,14.13-.56-1.42A136.09,136.09,0,0,0,39.65,190c-2,.12-3.66,1.81-3,5.42,7.5,0,15.16,1,22.77-.75C60.85,194.38,61.92,192.65,63.14,191.57Z"/><path d="M109.11,202.59c-6.92,0-13.85.15-20.77,0-6-.17-7.28-2.34-4.15-7.24,4.48-7,9.22-13.81,14-20.58a11.8,11.8,0,0,1,10.09-5.1c12.93.05,25.85.07,38.78.2a11.26,11.26,0,0,1,4.61,1c2.4,1.16,3.51,3.17,1.82,5.66-5.29,7.81-10.42,15.77-16.24,23.17-1.5,1.92-5.28,2.66-8.08,2.82-6.68.4-13.38.13-20.08.13Zm26.71-23.27-.95-1.93c-4.75,0-9.53.36-14.22-.09-6.15-.59-10.74,1-13.39,6.93-1.53,3.38-5.22,5.7-5.39,11,7.23.06,14,.17,20.83.09a4.25,4.25,0,0,0,3-1.53C129.14,189.05,132.45,184.16,135.82,179.32Z"/><path d="M174,202.65c-7.15,0-14.29.15-21.43-.05-5.51-.15-6.92-3-3.84-7.57,4.36-6.48,9-12.76,13.37-19.25,2.85-4.24,6.74-6,11.69-6,12.44.08,24.88.13,37.32.24a13,13,0,0,1,4.07.61c3.4,1.15,4.54,3.49,2.64,6.36-5.09,7.65-10.46,15.13-15.75,22.65-2,2.78-5,3.08-8,3.09H174Zm-8.45-8.88c1.65,1,2.21,1.59,2.79,1.61,5.76.23,11.53.48,17.3.43a6,6,0,0,0,4.23-1.76c3.72-4.82,7.11-9.89,11.44-16a136.06,136.06,0,0,0-23.42-.25,4.47,4.47,0,0,0-2.68,2C172,184.2,169,188.77,165.57,193.77Z"/><path d="M407.84,267.3c4.37-6.17,7.72-11.65,11.91-16.37,1.4-1.57,5-1.19,7.57-1.71l.94,1.32c-2.42,3.93-4.84,7.86-8,13,4.78,0,8.55.26,12.29,0,1.18-.07,2.45-1.13,3.39-2a15,15,0,0,0,2.35-3.39c3.67-6.41,8.82-9.28,16.5-8.78,9.39.62,18.84.15,28.24.15.77,4.17-1.75,4.21-4.05,4.24-6.91.07-13.86.37-20.75-.06-5.23-.33-9.13,1.19-11.41,5.83-3.55,7.25-9.4,9.52-17.06,9-4.59-.33-9.22,0-13.83-.11C413.72,268.34,411.51,267.82,407.84,267.3Z"/><path d="M548.33,265.72c-2.65,12.37-9.77,18.42-20.25,18.46-7.24,0-14.48,0-23.21,0,4.57-6.52,8.15-11.75,11.89-16.86a4.21,4.21,0,0,1,2.91-1.54C529,265.67,538.36,265.72,548.33,265.72Zm-29.67,13.7c13.27,1.38,16.37-.23,17.83-8.94C524,268.94,523.13,269.36,518.66,279.42Z"/><path d="M586.22,265.71c-.28,4.08-2.39,4.21-4.53,4.22-4.38,0-8.81.46-13.12-.08-7.15-.9-10.39,3-13.17,9.79,4.31.06,8.1.51,11.76,0,1.69-.23,3.46-2.08,4.61-3.63,2.64-3.59,5.81-3.88,9.66-2.63-2.44,8-5.67,10.69-13.12,10.78-8,.1-16,0-25.23,0,3.15-7.22,7.3-12.28,11.49-17.3a4.54,4.54,0,0,1,3.12-1.13C567.09,265.67,576.49,265.71,586.22,265.71Z"/><path d="M405.83,264.67c-1.45,1.54-2.17,3-2.92,3-10.29.15-20.58.1-32.09.1a89.6,89.6,0,0,1,11.89-16.88,4.64,4.64,0,0,1,3.05-1.31c9.63-.09,19.26,0,28.78,0,.61,3.13-.87,4-3,4-4.37.11-8.75.1-13.13.1-9.47,0-9.47,0-14.64,9C390.64,265.19,397.86,262.42,405.83,264.67Z"/><path d="M618.63,275.11c-7.62,4.62-17.09-.22-25,3.07l.11,1.7h19.94l.54,1.58c-1,.87-2,2.47-3.08,2.49-9.86.2-19.72.12-29.67.12,1.44-8.23,5-11.55,12.12-11.62q9.33-.1,18.65,0c2,0,4,.33,6,.5Z"/><path d="M482.45,280.13h19.7c.34,3.1-1.07,4-3.18,4-9.42,0-18.84,0-28.27,0,.28-7.2,4-11.36,10.09-11.48,7.38-.15,14.76-.09,22.13,0a7.44,7.44,0,0,1,4.27,1.78c-7.73,5.18-17.19.38-25.11,3.79Z"/><path d="M488.57,253.15l4.23,5,5-5.4-.92-1.29-6.14,1.81c-.27-3.45,1.89-3.74,4.31-3.74H533c-1.48,1.82-2.08,3.29-2.89,3.42a52.63,52.63,0,0,1-8.24.48c-2.43,0-4,.71-4.09,3.92l5.6,1-.08.65H486.05a13.65,13.65,0,0,1,.52-2C487,255.94,487.62,254.94,488.57,253.15Zm13,4.21c6.39-1.76,7.31-3.15,4.59-6.53Zm10.88,1.38c1.58-2.14,2.43-3.28,3.47-4.7C511.73,254,511.73,254,512.45,258.74Z"/><path d="M590.74,268c.86-.67,1.71-1.93,2.58-1.94,10.07-.14,20.15-.09,31.89-.09-2.06,2-3,3.71-4,3.73-10,.2-20,.12-30.07.12C591,269.21,590.86,268.61,590.74,268Z"/><path d="M512.84,267.5c-1,.77-2,2.2-3,2.22-10,.17-20.09.1-30.08.1-.41-3.17,1.32-4,3.22-4,9.84-.11,19.68-.05,29.52-.05Z"/><path d="M454.27,267.39c5.24-9.23,6.19-11.77,13.65-9.38C465.49,266.88,462.53,269,454.27,267.39Z"/></svg>