<svg id="Capa_1" data-name="Capa 1" xmlns="http://www.w3.org/2000/svg" viewBox="0 0 640 470"><defs><style>.cls-1,.cls-2{fill-rule:evenodd;}.cls-2{fill:#e60012;}</style></defs><path class="cls-1" d="M287.88,162.19,241.4,218.12,193,162l-150.19-.66L77.41,172.2l-63,75.23H97.07l49.06-58.87,51,58.87,101.39.2L370.17,161ZM625.62,172l-103.23-.23-80.13,17.36,22.9-27.08-82.72-.36-71,86.22,82.26.36,29.6-36,97.18,55.15,68.52.22L476.67,203.86Z"/><path class="cls-2" d="M158.72,266.89l-10.3,10.47h27.14l-31.43,31.1h36.21l41.9-41.5Zm137.37,15.9H253.57l5.23-5.21,81.45.17,10.46-10.37L233,267.12,206.8,293.06h63.35L283,298.29l-81.44-.16L191.1,308.49l117.75.26L323.76,294Zm63.85-15.48-41.77,41.48,117.74.26,41.77-41.51Zm50,31.31H364.71l20.93-20.74h45.24Z"/></svg>