<svg id="Capa_1" data-name="Capa 1" xmlns="http://www.w3.org/2000/svg" viewBox="0 0 640 470"><defs><style>.cls-1{fill:#d2121c;}.cls-2{fill:#fff;}</style></defs><path d="M512.29,155.3,562,190.68c1.46,1,2.9,2.08,5.18,3.73l-64,25.89,105.29,41.44-.27,1.23h-14c-35.55,0-71.1.08-106.65-.11a29.89,29.89,0,0,1-11.65-2.58c-18.38-8.19-36.82-16.3-54.77-25.36-7.68-3.87-14-3.62-21.5,1.75l35.67,22.16H46.87L147,198.54c-.63-.67-.93-1.23-1.16-1.2-15.77,1.93-29.56-4.14-43.52-10.23-23-10-46.25-19.45-69.38-29.17a38.24,38.24,0,0,1-4.47-2.64ZM338.6,194.79c-14.2-8.76-27.33-17.12-40.76-25a24.92,24.92,0,0,0-11.92-3.47c-62.51-.2-125-.12-187.53-.11H92.76a247.93,247.93,0,0,0,33.17,14.13,54.83,54.83,0,0,0,17,3.18c33.07.29,66.16.89,99.2-.2,14.48-.48,24.39,7.3,36.75,13.24-16.41,10.57-31.77,20.57-47.29,30.31-1.93,1.22-4.7,1.49-7.09,1.51-14,.14-28.09.07-42.13.07H167.29L167,227l47-33.2a211.78,211.78,0,0,0-34.53-1.26,25.31,25.31,0,0,0-11.89,3.54c-25.13,15.76-50,31.86-75,47.87-1.42.9-2.74,2-4.46,3.21a9.06,9.06,0,0,0,1.91.66q81.87,0,163.75,0a11.05,11.05,0,0,0,5.7-1.54C285.55,229.44,311.5,212.47,338.6,194.79Zm43.22,43.13c8.49-5.62,16.15-10.44,23.51-15.69,3.5-2.49,6.44-2.83,10.48-1.12,18.95,8,38.17,15.39,57,23.59,11.82,5.14,23.66,8.06,36.7,7.31,13.77-.79,27.62-.16,41.43-.2a42.67,42.67,0,0,0,4.64-.48l0-1.06-73.95-30,64-28.63c-12.13-7.75-23.24-15.13-34.67-22a23.35,23.35,0,0,0-11.26-3.35c-52.76-.21-105.53-.15-158.29-.13-1.88,0-3.76.17-7.26.35,7.15,4.57,13,8,18.46,11.91s11.07,5.17,17.72,5.11c33.06-.28,66.13-.46,99.18.14,7.09.13,14.13,3.66,21.19,5.62l-.48,2.12c-9.18,4.35-18.94,7.8-27.39,13.27-10.53,6.82-19.93,3.1-31.33-.27l18.55-10.66a365.66,365.66,0,0,0-44.56-1.22,26.6,26.6,0,0,0-12.52,3.64c-14.48,8.85-28.64,18.25-42.88,27.48-11.68,7.57-23.32,15.2-36.38,23.72h83.91l.36-1Z"/><path class="cls-1" d="M444.33,314.7l13-5-7.3-.4-.18-1,44.64-11.81c-.92,2-1.34,2.86-2.62,5.62l47.34-3.82.3-1.32L513,287.36c7.51-13.24,19.74-14,32.63-13.78,15.39.27,30.79-.14,46.18.16,6,.12,12,1.35,19.77,2.3-3.14,2.32-8.36,2.77-1.76,6.18l-26.46,6.85,5.58-4.68-25.62,2.53-.2,1.52,24,8.56-1.47,6c-17.63,9.75-37.81,9.51-57.91,9.81-17.2.26-34.4.48-51.61.84-4.26.1-8.51.7-12.76,1.07Z"/><path class="cls-1" d="M318.93,291.2c8.39-5.77,16.31-11.34,24.39-16.67A11.08,11.08,0,0,1,349,273c21.24-.11,42.49-.07,64,1.35-4.28.76-8.54,2.05-12.84,2.19-10,.34-19.93,0-29.89.2-2.36,0-4.71,1.12-7.06,1.72l.35,2.09h39.55c-8.26,9.72-18.81,11.06-28.92,11.52-17.63.8-35.32.22-53,.18C320.66,292.22,320.1,291.74,318.93,291.2Zm56.64-6.58c-8,.88-16.67-3.84-23.51,3.52C360,287.46,368.61,291.71,375.57,284.62Z"/><path class="cls-1" d="M402.35,292c13.93-12,28.5-19.88,46.79-19.35,14.44.42,28.89.09,44.43.09-11.92,10.4-24.14,18.37-39.26,19.08C437.27,292.56,420.18,292,402.35,292Zm31.94-5.11c12.12,2.79,21.84-.27,30.24-9.52C452.27,274.69,442.51,277.65,434.29,286.84Z"/><path class="cls-1" d="M279.41,293.44l19.51-13.75-7.53-1.1c13-6.15,26.4-2.59,39.91-3.89C320.35,289.48,301,296.49,279.41,293.44Z"/><path class="cls-2" d="M338.6,194.79c-27.1,17.68-53.05,34.65-79.08,51.5a11.05,11.05,0,0,1-5.7,1.54q-81.87.12-163.75,0a9.06,9.06,0,0,1-1.91-.66c1.72-1.25,3-2.31,4.46-3.21,25-16,49.89-32.11,75-47.87a25.31,25.31,0,0,1,11.89-3.54,211.78,211.78,0,0,1,34.53,1.26L167,227l.25,1.44h15.13c14,0,28.09.07,42.13-.07,2.39,0,5.16-.29,7.09-1.51,15.52-9.74,30.88-19.74,47.29-30.31-12.36-5.94-22.27-13.72-36.75-13.24-33,1.09-66.13.49-99.2.2a54.83,54.83,0,0,1-17-3.18,247.93,247.93,0,0,1-33.17-14.13h5.63c62.51,0,125-.09,187.53.11a24.92,24.92,0,0,1,11.92,3.47C311.27,177.67,324.4,186,338.6,194.79Z"/><path class="cls-2" d="M381.82,237.92l16.26,8.51-.36,1H313.81c13.06-8.52,24.7-16.15,36.38-23.72,14.24-9.23,28.4-18.63,42.88-27.48a26.6,26.6,0,0,1,12.52-3.64,365.66,365.66,0,0,1,44.56,1.22L431.6,204.46c11.4,3.37,20.8,7.09,31.33.27,8.45-5.47,18.21-8.92,27.39-13.27l.48-2.12c-7.06-2-14.1-5.49-21.19-5.62-33.05-.6-66.12-.42-99.18-.14-6.65.06-12.32-1.21-17.72-5.11s-11.31-7.34-18.46-11.91c3.5-.18,5.38-.35,7.26-.35,52.76,0,105.53-.08,158.29.13a23.35,23.35,0,0,1,11.26,3.35c11.43,6.84,22.54,14.22,34.67,22l-64,28.63,73.95,30,0,1.06a42.67,42.67,0,0,1-4.64.48c-13.81,0-27.66-.59-41.43.2-13,.75-24.88-2.17-36.7-7.31-18.87-8.2-38.09-15.57-57-23.59-4-1.71-7-1.37-10.48,1.12C398,227.48,390.31,232.3,381.82,237.92Z"/></svg>