<svg id="Capa_1" data-name="Capa 1" xmlns="http://www.w3.org/2000/svg" viewBox="0 0 640 470"><path d="M30.3,318.62l-11.92,5.9c-1.25-.81-4.28,1.92-4-2l11.94-5.89C27.42,317.79,29.45,317,30.3,318.62Z"/><path d="M30.3,318.62c-1.62-.05-3.11-.37-4-2,14.63-7.58,29.9-14.19,43.73-23,16.17-10.32,28.2-25.55,41.21-39.43,6-6.35,21.07-9.25,28.06-4.21,1.78,1.28,1.65,2.5.61,4.07-1.78,2.71-3.5,5.45-5.92,9.22,9.49-1.18,16.35-5.88,23.21-9.82,11.09-6.38,21.59-13.78,32.16-21,2.22-1.52,6-3.45,4.54-6.71s-5.51-2-8.08-1.47c-19.9,4.35-41,6.23-59.21,14.43-19.46,8.78-38,1.59-56.88,4.44,12.85-7.79,27.22-10.88,41.14-14.85,36.09-10.29,73.48-14,110.43-19.83,2.58-.41,5.29-.08,7.93-.12,5-.08,11.11-.87,12.64,5,1.38,5.25-3.39,9.06-7.47,11.75-37.69,24.87-75.92,48.74-119.72,62-9,2.71-17.47,6-23.61,13.55-2.71,3.34-5.74,4.71-10.37,2.9-6-2.34-11.63.49-17.19,2.58Z"/><path d="M125.18,193l23.53-3.05c2.53-.33,6.18-3.52,7.07,1.1.74,3.86-.81,7.86-5.74,8.93-5.47,1.18-11.11,1.14-16.63,1.79-7.74.92-17.6,6.38-22.87,1.6-6-5.48,2-14.06,3.52-21.3,3.39-16.33,4.16-16.63,20.91-18.81,9.67-1.26,19.41-2,29.49-3.08-.28,7-2.39,10.57-10.38,11.1s-16.42.63-23.74,4.87c6.3-.07,12.43,1.45,18.56-.58,3-1,8.6-2.71,9.32,1.6.86,5.1-3.47,7.57-9.08,7.69-5.88.12-11.74,1.21-17.6,1.92C128.42,187.13,125.77,188.14,125.18,193Z"/><path d="M172.77,196.57c-12.51,0-13.88-1.52-11-13.64,3.43-14.39,8.69-26.94,27.19-26.84,6.14,0,12.25-2.23,18.43-2.74,4-.33,9.08-1.7,11.16,3.66,1.05,2.72,1.46,6.43-1.33,8.16-4,2.5-8.21,5-13.68,2.33-11.9-5.74-23.86,0-26.71,11.8-1,4.11-.14,5.46,3.88,5.41,7.55-.08,15.27.71,20.89-6.08,2.6-3.15,6.82-1.73,10.23-2.74s3.44,2.31,2.94,4.49c-1.37,5.86-5,10.45-10.93,11.5C193.54,193.72,183.35,196.55,172.77,196.57Z"/><path d="M517.13,172.91a12.28,12.28,0,0,1-6,5.88,2.31,2.31,0,0,1-2-2l7.95-5.91C517.12,171.58,517.13,172.25,517.13,172.91Z"/><path d="M533,177.54c3.39-2.88,6-6.42,12.46-6.62,1.31,0,3.17.7,2.5,1.48-2.92,3.34-8.14,4.77-13,6.5C533,179.38,532.5,178.79,533,177.54Z"/><path d="M624,148.26c-31.13,10.3-56.83,32-87.69,43.23,2.53-3.63,5.23-7.07,8.7-9.37,5.93-3.92,10.91-8.42,13.83-15,3.24-7.29,1.1-10.46-7-9.95-5,.32-9.65,2.21-14,4.5-6.94,3.62-13.77,7.47-20.64,11.22-2.8,1.48-5,3.72-7.51,5.61-12.23,12.44-26.82,21.91-41,31.94-1.73,1.23-4.22,3.26-6,.79s.89-4.06,2.55-5.5a40,40,0,0,1,5.82-3.64c12.93-7.74,25.93-15.37,38.47-23.73,2.83-2.21,5.81-4.26,7.66-7.47-3.73-6.53-8.07-7.27-14.57-2.9-12.84,8.61-26.59,15.9-39.16,24.85-8.2,5.85-13.07,4.22-17.51-3.65-3.64-6.46-8.17-6.68-13.73-2.18-5.35,4.32-11,8.3-16.43,12.53-9.4,7.29-18.74,14.65-28.77,22.51-1.49-6.26,2.58-8.62,4.42-11.77,2.49-4.24,9.63-9.28,6.4-12.39-3.69-3.55-11.09.43-16.36,3-3.23,1.57-6,4-9.05,6-12,7.62-24,15.19-36.7,23.21.2-5.85,4.79-7.66,6-11.21s8-6.09,4.68-9.26c-2.81-2.66-8.53.59-12.67,2.42-.86.38-1.42,1.37-2.22,1.94-12.54,9-22.29,21.45-35.9,29.17-2.19,1.24-4.79,3.67-7.21,1.75-2.89-2.3.42-4.66,1.2-6.89,1.47-4.18,5-6.87,7.91-10,13.27-13.94,26.5-27.92,40.85-43.06-9.39-.75-17.63-.89-23.1,4.31-14.06,13.36-28.68,26.26-40.92,41.41s-27.15,26-46.21,31.31c8.26-6.45,16.86-12.43,23.86-20.29,3-3.37,4-7,1.92-10.8-2.21-4.09-6-2.68-9.64-1.75-20,5-35.33,17.2-49.16,31.57-5,5.22-11.16,11.62-6.8,18.88,4.15,6.9,12.49,3.65,19,2.35,12.52-2.48,23.18-9.23,34-15.61,4.65-2.75,8.58-5.42,13,1.15,4.2,6.21,10.56,4.52,15.86.94,10.6-7.17,22.77-12,32.07-21.16,3.42-3.38,5.65-2.57,7.46,2.29,2.34,6.27,6.85,8.37,14.19,6.66,11.95-2.78,19.95-11,29-18,1.8-1.39,3.7-5.49,6.22-1.9,8.15,11.6,16,5.05,23.43-.25,13.12-9.31,25.94-19,38.78-28.73,3-2.25,5.51-3.65,8.38,0,3.31,4.14,0,5.58-2.86,7.42-8.61,5.48-17.12,11.11-25.71,16.62-11.35,7.29-22.75,14.52-34.1,21.8-1.76,1.13-5,1.57-3.07,4.86,1.69,2.94,4.15,2.71,6.78,1.21,1.72-1,3.54-1.79,5.23-2.81,16.3-9.94,32.66-19.78,48.82-29.93,6.55-4.11,11.69-5.11,15.54,3.21,4,8.75,10.48,9,17.68,3.91,8.84-6.27,17.38-13,26.25-19.18,6-4.18,11-14.69,20-3.21,1.23,1.57,5.73,1.29,8.55.84,5.83-.93,11.64-2.11,16.94-5.06,19-10.57,38.23-20.76,57-31.62,13.22-7.62,25.92-16.1,38.86-24.19Zm-379.25,86c-4.47,9.89-12.29,12-17.77,16.62C230.93,244.59,235.54,239,244.72,234.3Z"/><path d="M533,176.83c.67.66,1.34,1.32,2,2-1.43,1.59-3.28,4-5.16,1.86C528.73,179.37,531.32,177.69,533,176.83Z"/><path d="M270.37,145.37c-8.49.85-16.93,2.21-25.44,2.85-15.58,1.16-22,11.34-25.54,24.61-3.84,14.38-2.67,15.88,13,15.81,6.75.9,13.81-1.45,20.89-2.62,16.4-2.71,25.91-15.73,25.46-32.59C278.62,147.53,276.19,144.79,270.37,145.37Zm-6.43,15.8c-1.22,5.14-1.27,11.62-7.88,13.37-4.34,1.15-8.69,3.12-15.19,1.84-1.36-.45-7,2.54-7.14-2.51s1.06-11.7,7.4-13.59c5.84-1.74,12.1-2.24,18.22-2.92C261.74,157.1,264.56,158.56,263.94,161.17Z"/></svg>