<svg id="Capa_1" data-name="Capa 1" xmlns="http://www.w3.org/2000/svg" viewBox="0 0 640 470"><defs><style>.cls-1{fill:#191313;}.cls-2{fill:#da2725;}.cls-3{fill:#fff;}.cls-4{fill:#e53537;}.cls-5{fill:#1e2123;}</style></defs><path class="cls-1" d="M508.37,192.14l1.62,1.12a12.66,12.66,0,0,0,4,4l.44,1.52c-.22,2.5-1.87,4.18-3.55,5.91-5.44,5.6-10.82,11.21-16,17a39.81,39.81,0,0,1-20.53,12.1q-23,5.61-45.83,11.51c-2.89.75-5.91,1.73-9,.62-4.22-3-5.28-7.71-6.52-12.1-1-3.38,1.67-5.89,4-8.18q12.58-12.13,25.5-24.1c1-.88,1.92-1.76,2.87-2.65,4-3.73,4-3.72-.71-7-.69-.49-1.74-.68-1.8-1.67a4.62,4.62,0,0,1,1.8-.35q31.83.58,63.74,2.34m-55.75,30.94-.06,0c1.31,0,2.77.28,3.9-.16a132.19,132.19,0,0,0,22.43-10.69c1.83-1.13,3.59-2.55,3.63-5,1.35-.83,1.76-2,.61-3.13-3.39-3.36-11.61-4.31-15.59-1.31-6.79,5.1-13.2,10.62-19.62,16.08-1.29,1.1-2.79,2.52-1.61,4.35s3,1.48,4.77.88c.82,0,1.57,0,1.54-1.09"/><path class="cls-1" d="M422.41,247a9.36,9.36,0,0,1-3.19-.55.8.8,0,0,1-.16-.08c-4.12-2.93-5.34-7.32-6.52-11.56l-.25-.88c-1.05-3.7,1.7-6.38,4.15-8.74q8.87-8.55,17.78-16.91,4.27-4,8.6-8l2-1.89c1.65-1.55,2.74-2.57,2.7-3.15s-1.34-1.52-3.31-2.91a5.21,5.21,0,0,0-.55-.32,2.28,2.28,0,0,1-1.55-1.84c0-.09,0-.19,0-.28l.2-.21a4.94,4.94,0,0,1,2.28-.52h0q27.51.5,55.07,1.88c3,.14,5.93.3,8.9.46l2,1.44a12,12,0,0,0,3.76,3.8l.21.14c.18.62.36,1.23.53,1.85a.41.41,0,0,1,0,.11c-.23,2.7-2,4.51-3.7,6.26l-.37.39c-5.23,5.38-10.58,11-15.68,16.58a40.47,40.47,0,0,1-20.86,12.29c-14.83,3.62-30.25,7.47-45.83,11.51l-.72.19a21.73,21.73,0,0,1-5.5,1m-2.65-1.71c2.61.9,5.25.2,7.79-.48l.74-.19c15.58-4,31-7.9,45.84-11.51a39.21,39.21,0,0,0,20.18-11.9c5.1-5.63,10.46-11.22,15.68-16.61l.36-.36c1.61-1.67,3.13-3.22,3.36-5.43-.11-.4-.23-.79-.34-1.18a13.51,13.51,0,0,1-3.9-4l-1.33-.93-8.49-.44q-27.54-1.38-55-1.88a4.18,4.18,0,0,0-.89.1,3.56,3.56,0,0,0,.62.37,5.53,5.53,0,0,1,.68.4c2.61,1.84,3.79,2.68,3.88,3.86s-1,2.16-3.09,4.14l-2.05,1.9q-4.32,4-8.6,8-8.94,8.37-17.72,16.84c-2.37,2.28-4.73,4.57-3.88,7.57.08.29.17.59.25.89,1.11,4,2.26,8.14,5.94,10.8m29-20.07a3.41,3.41,0,0,1-3-1.63c-1.54-2.37.58-4.18,1.72-5.15l3.72-3.17c5.11-4.34,10.43-8.81,15.92-12.94,4.08-3.07,12.75-2.35,16.51,1.37a2.45,2.45,0,0,1,.85,2,2.82,2.82,0,0,1-1.29,1.89c-.19,2.53-2.08,4-3.91,5.17a135.58,135.58,0,0,1-22.55,10.74,6.84,6.84,0,0,1-2.92.24l-.61,0a1.35,1.35,0,0,1-.37.59,2.22,2.22,0,0,1-1.63.45,7.56,7.56,0,0,1-2.44.44m25.8-23.54a10.72,10.72,0,0,0-6.59,1.65c-5.47,4.11-10.78,8.56-15.88,12.9l-3.71,3.16c-1.58,1.35-2.29,2.31-1.49,3.54s1.91,1.31,4,.61l.12,0h.16l2.07-1.84c0,.27,0,.54.05.81l.62,0a5.85,5.85,0,0,0,2.34-.15,134.07,134.07,0,0,0,22.31-10.63c1.71-1.06,3.29-2.34,3.33-4.46V207l.3-.18a1.8,1.8,0,0,0,1-1.16,1.24,1.24,0,0,0-.48-1c-1.8-1.78-5-2.79-8.09-2.89"/><path class="cls-1" d="M481.23,249.39v0h0Z"/><path class="cls-1" d="M625.35,262.81c-7.19-4.17-14.44-8.27-21.65-12.45-11.2-6.5-23.06-12-34.05-18.94a4.61,4.61,0,0,1-1.31-.24c-1.93-1-5.46-1.82-5.29-3.21.21-1.89,3.63-1.86,5.68-2.53,9.45-3.13,19-6,28.16-10,3.09-1.35,6-2.81,7.52-5.92-2.47-5.45-7.88-8.08-12.62-11.34-20.92-2.81-41.95-3.83-62.9-5.31-2-.14-4.06-.24-6.09-.32a1.78,1.78,0,0,0-1.93,1.36h0a1.57,1.57,0,0,0,1.65,1.21,6.19,6.19,0,0,1,3.84,2.58l-.45,2.68-.07.09c-.05.76-.51,1.12-1.28,1.2l0,0a1.55,1.55,0,0,0-1.32,1.3L522,204.18c-1.39,3.75-5,5.81-7.63,8.51-8.39,8.55-16,17.71-24.79,25.86-.3.32-.61.64-.9,1a7,7,0,0,1-3.27,3.68l0,0L484,244.47l.08-.07L482.69,246c-.47,1.14-1.69,2-1.46,3.4l4,.12c7-2.45,14.33-3.83,21.59-5.42,4.22-.92,7.83-2.4,10.46-5.88a60.59,60.59,0,0,1,4.85-5.18c4.23-4.38,4.24-4.38,10-2.36,19.88,7,39.56,14.4,59.08,22,11.3,4.41,22.45,9.13,34.26,12.1,1.65-.72,1-1.27-.12-1.95m-89.57-44.37c-.13.08-.37,0-.56,0l.64-.77c.3.26.3.53-.08.77m11-3.76c-3.39,1.71-6.63,3.92-10.83,2.9,2.32-3.52,5.8-6.12,8.52-9.32.68-.79,2-2,1.75-2.44-2.42-4.64,1.22-2.89,3.15-2.66,5.56.64,11.11,1.36,16.63,2.23,1.19.19,3,.25,3.11,1.83s-1.64,1.74-2.78,2.18a11.66,11.66,0,0,1-2.62.37,50.75,50.75,0,0,1-16.93,4.91"/><path class="cls-1" d="M625.54,265.43l-.23-.05c-10.64-2.68-20.89-6.83-30.86-10.76L591,253.25c-13.79-5.37-27.89-10.73-41.62-15.74q-8.7-3.18-17.45-6.26c-5.34-1.88-5.35-1.88-9.27,2.2-.49.51-1,1-1.5,1.5a35.23,35.23,0,0,0-3.31,3.62c-3,4-7.17,5.31-10.84,6.12l-4.35.94a141.08,141.08,0,0,0-17.17,4.46l-.25,0-4.55-.14c0-.17-.05-.35-.08-.52a3.6,3.6,0,0,1,.91-2.76,6.07,6.07,0,0,0,.59-1,1.74,1.74,0,0,1,.11-.18l1.37-1.53h0l1.37-1.31.39.35c-.08-.15-.15-.3-.22-.45a6.36,6.36,0,0,0,2.95-3.38l.11-.16.9-.95c5.75-5.36,11.11-11.24,16.33-16.9,2.73-3,5.57-6,8.45-9,.77-.78,1.63-1.52,2.45-2.23,2.1-1.81,4.1-3.52,5-6.06,0-.07.09-.15.14-.23l1.11-1.09a2.14,2.14,0,0,1,1.6-1.55l0,0,.27-.06c.55-.06.67-.26.69-.61,0-.07,0-.14,0-.21l.1-.11c.13-.76.25-1.51.38-2.26a5.37,5.37,0,0,0-3.26-2.11,2.12,2.12,0,0,1-1.92-1.06l-.57.14c.1-.36.2-.72.31-1.08a2.44,2.44,0,0,1,2.6-1.82c2.26.09,4.26.2,6.11.33,7.73.54,15.59,1,23.19,1.56,13,.89,26.53,2,39.75,3.75l.17,0,.15.1c.89.62,1.81,1.21,2.73,1.81,4,2.55,8,5.21,10.12,9.81l.11.25-.12.26c-1.58,3.28-4.62,4.81-7.85,6.22-8.24,3.61-16.93,6.37-25.3,9.1L569,226a18.7,18.7,0,0,1-2,.48c-1.83.36-3.13.68-3.23,1.53-.06.52,1.92,1.3,3,1.72a21.1,21.1,0,0,1,1.95.85,2.35,2.35,0,0,0,.63.12l.48,0,.26.1c7,4.44,14.44,8.32,21.63,12.13,4.09,2.17,8.31,4.43,12.38,6.79,5.89,3.41,11.9,6.82,17.68,10.15l4,2.3c.76.44,1.5.94,1.46,1.68s-.77,1.12-1.4,1.4l-.21.09m-98-36.7a19.59,19.59,0,0,1,4.79,1.32q8.77,3.09,17.48,6.27c13.73,5,27.84,10.37,41.64,15.75l3.48,1.37c9.86,3.89,20,8,30.45,10.64a2,2,0,0,0,.38-.22,4.39,4.39,0,0,0-.75-.51l-4-2.3c-5.78-3.32-11.79-6.73-17.68-10.15-4.05-2.35-8.26-4.6-12.35-6.77-7.16-3.79-14.6-7.67-21.6-12.1l-.24,0a3.26,3.26,0,0,1-1.14-.27,19.6,19.6,0,0,0-1.83-.79c-2-.78-4-1.58-3.82-3.06.21-1.81,2.36-2.24,4.27-2.62a14.44,14.44,0,0,0,1.85-.44l2.92-1c8.34-2.72,17-5.47,25.17-9.05,3-1.32,5.65-2.64,7.08-5.36-2-4.08-5.62-6.47-9.51-9-.88-.57-1.76-1.14-2.63-1.73C578.41,197,565,195.92,552.05,195c-7.61-.52-15.47-1-23.2-1.56-1.83-.13-3.82-.24-6.07-.32a1.09,1.09,0,0,0-1.19.72.86.86,0,0,0,.94.56,6.84,6.84,0,0,1,4.39,2.86l.16.21c-.19,1.07-.39,2.12-.58,3.19a1.8,1.8,0,0,1-1.67,1.54l-.14.05a.93.93,0,0,0-.82.8l0,.19-1.28,1.26c-1.07,2.76-3.25,4.63-5.35,6.44-.81.69-1.64,1.41-2.37,2.15-2.88,2.93-5.71,6-8.44,8.94-5.25,5.68-10.62,11.58-16.39,16.95l-.81.86a7.5,7.5,0,0,1-3.44,3.85l-1.16,1.1c-.45.5-.89,1-1.34,1.49a7,7,0,0,1-.68,1.12,3.58,3.58,0,0,0-.69,1.32l3.23.1a146.1,146.1,0,0,1,17.21-4.47c1.45-.31,2.9-.61,4.34-.93,4.88-1.07,7.89-2.74,10.07-5.63a34,34,0,0,1,3.43-3.75c.49-.5,1-1,1.47-1.49,2.78-2.89,3.93-4,5.91-3.85m6.41-9.66,1.39-1.83a36,36,0,0,1,5.09-5.76c1.18-1.16,2.41-2.36,3.48-3.63.16-.19.36-.4.56-.62a8.34,8.34,0,0,0,1-1.27c-.89-1.73-1-2.79-.49-3.43.68-.81,2.05-.5,3.25-.23a10,10,0,0,0,1.14.23c6.45.74,11.74,1.46,16.65,2.23l.39.06c1.17.16,3.14.43,3.3,2.36s-1.45,2.27-2.51,2.59c-.24.07-.48.14-.69.22a6.82,6.82,0,0,1-2,.34c-.22,0-.45,0-.67.06A51,51,0,0,1,547,215.3l-1.21.63c-2.76,1.45-5.57,3-9.07,2.45a1.29,1.29,0,0,1-.53.59h0a1.15,1.15,0,0,1-.82.12l-1.38,0m3.09-1.93c2.93.37,5.42-.95,8-2.32l1.35-.71.25-.07a49.28,49.28,0,0,0,16.69-4.85l.21-.06.87-.07a5.75,5.75,0,0,0,1.58-.25,7.92,7.92,0,0,1,.78-.26c1.18-.35,1.66-.57,1.6-1.29s-.68-1-2.12-1.18l-.42-.06c-4.89-.77-10.16-1.48-16.6-2.23a10.24,10.24,0,0,1-1.28-.25c-.51-.11-1.7-.38-1.89-.21,0,0-.25.39.7,2.21.38.73-.36,1.53-1.3,2.54-.19.21-.38.4-.53.58-1.11,1.31-2.36,2.53-3.56,3.71a40.26,40.26,0,0,0-4.37,4.77"/><path class="cls-2" d="M505.52,187.86l1.62,1.12a12.59,12.59,0,0,0,4,4c.15.5.29,1,.44,1.52-.22,2.49-1.87,4.18-3.55,5.91-5.44,5.59-10.82,11.21-16,17a39.73,39.73,0,0,1-20.53,12.09q-23,5.61-45.83,11.51c-2.9.75-5.91,1.74-9,.62-4.21-3-5.27-7.7-6.51-12.09-1-3.38,1.67-5.9,4-8.18q12.6-12.14,25.5-24.1l2.87-2.66c4-3.72,4-3.72-.71-7-.69-.48-1.74-.68-1.8-1.67a4.86,4.86,0,0,1,1.79-.34q31.85.57,63.75,2.33M449.77,218.8l-.06.06c1.31,0,2.77.27,3.9-.16A133,133,0,0,0,476,208c1.83-1.14,3.59-2.55,3.63-5,1.36-.84,1.76-2,.61-3.14-3.39-3.36-11.61-4.3-15.59-1.3-6.79,5.09-13.2,10.62-19.62,16.08-1.3,1.1-2.79,2.51-1.61,4.35s3,1.47,4.77.87c.82,0,1.57,0,1.54-1.09"/><path class="cls-2" d="M419.57,242.75a9.35,9.35,0,0,1-3.2-.54l-.16-.08c-4.12-2.93-5.34-7.32-6.52-11.56-.08-.3-.17-.59-.25-.89-1.05-3.7,1.7-6.38,4.15-8.73,5.91-5.71,11.82-11.33,17.78-16.92q4.28-4,8.6-8l2-1.89c1.65-1.55,2.74-2.57,2.7-3.16s-1.34-1.51-3.31-2.9a3.91,3.91,0,0,0-.55-.32,2.31,2.31,0,0,1-1.55-1.85,2.45,2.45,0,0,0,0-.27l.21-.22a5.08,5.08,0,0,1,2.29-.52h0q27.51.5,55.07,1.88c3,.15,5.93.3,8.9.47l2,1.44a12.26,12.26,0,0,0,3.76,3.8l.21.13.54,1.85a.49.49,0,0,0,0,.12c-.24,2.7-2,4.51-3.71,6.26l-.37.38c-5.23,5.38-10.58,11-15.67,16.59a40.67,40.67,0,0,1-20.87,12.29c-14.83,3.61-30.25,7.47-45.83,11.5l-.72.2a21.28,21.28,0,0,1-5.49.95m-2.66-1.7c2.62.9,5.25.19,7.79-.48l.74-.2c15.57-4,31-7.89,45.83-11.51A39.25,39.25,0,0,0,491.46,217c5.1-5.63,10.46-11.23,15.68-16.61.12-.13.24-.24.36-.36,1.61-1.67,3.13-3.22,3.36-5.44-.11-.39-.23-.78-.34-1.18a13.21,13.21,0,0,1-3.89-4l-1.34-.93L496.8,188q-27.54-1.36-55-1.88a5,5,0,0,0-.89.11,3.4,3.4,0,0,0,.62.36,5.53,5.53,0,0,1,.68.4c2.61,1.85,3.79,2.69,3.88,3.86s-1,2.16-3.09,4.14l-2.05,1.9c-2.88,2.67-5.75,5.33-8.6,8q-8.94,8.38-17.72,16.85c-2.37,2.27-4.73,4.57-3.88,7.56.08.3.16.59.25.89,1.11,4,2.26,8.14,5.94,10.81m29-20.07a3.47,3.47,0,0,1-3-1.63c-1.53-2.38.59-4.19,1.73-5.16l3.72-3.16c5.11-4.35,10.43-8.82,15.92-12.95,4.08-3.06,12.75-2.35,16.5,1.37a2.46,2.46,0,0,1,.86,2,2.82,2.82,0,0,1-1.29,1.88c-.19,2.53-2.08,4-3.92,5.17a134.48,134.48,0,0,1-22.54,10.75,7.17,7.17,0,0,1-2.92.24l-.6,0a1.52,1.52,0,0,1-.37.58,2.21,2.21,0,0,1-1.64.45,7.26,7.26,0,0,1-2.44.45m25.8-23.54a10.72,10.72,0,0,0-6.59,1.65c-5.47,4.1-10.78,8.56-15.87,12.89l-3.72,3.17c-1.58,1.34-2.29,2.3-1.49,3.53s1.91,1.31,4,.61l.12,0h.17l2.06-1.85c0,.27,0,.54,0,.81l.62,0a6,6,0,0,0,2.34-.15,133.39,133.39,0,0,0,22.31-10.64c1.71-1.06,3.29-2.33,3.33-4.46v-.33l.3-.19a1.8,1.8,0,0,0,1-1.16,1.24,1.24,0,0,0-.48-1c-1.8-1.79-5-2.8-8.09-2.89"/><path class="cls-1" d="M16.49,312.31c.54-3.91,4-5.81,6.19-8.54,5.22-6.46,10.92-12.58,16.08-19.13,4.16-5.3,9.59-8.31,15.79-10.6,5.87-2.17,11.54-4.92,17.43-7.08a18.24,18.24,0,0,0,8.43-6.69q15.45-20.67,31.75-41C117,213.12,122,207,127,201c.71-.85,1.51-1.58,1.5-2.74,2.55-1.17,3.57-3.68,5.39-5.48.4-.4.4-1.14.59-1.72a6.71,6.71,0,0,0-1.79,0c-3.65,1-7.27,2-10.89,3-4.54,1.33-8.69.62-13-1.09-6.81-2.7-13.9-4.8-20.89-7.15-1.66-.56-3.21-1.38-4.81-2.08,1.46-1.57,3.6-1.33,5.45-1.73,6.67-1.44,13.39-2.7,20.11-4q48.34-9.17,97.24-15.7c1.8-.24,3.62-.49,5.43-.67,1.13-.11,2,.43,1,1.38-4.42,4.49-7.51,10.15-13.46,13.26-5,.52-9.78,1.9-14.67,2.76-4.56.8-7.63,3.07-10.51,6.3-16.5,18.44-32.66,37-48.16,55.81-1.73,2.12-4,3.91-4.76,6.71,2.67-.88,5.37-1.7,8-2.66a9.65,9.65,0,0,0,2.11-1.51c4.19,0,7.35-1.8,10.36-4.66A171.6,171.6,0,0,1,204,200.57c11.78-4,23.95-6.57,36.56-6.49,3.23,0,5.67,1,6.49,4.24-2.9,7.55-7.47,13.18-16.4,14.77-5.43,1-10.72,2.61-16.05,4-1.1-.5-2.78.22-3.32-1.43-.9-2.16-2-1.13-3.09-.16a115.38,115.38,0,0,0-28.26,15c-2.9,2.17-7,3.61-7.48,8a25.67,25.67,0,0,0,11-3.33c1.29-.22,2.61-.35,3.87-.69,3.79-1,7.63-1.95,11.34-3.21,4.37-1.49,5.17-3.67,3.09-7.41,3-.78,5.85-2.62,8.92-2.22,5.24.68,10.05-.89,15-1.76,1.31-.23,2.6-.55,3.9-.78,1.13-.19,2.25-.12,2.79,1a1.94,1.94,0,0,1-.89,2.72c-3.64,1.95-5.75,5.33-7.87,8.45-5.38,7.94-12.47,13.19-21.57,16.61-6.85,2.58-13.75,5.34-19.82,9.53-1.4-.24-2.46.43-3.6,1.11-1.37.81-1.87-.12-2.06-1.31a14.07,14.07,0,0,0,3.86-4.24c.62-.94,2.25-1.87,1.15-3.11-.72-.82-2,.06-3,.43q-16.71,6.31-33.17,13l-4.37.75c-2.48-3.24-5.36-3.2-9.08-1.73-22.69,9-45.19,18.16-67.33,27.92-13.9,6.13-27.64,12.52-41.28,19.05A1.43,1.43,0,0,0,22,310.46a.62.62,0,0,1-.6.56,1.62,1.62,0,0,0-1.22.12l-2.78,1h-.47l-.44.18"/><path class="cls-1" d="M15.7,313.33l.15-1.1c.41-3,2.33-4.83,4.18-6.62a24.7,24.7,0,0,0,2.14-2.23c2.11-2.61,4.33-5.2,6.49-7.7,3.19-3.71,6.51-7.52,9.58-11.43,3.71-4.72,8.67-8.07,16.09-10.81,3.06-1.13,6.12-2.45,9.09-3.71,2.71-1.15,5.51-2.34,8.33-3.37a17.37,17.37,0,0,0,8.13-6.47q10.59-14.16,21.57-28.17,7.1-9.06,14.34-18.07,5.26-6.57,10.66-13.08l.32-.37a3.07,3.07,0,0,0,1-2c0-.13,0-.27,0-.41l.39-.18a9.39,9.39,0,0,0,3.46-3.26,19.66,19.66,0,0,1,1.73-2.08,1.61,1.61,0,0,0,.25-.7,2.87,2.87,0,0,0-.79,0c-2.74.71-5.46,1.47-8.18,2.22l-2.7.76c-4.24,1.24-8.39.89-13.48-1.13-4.4-1.74-9-3.26-13.47-4.71-2.46-.8-4.93-1.6-7.39-2.42a36.2,36.2,0,0,1-3.37-1.42c-.49-.23-1-.47-1.49-.69l-.81-.34.6-.65a6.57,6.57,0,0,1,4.38-1.72,13.3,13.3,0,0,0,1.43-.21c4.92-1.06,9.93-2,14.78-3l5.35-1q8.07-1.53,16.14-3,40.38-7.26,81.13-12.72l.8-.11c1.56-.21,3.11-.41,4.67-.56a2,2,0,0,1,2.05.75c.16.3.31.91-.46,1.68-1.34,1.37-2.59,2.88-3.79,4.35-2.76,3.35-5.6,6.83-9.84,9l-.12.06-.14,0a84.46,84.46,0,0,0-8.9,1.58c-1.87.41-3.8.83-5.72,1.17-3.88.68-6.92,2.5-10.12,6.08-9.62,10.75-19.29,21.72-28.46,32.4q-10,11.64-19.69,23.4c-.46.55-1,1.09-1.45,1.62a14.9,14.9,0,0,0-2.77,3.67l1-.31c1.9-.61,3.87-1.24,5.77-1.93a4.64,4.64,0,0,0,1.26-.86c.23-.19.45-.38.68-.55l.18-.13h.22c3.62,0,6.67-1.41,9.9-4.48a172.83,172.83,0,0,1,63-38.56c13-4.47,25.08-6.6,36.79-6.52,2.55,0,6.08.53,7.13,4.72,0,.06,0,.12.05.18l-.07.18c-3.43,8.93-8.79,13.74-16.92,15.18-3.71.66-7.44,1.67-11,2.65-1.66.45-3.31.91-5,1.34l-.24.06-.23-.1a2.87,2.87,0,0,0-1-.17,2.54,2.54,0,0,1-2.65-1.64c-.23-.56-.47-.81-.6-.84-.28,0-.92.52-1.35.9l-.25.17c-11.3,4.32-20.49,9.24-28.11,14.95-.67.51-1.41,1-2.12,1.43-2.23,1.42-4.35,2.77-5,5.34a25.52,25.52,0,0,0,9.93-3.19l.2-.07c.41-.08.83-.14,1.24-.2a23.09,23.09,0,0,0,2.58-.49l2.31-.61c3-.78,6-1.58,9-2.58,2-.68,3.16-1.49,3.57-2.48s.12-2.29-.85-4l-.39-.7.81-.21a28.73,28.73,0,0,0,2.79-1c2-.77,4.15-1.58,6.4-1.28,3.89.51,7.48-.26,11.3-1.06,1.16-.25,2.32-.49,3.5-.69.65-.12,1.3-.26,2-.4s1.29-.27,1.94-.38c1.75-.3,2.94.16,3.51,1.38a2.56,2.56,0,0,1-1.17,3.55c-3.23,1.73-5.24,4.69-7.17,7.55l-.47.69c-5.3,7.82-12.45,13.31-21.89,16.86-7,2.64-13.78,5.38-19.68,9.45l-.22.15-.27,0a4.37,4.37,0,0,0-3,1l-.11.06a2,2,0,0,1-1.88.27c-.61-.27-1-.93-1.17-2l-.06-.4.34-.23a13.55,13.55,0,0,0,3.68-4.06,8.46,8.46,0,0,1,.67-.81c.82-.87.91-1.12.53-1.54-.23-.27-.84,0-1.61.32-.24.1-.46.21-.67.29q-13.41,5.06-26.66,10.37l-6.56,2.63-4.84.84-.24-.32c-2.05-2.68-4.31-3.1-8.31-1.51-14.55,5.75-29.26,11.68-43.36,17.6q-12,5.06-23.95,10.3-14.36,6.33-28.5,13-6.4,3-12.76,6.05l-.09,0-.11,0a.81.81,0,0,0-.79.69,1.22,1.22,0,0,1-1.15,1l-.24,0a1,1,0,0,0-.77.07l-2.95,1.08h-.46l-1.35.56M129.14,198.61a4.7,4.7,0,0,1-1.33,2.39l-.3.35q-5.4,6.5-10.66,13.07-7.25,9-14.34,18.06-11,14-21.57,28.16a18.7,18.7,0,0,1-8.74,6.91c-2.78,1-5.57,2.2-8.26,3.35-3,1.27-6.07,2.59-9.16,3.74-7.17,2.64-12,5.86-15.51,10.38-3.09,3.94-6.43,7.77-9.63,11.48-2.15,2.49-4.36,5.08-6.46,7.67a27.82,27.82,0,0,1-2.25,2.35c-1.56,1.5-3,2.94-3.62,5l2.65-.95a2.17,2.17,0,0,1,1.39-.19,2.14,2.14,0,0,1,1.79-1.68q6.33-3,12.68-6Q50,296,64.35,289.66q11.93-5.27,24-10.31c14.11-5.92,28.82-11.86,43.37-17.62,3.09-1.22,6.64-2,9.6,1.63l3.92-.67,6.43-2.59q13.28-5.3,26.68-10.38c.19-.07.38-.16.59-.25.89-.41,2.26-1,3.16,0,1.2,1.36.1,2.54-.56,3.24a5,5,0,0,0-.54.63,15.35,15.35,0,0,1-3.69,4.18c.14.57.33.67.35.69s.3,0,.65-.2l.11-.07a5.87,5.87,0,0,1,3.66-1.17c6-4.06,12.74-6.81,19.75-9.45A42.92,42.92,0,0,0,223.06,231l.47-.69c2-3,4.11-6.09,7.63-8a1.33,1.33,0,0,0,.6-1.91c-.23-.49-.63-.91-2.06-.66-.64.11-1.27.24-1.9.38s-1.33.28-2,.4c-1.16.2-2.31.44-3.45.68-3.77.79-7.64,1.62-11.77,1.08-1.9-.25-3.76.46-5.72,1.2-.71.27-1.43.55-2.16.78.86,1.78,1,3.19.54,4.4-.57,1.38-2,2.4-4.36,3.22-3,1-6.08,1.82-9.08,2.61l-2.3.61a26.73,26.73,0,0,1-2.73.52l-1.11.17a25.82,25.82,0,0,1-11.23,3.35l-.77,0,.09-.74c.44-3.67,3.23-5.46,5.7-7,.72-.45,1.4-.89,2-1.36,7.69-5.76,17-10.73,28.31-15.09.77-.68,1.58-1.37,2.51-1.17.65.14,1.16.68,1.55,1.64.23.67.57.75,1.5.81a4.63,4.63,0,0,1,1.25.19c1.58-.41,3.15-.84,4.73-1.27,3.63-1,7.38-2,11.16-2.68,7.66-1.36,12.53-5.72,15.82-14.17-.7-2.48-2.44-3.55-5.8-3.57-11.54-.07-23.47,2-36.32,6.45a171.64,171.64,0,0,0-62.48,38.26c-3.43,3.27-6.7,4.77-10.59,4.85-.15.11-.3.24-.45.36a5.39,5.39,0,0,1-1.67,1.1c-1.92.7-3.9,1.34-5.82,1.95l-2.21.72-1.14.37c.1-.37.2-.74.29-1.12a12.61,12.61,0,0,1,3.49-5.38c.48-.52,1-1,1.4-1.57q9.69-11.78,19.69-23.41c9.17-10.69,18.84-21.66,28.46-32.42,3.42-3.82,6.69-5.77,10.91-6.52,1.89-.33,3.81-.75,5.66-1.15a83.49,83.49,0,0,1,8.92-1.59c3.93-2.09,6.53-5.28,9.29-8.65,1.23-1.49,2.49-3,3.87-4.43a.77.77,0,0,0,.22-.31s-.26,0-.67,0c-1.54.14-3.08.35-4.61.56l-.81.1q-40.71,5.45-81.07,12.72-8.07,1.45-16.13,3l-5.35,1c-4.84.92-9.85,1.9-14.74,3a15.59,15.59,0,0,1-1.57.24,7.09,7.09,0,0,0-2.79.71l.59.27a29.43,29.43,0,0,0,3.23,1.36c2.45.83,4.91,1.63,7.37,2.42,4.49,1.47,9.11,3,13.55,4.75,4.77,1.89,8.63,2.23,12.55,1.08l2.71-.76c2.73-.76,5.46-1.51,8.2-2.22a4,4,0,0,1,1.46-.05l.53,0,.88,0-.25.79a4.87,4.87,0,0,0-.12.52,2.8,2.8,0,0,1-.63,1.46,17.33,17.33,0,0,0-1.62,1.94,11.27,11.27,0,0,1-3.6,3.5"/><path class="cls-1" d="M251.64,202.22c1.37-.46,1.88-1.66,2.66-2.68,1.61-2.07,2.17-3.66-1.19-4.49a14.91,14.91,0,0,1-3.06-1.22,1.25,1.25,0,0,1-.57-1,1.17,1.17,0,0,1,.74-.82,19,19,0,0,1,2.63-.4c7.53-.83,15.09-1.45,22.61-2.4,3.43-.43,5.58.51,6.82,3.46,2.11,8.32,6,16.07,8.66,24.19.23.7.66,1.66,1.74,1.32s.83-1.35,1-2.13c5.3-4,7.93-10,12.12-14.85,3.37-3.88,6.21-8.19,9.24-12.35a7.77,7.77,0,0,1,6.64-3.49c4.91-.1,9.82-.58,14.73-.91,2.87-.2,2.77,1.35,2.24,3.21-2.13,1-3.09,3-4.38,4.71-10,13.23-19.91,26.5-29.32,40a18.4,18.4,0,0,1-9.89,7.61c-5.56,1.78-10.9,4.19-16.31,6.36a2.51,2.51,0,0,1-2.8-1.94c-2.12-5.7-4.5-11.31-6.76-17-.32-.81-.55-1.59-1.4-2-.31-1.44-.53-2.9-1-4.3-.22-.76-.62-1.83-1.23-2-1.4-.49-1.69,1-2.25,1.77-3,4.16-6.15,8.24-8.76,12.61a24.2,24.2,0,0,1-13.07,10.6c-6,2.25-12.25,4.2-17.41,8.19-.85.15-1.7.33-2.55.43-1.14.14-2.33.28-1.24-1.46,2.92-4.65,5.83-9.32,8.81-14,.7-1.09,1.49-2.12.7-3.47h0a20,20,0,0,1,2.29-2.86l0,0c1.1-.06.47-1.16,1.22-1.64q7.53-10.77,15.25-21.48a19,19,0,0,0,3-5.62"/><path class="cls-1" d="M278.89,247h-.12a3.15,3.15,0,0,1-3.43-2.36c-1.33-3.58-2.8-7.19-4.22-10.68-.85-2.09-1.71-4.18-2.55-6.29l-.09-.23c-.29-.74-.48-1.17-1-1.43l-.29-.14-.06-.3c-.09-.43-.18-.85-.26-1.28-.19-1-.39-2-.67-3-.44-1.44-.82-1.61-.83-1.61-.42-.15-.57-.09-1.07.84a5,5,0,0,1-.41.69c-.74,1-1.5,2.06-2.25,3.09-2.24,3.06-4.53,6.22-6.48,9.48a24.84,24.84,0,0,1-13.4,10.87l-2.74,1c-5,1.84-10.21,3.76-14.51,7.09l-.13.1-.94.17c-.6.11-1.19.22-1.8.29-.84.11-1.8.22-2.23-.44s0-1.37.35-2l4-6.35c1.6-2.54,3.2-5.09,4.82-7.62l.15-.22c.69-1.06,1.06-1.71.54-2.59l-.26-.45.33-.29A10.58,10.58,0,0,1,231,231.3a6.84,6.84,0,0,0,.54-.61l.08-.1h0l.53.35c0-.2,0-.4,0-.6.11,0,.14-.18.16-.28a1.74,1.74,0,0,1,.62-1.17q1.95-2.81,3.93-5.61,5.57-7.92,11.25-15.79a18,18,0,0,0,3-5.43c0-.11.07-.22.1-.32l.33-.11a3.78,3.78,0,0,0,1.81-1.71c.17-.25.34-.5.53-.75.58-.75,1.33-1.81,1.1-2.44-.16-.42-.82-.78-1.93-1.05a16.45,16.45,0,0,1-3.19-1.27,1.86,1.86,0,0,1-.93-1.59,1.77,1.77,0,0,1,1.24-1.4,15,15,0,0,1,2.46-.39l.26,0c2.26-.25,4.52-.48,6.79-.71,5.19-.51,10.56-1,15.81-1.69,3.86-.5,6.21.7,7.54,3.86a121.07,121.07,0,0,0,5.18,14.89c1.2,3,2.43,6.18,3.48,9.33.17.52.35.82.55.92,0,0,.13.07.36,0s.38-.3.46-1a4.14,4.14,0,0,1,.1-.63,1.89,1.89,0,0,1,0-.23l.18-.14c3.3-2.49,5.6-5.87,7.84-9.14a62.62,62.62,0,0,1,4.17-5.61c2.56-3,4.87-6.23,7.11-9.38.69-1,1.39-2,2.09-2.93a8.43,8.43,0,0,1,7.19-3.77c3.76-.08,7.58-.38,11.28-.66l3.41-.25a3.27,3.27,0,0,1,2.77.77c.73.83.51,2,.16,3.24,0,.09-.05.19-.07.28l-.27.13a8.64,8.64,0,0,0-3.27,3.3c-.28.41-.57.82-.86,1.21q-3.13,4.13-6.23,8.25c-7.76,10.32-15.64,21.05-23.1,31.74a18.9,18.9,0,0,1-10.22,7.86c-3.86,1.24-7.69,2.81-11.38,4.35-1.63.67-3.26,1.35-4.89,2l-.11,0m-10.52-22a3.63,3.63,0,0,1,1.35,2,2,2,0,0,1,.08.22c.84,2.1,1.7,4.19,2.55,6.28,1.42,3.5,2.88,7.12,4.22,10.71.42,1.15.93,1.54,2.05,1.53,1.59-.64,3.17-1.3,4.75-1.95,3.72-1.55,7.58-3.13,11.49-4.39A17.67,17.67,0,0,0,304.4,232c7.46-10.71,15.34-21.44,23.09-31.77q3.11-4.14,6.23-8.25c.29-.38.56-.77.83-1.16a10.12,10.12,0,0,1,3.52-3.61c.17-.68.32-1.5,0-1.84a2.09,2.09,0,0,0-1.63-.31l-3.4.25c-3.72.28-7.56.58-11.36.66a7.08,7.08,0,0,0-6.1,3.22c-.71,1-1.4,1.94-2.09,2.92-2.26,3.18-4.59,6.47-7.19,9.48a58.46,58.46,0,0,0-4.09,5.5c-2.26,3.29-4.57,6.69-7.93,9.29a2.54,2.54,0,0,0,0,.29,2.11,2.11,0,0,1-1.37,2.09,1.75,1.75,0,0,1-1.38-.07,2.68,2.68,0,0,1-1.21-1.66c-1-3.12-2.27-6.25-3.46-9.26a121.37,121.37,0,0,1-5.21-15c-1.06-2.5-2.83-3.39-6.08-3-5.28.67-10.66,1.18-15.86,1.7-2.26.22-4.53.46-6.77.7l-.26,0a17.67,17.67,0,0,0-2.27.35.73.73,0,0,0-.24.28.91.91,0,0,0,.22.37,15.34,15.34,0,0,0,2.91,1.15c1.6.39,2.53,1,2.85,1.87.43,1.17-.41,2.48-1.29,3.62-.17.22-.33.45-.49.68a5.2,5.2,0,0,1-2.16,2.09,19.83,19.83,0,0,1-3.05,5.51q-5.69,7.86-11.26,15.78l-4.18,5.88c-.08,0-.11.14-.16.42a1.4,1.4,0,0,1-1,1.27c-.19.24-.37.42-.56.62a8.94,8.94,0,0,0-1.33,1.68c.62,1.43-.14,2.59-.76,3.55l-.14.22q-2.43,3.78-4.82,7.6c-1.34,2.12-2.66,4.24-4,6.36a3.26,3.26,0,0,0-.3.56,6.69,6.69,0,0,0,.9-.07c.57-.06,1.15-.17,1.72-.28l.63-.11c4.43-3.39,9.66-5.34,14.73-7.19l2.73-1A23.59,23.59,0,0,0,254,233.16c2-3.31,4.29-6.49,6.54-9.57.75-1,1.5-2.05,2.24-3.08a4.69,4.69,0,0,0,.32-.55c.38-.71,1.08-2,2.71-1.46.69.24,1.21,1,1.64,2.46.3,1,.5,2.07.7,3.09.06.33.13.66.19,1"/><path class="cls-1" d="M460.18,182q-31.46-.09-62.82.9c-.76,1.1-1.38,2.31-2.87,2.72-2,4.58-5.75,8-8.87,11.8,1.15,1.64,3.12.5,4.54,1.21,5-.67,9.93-1.34,14.9-1.92a5.79,5.79,0,0,1,1.76.4,5.55,5.55,0,0,1-.56,1.71l-6.54,8.46c-7.5,9.23-14.92,18.48-22.11,27.86-.95,1.24-3.3,2.51-2.43,3.81s2.88-1.48,4.67-.52c6.89-3.15,14.29-5,21.51-7.29a15.16,15.16,0,0,0,7.8-5.23c7.66-9.73,15.77-19.17,23.69-28.78a9.42,9.42,0,0,1,7.79-3.88c8.78-.12,17.28-1,22.53-9,.32-2.3-1.34-2.23-3-2.23"/><path class="cls-1" d="M375.78,239.89a1.23,1.23,0,0,1-1.14-.59c-.92-1.36.43-2.6,1.43-3.51a9.61,9.61,0,0,0,1-1c5.84-7.63,11.94-15.3,17.91-22.68l4.21-5.19c.22-.28.47-.55.71-.82,1-1.09,1.86-2,1.43-3.53-.07-.22-.13-.45-.2-.68l.73-.11c1.59-.25,2.44-1.4,3.33-2.62.17-.24.34-.47.52-.69a2.37,2.37,0,0,0,.3-.9h0a2.5,2.5,0,0,0-.88-.18c-3.87.45-7.74,1-11.59,1.47l-3.51.47-.19-.1a3.63,3.63,0,0,0-1.56-.18,3.41,3.41,0,0,1-3.24-1.24l-.27-.39c.1-.11.2-.24.29-.36.79-1,1.62-1.9,2.45-2.83,2.39-2.7,4.87-5.48,6.34-8.82l.12-.28.31-.09a4,4,0,0,0,2.2-2l.48-.71,11.43-.33q25.84-.66,51.77-.59h.16c1.11,0,2.28,0,3,.77a2.55,2.55,0,0,1,.5,2.19c0,.08-.06.16-.1.25-5.55,8.46-14.82,9.21-23.09,9.31a8.75,8.75,0,0,0-7.27,3.65c-3.86,4.67-7.81,9.37-11.61,13.93-4,4.83-8.15,9.84-12.09,14.84a15.84,15.84,0,0,1-8.12,5.44c-2.15.69-4.31,1.34-6.47,2a117.19,117.19,0,0,0-15,5.27l-.3.14-.29-.16c-.59-.31-1.29,0-2.22.41a4.42,4.42,0,0,1-1.54.5m27-37c.23,1.78-.87,3-1.85,4.06-.23.25-.46.5-.67.76l-4.2,5.19c-6,7.38-12.07,15-17.92,22.66a9.25,9.25,0,0,1-1.16,1.19c-1.07,1-1.51,1.49-1.24,1.9a3.12,3.12,0,0,0,1-.37,4,4,0,0,1,3.1-.51,119.6,119.6,0,0,1,14.85-5.22c2.16-.64,4.31-1.29,6.45-2a14.43,14.43,0,0,0,7.48-5c3.95-5,8.08-10,12.1-14.85,3.79-4.56,7.75-9.27,11.59-13.93a10.11,10.11,0,0,1,8.31-4.13c8.24-.11,16.69-.8,21.89-8.6a1.42,1.42,0,0,0-.19-1c-.31-.33-1.16-.34-2-.34h-.17q-25.89-.07-51.72.59c-3.58.09-7.15.2-10.72.31a.71.71,0,0,1-.1.14,5.48,5.48,0,0,1-2.64,2.46c-1.56,3.4-4,6.18-6.43,8.88-.71.79-1.41,1.58-2.09,2.39a2.65,2.65,0,0,0,1.79.33,5.18,5.18,0,0,1,2,.24l3.09-.41c3.87-.52,7.74-1,11.62-1.48a3.51,3.51,0,0,1,1.5.26l.5.15.68.17c-.06.21-.13.42-.2.63s-.08.34-.12.51a3.28,3.28,0,0,1-.54,1.39c-.17.22-.33.44-.49.67a7,7,0,0,1-3.54,3"/><path class="cls-1" d="M344.07,187.84c3.05-3.41,7-4.47,11.68-4.58,10.46-.23,20.91-.83,31.37-1.27,2.82-.11,3.7.83,2.79,3.3-.71.5-1.68.87-2.07,1.54-2.69,4.72-6.86,7-12.46,6.9-2.57,0-4,1.48-5.35,3.22-4.36,5.59-8.82,11.09-13,16.78-1.41,1.94-4.84,4.13-3.37,6,1.24,1.59,4.83-.2,7.25-1.21,2.89-.43,4.23.35,2.76,3.29-.54.36-1.34.59-1.59,1.08-3.63,7.39-10.74,9.07-18,10.58-2.54.52-5.05,1.18-7.53,1.92-9.28,2.79-18.87,4.55-27.87,8.11-1.67-.3-3.58,1.36-5-.59q5.53-7.15,11.16-14.26c4.34-.18,9.21-.27,12.08-3.38a99.64,99.64,0,0,0,15.05-20.57c1.13-1.23,2.28-2.43,3.36-3.69.39-.46,1-1.23.81-1.58-.39-.84-1.4-.69-2.21-.52-1,.22-2.07.54-3.1.83-1.23-.56-2.95,0-3.77-1.49,2-3.68,5.51-6.46,7.07-10.42"/><path class="cls-1" d="M305.81,244.5a2.84,2.84,0,0,1-2.72-1.21l-.29-.38q5.77-7.46,11.64-14.87l.67,0c4.05-.17,8.65-.33,11.26-3.16a98.61,98.61,0,0,0,14.95-20.42l.09-.13,1-1c.8-.88,1.61-1.75,2.38-2.65s.69-1,.69-1-.37-.25-1.42,0c-.71.15-1.42.35-2.12.55l-.95.27-.24.07-.22-.11a4.32,4.32,0,0,0-1.22-.25,3.27,3.27,0,0,1-2.87-1.52l-.16-.29.16-.29a31.12,31.12,0,0,1,3.21-4.51,22.77,22.77,0,0,0,3.82-5.84l.12-.19c2.85-3.19,6.62-4.67,12.18-4.8,8.95-.2,18-.68,26.87-1.07l4.49-.2c1.11,0,2.64,0,3.4,1,.57.72.59,1.73.06,3.17a1.34,1.34,0,0,0-.07.18l-.16.11c-.24.18-.51.33-.77.49a3.23,3.23,0,0,0-1.11.85c-2.79,4.88-7.18,7.3-13.07,7.24-2.29,0-3.53,1.33-4.8,3q-2.38,3.06-4.79,6.09c-2.74,3.47-5.55,7.07-8.19,10.68a15.45,15.45,0,0,1-1.57,1.73c-1.54,1.57-2.5,2.66-1.82,3.53s3.74-.25,5.7-1.1l.92-.36c1.92-.28,3.14,0,3.74.75s.49,1.89-.29,3.45a1.09,1.09,0,0,1-.08.15.71.71,0,0,1-.14.1,5.41,5.41,0,0,1-.63.35,2.18,2.18,0,0,0-.73.47c-3.92,8-12,9.58-18.5,10.93-2.4.5-4.84,1.12-7.48,1.91-3.63,1.09-7.36,2-11,3a141.42,141.42,0,0,0-16.86,5.12l-.17.07-.19,0a4.12,4.12,0,0,0-1.55.16,8.14,8.14,0,0,1-1.17.2m-1.35-1.61c.57.5,1.2.4,2.23.17a5.57,5.57,0,0,1,1.87-.2,143.48,143.48,0,0,1,16.85-5.11c3.59-.93,7.31-1.87,10.92-2.95,2.66-.81,5.15-1.44,7.59-1.94,7.89-1.64,14.21-3.38,17.58-10.23a2.66,2.66,0,0,1,1.3-1.06l.36-.19c.45-.95.58-1.67.34-2-.13-.16-.6-.51-2.4-.26-.21.1-.44.19-.66.28-2.62,1.13-5.87,2.55-7.3.7s.44-3.66,1.92-5.16a16.43,16.43,0,0,0,1.44-1.59c2.65-3.63,5.47-7.23,8.21-10.71,1.59-2,3.19-4,4.78-6.09,1.38-1.77,3-3.5,5.9-3.47,5.42.06,9.3-2.08,11.86-6.57a4,4,0,0,1,1.58-1.33c.17-.1.34-.2.5-.31.3-.87.33-1.49.08-1.8s-1.06-.5-2.25-.46l-4.5.2c-8.81.39-17.92.87-26.89,1.07-5.15.12-8.5,1.4-11.11,4.27a24.35,24.35,0,0,1-4,6.06,32.31,32.31,0,0,0-2.9,4c.35.41.86.49,1.65.58a6.1,6.1,0,0,1,1.38.26l.7-.2c.74-.21,1.47-.42,2.22-.57s2.33-.49,3,.88c.25.53,0,1.22-.9,2.24s-1.6,1.79-2.42,2.68l-.9,1a100.43,100.43,0,0,1-15.11,20.63c-3,3.23-7.88,3.41-12.2,3.58h0q-5.37,6.79-10.66,13.61"/><path class="cls-2" d="M13.64,308c.54-3.92,4-5.81,6.19-8.54,5.22-6.46,10.93-12.58,16.08-19.14,4.16-5.3,9.59-8.31,15.79-10.6,5.87-2.17,11.53-4.91,17.42-7.08A18.22,18.22,0,0,0,77.56,256Q93,235.32,109.31,215c4.88-6.12,9.79-12.23,14.82-18.28.71-.85,1.51-1.58,1.5-2.74,2.54-1.17,3.57-3.67,5.39-5.48.4-.4.4-1.14.59-1.72a7.16,7.16,0,0,0-1.79,0c-3.65,1-7.27,2-10.89,3-4.53,1.33-8.69.62-13-1.1C99.1,185.92,92,183.82,85,181.46c-1.66-.56-3.21-1.38-4.81-2.08,1.47-1.57,3.6-1.33,5.45-1.73,6.68-1.43,13.39-2.69,20.11-4Q154.12,164.53,203,158c1.81-.25,3.62-.5,5.44-.67,1.13-.11,2,.42,1,1.37C205.05,163.19,202,168.84,196,172c-5,.52-9.78,1.9-14.67,2.76-4.56.8-7.63,3.07-10.51,6.3-16.5,18.44-32.66,37-48.15,55.81-1.75,2.11-4.05,3.9-4.77,6.7,2.67-.88,5.37-1.7,8-2.66a9.6,9.6,0,0,0,2.11-1.5c4.19,0,7.35-1.8,10.36-4.67a171.44,171.44,0,0,1,62.71-38.4,109.66,109.66,0,0,1,36.56-6.49c3.23,0,5.67,1,6.49,4.23-2.9,7.55-7.47,13.18-16.4,14.77-5.43,1-10.72,2.62-16.06,4-1.09-.5-2.77.22-3.31-1.43-.9-2.16-2-1.14-3.09-.17a115.41,115.41,0,0,0-28.26,15c-2.9,2.17-7,3.61-7.48,8a25.66,25.66,0,0,0,11-3.32c1.29-.23,2.61-.36,3.87-.7,3.8-1,7.63-1.94,11.34-3.2,4.37-1.49,5.17-3.67,3.09-7.41,3-.79,5.85-2.63,8.93-2.22,5.23.68,10-.9,15-1.76,1.31-.23,2.6-.56,3.9-.78,1.13-.2,2.25-.12,2.79,1a2,2,0,0,1-.89,2.73c-3.64,2-5.75,5.32-7.87,8.45-5.38,7.93-12.47,13.18-21.57,16.61-6.85,2.57-13.75,5.33-19.82,9.52-1.4-.23-2.46.44-3.6,1.12-1.37.81-1.87-.12-2.06-1.31a14.07,14.07,0,0,0,3.86-4.24c.62-.95,2.26-1.87,1.15-3.11-.72-.82-2,.06-3,.43q-16.71,6.32-33.17,13c-1.46.24-2.92.49-4.37.75-2.48-3.25-5.36-3.2-9.08-1.73C106.4,267,83.9,276.2,61.76,286c-13.9,6.13-27.64,12.53-41.28,19.05a1.46,1.46,0,0,0-1.34,1.18.59.59,0,0,1-.58.55,1.64,1.64,0,0,0-1.23.12l-2.78,1h-.47l-.44.19"/><path class="cls-2" d="M12.85,309.06,13,308c.41-3,2.33-4.82,4.19-6.62a24.62,24.62,0,0,0,2.13-2.23c2.11-2.6,4.33-5.19,6.49-7.7,3.19-3.7,6.52-7.52,9.58-11.43,3.71-4.72,8.67-8.07,16.09-10.8,3.06-1.13,6.12-2.45,9.09-3.71,2.71-1.16,5.51-2.34,8.33-3.38A17.4,17.4,0,0,0,77,255.62q10.59-14.16,21.57-28.18,7.08-9.06,14.33-18.06,5.28-6.57,10.67-13.09l.32-.36a3.1,3.1,0,0,0,1-2c0-.14,0-.28,0-.41l.39-.18a9.37,9.37,0,0,0,3.45-3.26,20.08,20.08,0,0,1,1.74-2.09,1.56,1.56,0,0,0,.25-.69,2.27,2.27,0,0,0-.79,0c-2.74.71-5.46,1.46-8.18,2.22l-2.7.75c-4.24,1.25-8.39.9-13.48-1.12-4.4-1.74-9-3.26-13.47-4.71-2.46-.81-4.93-1.6-7.38-2.43a36.39,36.39,0,0,1-3.38-1.42L79.91,180l-.81-.35.6-.64a6.48,6.48,0,0,1,4.38-1.72c.49-.06,1-.12,1.44-.22,4.91-1.05,9.92-2,14.77-2.95l5.35-1q8.07-1.53,16.14-3,40.38-7.28,81.13-12.72l.8-.11c1.56-.21,3.11-.42,4.67-.57a2,2,0,0,1,2.05.76c.15.29.31.9-.46,1.68-1.34,1.36-2.59,2.88-3.79,4.34-2.76,3.36-5.6,6.83-9.84,9.06l-.12.06h-.14a84.48,84.48,0,0,0-8.9,1.59c-1.87.4-3.8.82-5.72,1.16-3.88.69-6.91,2.51-10.11,6.08-9.63,10.76-19.3,21.73-28.47,32.41q-10,11.63-19.69,23.39c-.46.56-1,1.09-1.45,1.63a14.48,14.48,0,0,0-2.77,3.67l1-.31c1.9-.61,3.87-1.24,5.77-1.93a4.69,4.69,0,0,0,1.26-.87c.23-.19.45-.38.68-.55l.18-.13H128c3.62,0,6.67-1.4,9.9-4.48a172.79,172.79,0,0,1,62.94-38.55c13-4.48,25.09-6.6,36.8-6.53,2.55,0,6.08.53,7.13,4.72,0,.06,0,.12.05.19l-.07.18c-3.43,8.93-8.79,13.73-16.91,15.18-3.72.66-7.44,1.66-11,2.65-1.65.45-3.31.9-5,1.33l-.23.06-.23-.1a3.12,3.12,0,0,0-1-.17,2.52,2.52,0,0,1-2.65-1.64c-.23-.56-.47-.8-.6-.83-.28-.06-.92.51-1.35.89l-.25.17c-11.3,4.33-20.49,9.25-28.11,15-.67.5-1.41,1-2.12,1.42-2.23,1.42-4.34,2.77-5,5.34a25.35,25.35,0,0,0,9.93-3.19l.2-.07,1.24-.19c.89-.15,1.75-.27,2.58-.49l2.31-.62c3-.78,6-1.57,9-2.57,2-.68,3.16-1.5,3.56-2.49s.13-2.29-.84-4l-.39-.71.81-.21a28.08,28.08,0,0,0,2.8-1c2-.77,4.14-1.57,6.39-1.28,3.89.51,7.48-.26,11.3-1.06,1.16-.24,2.32-.49,3.5-.69.65-.11,1.3-.25,1.95-.39s1.29-.27,2-.39c1.74-.29,2.93.16,3.5,1.39a2.55,2.55,0,0,1-1.17,3.54c-3.23,1.73-5.24,4.69-7.17,7.56l-.46.69a44.27,44.27,0,0,1-21.9,16.85c-7,2.64-13.79,5.39-19.68,9.45l-.22.16-.27-.05a4.37,4.37,0,0,0-3,1l-.12.07a2,2,0,0,1-1.87.27,2.45,2.45,0,0,1-1.17-2l-.06-.4.34-.23a13.52,13.52,0,0,0,3.68-4.05,7.38,7.38,0,0,1,.67-.81c.83-.88.91-1.12.54-1.55-.24-.27-.85,0-1.63.33l-.66.28Q162.53,251.7,149.28,257l-6.56,2.64-4.84.83-.23-.31c-2.06-2.68-4.32-3.1-8.32-1.52-14.55,5.75-29.25,11.69-43.36,17.61q-12,5.06-23.95,10.29-14.35,6.33-28.5,13-6.39,3-12.76,6l-.09,0h-.1a.81.81,0,0,0-.8.69,1.24,1.24,0,0,1-1.15,1.05l-.24,0a1,1,0,0,0-.76.07l-3,1.07H14.2l-1.35.57M126.28,194.33a4.64,4.64,0,0,1-1.32,2.4l-.3.34c-3.6,4.33-7.15,8.7-10.66,13.07q-7.25,9-14.34,18.06-11,14-21.57,28.16a18.59,18.59,0,0,1-8.74,6.91c-2.78,1-5.57,2.21-8.26,3.35-3,1.27-6.06,2.59-9.16,3.74-7.17,2.65-12,5.87-15.51,10.39-3.09,3.93-6.43,7.76-9.63,11.48-2.15,2.49-4.36,5.07-6.46,7.67a26.2,26.2,0,0,1-2.25,2.34c-1.56,1.51-3,2.95-3.62,5l2.65-1a2.17,2.17,0,0,1,1.39-.19,2.12,2.12,0,0,1,1.79-1.67q6.33-3,12.68-6,14.16-6.66,28.53-13,11.93-5.25,24-10.3c14.11-5.92,28.82-11.87,43.38-17.62,3.08-1.22,6.63-2,9.59,1.62l3.92-.67c2.14-.87,4.29-1.73,6.43-2.58q13.28-5.31,26.68-10.39c.19-.07.38-.16.59-.25.9-.4,2.26-1,3.16,0,1.2,1.35.1,2.53-.56,3.23a5.93,5.93,0,0,0-.54.64,15.5,15.5,0,0,1-3.69,4.18c.14.57.33.67.35.68s.3,0,.65-.2a.41.41,0,0,0,.11-.07,5.86,5.86,0,0,1,3.66-1.16c6-4.07,12.74-6.82,19.75-9.45,9.18-3.46,16.12-8.79,21.26-16.37l.46-.69c2-3,4.12-6.08,7.64-8a1.32,1.32,0,0,0,.6-1.9c-.22-.49-.64-.92-2.06-.67-.64.11-1.27.25-1.9.38s-1.33.29-2,.4c-1.16.2-2.31.45-3.45.69-3.76.79-7.64,1.62-11.77,1.08-1.9-.25-3.76.45-5.72,1.2-.71.27-1.43.54-2.16.77.86,1.78,1,3.19.54,4.4-.57,1.38-1.95,2.41-4.36,3.23-3,1-6.08,1.82-9.07,2.6l-2.31.61a22.21,22.21,0,0,1-2.73.52c-.37.06-.74.11-1.1.18a26,26,0,0,1-11.24,3.35l-.77,0,.09-.74c.44-3.66,3.23-5.45,5.7-7,.72-.46,1.4-.89,2-1.36,7.69-5.77,17-10.74,28.31-15.1.77-.67,1.58-1.36,2.51-1.16.65.13,1.16.67,1.55,1.64.23.67.57.74,1.5.8a5.08,5.08,0,0,1,1.25.2c1.58-.41,3.15-.85,4.73-1.28,3.63-1,7.38-2,11.16-2.67,7.66-1.37,12.53-5.73,15.82-14.18-.7-2.47-2.44-3.54-5.8-3.56-11.54-.08-23.47,2-36.32,6.44a171.8,171.8,0,0,0-62.48,38.27c-3.43,3.26-6.7,4.76-10.59,4.84-.15.12-.3.24-.44.37a5.69,5.69,0,0,1-1.68,1.1c-1.92.7-3.9,1.33-5.82,1.95l-2.21.72-1.14.37c.1-.37.19-.75.29-1.13.57-2.23,2-3.83,3.49-5.38.48-.51,1-1,1.4-1.57q9.69-11.77,19.69-23.41c9.17-10.68,18.83-21.65,28.46-32.41,3.42-3.83,6.69-5.78,10.91-6.52,1.89-.33,3.81-.75,5.66-1.15a86.08,86.08,0,0,1,8.92-1.6c3.93-2.09,6.53-5.28,9.3-8.65,1.22-1.48,2.48-3,3.86-4.43.17-.17.22-.28.22-.31s-.26,0-.67,0c-1.55.15-3.08.35-4.62.56l-.79.11q-40.72,5.44-81.08,12.71-8.07,1.46-16.13,3c-1.78.34-3.57.67-5.35,1-4.84.92-9.85,1.89-14.74,2.94a13.18,13.18,0,0,1-1.57.24,7.09,7.09,0,0,0-2.79.71l.59.28a33.92,33.92,0,0,0,3.23,1.36c2.45.83,4.91,1.62,7.37,2.42,4.49,1.46,9.11,3,13.55,4.75,4.77,1.89,8.63,2.23,12.56,1.07l2.7-.75c2.73-.76,5.46-1.52,8.21-2.23a4.46,4.46,0,0,1,1.45-.05l.53,0h.88c-.08.27-.17.53-.25.8a4,4,0,0,0-.12.52,2.8,2.8,0,0,1-.63,1.46,17.33,17.33,0,0,0-1.62,1.94,11.08,11.08,0,0,1-3.61,3.49"/><path class="cls-2" d="M248.79,197.94c1.37-.46,1.87-1.66,2.66-2.67,1.61-2.07,2.17-3.67-1.19-4.49a15.5,15.5,0,0,1-3.06-1.22,1.3,1.3,0,0,1-.57-1,1.23,1.23,0,0,1,.74-.82,20.58,20.58,0,0,1,2.63-.4c7.53-.83,15.09-1.44,22.61-2.39,3.44-.44,5.58.5,6.82,3.46,2.11,8.32,6,16.06,8.66,24.18.23.7.66,1.66,1.74,1.32s.83-1.34,1-2.13c5.29-4,7.92-10,12.11-14.84,3.37-3.89,6.21-8.19,9.24-12.35a7.75,7.75,0,0,1,6.65-3.5c4.91-.1,9.81-.57,14.72-.91,2.87-.19,2.77,1.36,2.23,3.21-2.12,1-3.08,3-4.37,4.71-10,13.23-19.91,26.5-29.32,40a18.28,18.28,0,0,1-9.89,7.61c-5.56,1.78-10.9,4.2-16.31,6.37a2.52,2.52,0,0,1-2.8-1.94c-2.11-5.71-4.5-11.32-6.76-17-.32-.8-.55-1.58-1.41-2-.3-1.44-.52-2.9-.94-4.31-.23-.75-.63-1.83-1.23-2-1.4-.49-1.69,1-2.25,1.78-3,4.16-6.15,8.24-8.76,12.61a24.18,24.18,0,0,1-13.07,10.59c-6,2.25-12.25,4.2-17.41,8.2-.85.14-1.7.32-2.55.43-1.14.14-2.33.28-1.24-1.46,2.92-4.66,5.83-9.33,8.81-14,.7-1.1,1.49-2.13.7-3.47h0a20.12,20.12,0,0,1,2.29-2.86l0,0c1.1-.07.47-1.16,1.22-1.64q7.53-10.78,15.25-21.49a19,19,0,0,0,3-5.62"/><path class="cls-2" d="M276,242.73h-.12a3.16,3.16,0,0,1-3.43-2.37c-1.33-3.58-2.8-7.19-4.22-10.67-.85-2.1-1.71-4.19-2.55-6.29l-.09-.24c-.29-.74-.48-1.17-1-1.42l-.28-.14-.06-.3c-.09-.43-.18-.86-.26-1.29a29.72,29.72,0,0,0-.68-3c-.43-1.44-.81-1.62-.81-1.62-.43-.15-.58-.09-1.08.85a5.71,5.71,0,0,1-.41.69c-.74,1-1.5,2.06-2.25,3.09-2.24,3-4.53,6.21-6.48,9.47a24.86,24.86,0,0,1-13.4,10.88l-2.74,1c-5,1.83-10.21,3.76-14.51,7.09l-.13.1-.94.17c-.6.11-1.19.22-1.8.29-.84.1-1.79.22-2.23-.44s0-1.38.35-2l4-6.36c1.6-2.54,3.2-5.08,4.83-7.61l.14-.22c.69-1.07,1.06-1.71.54-2.6-.09-.14-.18-.29-.26-.44l.33-.29a11,11,0,0,1,1.63-2.09c.18-.19.35-.37.54-.61a.61.61,0,0,0,.07-.1h0l.53.35c0-.2,0-.41,0-.61.11,0,.14-.17.16-.27a1.78,1.78,0,0,1,.62-1.18q2-2.81,3.93-5.61,5.56-7.91,11.25-15.79a17.88,17.88,0,0,0,2.95-5.43c0-.1.07-.21.1-.32l.33-.11a3.72,3.72,0,0,0,1.81-1.7c.17-.26.35-.51.53-.75.58-.75,1.33-1.82,1.1-2.44-.16-.42-.82-.79-1.92-1.06a15.69,15.69,0,0,1-3.2-1.26,1.89,1.89,0,0,1-.93-1.6,1.78,1.78,0,0,1,1.24-1.4,17.47,17.47,0,0,1,2.46-.39l.26,0c2.26-.24,4.52-.48,6.79-.7,5.19-.52,10.56-1,15.81-1.69,3.86-.51,6.21.7,7.53,3.85a122.36,122.36,0,0,0,5.19,14.9c1.2,3,2.43,6.18,3.48,9.33.17.51.35.82.54.91a.45.45,0,0,0,.37,0c.31-.1.38-.31.46-1,0-.21.05-.43.09-.63a1.74,1.74,0,0,0,.05-.22l.2-.15c3.29-2.48,5.59-5.86,7.83-9.13a63.25,63.25,0,0,1,4.17-5.62c2.56-2.95,4.87-6.22,7.11-9.38.69-1,1.39-2,2.1-2.92a8.41,8.41,0,0,1,7.18-3.78c3.75-.07,7.58-.37,11.28-.65,1.14-.09,2.27-.18,3.41-.25a3.31,3.31,0,0,1,2.77.76c.73.83.51,2.05.17,3.25,0,.09-.05.18-.08.27l-.27.13a8.67,8.67,0,0,0-3.27,3.31l-.86,1.21q-3.14,4.11-6.23,8.24C318,207,310.1,217.77,302.64,228.47a19,19,0,0,1-10.22,7.86c-3.86,1.24-7.69,2.81-11.39,4.34q-2.43,1-4.88,2l-.11,0m-10.51-22a3.7,3.7,0,0,1,1.34,1.94c0,.08.06.15.08.23.84,2.1,1.69,4.18,2.55,6.28,1.42,3.49,2.88,7.11,4.22,10.71a1.88,1.88,0,0,0,2,1.53c1.59-.64,3.17-1.3,4.75-2,3.72-1.54,7.58-3.13,11.49-4.38a17.73,17.73,0,0,0,9.54-7.36c7.46-10.71,15.34-21.45,23.09-31.78l6.23-8.25c.29-.37.56-.77.83-1.16a10.2,10.2,0,0,1,3.52-3.61c.18-.68.32-1.49,0-1.84a2.06,2.06,0,0,0-1.63-.3l-3.4.25c-3.72.28-7.57.58-11.36.66a7.06,7.06,0,0,0-6.1,3.22c-.71,1-1.4,1.94-2.09,2.91-2.26,3.18-4.59,6.47-7.19,9.48a59.92,59.92,0,0,0-4.09,5.51c-2.26,3.28-4.58,6.68-7.93,9.28a2.54,2.54,0,0,0,0,.29,2.12,2.12,0,0,1-1.37,2.1,1.85,1.85,0,0,1-1.38-.07,2.73,2.73,0,0,1-1.21-1.67c-1-3.12-2.27-6.24-3.46-9.26a122.94,122.94,0,0,1-5.22-15c-1-2.5-2.82-3.4-6.07-3-5.28.67-10.66,1.18-15.86,1.69l-6.77.71-.26,0a17.65,17.65,0,0,0-2.27.36.79.79,0,0,0-.24.27,1,1,0,0,0,.22.37,14.48,14.48,0,0,0,2.91,1.16c1.6.39,2.53,1,2.85,1.86.43,1.18-.41,2.49-1.29,3.62-.17.22-.33.45-.49.69a5.18,5.18,0,0,1-2.16,2.08,19.81,19.81,0,0,1-3.05,5.51q-5.68,7.88-11.25,15.79-2.1,2.92-4.19,5.87c-.08,0-.11.15-.16.43a1.4,1.4,0,0,1-1.05,1.27c-.19.23-.37.42-.56.62a8.78,8.78,0,0,0-1.33,1.67c.62,1.43-.14,2.6-.76,3.55a1.64,1.64,0,0,1-.14.22q-2.43,3.79-4.82,7.6c-1.34,2.12-2.66,4.24-4,6.36a2.92,2.92,0,0,0-.3.57c.25,0,.65,0,.9-.07.57-.07,1.15-.18,1.72-.28l.63-.12c4.43-3.39,9.66-5.33,14.73-7.19l2.73-1a23.59,23.59,0,0,0,12.73-10.32c2-3.31,4.28-6.5,6.53-9.57q1.14-1.55,2.25-3.09c.11-.15.21-.35.32-.54.38-.71,1.08-2,2.71-1.46.69.24,1.21,1,1.64,2.45.3,1,.5,2.08.7,3.1.06.33.13.66.2,1"/><path class="cls-2" d="M457.33,177.72q-31.45-.09-62.82.91c-.76,1.09-1.38,2.3-2.87,2.71-2,4.58-5.74,8-8.88,11.8,1.16,1.64,3.13.51,4.56,1.22,4.95-.67,9.92-1.34,14.89-1.92a5.49,5.49,0,0,1,1.76.39,5.38,5.38,0,0,1-.56,1.71L396.88,203c-7.51,9.22-14.93,18.48-22.12,27.86-.95,1.23-3.3,2.51-2.43,3.81s2.88-1.48,4.67-.53c6.89-3.14,14.29-5,21.51-7.28a15.17,15.17,0,0,0,7.8-5.24c7.66-9.72,15.77-19.16,23.7-28.77A9.43,9.43,0,0,1,437.8,189c8.77-.11,17.27-1,22.52-9,.32-2.31-1.34-2.23-3-2.24"/><path class="cls-2" d="M372.93,235.61a1.22,1.22,0,0,1-1.14-.58c-.92-1.36.43-2.61,1.43-3.52a9.6,9.6,0,0,0,1-1c5.84-7.63,11.94-15.3,17.91-22.69q2.1-2.6,4.21-5.18c.22-.28.47-.55.71-.82,1-1.1,1.86-2,1.43-3.53-.07-.23-.13-.46-.2-.68l.73-.12c1.59-.24,2.44-1.4,3.33-2.62l.52-.69a2.57,2.57,0,0,0,.3-.89h0a2.25,2.25,0,0,0-.87-.19c-3.87.45-7.74,1-11.59,1.47l-3.51.48-.19-.1a3.47,3.47,0,0,0-1.56-.19,3.4,3.4,0,0,1-3.24-1.24l-.27-.38.3-.36c.78-1,1.61-1.9,2.44-2.84,2.39-2.69,4.87-5.47,6.33-8.81,0-.1.09-.19.13-.29l.31-.08a4.06,4.06,0,0,0,2.2-2l.48-.72,11.43-.33q25.85-.66,51.77-.59h.15c1.12,0,2.29,0,3,.77A2.53,2.53,0,0,1,461,180a1.86,1.86,0,0,1-.1.25c-5.55,8.46-14.82,9.21-23.09,9.32a8.76,8.76,0,0,0-7.27,3.64c-3.86,4.67-7.82,9.38-11.61,13.94-4,4.83-8.15,9.83-12.09,14.83a15.86,15.86,0,0,1-8.12,5.45c-2.15.69-4.31,1.33-6.47,2a117.24,117.24,0,0,0-15,5.28l-.3.14-.3-.16c-.59-.31-1.28,0-2.21.4a4.23,4.23,0,0,1-1.54.5m27-37c.23,1.78-.87,3-1.84,4-.23.26-.46.51-.68.77l-4.2,5.18c-6,7.39-12.07,15-17.92,22.67a9.25,9.25,0,0,1-1.16,1.19c-1.07,1-1.51,1.49-1.24,1.89a3.13,3.13,0,0,0,1-.36,4,4,0,0,1,3.1-.52,119.55,119.55,0,0,1,14.85-5.21c2.16-.65,4.31-1.29,6.45-2a14.4,14.4,0,0,0,7.48-5c4-5,8.08-10,12.1-14.86,3.79-4.56,7.75-9.26,11.59-13.92a10.08,10.08,0,0,1,8.31-4.13c8.24-.11,16.69-.8,21.89-8.6a1.49,1.49,0,0,0-.19-1.05c-.31-.33-1.16-.33-2-.33h-.16q-25.9-.08-51.74.59-5.36.13-10.71.31l-.09.14a5.51,5.51,0,0,1-2.66,2.45c-1.55,3.41-4,6.19-6.43,8.89-.7.79-1.4,1.58-2.07,2.39a2.73,2.73,0,0,0,1.78.33,5.18,5.18,0,0,1,2,.24l3.09-.42q5.81-.78,11.62-1.48a3.51,3.51,0,0,1,1.5.26c.17.06.34.12.5.16l.68.16c-.06.21-.13.42-.2.64s-.08.34-.12.51a3.33,3.33,0,0,1-.54,1.39l-.49.66a7,7,0,0,1-3.54,3"/><path class="cls-2" d="M341.22,183.56c3-3.41,7-4.47,11.68-4.57,10.45-.23,20.91-.84,31.38-1.27,2.81-.12,3.69.82,2.78,3.29-.71.51-1.68.88-2.07,1.55-2.69,4.72-6.86,7-12.46,6.9-2.58,0-4,1.47-5.35,3.22-4.36,5.58-8.82,11.09-13,16.78-1.42,1.93-4.85,4.12-3.38,6,1.24,1.59,4.83-.21,7.25-1.22,2.89-.42,4.23.36,2.75,3.3-.54.35-1.33.58-1.57,1.08-3.64,7.39-10.75,9.06-18.05,10.57-2.53.53-5.05,1.19-7.53,1.93-9.28,2.79-18.87,4.54-27.87,8.11-1.67-.3-3.57,1.35-5-.6q5.53-7.14,11.16-14.26c4.34-.18,9.21-.27,12.08-3.38a99.31,99.31,0,0,0,15.05-20.56c1.13-1.23,2.28-2.44,3.36-3.7.39-.46,1-1.22.81-1.58-.39-.83-1.4-.68-2.21-.52-1,.23-2.07.55-3.1.83-1.23-.55-2.95,0-3.77-1.48,2-3.69,5.51-6.47,7.07-10.43"/><path class="cls-2" d="M303,240.23a2.86,2.86,0,0,1-2.72-1.21l-.29-.39q5.78-7.45,11.65-14.87l.66,0c4.06-.16,8.65-.33,11.26-3.15a98.92,98.92,0,0,0,15-20.43l.09-.13,1-1c.81-.87,1.61-1.74,2.38-2.64s.69-1,.69-1-.38-.25-1.42,0c-.72.15-1.42.35-2.12.55l-.94.26-.25.07-.23-.1a4.17,4.17,0,0,0-1.21-.25,3.25,3.25,0,0,1-2.86-1.52c-.06-.1-.11-.2-.17-.29s.11-.2.16-.3a31.51,31.51,0,0,1,3.22-4.51,22.82,22.82,0,0,0,3.81-5.84l.12-.19c2.86-3.19,6.62-4.67,12.18-4.8,8.95-.19,18.05-.67,26.87-1.07l4.49-.2c1.11,0,2.64,0,3.4,1,.57.72.59,1.72.06,3.16a1.34,1.34,0,0,0-.07.18l-.16.12c-.24.17-.51.33-.77.48a3.24,3.24,0,0,0-1.11.86c-2.79,4.88-7.17,7.3-13.07,7.24-2.29,0-3.52,1.32-4.8,3-1.59,2-3.2,4.06-4.79,6.09-2.74,3.47-5.55,7.07-8.19,10.67a15.52,15.52,0,0,1-1.57,1.74c-1.54,1.57-2.5,2.66-1.82,3.53.8,1,3.74-.26,5.7-1.1l.91-.37c1.93-.28,3.15,0,3.76.75s.48,1.9-.3,3.46l-.07.15-.15.1c-.19.12-.41.23-.63.34a2.34,2.34,0,0,0-.73.48c-3.92,8-12,9.58-18.5,10.93-2.4.49-4.84,1.12-7.47,1.91-3.64,1.09-7.37,2-11,3A141.47,141.47,0,0,0,306,239.83l-.17.07-.19,0a4.14,4.14,0,0,0-1.55.17c-.36.07-.76.16-1.17.2m-1.35-1.62c.57.51,1.2.4,2.23.17a5.87,5.87,0,0,1,1.88-.2,143.33,143.33,0,0,1,16.84-5.11c3.59-.92,7.31-1.86,10.91-2.95,2.68-.8,5.16-1.44,7.6-1.94,7.89-1.63,14.21-3.38,17.58-10.23a2.69,2.69,0,0,1,1.3-1l.36-.19c.45-1,.58-1.67.34-2-.13-.16-.6-.51-2.4-.26l-.66.28c-2.62,1.13-5.87,2.54-7.3.7s.44-3.66,1.92-5.17a16.43,16.43,0,0,0,1.44-1.59c2.65-3.62,5.47-7.23,8.2-10.7l4.79-6.09c1.38-1.77,3-3.51,5.89-3.48,5.43.07,9.31-2.08,11.87-6.57a4.11,4.11,0,0,1,1.58-1.33c.17-.1.34-.2.5-.31.3-.86.32-1.48.08-1.79s-1.06-.5-2.25-.47l-4.49.2c-8.82.4-17.93.88-26.9,1.08-5.15.12-8.5,1.4-11.11,4.26a24.35,24.35,0,0,1-4,6.06,32.42,32.42,0,0,0-2.9,4c.35.4.86.48,1.65.57a6.12,6.12,0,0,1,1.38.27l.71-.2c.73-.21,1.46-.42,2.21-.58s2.33-.48,3,.89c.25.53,0,1.22-.9,2.23s-1.6,1.8-2.42,2.68l-.9,1a100,100,0,0,1-15.11,20.62c-3,3.23-7.88,3.41-12.2,3.59h0q-5.37,6.78-10.66,13.6"/><polygon class="cls-3" points="478.38 245.12 478.38 245.1 478.36 245.1 478.38 245.12"/><path class="cls-2" d="M622.51,258.53c-7.2-4.17-14.45-8.27-21.67-12.45-11.2-6.5-23.05-12-34-18.93a4.61,4.61,0,0,1-1.31-.25c-1.93-1-5.46-1.81-5.3-3.21.23-1.88,3.64-1.85,5.69-2.53,9.45-3.12,19-6,28.16-10,3.09-1.36,6-2.81,7.52-5.92-2.47-5.46-7.88-8.08-12.62-11.34C568,191.06,547,190,526,188.56c-2-.15-4.06-.25-6.09-.32a1.77,1.77,0,0,0-1.93,1.35h0a1.57,1.57,0,0,0,1.65,1.21,6.14,6.14,0,0,1,3.84,2.57l-.45,2.69-.07.09c0,.76-.51,1.12-1.28,1.2l0,0a1.54,1.54,0,0,0-1.32,1.3l-1.24,1.21c-1.39,3.75-5,5.82-7.63,8.51-8.39,8.55-16,17.72-24.79,25.87l-.9.95a6.92,6.92,0,0,1-3.27,3.68l0,0-1.38,1.31a.6.6,0,0,0,.08-.08l-1.41,1.58c-.47,1.14-1.69,2-1.46,3.4l4,.12c7-2.45,14.33-3.84,21.59-5.43,4.22-.92,7.83-2.4,10.46-5.87a60.59,60.59,0,0,1,4.85-5.18c4.23-4.39,4.24-4.39,10-2.37,19.89,7,39.57,14.41,59.09,22,11.3,4.4,22.45,9.13,34.26,12.09,1.65-.72,1-1.27-.11-2m-89.58-44.37c-.13.09-.37,0-.56,0l.64-.77c.3.26.3.53-.08.76m11-3.76c-3.39,1.71-6.62,3.92-10.84,2.91,2.33-3.53,5.81-6.12,8.53-9.33.67-.79,2-2,1.75-2.44-2.42-4.64,1.22-2.88,3.16-2.66,5.55.65,11.1,1.37,16.62,2.24,1.19.18,3,.24,3.11,1.83s-1.64,1.73-2.79,2.17a11,11,0,0,1-2.61.37,50.58,50.58,0,0,1-16.93,4.91"/><path class="cls-2" d="M622.69,261.16l-.23-.06c-10.64-2.67-20.89-6.82-30.86-10.76L588.12,249c-13.79-5.38-27.89-10.73-41.62-15.74q-8.7-3.18-17.45-6.27c-5.34-1.88-5.35-1.87-9.28,2.2-.48.51-1,1-1.49,1.51a34,34,0,0,0-3.31,3.61c-3,4-7.17,5.32-10.84,6.13l-4.35.93a143.63,143.63,0,0,0-17.18,4.47l-.24,0-4.55-.13c0-.18-.06-.35-.08-.53a3.61,3.61,0,0,1,.91-2.76,6,6,0,0,0,.59-1l.11-.18,1.37-1.53h0l1.37-1.31.39.35c-.08-.15-.15-.3-.22-.45A6.33,6.33,0,0,0,485.2,235l.11-.15c.29-.32.6-.64.9-1,5.75-5.37,11.1-11.25,16.33-16.91,2.73-3,5.57-6,8.46-9,.76-.79,1.62-1.52,2.44-2.24,2.11-1.81,4.1-3.52,5-6.05l.14-.23,1.11-1.09a2.17,2.17,0,0,1,1.59-1.56l0,0,.27-.06c.55-.06.67-.26.69-.62v-.2l.1-.12c.12-.75.25-1.51.37-2.26a5.35,5.35,0,0,0-3.25-2.1,2.15,2.15,0,0,1-1.92-1.07l-.57.15c.1-.36.2-.72.31-1.09A2.42,2.42,0,0,1,520,187.6c2.27.08,4.27.19,6.12.32,7.73.55,15.59,1,23.19,1.56,13,.9,26.53,2,39.75,3.75l.17,0,.14.1c.9.61,1.82,1.21,2.74,1.8,4,2.56,8,5.22,10.12,9.81l.12.26c0,.09-.08.17-.13.25-1.58,3.28-4.62,4.81-7.85,6.23-8.24,3.6-16.93,6.36-25.3,9.1l-2.92.95a16.58,16.58,0,0,1-2,.49c-1.83.36-3.13.68-3.23,1.52-.06.52,1.92,1.31,3,1.73.68.27,1.38.55,1.95.84a2,2,0,0,0,.63.12c.16,0,.33,0,.48.06l.26.1c7,4.43,14.44,8.32,21.62,12.12,4.1,2.17,8.32,4.43,12.39,6.8,5.89,3.41,11.9,6.82,17.68,10.15l4,2.3c.76.44,1.5.93,1.46,1.68s-.77,1.12-1.4,1.39l-.21.1m-98-36.71a19.84,19.84,0,0,1,4.79,1.33q8.78,3.09,17.47,6.27c13.74,5,27.85,10.37,41.65,15.75l3.48,1.36c9.86,3.89,20,8,30.45,10.65a2.78,2.78,0,0,0,.38-.22,3.85,3.85,0,0,0-.75-.51l-4-2.3c-5.78-3.33-11.79-6.74-17.68-10.16-4-2.34-8.27-4.6-12.35-6.76-7.16-3.8-14.6-7.67-21.6-12.11l-.24,0a3,3,0,0,1-1.14-.26,19.6,19.6,0,0,0-1.83-.79c-2-.78-4-1.58-3.82-3.07.21-1.81,2.36-2.24,4.27-2.61.67-.14,1.32-.27,1.85-.44l2.93-1c8.33-2.72,17-5.48,25.16-9,3-1.32,5.65-2.64,7.07-5.36-1.95-4.09-5.61-6.47-9.5-9-.88-.58-1.76-1.14-2.63-1.73-13.12-1.76-26.53-2.83-39.48-3.73-7.61-.52-15.47-1-23.2-1.56-1.84-.13-3.82-.23-6.06-.32a1.09,1.09,0,0,0-1.2.72.86.86,0,0,0,.94.57,6.85,6.85,0,0,1,4.4,2.86l.15.21c-.19,1.06-.39,2.12-.58,3.18A1.81,1.81,0,0,1,522,198l-.14,0a.92.92,0,0,0-.82.8l0,.19-1.28,1.25c-1.07,2.76-3.25,4.63-5.35,6.44-.81.7-1.64,1.42-2.37,2.16-2.88,2.93-5.71,6-8.44,8.94-5.24,5.68-10.62,11.57-16.39,17l-.81.86a7.5,7.5,0,0,1-3.44,3.85l-1.16,1.1c-.45.49-.89,1-1.34,1.49a7.14,7.14,0,0,1-.68,1.11,3.54,3.54,0,0,0-.69,1.33l3.23.09a146,146,0,0,1,17.21-4.46l4.34-.94c4.88-1.06,7.89-2.74,10.06-5.63a38.23,38.23,0,0,1,3.43-3.75c.5-.49,1-1,1.48-1.49,2.78-2.89,3.93-4,5.91-3.85m6.41-9.65L532.5,213a36.88,36.88,0,0,1,5.09-5.76c1.18-1.16,2.41-2.35,3.48-3.62.16-.19.36-.4.56-.62a8.34,8.34,0,0,0,1-1.27c-.88-1.73-1-2.79-.49-3.43.68-.81,2-.5,3.25-.23.41.09.8.18,1.14.22,6.45.75,11.74,1.47,16.65,2.24l.39.06c1.18.16,3.13.43,3.3,2.36s-1.45,2.26-2.52,2.58a6.78,6.78,0,0,0-.68.23,7.16,7.16,0,0,1-2,.34l-.68.05A51,51,0,0,1,544.12,211c-.4.2-.81.41-1.21.63-2.76,1.45-5.57,3-9.07,2.44a1.25,1.25,0,0,1-.53.6h0a1.29,1.29,0,0,1-.83.12l-1.37,0m3.08-1.94c2.93.37,5.43-.94,8-2.32l1.35-.7.25-.07a49.51,49.51,0,0,0,16.69-4.85l.2-.06c.29,0,.58-.06.87-.08a5.41,5.41,0,0,0,1.59-.25c.24-.09.51-.17.78-.25,1.18-.36,1.66-.57,1.6-1.29s-.68-1-2.12-1.18l-.42-.06c-4.89-.77-10.16-1.49-16.6-2.23-.38-.05-.83-.15-1.28-.25s-1.7-.38-1.89-.21c0,0-.25.38.7,2.21.38.73-.37,1.53-1.3,2.54-.19.2-.38.4-.53.58-1.11,1.31-2.36,2.53-3.56,3.71a41.12,41.12,0,0,0-4.38,4.76"/><path class="cls-4" d="M496.62,266.93c1-2.82,2-5.39,2.86-8a1.5,1.5,0,0,1,1.68-1.08q14.82,0,29.63,0c2,0,2.86,1.06,2.77,2.95a7,7,0,0,1-.43,2c-1.76,4.92-3.52,9.83-5.32,14.74-1.21,3.27-3.34,4.75-6.78,4.75-5.17,0-10.33.05-15.5,0a2.1,2.1,0,0,0-2.44,1.65c-.67,2.2-1.52,4.35-2.37,6.77h19.66c2.61,0,2.66,0,1.71,2.46-.83,2.15-.89,5.17-2.63,6.22s-4.49.36-6.8.37q-11.56,0-23.12,0c-2.93,0-4.11-1.3-3.2-4.09,1.82-5.61,3.75-11.19,6-16.65,1-2.51,3.33-3.75,6.15-3.75,5.23,0,10.47,0,15.71,0a2.07,2.07,0,0,0,2.4-1.71,34.93,34.93,0,0,1,1.77-4.83c.74-1.61.12-1.82-1.35-1.8-6,.06-12,0-18,0Z"/><path class="cls-4" d="M523.82,299.71c2.44-3,4.59-5.58,6.65-8.23a2.53,2.53,0,0,1,2.39-.82c4.87,0,9.73-.05,14.59,0,1.4,0,2.18-.33,2.6-1.74.66-2.19,1.51-4.33,2.36-6.71H530.19c.72-2,1.34-3.84,2-5.65,2.08-5.75,4.2-11.48,6.23-17.24a1.85,1.85,0,0,1,2.07-1.49q15.93.06,31.86,0c1.41,0,1.65.35,1.13,1.62-1,2.41-1.23,5.73-3,7s-4.87.39-7.4.41c-4.41,0-8.83,0-13.24,0a1.67,1.67,0,0,0-1.94,1.31,49.74,49.74,0,0,1-1.91,5.25c-.67,1.51-.18,1.79,1.25,1.77,5.09-.05,10.17,0,15.26,0,3.48,0,4.54,1.53,3.37,4.87-1.78,5.06-3.61,10.12-5.45,15.16-.93,2.53-2.79,4.34-5.44,4.38-10.22.16-20.45.07-31.17.07"/><path class="cls-4" d="M468,299.71l11.82-32.78h-7c2.5-3,4.76-5.78,7-8.53a1.42,1.42,0,0,1,1.18-.52h14.78c-2,5.62-4,11-5.92,16.4-2.87,7.92-5.79,15.83-8.62,23.77a2.11,2.11,0,0,1-2.39,1.7c-3.51-.11-7,0-10.87,0"/><path class="cls-5" d="M625.56,281.75c-1.38,1.87-2.49,3.33-3.56,4.82a1.25,1.25,0,0,1-1.13.57h-1.34c-7.81,0-7.81,0-12,7.14H625c-.92,2.06-2.32,3.41-3.36,5-.43.66-1.07.43-1.62.43q-12.22,0-24.43,0c-.58,0-1.28.2-1.64-.43s.26-1.09.58-1.53c3.54-4.81,7.11-9.6,10.66-14.4a3.77,3.77,0,0,1,3.27-1.6h17.15"/><path class="cls-5" d="M594.33,294.35c-.33.62-.44.8-.53,1-1.71,3.56-4.42,4.69-8.42,4.47-6.79-.38-13.61-.1-20.42-.12-.63,0-1.45.28-1.78-.54-.25-.65.37-1.08.71-1.54,3.46-4.69,7-9.36,10.4-14.07a3.67,3.67,0,0,1,3-1.76c5.73-.05,11.46,0,17.6,0l-3.45,4.72a1.37,1.37,0,0,1-1.31.67,10.46,10.46,0,0,0-1.12,0c-7.9,0-7.9,0-12.19,7.21Z"/><path class="cls-1" d="M498,265.59c1-2.82,2-5.39,2.86-8a1.5,1.5,0,0,1,1.68-1.08q14.82,0,29.64,0c2,0,2.85,1.06,2.76,3a7,7,0,0,1-.43,2q-2.62,7.38-5.32,14.73c-1.21,3.28-3.34,4.76-6.78,4.76-5.17,0-10.33.05-15.49,0a2.1,2.1,0,0,0-2.45,1.65c-.67,2.2-1.51,4.35-2.37,6.77h19.66c2.61,0,2.66,0,1.71,2.46-.83,2.15-.88,5.17-2.63,6.22s-4.49.36-6.8.36q-11.56,0-23.12,0c-2.93,0-4.11-1.3-3.2-4.09,1.82-5.61,3.75-11.19,5.95-16.66,1-2.5,3.33-3.74,6.15-3.74,5.23,0,10.48,0,15.71,0a2.07,2.07,0,0,0,2.4-1.71,34.93,34.93,0,0,1,1.77-4.83c.74-1.61.13-1.82-1.35-1.8-6,.06-12,0-18,0Z"/><path class="cls-1" d="M525.16,298.37c2.44-3,4.59-5.58,6.65-8.23a2.54,2.54,0,0,1,2.4-.82c4.86,0,9.72-.05,14.58,0,1.4,0,2.18-.33,2.6-1.74.66-2.19,1.52-4.33,2.36-6.71H531.53c.72-2,1.34-3.84,2-5.65,2.08-5.75,4.2-11.48,6.24-17.24a1.85,1.85,0,0,1,2.06-1.5q15.93.08,31.86,0c1.41,0,1.65.35,1.13,1.62-1,2.41-1.23,5.73-3,7.05s-4.87.39-7.4.41c-4.41,0-8.83,0-13.24,0a1.67,1.67,0,0,0-1.94,1.31,50.57,50.57,0,0,1-1.91,5.25c-.67,1.51-.18,1.79,1.25,1.77,5.09,0,10.17,0,15.26,0,3.48,0,4.54,1.53,3.37,4.87-1.78,5.06-3.61,10.11-5.45,15.16-.92,2.53-2.79,4.34-5.43,4.38-10.23.16-20.46.07-31.18.07"/><path class="cls-1" d="M469.37,298.37c4-11,7.85-21.79,11.82-32.78h-7c2.51-3,4.76-5.78,7-8.53a1.42,1.42,0,0,1,1.18-.52h14.79c-2,5.62-4,11-5.92,16.4-2.88,7.92-5.8,15.83-8.63,23.77a2.1,2.1,0,0,1-2.39,1.7c-3.51-.11-7,0-10.87,0"/><path class="cls-2" d="M626.91,280.41c-1.39,1.87-2.5,3.33-3.57,4.82a1.25,1.25,0,0,1-1.13.57h-1.34c-7.81,0-7.81,0-12,7.14h17.46c-.91,2.06-2.31,3.41-3.36,5-.43.66-1.06.43-1.62.43q-12.22,0-24.43,0c-.58,0-1.28.2-1.64-.43s.26-1.09.59-1.53c3.54-4.81,7.11-9.59,10.65-14.4a3.79,3.79,0,0,1,3.27-1.6h17.16"/><path class="cls-2" d="M595.67,293c-.32.62-.44.8-.53,1-1.71,3.56-4.42,4.7-8.42,4.47-6.79-.38-13.61-.1-20.42-.12-.63,0-1.45.28-1.77-.54-.27-.65.36-1.08.7-1.54,3.46-4.69,7-9.36,10.4-14.07a3.65,3.65,0,0,1,3-1.76c5.73-.06,11.46,0,17.6,0l-3.45,4.71a1.37,1.37,0,0,1-1.31.67,10.46,10.46,0,0,0-1.12,0c-7.9,0-7.9,0-12.19,7.21Z"/></svg>