<?xml version="1.0" encoding="UTF-8"?>
<svg id="Capa_1" xmlns="http://www.w3.org/2000/svg" viewBox="0 0 640 189.19">
  <path d="M30.3,174.55c-3.98,1.97-7.95,3.94-11.93,5.91-1.25-.81-4.28,1.91-3.97-1.97,3.98-1.96,7.96-3.93,11.94-5.89,1.08,1.12,3.11.36,3.96,1.95Z"/>
  <path d="M30.3,174.55c-1.63-.04-3.11-.37-3.96-1.95,14.63-7.59,29.9-14.19,43.73-23.01,16.17-10.32,28.21-25.54,41.21-39.43,5.95-6.35,21.07-9.25,28.07-4.21,1.78,1.28,1.64,2.5.61,4.07-1.78,2.71-3.51,5.45-5.92,9.22,9.48-1.18,16.35-5.87,23.21-9.82,11.09-6.38,21.59-13.78,32.16-21.02,2.22-1.52,5.97-3.45,4.54-6.71-1.39-3.19-5.51-2.03-8.08-1.47-19.9,4.35-41.02,6.23-59.22,14.43-19.46,8.77-38.04,1.58-56.88,4.43,12.86-7.79,27.22-10.88,41.14-14.85,36.09-10.29,73.48-13.97,110.43-19.83,2.58-.41,5.28-.08,7.93-.12,4.98-.08,11.11-.87,12.64,5,1.37,5.25-3.4,9.06-7.48,11.76-37.68,24.86-75.91,48.74-119.72,62-8.96,2.71-17.47,6.03-23.61,13.55-2.72,3.33-5.74,4.71-10.38,2.9-5.96-2.34-11.63.49-17.19,2.58-11.08,4.17-22.16,8.33-33.24,12.49Z"/>
  <path d="M125.18,48.91c8.63-1.12,16.08-2.08,23.54-3.05,2.53-.33,6.18-3.52,7.06,1.1.74,3.86-.8,7.87-5.74,8.93-5.47,1.18-11.11,1.14-16.62,1.8-7.75.92-17.61,6.38-22.87,1.6-6.04-5.48,2.01-14.06,3.51-21.31,3.39-16.33,4.17-16.63,20.91-18.81,9.68-1.26,19.42-2.04,29.5-3.08-.28,6.98-2.39,10.57-10.39,11.1-7.91.53-16.42.63-23.73,4.87,6.29-.07,12.43,1.45,18.56-.58,3.01-1,8.6-2.71,9.32,1.6.86,5.11-3.47,7.58-9.09,7.7-5.88.12-11.74,1.21-17.6,1.92-3.12.38-5.77,1.39-6.36,6.22Z"/>
  <path d="M172.77,52.51c-12.51-.01-13.87-1.52-10.98-13.64,3.43-14.4,8.69-26.94,27.19-26.84,6.13.03,12.25-2.23,18.43-2.74,3.99-.33,9.08-1.7,11.16,3.66,1.05,2.72,1.46,6.44-1.33,8.16-4.02,2.49-8.21,4.97-13.68,2.33-11.9-5.74-23.86-.04-26.71,11.81-.99,4.1-.14,5.45,3.89,5.41,7.54-.09,15.26.71,20.88-6.08,2.61-3.15,6.83-1.73,10.23-2.73,3.45-1.02,3.45,2.31,2.94,4.48-1.37,5.86-4.99,10.45-10.93,11.5-10.3,1.84-20.49,4.66-31.08,4.69Z"/>
  <path d="M517.13,28.85c-1.29,2.66-3.29,4.61-5.97,5.88-1.11-.22-1.78-.87-2-1.97,2.65-1.97,5.3-3.94,7.96-5.91,0,.67,0,1.33,0,2Z"/>
  <path d="M533.02,33.47c3.39-2.87,6.04-6.42,12.46-6.62,1.32-.04,3.18.71,2.5,1.48-2.92,3.34-8.14,4.77-12.95,6.5-2.06.49-2.52-.11-2-1.36Z"/>
  <path d="M623.97,4.19c-31.12,10.31-56.83,31.99-87.68,43.24,2.53-3.64,5.23-7.07,8.7-9.37,5.93-3.93,10.91-8.42,13.83-14.98,3.24-7.3,1.11-10.46-7-9.95-5.03.31-9.65,2.21-14.04,4.5-6.94,3.62-13.77,7.47-20.64,11.22-2.8,1.48-5.02,3.72-7.51,5.6-12.23,12.44-26.82,21.91-40.96,31.95-1.73,1.23-4.22,3.26-6.04.78-1.8-2.44.89-4.05,2.55-5.49,1.73-1.5,3.86-2.47,5.83-3.64,12.93-7.74,25.92-15.37,38.46-23.73,2.83-2.21,5.82-4.26,7.66-7.46-3.73-6.54-8.07-7.27-14.57-2.91-12.83,8.61-26.59,15.9-39.16,24.86-8.2,5.84-13.07,4.21-17.51-3.65-3.64-6.46-8.17-6.68-13.73-2.19-5.36,4.33-11,8.31-16.44,12.53-9.4,7.29-18.74,14.65-28.77,22.51-1.49-6.26,2.58-8.61,4.42-11.76,2.48-4.25,9.63-9.28,6.4-12.39-3.69-3.56-11.09.43-16.36,2.99-3.23,1.57-5.99,4.05-9.05,6-11.99,7.62-24.01,15.19-36.71,23.21.21-5.85,4.79-7.66,6.05-11.21,1.25-3.53,8.01-6.09,4.67-9.26-2.81-2.66-8.52.59-12.66,2.42-.86.38-1.43,1.36-2.23,1.94-12.54,9.03-22.29,21.45-35.9,29.17-2.19,1.24-4.79,3.67-7.21,1.75-2.89-2.3.42-4.66,1.2-6.89,1.47-4.17,4.96-6.86,7.91-9.96,13.27-13.94,26.5-27.92,40.85-43.06-9.39-.75-17.63-.89-23.1,4.31-14.06,13.36-28.68,26.26-40.92,41.41-12.17,15.05-27.16,26.03-46.21,31.31,8.26-6.46,16.86-12.44,23.86-20.3,3-3.37,3.97-7.04,1.92-10.8-2.22-4.08-5.96-2.68-9.64-1.75-20.01,5.04-35.33,17.21-49.16,31.57-5.03,5.22-11.16,11.62-6.8,18.88,4.15,6.9,12.49,3.65,19.03,2.35,12.52-2.48,23.18-9.24,33.95-15.61,4.65-2.75,8.58-5.42,13.01,1.15,4.2,6.22,10.56,4.53,15.86.94,10.61-7.17,22.78-11.98,32.07-21.16,3.42-3.38,5.65-2.57,7.46,2.29,2.34,6.27,6.86,8.37,14.2,6.66,11.95-2.78,19.94-11.01,28.97-17.98,1.8-1.39,3.7-5.49,6.22-1.9,8.15,11.6,15.97,5.05,23.43-.24,13.12-9.31,25.94-19.04,38.78-28.73,2.98-2.25,5.51-3.65,8.38-.05,3.31,4.15.03,5.58-2.86,7.43-8.61,5.48-17.12,11.11-25.71,16.62-11.35,7.29-22.75,14.51-34.1,21.8-1.76,1.13-4.97,1.57-3.07,4.86,1.69,2.94,4.15,2.7,6.78,1.2,1.72-.98,3.54-1.78,5.23-2.81,16.3-9.94,32.66-19.77,48.82-29.92,6.55-4.12,11.7-5.12,15.54,3.2,4.04,8.75,10.49,9.02,17.68,3.92,8.84-6.27,17.38-12.96,26.25-19.18,5.97-4.18,11.01-14.7,20.02-3.21,1.23,1.57,5.73,1.29,8.55.84,5.83-.93,11.64-2.11,16.94-5.06,19-10.57,38.22-20.76,57.05-31.62,13.21-7.62,25.92-16.1,38.85-24.2-.55-.99-1.1-1.98-1.65-2.97ZM244.72,90.24c-4.47,9.89-12.28,11.96-17.76,16.62,3.98-6.33,8.59-11.96,17.76-16.62Z"/>
  <path d="M533.02,32.76c.67.66,1.34,1.33,2,1.99-1.43,1.6-3.28,4.03-5.16,1.86-1.13-1.31,1.45-2.99,3.15-3.85Z"/>
  <path d="M270.37,1.31c-8.49.85-16.94,2.21-25.44,2.85-15.58,1.17-22,11.34-25.54,24.62-3.84,14.38-2.67,15.87,13.04,15.81,6.75.9,13.81-1.45,20.89-2.62,16.4-2.71,25.91-15.73,25.46-32.59-.16-5.9-2.58-8.64-8.4-8.06ZM263.94,17.11c-1.22,5.14-1.27,11.62-7.88,13.37-4.34,1.15-8.69,3.12-15.2,1.84-1.35-.45-7.01,2.54-7.14-2.51-.13-5.13,1.06-11.69,7.4-13.59,5.84-1.74,12.1-2.24,18.21-2.92,2.39-.27,5.22,1.2,4.59,3.81Z"/>
</svg>