<svg id="Capa_1" data-name="Capa 1" xmlns="http://www.w3.org/2000/svg" viewBox="0 0 640 470"><defs><style>.cls-1{fill:#e20613;}.cls-2{fill:#010101;}</style></defs><path d="M383.86,291.75l27.25-17.88h10.44l-4.4,17.89H406.74L403,287.4h7.41l2-8.16-19,12.51Z"/><path d="M419.33,291.76l4.4-17.89h22.72a4.54,4.54,0,0,1,3.12,1.26,3.4,3.4,0,0,1,.87,1.44,3.31,3.31,0,0,1,0,1.85l-2.15,8.74a6.54,6.54,0,0,1-.64,1.59,5.83,5.83,0,0,1-1.22,1.48,6.13,6.13,0,0,1-1.85,1.1,7.1,7.1,0,0,1-2.55.42Zm8.91-4.42H440a1.45,1.45,0,0,0,.57-.68l1.92-7.76a.42.42,0,0,0,0-.28,1.52,1.52,0,0,1-.17-.36H430.48Z"/><path d="M459.29,291.76l-6.38-17.88h7.52l3.87,11.34,9.05-11.34h7.55l-15,17.88Z"/><path d="M482.23,273.88h27.58l-4.4,17.88h-7.83l1.56-6.31H487.2l-1.55,6.31h-7.82Zm18.68,4.39H489l-.68,2.77h11.94Z"/><path d="M540.14,296.43l-21.71-17.08-2,8.07h10.11l-5.87,4.35H507.59l4.4-17.88h10.27l13.08,10.39,2.56-10.39h7.79Z"/><path d="M543.47,291.77l4.4-17.88h27.31a6.55,6.55,0,0,0-.33.76c-.13.35-.28.73-.45,1.16l-.54,1.3a9.63,9.63,0,0,1-.58,1.16H554.61l-2.23,9.08h19.21a15.37,15.37,0,0,1-1.52,1.15c-.73.49-1.47,1-2.24,1.46s-1.47.91-2.11,1.27a4,4,0,0,1-1.2.54Z"/><path d="M572.61,291.78,577,273.9H606.5a8,8,0,0,0-.32.76l-.46,1.16c-.17.43-.35.87-.54,1.3a10.63,10.63,0,0,1-.58,1.17H583.76l-.57,2.29h19.93L602,285H582.11l-.59,2.36h21.39a15.69,15.69,0,0,1-1.52,1.14c-.73.5-1.47,1-2.23,1.47s-1.47.91-2.12,1.27a3.8,3.8,0,0,1-1.2.53Z"/><path d="M245.25,230.39c-.09-1.27-.5-6.07-1.69-6.88,0,0-.4-.31-1.84-.25s-19.56.11-46.1,2.28a12.49,12.49,0,0,0-5,1.45c-2.17,1.31-16,11.14-16,11.14s-.42.29-.38.4.13.12.64,0c.3-.06,8.46-1.95,11.42-1.9a34.91,34.91,0,0,0-6.36,2.65c-2.25,1.4-24.12,25.87-24.12,25.87s-.28.28-.21.51.75.17.75.17l20.51,0,6-8.56-6.38-.1s37.6-6.22,51-11.1a19.14,19.14,0,0,0,6-3.24l11.21-10.36A2.92,2.92,0,0,0,245.25,230.39Zm-21.76,4.05L220.8,237a9,9,0,0,1-3.57,2.05c-3.2.94-23.17,5.27-23.17,5.27l11.13-9.49,26-1.69Z"/><path d="M323.5,223.28c-4.43-.12-18.18,1.4-18.18,1.4-2.29,3.15-26.88,28.63-26.88,28.63l8.38-.08c-11.84,2.71-29.1,1.67-29.67,1.49s-.09-1-.09-1C266.48,240,289,225.12,289,225.12s1.84-1.19,1.81-1.39-.75-.19-.75-.19c-3.73-.21-25.8,2.56-25.8,2.56-5.75,2.11-17.41,11.79-17.41,11.79l12.53-1.1a62.47,62.47,0,0,0-7.17,2.17c-3.42,1.74-13.44,12.6-14.22,13.51a1.56,1.56,0,0,0-.31,1.12c.5,5.16,5.37,12,5.37,12,22.31.89,41.69.61,40,.55a4.88,4.88,0,0,0,3.14-1c10.28-9.09,37.54-41.11,37.54-41.11C324.4,223.26,323.5,223.28,323.5,223.28Z"/><path d="M357.53,253.48c-.34-.64-2.74-.19-2.74-.19-15.07,2.3-35,2.53-35,2.53,2.79-.63,5.06-1.06,6.18-1.41,1.75-.54,3.53-2.77,3.65-2.9A203.46,203.46,0,0,1,360,225.21c.85-.51,2.59-1.13,2.52-1.45s-.7-.15-.7-.15c-3.85.16-23,2-24.89,2.35a9.53,9.53,0,0,0-3.1,1.14,176.79,176.79,0,0,0-16,11.06c-.4.4,1,.21,1,.21,1.73-.22,11.61-1.35,11.61-1.35l-7.63,2.38c-6.6,4.85-22.14,22.87-22.14,22.87s-1.83,2.1-1.33,2.85,2.73.77,2.73.77,38.54.1,41.29,0a7.58,7.58,0,0,0,4.06-1.16,55.39,55.39,0,0,0,9-9C357.32,254.54,357.73,253.84,357.53,253.48Z"/><path d="M426.1,250.56c-2-1.31-15.09-10.38-26.51-15.17,0,0-.44-.16-.39-.35s.8-.28.8-.28,20.33-1.3,34.83-1.6a43.1,43.1,0,0,0,13.32-8.92s.54-.47.27-.73-35.63.16-54,2.36a24.23,24.23,0,0,0-6.74,2.22c-2.82,1.58-12.63,8.46-14.2,9.67,0,0-.41.29-.31.51s1.19.11,1.19.11,7.16-.85,10.92-.95l-6,1.43a.57.57,0,0,0-.34.3c0,.1,0,.22.2.34,0,0,15.52,6.81,22,13.45l7.06.46a59,59,0,0,1-8.25,1c-1.27.06-.42.61-36.57.47l-7.66,9a.93.93,0,0,0-.11,1.17c.46.56,1.74.48,1.74.48l51.65.27a8.88,8.88,0,0,0,4.33-1.52c1.88-1.4,13.11-11,13.11-11A1.71,1.71,0,0,0,426.1,250.56Z"/><path d="M519.63,222.72c-.2-.26-1.63-.2-1.63-.2s-33.32.46-53.87,2.7a12.31,12.31,0,0,0-4.66,1.67c-2.07,1.36-14.92,10.14-15.56,10.74,0,0,9.49-1.08,12.69-1.13l-7.45,2.13s-10.37,8.8-23.35,24.54c0,0-1,1.26-.61,1.88s1.9.72,1.9.72,38.73-.08,48.85-.12a23.68,23.68,0,0,0,6.67-.61,10.51,10.51,0,0,0,3.16-1.92c4-3.09,11.28-10.43,11.28-10.43s.94-.88.75-1.22-2.75.16-4,.3c0,0-24.3,2.43-44.49,3l5.39-1.48s2.76-3.23,3.32-3.43a179.84,179.84,0,0,1,24.84-2.61,9.26,9.26,0,0,0,3.28-.8c1.18-.68,11.69-8.14,11.69-8.14s1.08-.79-.63-.68L464,239.45s3.34-.95,5.35-1.41l5-3.81,30.94-1.58a3.94,3.94,0,0,0,1.88-.55c1-.57,12-8.67,12-8.67S519.83,223,519.63,222.72Z"/><path class="cls-1" d="M520.39,256c8.38-1.77,15.67-3.1,16.68-3.28,4.56-.79,8-2.12,10.81-4.27,3.32-2.56,4.15-4.37,4.13-6.83,0-3.5-6-3.56-6-3.56l-25.19-.27L516,244.27l22-.08s2.57-.07,2.58.91c0,.77-1.61,1.9-14.31,3.94s-16.87,5.28-19.38,7.32-8.67,9.4-8.67,9.4l36.12-.11,4.42-6.34-25.14,0C515.68,257.09,520.39,256,520.39,256Z"/><path class="cls-1" d="M589.32,237.8l-26.68.08a7.43,7.43,0,0,0-6,3.05l-16.33,22.35a1.53,1.53,0,0,0,1.24,2.43l27.1-.08a3.78,3.78,0,0,0,3-1.49l18.67-24.28A1.28,1.28,0,0,0,589.32,237.8Zm-12.63,7L566.4,258.2a2.83,2.83,0,0,1-2.21,1.1l-9,0a.83.83,0,0,1-.68-1.32l9.06-12.26a3.67,3.67,0,0,1,3.39-1.53l9.42,0A.4.4,0,0,1,576.69,244.82Z"/><path class="cls-1" d="M625.46,237.7l-26.67.07a7.43,7.43,0,0,0-6,3l-16.33,22.35a1.53,1.53,0,0,0,1.24,2.43l27.09-.08a3.81,3.81,0,0,0,3-1.48l18.66-24.28A1.28,1.28,0,0,0,625.46,237.7Zm-12.63,7L602.54,258.1a2.79,2.79,0,0,1-2.21,1.09l-9,0a.83.83,0,0,1-.67-1.32l9.06-12.26a3.66,3.66,0,0,1,3.38-1.53l9.42,0A.39.39,0,0,1,612.83,244.71Z"/><polygon class="cls-1" points="36.71 312.9 32.49 323.48 98.71 269.11 96.54 271.44 118.56 253.35 113.54 256.92 131.17 242.35 36.71 312.9"/><path class="cls-1" d="M249.78,171.42l-9.7,1.16L189,204.18l61-32.29A.25.25,0,0,0,249.78,171.42Z"/><path class="cls-1" d="M153.9,266.33c-.51-1.58,2-4.42,2-4.42l17.39-21-2.54-1.8c-1.7-1.35.64-3,.64-3s10.24-7.43,13.58-10a16.87,16.87,0,0,1,7.61-3.62c1.2-.26,8.23-.89,11.83-1.2L310.75,163l-70.6,8-64.62,40.28-.06-18.71-35.85-34.86,4.1,69.71-109,85.26,2.26-3.57-2.36,1.54-21.33,36L146.63,253a1.9,1.9,0,0,0,.8-1.67l-4.38-67.57L155.5,285.69l19.34,28.69-23.69-28.87.5,3,24.48,28.27-.55-48.07-17.72-.49C156.62,268.07,154.42,267.9,153.9,266.33Zm86.18-93.75,9.7-1.16a.25.25,0,0,1,.15.47l-61,32.29ZM118.56,253.35l-22,18.09,2.17-2.33L32.49,323.48l4.22-10.58,94.46-70.55-17.63,14.57Z"/><path class="cls-2" d="M277.92,123.4l-22.44,24.38h9.14l3.16-3.72h8.15l-.5,3.72h8.5l2.63-24.38ZM277,138h-4.32l5.39-6.27Z"/><polygon class="cls-2" points="172.75 147.78 171.28 135.7 171.13 135.7 165.7 147.78 157.73 147.78 169.19 123.41 177.23 123.41 178.63 136.11 178.77 136.11 184.49 123.41 192.46 123.41 181 147.78 172.75 147.78"/><path class="cls-2" d="M210.27,142.77a15,15,0,0,1-3.35,3,15.9,15.9,0,0,1-4.26,1.93,18.3,18.3,0,0,1-5.16.69,15.47,15.47,0,0,1-4.24-.52,7.55,7.55,0,0,1-3-1.5,4.7,4.7,0,0,1-1.5-2.39,6,6,0,0,1,.14-3.2,9.81,9.81,0,0,1,.4-1.12c.16-.42.32-.81.47-1.15l7-15.11h8.11l-6.64,14.08a2.72,2.72,0,0,0-.24.58c-.06.21-.11.39-.16.55a2.62,2.62,0,0,0,.13,2c.31.57,1,.86,2.16.86a4.72,4.72,0,0,0,1.89-.35,4.63,4.63,0,0,0,1.37-.89,6,6,0,0,0,1-1.24q.4-.69.75-1.38l6.76-14.21h8l-7.18,15.42A19.24,19.24,0,0,1,210.27,142.77Z"/><polygon class="cls-2" points="237.79 130.05 229.11 130.05 228.01 132.39 236.3 132.39 233.38 138.59 225.09 138.59 223.89 141.13 233.6 141.13 230.48 147.78 213.05 147.78 224.51 123.41 240.91 123.41 237.79 130.05"/><polygon class="cls-2" points="239.33 147.78 242.75 123.41 251.57 123.41 248.29 138.69 248.44 138.69 260.39 123.41 269.84 123.4 248.47 147.78 239.33 147.78"/></svg>