<svg id="Capa_1" data-name="Capa 1" xmlns="http://www.w3.org/2000/svg" viewBox="0 0 640 470"><path d="M38.81,215.35c-1.51-.57-2.58-1.41-2.09-2,.31-.36,1.27-.62,3.17-.62,6.5,0,103.56,0,106.58,0a38.49,38.49,0,0,1,9.89,1c3.4.93,12.91,4.41,16.15,5.64,2.49.95,4.63,3.49.55,5.57-4.72,2.39-27,13.29-31.46,15.23-3.3,1.42-4.17,1.46-9.27,1.46-6.31,0-18.29.08-21.72.08a32.53,32.53,0,0,0-14,2.71c-5.49,2.62-12.6,6.18-20.79,10.2a32,32,0,0,1-15.07,3.58c-5.8-.12-41.12,0-45.29,0-5.28,0-3-2.43.08-3.82,10.51-4.63,39.27-16.91,47.22-20.32,3.73-1.6,4.65-1.88,7.73-2,3.71-.15,26.58,0,32.46,0,3.18,0,3.75-.18,6.8-1.62s4.33-2.09,8.35-4.1c2.39-1.2,2.35-2.72-3.87-2.78-8.27-.08-46-.08-49.31-.08-3.41,0-3.46.42-8-1.31-5.09-1.94-18.08-6.8-18.08-6.8"/><path d="M325.9,212.75c-3.71,0-95.68-.15-99.23,0s-14.69,1-24.58,5c-8.66,3.52-27.44,12.45-32.54,15.07-2.75,1.42-4.3,3.48-.85,5.18,5.18,2.55,8,3.86,12.14,5.57,3.22,1.34,8.34,2.24,14.14,2.24h57c4.79,0,6.69.16,10.51-1.09,4.25-1.39,17.07-5.58,21.64-7.18,1.82-.64,1.58-1.78-.31-1.78H230.84c-5.18,0-6.24-2.06-4.4-3.4,3.71-2.71,7.72-5.57,10.27-7.19,2.88-1.83,5.49-2.11,11.13-2.24,6.49-.15,45.6-.08,51.32,0a15.74,15.74,0,0,0,6.18-1.08c5.78-2,14.69-5.18,20.72-7.27,2.62-.9,2.46-1.82-.16-1.82"/><path d="M278.77,246.57c-1.91,0-1.55-1.94,1.55-2.63,6.56-1.47,64.6-14.22,69.71-15.3,3.32-.71,2.46-2.49.54-4-4.05-3.21-8.89-7-11.29-9.12s-1.78-2.75,2-2.75H366.1c3.64,0,4,.35,6.34,1.9s3.48,2.4,6.41,4.41a10.15,10.15,0,0,0,8.19,1.62c12.68-1.93,43.59-6.92,50.94-7.93,4.17-.57,5-.88,8.88-.88s34.78-.16,38.49,0c.92,0,.43,1.74-1.47,2.16-17.39,3.87-75.51,15.69-78.91,16.31s-4.48,1.49-1.7,3.32c2.58,1.7,14,8.67,18.25,11.22a.51.51,0,0,1-.26.94l-29.81,0a5.29,5.29,0,0,1-3.55-.85c-4.8-2.78-6.42-3.64-9.51-5.49-2.61-1.56-3.13-2.19-8.19-1.24l-40.35,7.58a30.12,30.12,0,0,1-5.25.77Z"/><path d="M622.29,215.8H512.07a87.35,87.35,0,0,0-19.94,2.08C480,220.54,447.46,227.33,436,230.2c-4,1-3.58,3.64-1.23,5.33,3.74,2.69,7.81,5.69,11.84,8.16,3.25,2,5.2,2.26,9.28,2.26H586.75c11.83,0,14.85-.26,19.47-4.57,8.58-8,14.42-13.09,20.44-19.38,2.08-2.17,1.23-6.2-4.37-6.2M491,242.42l-8.26,0s10.42-9.22,18.68-16.69c3.52-3.19,3.73-3.44-.59-3.43l-8.74,0,9.33-3.11,20.69,0s-14.48,13.71-20.74,19.61c-3.43,3.22-5.35,3.61-10.37,3.62m41.32.46-14.25,0c-8.17,0-9.41-3.18-5-8.45a71.62,71.62,0,0,1,12.3-10.7c6.47-4.08,11.47-4.25,17.48-4.54s7.39-.15,13.44-.06c4.21.06,12.76.35,12.76.35l-9.36,3.26s-6.43-.35-9.95-.38H546c-3.91,0-6.19.4-9.4,2.23A23.84,23.84,0,0,0,532,227.8l17.22,0c9.34,0,11.56,1.83,7.74,6.13-6.36,7.2-9.66,9-24.62,9M612,227A78.11,78.11,0,0,1,601.51,237c-4.62,3.82-9.57,5.55-20.37,5.86-6.63.18-7.67.17-15.09,0-8.3-.17-9-3.63-5.25-8.12a75.57,75.57,0,0,1,12.53-11,27.26,27.26,0,0,1,13.72-4.26,155.49,155.49,0,0,1,20.36,0c8.17.5,7.17,4.63,4.61,7.51"/><path d="M595.28,222.51h-3.36a14.94,14.94,0,0,0-7.65,2.09,53.76,53.76,0,0,0-10.59,9.74c-3.2,3.79-2.45,5.19,1.39,5.18h3.44c1.89,0,6.87.11,10.83-3a74.46,74.46,0,0,0,9.31-8.53c2.87-3,2.5-5.46-3.37-5.45"/><path d="M541.48,231.13h-2.24l-10.7,0a30.73,30.73,0,0,0-2.86,3.2c-1.62,2-3.59,5,2,5h4.12c5.55,0,7.43-.93,11.15-4.36,1.26-1.16,3.18-3.87-1.43-3.86"/></svg>