<svg id="Capa_1" data-name="Capa 1" xmlns="http://www.w3.org/2000/svg" viewBox="0 0 640 470"><defs><style>.cls-1{fill:#ff0001;}.cls-2{fill:gray;}.cls-3,.cls-4{fill:#fff;}.cls-4{fill-rule:evenodd;}</style></defs><path d="M299.86,262.49h101a8.62,8.62,0,0,0-5.69,2c-4.79,3.73-9.6,7.43-14.36,11.18a10.7,10.7,0,0,1-7.38,2.36H281.29Z"/><path d="M221.48,277.81c.83-.66,1.65-1.33,2.48-2l13.66-10.63a2.22,2.22,0,0,0,1.09-1.66c-.33-.8-1.1-.79-1.78-.83-.92,0-1.85,0-2.78,0-4,0-8.05.06-12.08.07H205.19c-2.2,0-4.41,0-6.62,0-2.45,0-4.91-.1-7.36-.1-4.09,0-8.19.1-12.29.13-2.21,0-4.42,0-6.62,0-11.8.07-23.59.16-35.38.19a29.53,29.53,0,0,1-5-.44,8.89,8.89,0,0,1-4.56-2.43,12.37,12.37,0,0,1-2.56-3.39c-2.66-5.13-5.39-10.22-8-15.39a3.78,3.78,0,0,0-3.83-2.22c-1.79,0-3.57.06-5.35.07-3.35,0-6.7.09-10,0a19.55,19.55,0,0,1-4.05-.71c-5.81-1.41-11.6-2.88-17.41-4.32l-35.38-8.81-28.2-7c-1.34-.33-2.69-.62-4-.95a3.62,3.62,0,0,1-.55-.2L8,217c1.12,0,2.24,0,3.36,0,3.48,0,7,.06,10.45,0,7.52-.05,15.05-.14,22.57-.22l8.12-.05q12.5,0,25-.09l27.47-.08c2.68,0,5.35,0,8,0l19,0c2.28,0,4.56-.09,6.84,0,1.21.05,2.49-.14,3.63.57a5.51,5.51,0,0,1,2.11,2.17c1.55,3,3.16,6.05,4.81,9.18.32-.22.62-.38.89-.59q6.43-5.12,12.86-10.24a4.31,4.31,0,0,1,2.72-1c5.27,0,10.55-.07,15.82-.08a3.82,3.82,0,0,1,3.94,2.95c.8,2.53,1.59,5.07,2.39,7.6.11.33.24.65.39,1l7.52-4.86,9.11-5.92a5,5,0,0,1,3.11-.79c1.85.07,3.7,0,5.56,0l28.12,0,23.19,0c5.77,0,11.54-.06,17.31,0a19.22,19.22,0,0,1,6.51,1,10.35,10.35,0,0,1,6.52,6.45c.55,1.51,1,3.05,1.45,4.58.14.44.3.87.47,1.38.33-.19.6-.33.86-.5,4.68-3.1,9.38-6.19,14-9.32a20.49,20.49,0,0,1,5.86-3,19.72,19.72,0,0,1,5.19-.41c2.63,0,5.27-.07,7.91-.06,4.38,0,8.76,0,13.14.07h5.13l17.1,0,17.21,0c3.78,0,7.55,0,11.32,0,4.09,0,8.18.08,12.27.11,2.17,0,4.34,0,6.52,0l16.23.08h8c2,0,4.07,0,6.1,0,1.74,0,3.48.07,5.21.11a3.3,3.3,0,0,0,1.73-.46q10.33-6,20.69-11.87,8.23-4.71,16.49-9.36a23.48,23.48,0,0,1,10.78-3c4.38-.15,8.76-.31,13.13-.34,6.17,0,12.33.07,18.49.1l15,0c3.7,0,7.4,0,11.1,0,6.34,0,12.68.09,19,.13l12.72.05,16.77,0c3.41,0,6.83,0,10.24,0q8,0,16,.1a.66.66,0,0,1,.46.24l-.7.29-11.59,4.34-17.78,6.73q-11.17,4.23-22.32,8.48a13.31,13.31,0,0,1-5,1c-5.66-.06-11.33,0-17,0l-11,0c-4.91,0-9.82,0-14.73-.05-1.57,0-3.13-.14-4.68-.13a8.67,8.67,0,0,0-5,1.17c-.9.59-1.86,1.1-3,1.75l8.78,2c6.36,1.41,12.71,2.84,19.07,4.24l26.79,5.86A9.47,9.47,0,0,1,578,230c1.45,1.18,1.64,2.41.48,3.87a11.16,11.16,0,0,1-3.89,2.88c-5.16,2.55-10.35,5-15.52,7.55-3.21,1.57-6.4,3.18-9.61,4.75-4,1.95-7.94,3.86-11.89,5.83-3.15,1.56-6.26,3.2-9.4,4.78a34.64,34.64,0,0,1-8.14,3.23,26,26,0,0,1-5.25.75c-6.8.14-13.61.18-20.42.19-5.73,0-11.47,0-17.2-.07l-9.49-.05-14.95-.13-11.52-.07-9.17-.05c-4.88,0-9.76-.1-14.63-.13-3.17,0-6.34,0-9.5,0L390,263.15c-4.77,0-9.55,0-14.32-.06l-15.37,0c-3.7,0-7.4,0-11.1,0q-9.93,0-19.86-.1L317,262.86c-3.17,0-6.33.05-9.5,0a8.4,8.4,0,0,0-5.57,2c-4.68,3.65-9.4,7.26-14.06,10.94a10.43,10.43,0,0,1-7.23,2.31c-1.59-.07-3.2,0-4.8,0l-11.54.05c-1.74,0-3.49,0-5.23,0H221.54l-.06-.21"/><path class="cls-1" d="M504.19,234.9,452.7,221.71a5.33,5.33,0,0,1,.49-.39l19.06-10.93q8.75-5,17.51-10a22.78,22.78,0,0,1,11.58-3.22c1.56,0,3.13-.11,4.69-.1,9.12,0,18.24.11,27.36.15,3.92,0,7.84,0,11.76,0,2.28,0,4.55.1,6.83.12,1.42,0,2.84-.08,4.27-.09,1.89,0,3.78,0,5.67,0l33.32.17c3.1,0,6.19,0,9.32.13a9.79,9.79,0,0,1-.92.45q-13.39,5-26.81,10a5.87,5.87,0,0,1-1.86.33q-10.76,0-21.49,0c-3.74,0-7.48,0-11.21,0-5.77,0-11.53-.13-17.29-.13a29.21,29.21,0,0,0-4.56.44,12.53,12.53,0,0,0-4.63,2.06c-3.64,2.3-7.3,4.57-10.95,6.85-.18.11-.34.24-.71.52l66.7,14.74-5.15,2.55-22.37,11c-5.61,2.76-11.19,5.58-16.83,8.28-3,1.43-6,2.71-9.06,4a13.89,13.89,0,0,1-5.92,1.1c-2.16-.05-4.33.08-6.49.07-2.46,0-4.92-.1-7.37-.11l-18.71-.06c-2.21,0-4.41-.11-6.62-.12-1.59,0-3.19.1-4.79.09-7.58,0-15.16-.11-22.74-.16-3.88,0-7.77,0-11.65,0-4.14,0-8.27,0-12.4,0l-32.8-.18c-4.88,0-9.77,0-14.65,0-3.76,0-7.53,0-11.3,0q-17.62-.07-35.25-.17a8.89,8.89,0,0,1-5.09-1.26,6.94,6.94,0,0,1-1.83-1.62c-1.27-1.8-2.48-3.64-3.58-5.55a21.17,21.17,0,0,1-1.26-3.28c-5.78,3.78-11.54,7.78-17.25,11.56h-7.29c-3.67,0-7.34.12-11,.12-3.37,0-6.75-.1-10.12-.13-1.32,0-2.64.12-3.95.11-2.52,0-5-.08-7.56-.1-3.24,0-6.48,0-9.86,0-.74-2.48-1.48-5-2.25-7.55H242c-4.56,0-9.13,0-13.69,0a4.25,4.25,0,0,0-2.56.84c-3.34,2.29-6.72,4.54-10.08,6.8h-9.41c-2.84,0-5.68-.07-8.52-.08-.78,0-1.57.08-2.35.08q-13.14,0-26.28,0a7.24,7.24,0,0,1-4.17-1.09,6.87,6.87,0,0,1-2.65-3.87c-.13-.43-.3-.84-.49-1.38-1.27,1-2.43,2-3.6,2.87-.87.68-1.73,1.37-2.64,2a8.6,8.6,0,0,1-4.92,1.5l-16,0a5.36,5.36,0,0,1-2.47-.56,9.2,9.2,0,0,1-4.29-4.14c-2.88-5.68-5.87-11.29-8.75-17a3.38,3.38,0,0,0-3.37-2.07l-10.16.1c-2.56,0-5.12.11-7.68,0a15.63,15.63,0,0,1-3.22-.61l-20.44-5.09-28.8-7.12c-2.37-.58-4.74-1.15-7.09-1.86l102.56-.34,7.35,14,5.63-4.5c3.85-3.06,7.69-6.13,11.55-9.16a2.19,2.19,0,0,1,1.27-.41c5,0,10.05,0,15.23,0l4.37,13.76c2.71-1.77,5.3-3.47,7.89-5.15q6.36-4.12,12.73-8.22a2.71,2.71,0,0,1,1.38-.41q20.21,0,40.42,0l15.4,0h20a8,8,0,0,1,8,5.91c.94,3,1.83,6,2.75,9.08.06.19.15.38.25.63.5-.31.95-.59,1.38-.88l18.83-12.55a11.56,11.56,0,0,1,6.61-2.05q17.89.06,35.79.07h12.73l17.53,0c2.59,0,5.18,0,7.77,0,2.31,0,4.61.1,6.92.11l32.06.09h12.4a2.48,2.48,0,0,1,1,.15l-.91.34-13.63,4.51c-9.33,3.09-18.67,6.15-28,9.31a23.22,23.22,0,0,0-3.92,2.11c-2.7,1.57-5.38,3.18-8.07,4.78a4.64,4.64,0,0,0-.52.43,7.56,7.56,0,0,0,.82.11l18.93,0c4.95,0,9.91,0,14.86,0,1.6,0,3.19.11,4.78.11,1.81,0,3.62-.08,5.43-.09,1.56,0,3.13.09,4.69.09l24,.07c5.16,0,10.33,0,15.5,0,1.59,0,3.18.07,4.77.15a13,13,0,0,0,6.08-1.36,61.59,61.59,0,0,0,8.59-5l2.59-1.75"/><path class="cls-2" d="M263.05,274c-.59-1-.54-1.3.3-2l7.66-6c.86-.67,1.75-1.34,2.6-2a6,6,0,0,1,4.16-1.33c2.53.05,5.05,0,7.57,0,1.46,0,2.92.07,4.38.06s3-.06,4.48-.08a2,2,0,0,1,1.83.75v.86a3.71,3.71,0,0,1-.46.53l-10.08,7.92a6.73,6.73,0,0,1-4.28,1.38c-3.17,0-6.33,0-9.5,0-1.92,0-3.84,0-5.76,0-1,0-1.92-.09-2.9-.14m17.89-3.41,5.57-4.3-.91-.05c-2.24,0-4.47-.11-6.7-.1a2.27,2.27,0,0,0-1.26.43c-1.55,1.13-3.06,2.32-4.58,3.49-.17.13-.31.29-.57.53Z"/><path class="cls-2" d="M232.55,274.06,247,262.76h10.51c-5,3.86-9.87,7.65-14.57,11.3Z"/><path class="cls-2" d="M271.42,263,257.17,274H246.73c4.94-3.85,9.7-7.56,14.41-11.25h10.18l.1.19"/><path d="M294.19,238.71l4.64-3.08L316.23,224a10.2,10.2,0,0,1,6-1.83c1.84,0,3.69-.09,5.54-.08,4.33,0,8.67.08,13,.11,3.07,0,6.13,0,9.19,0l30.27,0c5.09,0,10.19,0,15.28,0,4.59,0,9.18.11,13.77.12,9.33,0,18.66,0,28,.06a.68.68,0,0,1,.44.16l-2.16.75-23.25,7.7c-2.42.8-4.86,1.56-7.26,2.44a19.44,19.44,0,0,0-3.12,1.58q-7.29,4.35-14.55,8.73l-.55.36c.42,0,.63,0,.84,0h6.61l25.67,0,7.8,0a1.8,1.8,0,0,1,.94.25c-.89.32-1.78.66-2.67,1q-16.63,5.82-33.27,11.62a6.35,6.35,0,0,1-2.07.36q-12.45,0-24.91,0c-3.62,0-7.25-.1-10.87-.12-1.6,0-3.2.1-4.8.09-2.55,0-5.12-.1-7.68-.12-5.13,0-10.26,0-15.4,0a14.94,14.94,0,0,1-3.25-.43,4.36,4.36,0,0,1-2.65-1.86c-1-1.53-2.1-3-3.08-4.61a7.71,7.71,0,0,1-1.31-4.23,18.89,18.89,0,0,0-.23-2L297,257.3h-8.88l-5.45,0c-2.92,0-5.83-.09-8.74-.09-2.21,0-4.42.09-6.62.11s-4.13,0-6.18,0c-2.45,0-4.9-.08-7.35-.1-1.45,0-2.9,0-4.5,0-.74-2.42-1.49-4.92-2.26-7.48H226.48l-11.24,7.5-10.44.11c-1.06,0-2.12,0-3.18,0-1.57,0-3.13-.11-4.69-.1-3.67,0-7.33.1-11,.11-5.59,0-11.19,0-16.79.05A4.84,4.84,0,0,1,164,253.6c-.39-1.24-.79-2.48-1.22-3.87l-3,2.38-4.25,3.4a8.14,8.14,0,0,1-5.33,1.84c-5,0-10,0-15.07,0a5.77,5.77,0,0,1-5.37-3.25c-2.23-4.14-4.36-8.33-6.52-12.5-.86-1.67-1.77-3.32-2.56-5a4.85,4.85,0,0,0-4.86-3c-2.42,0-4.84.11-7.26.13-1.28,0-2.56-.11-3.84-.1-1.74,0-3.49,0-5.23.13a18.16,18.16,0,0,1-5.44-.87l-31.1-7.67-9.49-2.36a2.18,2.18,0,0,1-.68-.31c29-.46,58.05-.13,87.14-.47l7.82,15,18.85-15h14.18l4.61,14.64c.42-.26.76-.44,1.08-.65q10.47-6.8,20.94-13.61a2.56,2.56,0,0,1,1.49-.45q8.34,0,16.68,0h36.89c7.24,0,14.47.09,21.71,0a6.51,6.51,0,0,1,6.51,5c1.12,3.69,2.18,7.4,3.27,11.11a6,6,0,0,0,.27.64"/><path class="cls-3" d="M193.63,254.39c0,.06,0,.13,0,.2h20.74l30.68-20.52,2.06,7.05-15.62,5.76c0,.07,0,.13.05.2h17.35l2.22,7.49h20c-2.34-7.91-4.65-15.74-7-23.67h5.47c2.34,7.88,4.68,15.76,7.05,23.76h5.57c2.57,0,5.14,0,7.7-.06,1.81,0,3.63,0,5.44.05a2.4,2.4,0,0,0,1.49-.46q5.61-3.81,11.24-7.59l30.33-20.31,2.12-1.46c-.41,0-.62-.06-.83-.06h-6.2c-3.45,0-6.91,0-10.36,0a17.43,17.43,0,0,0-3.07.25,10.73,10.73,0,0,0-4.33,2.2c-.95.7-1.85,1.45-2.83,2.1q-9.84,6.61-19.69,13.18c-.19.13-.4.22-.64.35-.11-.32-.19-.55-.26-.79-1.38-4.66-2.78-9.31-4.13-14-.65-2.24-1.87-3.55-4.63-3.47-4.45.13-8.91,0-13.36,0H257.36l-10.58,0h-7.46l-45.69,29.79"/><path class="cls-3" d="M138.41,224.87c-1-.27-63.56,0-64.49.27l1.19.33,19.41,4.86A20.7,20.7,0,0,0,98,231c1.73.12,3.49.06,5.23.05,4.24,0,8.48-.07,12.72-.06a7.39,7.39,0,0,1,6.9,4.19c1.38,2.57,2.71,5.17,4,7.75q2.57,4.92,5.11,9.85a3.28,3.28,0,0,0,3.24,2c5-.08,9.9-.08,14.86-.06a6.13,6.13,0,0,0,4-1.41c3.1-2.51,6.23-5,9.36-7.46.2-.17.44-.29.72-.48.12.34.2.57.27.8.63,2,1.29,4.07,1.85,6.12a2.87,2.87,0,0,0,3.14,2.32c2.6,0,5.19,0,7.79,0h.86c1.56,0,3.12,0,4.68-.06a7.74,7.74,0,0,0,4.07-1.46c1.68-1.13,3.36-2.27,5.07-3.37l37.62-24.37.83-.56a12.08,12.08,0,0,0-2.63-.19c-6,0-12,0-18,0a3.18,3.18,0,0,0-1.79.55q-11.43,7.47-22.89,14.9l-1.14.72-5.11-16.13H167.49l-20.61,16.4-8.47-16.19"/><path class="cls-3" d="M348.42,247.29c-1.46-1.09-1.48-2-.14-2.91,1-.7,2-1.37,3-2,5.15-3.43,10.31-6.84,15.44-10.3a5.09,5.09,0,0,1,3-1c4.94.06,9.89.09,14.84.12,4.09,0,8.18,0,12.28,0a6.46,6.46,0,0,0,1.56-.27L413.32,227l6.83-1.82a.79.79,0,0,0-.44-.13l-25.54-.12-11.63-.05-17.31,0-9.62,0H350q-14.66,9.8-29.23,19.53a2.8,2.8,0,0,0-.88,4,50.26,50.26,0,0,0,3,4.76,3.9,3.9,0,0,0,3.4,1.67c2.06,0,4.13,0,6.2,0l31.84.09c4.63,0,9.26,0,13.89,0,1.49,0,3,.07,4.48.06a5.81,5.81,0,0,0,1.77-.21c5.59-1.74,11.17-3.52,16.75-5.29l5.67-1.81c0-.07,0-.14,0-.21h-9.08c-5.12,0-10.24,0-15.37-.07l-15.49,0h-18.5Z"/><path class="cls-3" d="M392.84,236.57c0-.07,0-.14,0-.22H364.66L357,241.26a4.23,4.23,0,0,0,.57.1c1.92,0,3.84.1,5.76.11q9.34,0,18.7,0a3,3,0,0,0,1.22-.27c2-1,4-2,6.05-2.93l3.51-1.71"/><path class="cls-4" d="M317.19,265.46a9.2,9.2,0,0,0-7.11,3.4c-.44.68-1.34,1.67-.38,2.33a6.82,6.82,0,0,0,3.31.48l19,0c.73,0,.65.48.12.66s-4.86,1.91-7.49,1.95c-7.16.12-18.28,0-21.59,0-3.09,0-7.35-1.17-4.3-4.84a20.87,20.87,0,0,1,6.39-5.2c3.25-1.33,6.82-1.35,10.27-1.53h16.49c1.82.16,3.34,1.39,4.92,2.22.22.2.12.41-.15.51-3.69.05-15.89,0-19.51,0"/><path class="cls-4" d="M378.65,263.88c-1.28-1.16-3.26-1.08-4.9-1.15H340.57a.6.6,0,0,0-.52.3l-6.15,10.32a.6.6,0,0,0,.52.91c5.73,0,24.4,0,31.43,0a15.62,15.62,0,0,0,9.92-4.37c1.29-1.5,4.33-3.88,2.88-6m-16,5.45a19.27,19.27,0,0,1-7.14,1.31h-9.84l2.76-4.66h15.16c.43.06,1,.08,1.22.55.49,1.36-1.11,2.36-2.16,2.79"/></svg>