<svg id="Capa_1" data-name="Capa 1" xmlns="http://www.w3.org/2000/svg" viewBox="0 0 640 470"><path d="M525.84,217c3.54,1.32,7.08,2.68,10.64,4q37.21,13.28,74.45,26.52a7.09,7.09,0,0,1,1.82.8,16,16,0,0,1,1.82,1.77c-.76.6-1.51,1.7-2.29,1.72a83.27,83.27,0,0,1-8.35-.35c-23.36-1.65-46.73-3.05-70-5.18-6-.54-11.75-3.24-17.51-5.24-20.24-7-40.4-14.23-60.66-21.2-2.79-1-3.49-2-2.65-4.89,2.53-8.62,2.43-8.51,11.36-8.7,7.72-.16,15.52,0,23.1-1.23,6-.95,11.75-3.69,17.61-5.63l-.16-1.63a18.32,18.32,0,0,0-3.71-.78c-16.4,0-32.8.06-49.19,0-3.29,0-4.4.95-4.36,4.32.17,12.8,0,25.61.14,38.41,0,3.7-.81,5.15-4.83,5.08-13.46-.23-26.93-.21-40.39,0-3.53.06-4.27-1.3-4.24-4.43.12-12.27.05-24.54.05-36.81v-4.75c-5.15.52-7.14,2.16-7.41,6.36-.35,5.44-.45,10.9-.56,16.35-.11,6.17-1.23,8.23-6.86,10.25-15,5.39-30.11,10.82-46.14,12.48a193.1,193.1,0,0,1-19.51,1.2q-142.57.1-285.15.05c-8.43,0-9.28-1.22-6-9.05a178.06,178.06,0,0,1,7.71-16.64,15.17,15.17,0,0,1,6.34-6.28c18-8.18,36.14-16.19,54.43-23.77a39.11,39.11,0,0,1,14.4-2.63c32-.23,64-.12,96-.11,5.26,0,5.26,0,5.27,5.76,0,5.49-.09,5.54-5.15,5.62-16.24.25-32.51.06-48.71,1.06-6,.36-12,3.05-17.69,5.52-14.37,6.29-28.53,13.05-42.78,19.62-.48.22-1.16.28-1.44.65-1.07,1.39-2,2.87-3,4.32,1.4.47,2.81,1.35,4.22,1.35,38.66.08,77.32,0,116,.12,3.64,0,4.85-1.08,4.78-4.82-.22-11.46,0-22.93-.12-34.4,0-3.41.65-4.9,4.62-4.89q171.38.17,342.74.09c5.79,0,6.73,1.6,3.93,6.64-8.24,14.82-9.21,15.49-26,18.41-4.2.73-8.39,1.55-12.56,2.42a35.51,35.51,0,0,0-4,1.32Zm-183-17.77-.16-1.8a18.69,18.69,0,0,0-3.19-.55c-23.33,0-46.66.06-70,0-3,0-4.26,1-4.18,4.18.19,8.39.22,16.8,0,25.2-.09,3.51,1,4.69,4.54,4.64,11.6-.15,23.21-.39,34.79,0,11.4.42,21.83-2.54,32-7.28,2-.91,3.89-1.91,5.83-2.86l-.27-1.47H269.48c1.79-4.41,3-7.74,4.54-10.91a4,4,0,0,1,2.87-1.6c3.7-.35,7.43-.45,11.15-.59,11.7-.45,23.46-.31,35.07-1.53C329.81,204,336.27,201.08,342.84,199.18Z"/><path d="M393.41,283c4.64-5.6,8.83-10.5,12.81-15.56,2.53-3.19,4.68-6.69,7.17-9.92a3.81,3.81,0,0,1,2.69-1c19.06-.16,38.12-.35,57.17-.22,2.67,0,5.34,1.7,8,2.61a61.93,61.93,0,0,1-3.73,7.14c-2.36,3.44-6.06,4.56-10,4.92-4.66.43-4.91,1-2.25,4.93,1.31,1.95,2.74,3.82,4.41,6.13a19.45,19.45,0,0,1-2.88.47c-7.33,0-14.67-.08-22,.08-2.81.06-4.45-.82-5.43-3.53-3.67-10.21-9.11-10.18-14-1.72-3,5.17-6.66,5.42-11.42,5.26-3.31-.11-6.64.35-10,.43S397.38,283,393.41,283Zm60.41-20.51c-6.47-3-16.56-1.26-18.2,3.71C441.83,265.15,448.31,268.73,453.82,262.51Z"/><path d="M348.79,283.29c-6.79,0-13.58,0-20.37,0a12.37,12.37,0,0,1-4-.18c-2.26-.81-5.31-1.5-6.24-3.21-.75-1.39.77-4.41,1.91-6.34,1.55-2.6,3.87-4.73,5.57-7.26a18.07,18.07,0,0,1,13.17-8.11A145.34,145.34,0,0,1,355.54,257c12.49-.17,25-.07,37.48,0a14.07,14.07,0,0,1,4.3.78c3.12,1,4.14,3.52,2.26,6.23a113.09,113.09,0,0,1-9.64,12.7c-4.64,5-11.21,6-17.6,6.27-7.83.37-15.7.09-23.55.09Zm23.9-20.58c-5.45,0-10.79,0-16.13.05a3.09,3.09,0,0,0-2,1.12c-3.46,4.29-6.84,8.65-10.33,13.08C355.21,281.88,369.05,274.9,372.69,262.71Z"/><path d="M274.12,283.77c-9.95,0-19.91.18-29.85-.13-2.23-.07-5.33-1.31-6.29-3-.75-1.31.71-4.55,2.05-6.26,3.5-4.47,6.86-9.48,11.44-12.54,3.81-2.55,9.22-3.48,14-3.67,14.48-.6,29-.55,43.48-.64a34.94,34.94,0,0,1,7.9.84c2.65.61,4.67,2.63,3,5.27-5.24,8.07-9.68,17.48-20.61,19.07-7.06,1-14.3.78-21.47,1.08-1.19,0-2.39,0-3.59,0ZM294,263.24c-6.67,0-12.16-.66-17.36.29-2.38.44-4.27,4-6.24,6.22-2.1,2.41-4,5-6.75,8.39,6.95,0,12.47,0,18-.05a3,3,0,0,0,2-1.18C286.83,272.74,290,268.51,294,263.24Z"/><path d="M244.21,258.44c-2,3.53-4,5.21-8.28,5-12.91-.51-25.85-.35-38.77-.19-1.66,0-3.29,1.56-4.93,2.39l.3,1.11a10.49,10.49,0,0,0,2.4.58c10.26-.06,20.53-.37,30.78-.12,2.78.07,5.51,1.83,8.27,2.81-1.2,2.39-2.14,5-3.67,7.15-4.25,6.06-11,6.87-17.51,7-19.71.45-39.43.45-59.15.6a5.15,5.15,0,0,1-1.44-.39c1.69-5.47,3-6,8.2-5.36a118.87,118.87,0,0,0,14.75.41c7.59-.07,15.17-.5,22.75-.43,4.22,0,6.19-2.31,8-5.91H160.53c4-4.77,7.76-9.47,11.76-14,.63-.71,2.19-.84,3.33-.85q32.58-.19,65.18-.28A30.06,30.06,0,0,1,244.21,258.44Z"/></svg>