<svg id="Capa_1" data-name="Capa 1" xmlns="http://www.w3.org/2000/svg" viewBox="0 0 640 470"><path d="M175.89,188.68c-.89.35-1.78.73-2.69,1-7.65,2.67-15.28,5.41-23,7.93a24.44,24.44,0,0,1-7.2,1.17c-16.28.1-32.56,0-48.84.1a14.6,14.6,0,0,0-5.52,1.2c-5.43,2.36-10.82,4.83-16.09,7.53a17.93,17.93,0,0,0-5.13,4.18,85.82,85.82,0,0,0-5.66,7.68c-1.24,1.79-.68,2.79,1.52,3,.54.05,1.1,0,1.64,0,24.25,0,48.49,0,72.73,0a4.41,4.41,0,0,0,4.05-2c3.47-4.8,7.13-9.45,10.64-14.21a12.62,12.62,0,0,1,6.5-4.7c12.22-4,24.37-8.18,36.62-12.08a32.71,32.71,0,0,1,9.65-1.58c31.1-.1,62.2,0,93.3-.05,1.9,0,3.76,0,4.78,1.92s.41,3.67-.81,5.31c-2.12,2.85-4.12,5.78-6.33,8.55-3,3.78-7.16,5.12-11.86,5.43.69.09,1.39.12,2.06.27,2.85.62,3.88,2.9,2.19,5.3-3.23,4.62-6.45,9.27-10,13.65-3.2,3.94-7.75,5.63-12.77,6-1,.08-2,.05-3,.05H16a17.82,17.82,0,0,1-2.74-.07c-2.55-.41-4.11-3.05-2.7-5.07,5.16-7.37,10.33-14.75,15.88-21.83,3.2-4.1,8-6.27,12.89-7.91,10.87-3.62,21.73-7.28,32.62-10.86a13.83,13.83,0,0,1,4.27-.74q48.84-.08,97.69,0c.62,0,1.24.07,1.86.11Zm24.49,25.86-.14-.56a3.93,3.93,0,0,1,.83-.61c11.86-4.58,23.75-8.93,36.86-7.25,1.62.2,3.31-.14,4.93.06,3.18.39,5.76-.48,7.57-3.16a27.21,27.21,0,0,0,1.61-3.19c-1.12-.41-2.24-1.15-3.37-1.17-8.14-.1-16.28.16-24.41-.12a36.86,36.86,0,0,0-15.93,3c-8.63,3.6-17.88,6.13-22.57,15.4-.33.64-1,1.12-1.29,1.76-.54,1.06-.93,2.19-1.38,3.29a14,14,0,0,0,3.29.8c14.08.06,28.18-.23,42.25.19,4.87.14,8-1.71,10.65-5.13a3.15,3.15,0,0,0,.62-2.39c-.11-.45-1.29-.86-2-.88-3.2-.1-6.4-.05-9.61-.05Z"/><path d="M489.63,187.91h39a21.58,21.58,0,0,1,3,.11c1.62.24,2.3,1.18,1.42,2.68a16.12,16.12,0,0,1-2.31,3c-10.37,10.91-20.8,21.78-31.15,32.7-5.65,5.95-12.63,8.28-20.7,8.26-23.87-.06-47.75,0-71.63-.06-1.77,0-3.54-.79-5.31-1.21.94-1.58,1.6-3.42,2.85-4.69,11.71-11.91,23.59-23.66,35.27-35.6a16,16,0,0,1,12.8-5.33C465.11,188.16,477.37,187.91,489.63,187.91Zm-3.13,12.62c-1.89-.1-2.88-.2-3.87-.2-5.57,0-11.15.13-16.71-.07a8.69,8.69,0,0,0-6.89,2.62q-8.75,8.84-17.44,17.72c-.21.2-.24.57-.31.76,7.62,0,15.09,0,22.56-.06a4.79,4.79,0,0,0,2.82-1.39c5.83-5.51,11.59-11.08,17.36-16.65C484.71,202.6,485.31,201.85,486.5,200.53Z"/><path d="M586.36,187.92c13.26,0,26.53,0,39.79.06,1.29,0,2.57.81,3.85,1.24-.59,1.24-.92,2.74-1.83,3.7-10.45,11.09-21,22-31.49,33.13-5.75,6.11-12.76,8.67-21.07,8.64-23.87-.1-47.74,0-71.61,0a27.55,27.55,0,0,1-3-.13c-2.67-.31-3.28-1.51-1.42-3.5,4.43-4.72,9.05-9.26,13.6-13.87,7.89-8,15.86-15.9,23.65-24,3.47-3.61,7.19-5.51,12.5-5.34,12.33.39,24.69.12,37,.12Zm-3.49,12.85a16.48,16.48,0,0,0-2.3-.43c-6.67,0-13.34-.05-20,.07a5.11,5.11,0,0,0-3.16,1.3c-6.45,6.31-12.79,12.71-19.16,19.1-.09.09,0,.33,0,.57a2.14,2.14,0,0,0,.69.28c7.31-.1,14.62-.18,21.92-.38a4,4,0,0,0,2.34-1.16c6-5.66,11.84-11.37,17.73-17.08C581.48,202.45,582,201.76,582.87,200.77Z"/><path d="M347.58,199.61c3.48-3.29,6.78-6.81,10.52-9.77a10.6,10.6,0,0,1,6.13-1.83c23-.14,46.08-.11,69.13-.12a4,4,0,0,1,1.09.07c.83.23,1.63.53,2.45.81a9,9,0,0,1-1.14,2.81c-2.21,2.42-4.6,4.68-6.93,7-10.5,10.4-21.06,20.76-31.48,31.23a16,16,0,0,1-12.18,5c-22.87-.16-45.73-.06-68.59-.06h-3.84c6.07-7.25,11.69-13.68,21.81-13.4,9.87.27,19.75,0,29.63-.06,4.63,0,6.58-1,9.71-4.77H331.83c2.16-5.51,9.86-10.92,15.34-10.93,10.42,0,20.85-.17,31.27.09,4.51.11,7.67-1.62,10.42-5.29H348.14Z"/><path d="M149.34,279.32l15.14-20.79h-38.4a3.8,3.8,0,0,1,0-.91c7.13-2.55,13.8-6.2,21.82-6.14,29.73.23,59.45.09,89.18.09h4L226.7,271.63c5.71,1.92,10.05.57,13.45-4,2.49-3.36,4.95-6.75,7.6-10a4.92,4.92,0,0,1,3.11-1.59c3.07-.21,6.17-.07,10-.07-3.85,5.5-7.36,10.52-11.32,16.2a89,89,0,0,0,9.58-.12c1-.11,2-1.44,2.74-2.42,4.11-5.44,8.1-11,12.23-16.4a4,4,0,0,1,2.58-1.57c7.23-.12,14.45-.06,21.68,0a3.81,3.81,0,0,1,.95.34c-.42.69-.73,1.3-1.14,1.85-5.1,6.86-10.24,13.7-15.33,20.57a12.17,12.17,0,0,1-10.29,5.27c-9.42,0-18.85.12-28.26-.08-2,0-4-1.21-6.65-2.06-2.39,2.33-6.22,2.22-10.09,2.18-7.68-.08-15.37,0-23-.08a19.22,19.22,0,0,1-4.29-1.06,18.25,18.25,0,0,1,1.57-4c3-4.32,6.25-8.5,9.37-12.75.62-.84,1.12-1.77,2-3.14-1.37-.15-2.22-.32-3.06-.32-5.49,0-11-.14-16.46.07a5.66,5.66,0,0,0-3.77,1.95c-4.17,5.4-8.16,10.94-12.13,16.49a6.21,6.21,0,0,1-5.73,2.91c-6.3-.19-12.62,0-18.93-.07C152,279.63,151.07,279.47,149.34,279.32Z"/><path d="M451.21,280.17a6.36,6.36,0,0,1,.48-1.55c3.52-5,7.05-9.94,10.65-14.86a4.58,4.58,0,0,1,2-1.34q13.42-5,26.88-10a8.94,8.94,0,0,1,3-.35q51.32,0,102.65,0a13.89,13.89,0,0,1,3.49,1,16.85,16.85,0,0,1-1.39,3.32c-1.85,2.69-3.88,5.27-5.81,7.91-2.24,3.07-5,4.85-9.06,4.59a38,38,0,0,0-8.7.45l25.28,12a9.77,9.77,0,0,1-2.57.81q-19.32-.87-38.63-1.87a4.75,4.75,0,0,1-2.3-.72c-7.45-5.07-14.87-10.19-22.38-16.08a11.27,11.27,0,0,1,2.61-.63c9-.05,17.93-.15,26.9,0,2.9.06,4.27-1.27,5.52-4.1h-3.49c-20,0-39.89.14-59.83-.1-5-.06-9.08,2-13.37,4.1h34c0,.42.06.7,0,.73-5.09,2.32-10,5.19-15.85,5.29-7.68.13-15.38.17-23.05,0-2.91-.08-4.65.82-5.6,3.85h47.82l.17.63c-.75.33-1.49.71-2.27,1-5,1.84-10.09,3.67-15.16,5.44a9.7,9.7,0,0,1-3.18.61q-28.27.06-56.54,0C452.86,280.36,452.24,280.26,451.21,280.17Z"/><path d="M479.23,252.85c-1.67.61-3.4,1.11-5,1.85A46.64,46.64,0,0,1,450,258.82a4.73,4.73,0,0,0-4.75,2.36c-3.88,5.51-8,10.83-11.92,16.32a6,6,0,0,1-5.63,2.94c-7.4-.2-14.81-.07-23.1-.07l15.5-21.26c-1.68-.13-2.7-.26-3.72-.27-16.56,0-33.12.07-49.68-.06-3.08,0-4.56,1.54-6.33,4.27H364c12,0,24,0,36,0a13.18,13.18,0,0,1,3.46,1,15.33,15.33,0,0,1-1.3,3.11c-2.32,3.27-4.82,6.4-7.14,9.66a7.74,7.74,0,0,1-6.93,3.55c-21.77-.08-43.55,0-65.32,0h-2.45l-.23-.51c1.27-.7,2.58-1.34,3.8-2.12,6.5-4.17,13.53-5.59,21.28-5.13,8.29.48,16.65,0,25,.18,2.82.07,4.48-.88,5.55-3.84-1.12-.1-2.12-.25-3.13-.26-11.89,0-23.79,0-35.68-.05a13.46,13.46,0,0,1-3.48-1,14.49,14.49,0,0,1,1.21-3.35c1.83-2.72,3.85-5.3,5.79-7.95a9.2,9.2,0,0,1,7.81-4.25q64.77.06,129.55,0c.45,0,.89,0,1.33.06Z"/><path d="M288,279.88c2.9-4,5.59-7.75,8.31-11.48,3.43-4.7,6.9-9.37,10.3-14.09a4.84,4.84,0,0,1,4.35-2.24c7.65.1,15.31,0,23.4,0a26.91,26.91,0,0,1-1.36,2.38c-5.84,8-11.67,16-17.62,23.94a4.62,4.62,0,0,1-3,1.85c-7.68.15-15.36.08-23,.06A7,7,0,0,1,288,279.88Z"/></svg>