<svg id="Capa_1" data-name="Capa 1" xmlns="http://www.w3.org/2000/svg" viewBox="0 0 640 470"><defs><style>.cls-1{stroke:#fff;stroke-miterlimit:10;stroke-width:0.22px;}</style></defs><path class="cls-1" d="M77.14,206.59c-10.12.22-27.93,0-27.93,0S47.67,198,58.45,198H95.83c2,0,7-.88,7-7,0-4.67-3.08-4.67-3.08-4.67H62a25.83,25.83,0,0,0-17.37,7.7c-7.92,7.92-8.14,16.71-5.72,20S49,218,49,218H72.08s6.6-1.1,4.18,2.64-4.18,5.72-12.32,5.72H28.76S23,229,22.6,233.2s4.18,5.28,5.28,5.28H64.6c2.81,0,13.64-.88,20.46-12.75,5.71-9.68,3.29-13.31,3.29-13.31S87.25,206.38,77.14,206.59Z"/><path class="cls-1" d="M613.86,194H572.51a17.18,17.18,0,0,0,.66-3.68c0-1.44-.77-4.35-3.63-4.35s-5.88,1.76-9.4,7.86c-9.95.11-13,0-13,0s-6.37,2-6.37,7,3.46,5.11,3.46,5.11h8.63s-7.36,11.49-8.46,20.18H518.63s3.68-6.66,3.85-10.51a8.89,8.89,0,0,0-9-8.35H503.29L511.65,192a4.1,4.1,0,0,0-2.09-5.5c-3.8-2-7.59,2.37-8.58,4.07S490.92,209,490.92,209s-6.05,11.43-7,12.92-1.49,4.23-5.66,4.23H456.83s5.06-9.45,6.22-11.71,2.91-5.83-.22-8.52c-4.68-2.75-8.31,2.53-8.31,2.53s-3.24-1.93-9.89-1.93-16.55,2.75-21.56,9.13-5.55,10.45-5.55,10.45H392.4s-1.87-1.65-.5-5.28,4.07-8.63,4-10.06-1.1-3.52-4.45-3.85-5.23,2.09-8.36,7.37c-3.57,5.44-6.32,9.95-11.38,11.93H342.53s.6-5.28,4.62-12.48,11.32-18.48,13.14-21.72a4.11,4.11,0,0,0-1.93-5.28c-2.91-1.7-5.55-1.26-8.79,3.47s-6.67,10-14.08,23.42c-1.92,5-4.18,9.89-3.85,12.59-4.62-.06-21.94,0-21.94,0s-2-.44-2-2.15,2.3-7.42,5-11.93a4,4,0,0,0-3.8-5.55H290.19s-3.58-1-7.92,6.65c-2.91,5.77-9,13-12.1,13H248.51S259,223.25,259,214.57s-11.82-8-13-8-13.41-1-20.56,6.27-8.3,11.43-8.41,13.3H196.28s4.29-5.83,4.29-10.17c0-4.89-2.81-9.35-14-9.35-8.19,0-9.9,1.32-9.9,1.32s-1-1.65-4.12-1.65-5.17,1.6-7.2,5.67-5.28,12.48-9.46,14.18H130.58s-.83-1.1.88-4.29,4.95-9,4.95-11.1-1.43-3.58-4.68-3.58-4.45.5-8,6.82-5.28,12.1-12.16,12.1H106s-3,.82-1-2.7,5.82-9.45,5.82-13.08c0-3.08-3.84-3.63-3.84-3.63a6.37,6.37,0,0,0-5.61,2.53c-2.2,3-8.41,15.12-8.41,15.12a17.7,17.7,0,0,0-.55,4.95c0,3.24.93,8.9,13,8.9,10.72.11,14.4-3.79,14.4-3.79s1.65,3.79,7.48,3.79h24.08l-21.6,40.14s-1.11,3.85,2.52,5.33,4.95-.11,5.83-1.26,25.4-46,25.4-46a14.2,14.2,0,0,0,5.94,1.76h45a35.45,35.45,0,0,0,5.66-2c.88.27,2.64,2.14,9.73,2.14H267s8.58-.11,15.89-9.07,7.92-10.56,7.92-10.56h7.26a20.55,20.55,0,0,0-1.87,8.91c0,5.39,3.46,10.56,9.56,10.56h22.49a14.89,14.89,0,0,0,5.55-1.71c.11,0,2.92,1.87,4.73,1.87h30.84s4.79.11,11.33-5.66c.22.38,3.19,5.55,8.47,5.55h25.45c1.4,0,4.18-1.1,6-1.76,1.92-.11,13.64,1.05,19.35.61-1.81,3.19-9.62,14.9-11.82,17.81s-9.07,11.54-14.07,15.12-5.94,2-5.94,2-1.87-3.79,1.43-9.07,13.41-10.72,13.41-10.72,5.94-2.59,5.61-6.38-5.61-2.42-5.61-2.42-13.52,3.9-21.55,14.62c-3.07,4.51-5.17,10.07-5.17,15s4.24,9.68,9.19,9.68,12.09-2.7,20.06-11.16a230.74,230.74,0,0,0,20.79-26.34c3.35-5.22,3.9-6.93,3.9-6.93h25.84a7.69,7.69,0,0,0,3.68-1.15,5.87,5.87,0,0,0,3.41,1.26c2.2,0,4.62-1.81,7.1-6.65s4.94-13,13.36-13c4.67,0,6.48.17,6.43.77s-3.52,6.49-3.52,11.39,2.86,7.42,6.1,7.42h29s4.61-1.1,5.38-1.82c.72,0,2.53,1.76,4.3,1.76H581.2c1.26,0,9.51-1.76,13.33-8.17a8.29,8.29,0,0,0,.08-3.7S593.9,223,591,223s-4.73,2.48-8.3,3.14H556s-1.16-.94,3.85-11.66c3.13-6.1,4.45-8.58,4.45-8.58h45.41c2.81,0,7.7-2.58,7.7-7S615.23,194,613.86,194ZM190.42,219.11c-3.47,7.87-9.71,7.7-15.25,7.7-7.44,0-7.6-1.3-7.43-1.84,1.52-7.76,9.12-8.9,9.12-8.9a35.74,35.74,0,0,1,6.89-.6C191.13,215.53,191,217.7,190.42,219.11Zm37.77,7.16h-2.82s1.35-7.92,14.43-12.15a16,16,0,0,1,4.94-.66c2,0,5.86.76,5.86,2.61s-2.87,2.5-8.08,4.45S229.44,226.27,228.19,226.27ZM449,220.67c-3.13,4.89-3,7.42-14.35,7.42-3.79,0-7.75-.28-7.75-2.53s2.8-8.92,13.63-8.85C440.5,216.71,452.11,215.78,449,220.67Z"/><path class="cls-1" d="M399.52,203.64c2.22-2.82,2.28-6.47.14-8.14s-5.66-.74-7.88,2.08-2.27,6.47-.13,8.15S397.31,206.47,399.52,203.64Z"/></svg>