<svg id="Capa_1" data-name="Capa 1" xmlns="http://www.w3.org/2000/svg" viewBox="0 0 640 470"><path d="M83.26,229.66a1.2,1.2,0,0,0-1.24,0l-4.69,2.7a1.15,1.15,0,0,0-.6,1.05l0,5.44a1.49,1.49,0,0,0,.61,1.08l4.74,2.71a1.17,1.17,0,0,0,1.16,0L88,240a1.24,1.24,0,0,0,.6-1v-5.47a1.2,1.2,0,0,0-.59-1Z"/><path d="M626.78,232.44,333.47,88.85a12.2,12.2,0,0,0-5.07-1,11.22,11.22,0,0,0-5.07,1.11L31.39,235.3c-2.3,1.2-2.64,2.71-2.61,3.54s.39,2.35,2.67,3.46L324.7,381.2a12.5,12.5,0,0,0,5.1,1,11.91,11.91,0,0,0,5.07-1L626.78,239.44c2.3-1.13,2.66-2.68,2.67-3.5S629.12,233.58,626.78,232.44Zm-1.31,4.34L333.59,378.45a10.34,10.34,0,0,1-7.6.06L32.73,239.62c-.77-.36-1-.74-1-.8s.23-.52,1-.86L324.67,91.5a9.16,9.16,0,0,1,3.74-.71,8.39,8.39,0,0,1,3.76.71L625.45,235.12c.81.38,1,.72,1,.82S626.23,236.41,625.47,236.78Z"/><path d="M247.91,141.73,134.4,198.52a3.81,3.81,0,0,0-1.85,3l.12,15.12a1.4,1.4,0,0,0,2,1.35l7.6-3a3.31,3.31,0,0,0,2-2.86V210a3.7,3.7,0,0,1,1.87-3l65.83-31.81a1.21,1.21,0,0,1,1.87,1.19l.14,27.36a3.31,3.31,0,0,1-1.92,2.85L136.08,236.7a3.35,3.35,0,0,0-1.91,2.86l.16,33.89a3.52,3.52,0,0,0,1.89,3l112.57,51.34a1.24,1.24,0,0,0,1.89-1.21l-.13-24.08a1.37,1.37,0,0,0-2-1.38l-8.65,3a3.15,3.15,0,0,0-1.95,2.8l0,.87c0,1.16-.81,1.66-1.86,1.18L173.6,278.19a3.63,3.63,0,0,1-1.87-3l-.26-37.31a3.18,3.18,0,0,1,2-2.82l74.72-27.86a3.32,3.32,0,0,0,1.94-2.84l-.28-61.48C249.76,141.72,249,141.18,247.91,141.73Z"/><path d="M324.49,94.46a4.8,4.8,0,0,0-2.15.57L44.12,235.44c-2,1-2.27,2.31-2.3,3s.35,1.95,2.36,2.9L323.64,373.61a5.36,5.36,0,0,0,2.15.49c2.14,0,3.55-1.66,3.55-4.14L328.05,98.53C328,96.08,326.6,94.45,324.49,94.46Zm3,256.7-.84-.35-25.84-11.44a3.19,3.19,0,0,1-1.71-2.61l-1.21-205.85a3,3,0,0,1,1.71-2.55l26.77-11Zm-1.18-248.34-59.7,27.7a3.16,3.16,0,0,0-1.66,2.6l1,201.74a3.08,3.08,0,0,0,1.66,2.62l60,28.26,0,4.27c0,2-1.4,2.91-3.24,2L44.9,239.77c-.81-.41-1.32-.93-1.33-1.36s.5-1,1.33-1.42L323.09,96.59a3,3,0,0,1,1.41-.4c1.13,0,1.77.89,1.81,2.29Z"/><path d="M357.87,339.09a3,3,0,0,0,1.69-2.64l-.77-205.83A2.89,2.89,0,0,0,357,128.1L331,117.68l-1.67-.72s1.11,234.55,1.13,234.57l1.68-.75Z"/><polygon points="560 230.69 559.99 236.99 565.44 240.14 570.88 236.99 570.89 230.72 565.46 227.56 560 230.69"/><path d="M613.15,233.48,333.6,95.74c-2.42-1.2-4.4.05-4.37,2.78v3.9s.79.33,1.69.76l59.17,26.74a3,3,0,0,1,1.66,2.59l1,201.74a3.18,3.18,0,0,1-1.64,2.63l-58.91,28.45-1.66.8V370c0,2.71,2,4,4.47,2.78L613.14,237.85C615.57,236.67,615.61,234.69,613.15,233.48ZM518,247.15a1.23,1.23,0,0,1-1.77,1.22l-72.9-25.71a1.23,1.23,0,0,0-1.76,1.24l.39,68.29a1.1,1.1,0,0,0,1.69,1.09l60.61-26.57a3,3,0,0,0,1.63-2.58l0-1.22a2.7,2.7,0,0,1,1.72-2.45l8.69-3a1.21,1.21,0,0,1,1.74,1.23l.09,16.69a3.19,3.19,0,0,1-1.66,2.63L407.63,327.7a1.12,1.12,0,0,1-1.71-1.11l-.65-133.84a1.16,1.16,0,0,1,1.72-1.19L481.16,221a1.18,1.18,0,0,0,1.69-1.17l-.13-22.66a3.15,3.15,0,0,0-1.67-2.6l-64.38-31a1.1,1.1,0,0,0-1.67,1.08l0,4.95a1.11,1.11,0,0,1-1.67,1.1l-7.82-3.62a3.06,3.06,0,0,1-1.72-2.6l-.16-24.9a1,1,0,0,1,1.63-1l110.8,54.88a3.3,3.3,0,0,1,1.67,2.68Zm53.85-9.58-6.42,3.69L559,237.54v-7.42l6.45-3.7,6.43,3.73Z"/><path d="M36.93,196.13a6.67,6.67,0,0,1,.52-.59c.2-.19.37-.37.55-.52a1.75,1.75,0,0,1,.37-.28L47.74,190c.66-.27,1.06-.24,1.22.08a2.11,2.11,0,0,1,0,1.33l-4.23,13.26,13.91,5.92c.26.13.49.26.69.38a1.1,1.1,0,0,1,.39.39c.18.35-.05.69-.66,1l-9.49,4.79a3.54,3.54,0,0,1-.45.13c-.23.05-.47.08-.73.12a6.67,6.67,0,0,1-.75.06,1.28,1.28,0,0,1-.57-.09l-10.92-4.28-8.31,4.19a1.35,1.35,0,0,0-.63,2.05l2.55,5.06a2.57,2.57,0,0,1,.21,1.84,1.84,1.84,0,0,1-.95,1.28l-6.15,3.11a1.81,1.81,0,0,1-1.55-.06,2.41,2.41,0,0,1-1.37-1.23L10.8,211.26a2.12,2.12,0,0,1-.08-1.81,2.19,2.19,0,0,1,1-1.26l6-3a1.94,1.94,0,0,1,1.57-.06,2.7,2.7,0,0,1,1.45,1.44l2.39,4.74a1.38,1.38,0,0,0,2.07.78l7.69-3.88,3.8-11.56A1.34,1.34,0,0,1,36.93,196.13Z"/><path d="M90.64,186a2.3,2.3,0,0,0,3.5,1.18L114.34,177a2.41,2.41,0,0,1,1.55-.19,1.53,1.53,0,0,1,1.21.77l1.36,2.7a1.69,1.69,0,0,1,0,1.5,2.37,2.37,0,0,1-1.11,1.2l-26.9,13.57a7.56,7.56,0,0,1-2.24.74,6,6,0,0,1-2.15,0,4.92,4.92,0,0,1-1.84-.76,4,4,0,0,1-1.3-1.51l-8.09-16a2.12,2.12,0,0,1-.06-1.81,2.18,2.18,0,0,1,1-1.27l6-3a1.94,1.94,0,0,1,1.57-.06,2.72,2.72,0,0,1,1.44,1.44Z"/><path d="M122.9,155l9,17.88a2.58,2.58,0,0,1,.21,1.84,1.89,1.89,0,0,1-.95,1.29L125,179.1a1.77,1.77,0,0,1-1.55-.06,2.44,2.44,0,0,1-1.36-1.22L113,159.7a2.48,2.48,0,0,1,.91-3.06l6-3a2,2,0,0,1,1.58-.06A2.64,2.64,0,0,1,122.9,155Z"/><path d="M165.55,144.54l3.64,7.22a4,4,0,0,1,.2,3.71,6.55,6.55,0,0,1-3.06,2.8l-24.48,12.35a6,6,0,0,1-4.1.64,4.43,4.43,0,0,1-3-2.56L127.81,155a3.91,3.91,0,0,1-.44-1.94,5.18,5.18,0,0,1,.48-1.94,6,6,0,0,1,1.26-1.74A7.91,7.91,0,0,1,131,148l26.9-13.57a2.45,2.45,0,0,1,1.63-.19,1.68,1.68,0,0,1,1.22.87l1.37,2.71a1.52,1.52,0,0,1-.1,1.42,2.4,2.4,0,0,1-1.08,1.12l-20.19,10.19a2.87,2.87,0,0,0-1.46,1.41,2.46,2.46,0,0,0,.28,2l3,6c.74,1.46,1.7,1.9,2.87,1.3l11.17-5.64c1.16-.58,1.42-1.49.79-2.74l-1.84-3.65a2.14,2.14,0,0,1-.08-1.82,2.2,2.2,0,0,1,1-1.25l6-3a1.93,1.93,0,0,1,1.57,0A2.66,2.66,0,0,1,165.55,144.54Z"/><path d="M193.94,133.52l-12,6.06a1.34,1.34,0,0,0-.64,2l2.55,5.06a2.52,2.52,0,0,1,.21,1.84,1.83,1.83,0,0,1-.94,1.28L177,152.91a1.84,1.84,0,0,1-1.55,0,2.56,2.56,0,0,1-1.36-1.23l-9.14-18.12a2.17,2.17,0,0,1-.08-1.8,2.26,2.26,0,0,1,1-1.27l6-3a1.94,1.94,0,0,1,1.57-.06,2.65,2.65,0,0,1,1.44,1.44l2.4,4.75a1.37,1.37,0,0,0,2.06.77l12-6a1.39,1.39,0,0,0,.6-2.13l-2.39-4.74a2.6,2.6,0,0,1-.3-2,1.93,1.93,0,0,1,1-1.23l6-3a2.16,2.16,0,0,1,1.6,0,2.08,2.08,0,0,1,1.41,1.13l9.14,18.11a2.52,2.52,0,0,1,.19,1.83,1.87,1.87,0,0,1-.89,1.28l-6.15,3.1a1.83,1.83,0,0,1-1.6,0,2.45,2.45,0,0,1-1.35-1.26L196,134.22A1.33,1.33,0,0,0,193.94,133.52Z"/><path d="M215.25,113,207,117.13a2.48,2.48,0,0,1-1.55.2,1.52,1.52,0,0,1-1.2-.78l-1.37-2.7a1.64,1.64,0,0,1,0-1.49,2.39,2.39,0,0,1,1.11-1.21l30.27-15.27a2.39,2.39,0,0,1,1.63-.18,1.66,1.66,0,0,1,1.23.86l1.37,2.71a1.54,1.54,0,0,1-.1,1.42,2.47,2.47,0,0,1-1.08,1.13L229.13,106a2.78,2.78,0,0,0-1.25,1.37,2.45,2.45,0,0,0,.3,1.92l6,12a2.57,2.57,0,0,1,.21,1.84,1.89,1.89,0,0,1-.95,1.29l-6,3a1.86,1.86,0,0,1-1.6,0,2.53,2.53,0,0,1-1.35-1.27l-6-12a2.54,2.54,0,0,0-1.37-1.38A2.79,2.79,0,0,0,215.25,113Z"/><path d="M69.52,196.78l.25-4.06a1,1,0,0,0-.39-.81L66,189.65a1,1,0,0,0-.9-.05l-3.65,1.81a1,1,0,0,0-.51.74l-.25,4.08a1,1,0,0,0,.4.8l3.39,2.26a1,1,0,0,0,.89.06L69,197.54A1,1,0,0,0,69.52,196.78Z"/></svg>