<svg id="Capa_1" data-name="Capa 1" xmlns="http://www.w3.org/2000/svg" viewBox="0 0 640 470"><defs><style>.cls-1{fill:#d2121c;}</style></defs><path d="M54.11,208.27H97.66l3.25,11L95,236.55l-10,9.3H62.73l-5.45,15.88H35.73Zm14.14,21.62h7.48l2-5.82H70.21Z"/><path d="M123.07,261.73v-5H110l-3.4,5H83.9L118,208.27h30.32l-2.57,53.46Zm-4.69-18.38H124L125,232.09Z"/><path d="M150.44,261.73l18.37-53.46h43.56l3.25,11L201,261.73H179.47l12.93-37.66h-7.48L172,261.73Z"/><path d="M233.39,224.15H220l5.45-15.88H274l-5.44,15.88H255l-12.93,37.58H220.46Z"/><path d="M280,208.27h43.56l3.25,11-5.9,17.24-10.59,9.3h7.34l-5.44,15.88H290.4l-2.72-13.23-4.54,13.23H261.59Zm21.63,21.62,2-5.82h-7.49l-2,5.82Z"/><path d="M332.89,219.16l10.21-10.89h37l3.25,11L372,252.43l-9.91,9.3H324.8l-3-10.28Zm19.89,26.61,7.41-21.7H352.7l-7.41,21.7Z"/><path class="cls-1" d="M408.05,224.15H387.79l5.44-15.88H431.8l2.87,10.36L432,226.27,405,245.85h20.34l-5.44,15.88H375.16l6.2-18Z"/><path class="cls-1" d="M440.49,219.16l10.21-10.89h37.05l3.25,11-11.42,33.12-9.9,9.3H432.32l-2.94-10.28Zm19.89,26.61,7.41-21.7H460.3l-7.41,21.7Z"/><path class="cls-1" d="M497.13,219.16l10.2-10.89h37.05l3.26,11-11.42,33.12-9.91,9.3H489L486,251.45ZM517,245.77l7.41-21.7h-7.48l-7.41,21.7Z"/><path class="cls-1" d="M557.46,208.27H601l3.25,11-5.9,17.24-10.58,9.3h7.33l-5.44,15.88H567.9l-2.72-13.23-4.54,13.23H539.09Zm21.63,21.62,2-5.82h-7.49l-2,5.82Z"/></svg>