<svg id="Capa_1" data-name="Capa 1" xmlns="http://www.w3.org/2000/svg" viewBox="0 0 640 470"><defs><style>.cls-1{fill:#d2121c;}</style></defs><path d="M101.22,204.71h25.2l-38,59.39H54.94l2.77-59.39h25.2l-2.18,33Z"/><path d="M126.17,216.81l11.34-12.1h41.16L182.28,217l-12.68,36.8-11,10.33H117.1l-3.28-11.43Zm22.09,29.56,8.23-24.1h-8.31L140,246.37Z"/><path d="M193.2,204.71h23.94l-14.36,41.75h31.08l-6.05,17.64H179.93l-3.19-11.51Z"/><path d="M248.81,222.18h-5.63l6-17.47h55.44l-6,17.64H272.67l-8.32,24.11h20.08l-6.05,17.64H241.5l-3.19-11.51Z"/><path d="M305.26,222.18l6-17.47h54L368.85,217l-6.56,19.16-11.76,10.33h8.15l-6.05,17.64H328.44l-3-14.7-5,14.7H296.44l14.45-41.92Zm35.61,6.55,2.19-6.46h-8.32l-2.18,6.46Z"/><path d="M426.55,264.1h-25.2v-5.55H386.82L383,264.1h-25.2l26.8-41.92h-5.55l6-17.47h44.35Zm-24.19-20.41,1.18-12.52-7.39,12.52Z"/><path class="cls-1" d="M468.64,222.35H446.13l6-17.64H495l3.2,11.51-2.94,8.48-30.08,21.76h22.6l-6.05,17.64H432.1l6.89-20Z"/><path class="cls-1" d="M543.48,226.63l4.29,8.91-5.88,17.05L530.8,264.1H488.38l6.05-17.64H520l1.51-4.29h-17l-5.55-8.9,9.83-28.56h50l-6,17.64h-26l-1.43,4.28Z"/><path class="cls-1" d="M561.29,216.81l11.34-12.1h41.16L617.4,217l-12.68,36.8-11,10.33H552.22l-3.28-11.43Zm22.09,29.56,8.23-24.1H583.3l-8.24,24.1Z"/></svg>