<svg id="Capa_1" data-name="Capa 1" xmlns="http://www.w3.org/2000/svg" viewBox="0 0 640 470"><defs><style>.cls-1{fill:#d2121c;}</style></defs><path d="M82.67,252.65H96l7.69-22.41h38.48L131,262.78l-18,18.36H46.22L40,264.53,61.48,202.3,79,185.69h67l-9.72,28.49H95.9Z"/><path d="M171.1,214H147.2l9.72-28.35h86.67L233.87,214H209.71l-23.09,67.1H148Z"/><path d="M308.93,233.48l5.94,47.66H276.13L274,260.35l-16.34,20.79H219l38.34-47.66-5.53-47.79h38.61l2,20.79,16.47-20.79h38.75Z"/><path class="cls-1" d="M411.8,220.93l6.89,14.31-9.45,27.4-17.82,18.5H323.24L333,252.79h41l2.43-6.89H349.16l-8.91-14.31,15.8-45.9h80.32L426.65,214H384.8l-2.29,6.89Z"/><path class="cls-1" d="M440.42,205.13l18.22-19.44h66.15l5.81,19.71-20.39,59.13-17.68,16.61H425.84l-5.27-18.36Zm35.5,47.52,13.23-38.74H475.79l-13.23,38.74Z"/><path class="cls-1" d="M541.53,205.13l18.23-19.44h66.15l5.8,19.71-20.38,59.13-17.69,16.61H527l-5.26-18.36ZM577,252.65l13.23-38.74H576.9l-13.23,38.74Z"/></svg>