<svg id="Capa_1" data-name="Capa 1" xmlns="http://www.w3.org/2000/svg" viewBox="0 0 640 470"><defs><style>.cls-1{fill:#d2121c;}</style></defs><path d="M8.49,228.07l21.41-62.3H83.3l3.79,12.87-13.3,38.59L62.24,228.07Zm40.18-43.88L40,209.57h8.72l8.72-25.38Z"/><path d="M94.41,177.84,106,165.77h44.68l-6.35,18.51H117.32l-1.5,4.49h17.36l-5.64,16.3H110.18l-1.59,4.5h27.06l-6.35,18.5H84.62L81.28,216Z"/><path d="M195.4,228.07H170.28l15.07-43.71h-8.81l-15.07,43.71H136.35l21.42-62.3H243l4.14,10.84-17.71,51.46h-25.2l15.07-43.71h-8.82Z"/><path d="M253.47,178.46l11.9-12.69h43.18l3.79,12.87L299,217.23l-11.55,10.84H244l-3.53-12Zm23.18,31,8.63-25.29h-8.72l-8.64,25.29Z"/><path d="M323.79,165.77h25.12l-15.07,43.8h27.23l-6.35,18.5H309.87L306.52,216Z"/><path d="M408.21,165.77l-21.41,62.3H361.68l21.42-62.3Z"/><path d="M424.51,184.28H408.92l6.34-18.51h56.58l-6.35,18.51H449.72l-15.07,43.79h-25.2Z"/><path d="M503.91,165.77l-21.41,62.3H457.38l21.42-62.3Z"/><path d="M506.64,178.46l11.9-12.69h43.18l3.79,12.87L552.2,217.23l-11.54,10.84H497.21l-3.52-12Zm23.18,31,8.64-25.29h-8.73l-8.63,25.29Z"/><path d="M555.55,228.07,577,165.77h50.76l3.78,12.87-17,49.43H589.39l15.07-43.88h-8.72l-15.07,43.88Z"/><path class="cls-1" d="M261.31,260.43H237.69l6.35-18.5H289L292.33,254l-3.08,8.9L257.7,285.72h23.7l-6.34,18.51H223l7.22-21Z"/><path class="cls-1" d="M339.83,264.93l4.49,9.34-6.17,17.89-11.63,12.07H282l6.34-18.51h26.79l1.59-4.49h-17.8l-5.82-9.34,10.31-30h52.44l-6.35,18.5H322.2l-1.49,4.5Z"/><path class="cls-1" d="M358.51,254.62l11.9-12.69h43.18l3.79,12.86-13.31,38.6-11.54,10.84H349l-3.43-12Zm23.18,31,8.63-25.3H381.6L373,285.64Z"/></svg>