<?xml version="1.0" encoding="UTF-8"?>
<svg id="Capa_1" xmlns="http://www.w3.org/2000/svg" viewBox="0 0 640 116.78">
  <defs>
    <style>
      .cls-1 {
        fill: #d2121c;
      }
    </style>
  </defs>
  <path d="M22.92,39.45l9.76-28.59h88.4l5.91,20.07-10.72,31.34-19.25,16.91h13.34l-9.9,28.87h-39.59l-4.95-24.06-8.25,24.06H8.49l23.65-68.6h-9.21ZM81.21,50.17l3.57-10.59h-13.61l-3.57,10.59h13.61Z"/>
  <path d="M160.67,79.04h13.61l3.3-9.62h39.18l-7.56,22-17.6,16.63h-68.05l-6.32-16.91,21.86-63.38,17.87-16.91h68.05l5.5,18.7-6.87,19.93h-39.18l3.3-9.62h-13.61l-13.47,39.18Z"/>
  <path d="M241.09,30.65l18.56-19.8h67.36l5.91,20.07-20.76,60.21-18.01,16.91h-67.91l-5.36-18.7,20.21-58.7ZM277.25,79.04l13.47-39.46h-13.61l-13.47,39.46h13.61Z"/>
  <path class="cls-1" d="M377.74,39.72h-36.84l9.9-28.87h70.11l5.22,18.83-4.81,13.88-49.22,35.61h36.98l-9.9,28.87h-81.25l11.27-32.72,48.53-35.61Z"/>
  <path class="cls-1" d="M436.71,30.65l18.56-19.8h67.36l5.91,20.07-20.76,60.21-18.01,16.91h-67.91l-5.36-18.7,20.21-58.7ZM472.87,79.04l13.47-39.46h-13.61l-13.47,39.46h13.61Z"/>
  <path class="cls-1" d="M539.68,30.65l18.56-19.8h67.36l5.91,20.07-20.76,60.21-18.01,16.91h-67.91l-5.36-18.7,20.21-58.7ZM575.84,79.04l13.47-39.46h-13.61l-13.47,39.46h13.61Z"/>
</svg>