<svg id="Capa_1" data-name="Capa 1" xmlns="http://www.w3.org/2000/svg" viewBox="0 0 640 470"><defs><style>.cls-1{fill:#d2121c;}</style></defs><path d="M48.39,199.69h57.53l4.29,14.59-7.79,22.77-14,12.28h9.69l-7.19,21H62.17l-3.59-17.48-6,17.48H24.12ZM77,228.26l2.6-7.69H69.66l-2.59,7.69Z"/><path d="M118.5,213.38l13.18-13.69h50.64l-7.19,21H144.47l-9.89,28.66h30.66l-7.19,21H107.41l-3.79-13.69Z"/><path class="cls-1" d="M166.14,270.31l7.19-20.78h6.49l10-29.06h-6.59l7.09-20.78h35.06l-17.08,49.84h6.59l-7.19,20.78Z"/><path class="cls-1" d="M259.52,220.67H232.76l7.19-21h50.94l3.79,13.69-3.49,10.08-35.76,25.87H282.3l-7.19,21h-59l8.19-23.78Z"/><path class="cls-1" d="M348.51,225.76l5.1,10.59-7,20.27-13.19,13.69H283l7.19-21h30.36l1.8-5.09H302.17l-6.59-10.59,11.69-34h59.42l-7.19,21h-31l-1.7,5.09Z"/><path d="M399.15,270.31v-6.6H381.87l-4.49,6.6h-30l45-70.62h40.05l-3.39,70.62ZM393,246h7.39l1.4-14.89Z"/><path d="M435.31,270.31l24.27-70.62H520.1l4.3,14.59L509.32,258l-13.09,12.29Zm45.54-49.74L471,249.33h9.89l9.89-28.76Z"/><path d="M585.92,199.69h30l-45.24,70.62H530.89l3.29-70.62h30l-2.6,39.25Z"/></svg>