<svg id="Capa_1" data-name="Capa 1" xmlns="http://www.w3.org/2000/svg" viewBox="0 0 640 470"><defs><style>.cls-1{fill:#d2121c;}</style></defs><path d="M138.88,143.38h35L121,225.83H74.62l3.85-82.45h35l-3,45.83Z"/><path d="M173.52,160.17l15.75-16.79h57.14l5,17-17.61,51.08-15.28,14.34H161L156.38,210Zm30.67,41.05,11.43-33.47H204.08l-11.43,33.47Z"/><path d="M266.59,143.38h33.24l-19.95,58h36l-8.4,24.49H248.16l-4.43-16Z"/><path d="M337.26,167.87H316.62l8.4-24.49h74.87l-8.4,24.49H370.62l-19.95,58H317.32Z"/><path d="M409.1,143.38h67.18l5,17L472.2,187l-16.33,14.34h11.31l-8.4,24.49H425.2L421,205.42l-7,20.41H380.76Zm33.36,33.35,3-9H433.94l-3,9Z"/><path d="M526.43,225.83v-7.69H506.25L501,225.83H466l52.6-82.45h46.77l-4,82.45Zm-7.23-28.34h8.63l1.63-17.37Z"/><path class="cls-1" d="M191,268.66H159.76l8.4-24.49h59.47l4.44,16L228,271.92l-41.75,30.21H217.6l-8.39,24.49H140.28l9.57-27.76Z"/><path class="cls-1" d="M241.05,261l15.74-16.79h57.15l5,17-17.61,51.09-15.28,14.34H228.45l-4.55-15.86ZM271.72,302l11.43-33.47H271.6L260.17,302Z"/><path class="cls-1" d="M328.4,261l15.74-16.79h57.15l5,17-17.61,51.09-15.28,14.34H315.8l-4.55-15.86ZM359.07,302l11.43-33.47H359L347.52,302Z"/><path class="cls-1" d="M468.7,285.45l5.13,41.17H440.36l-1.87-18-14.11,18H391l33.13-41.17-4.79-41.28h33.36l1.75,18,14.23-18h33.47Z"/></svg>