<svg id="Capa_1" data-name="Capa 1" xmlns="http://www.w3.org/2000/svg" viewBox="0 0 640 470"><defs><style>.cls-1{fill:#d2121c;}</style></defs><path d="M87.51,188.46l4.74,38.06H61.3l-1.72-16.6-13,16.6H15.69l30.62-38.06-4.42-38.18H72.73l1.62,16.61,13.16-16.61h30.95Z"/><path d="M144.77,199.56H102l7.76-22.43h42.81Z"/><path d="M170.22,150.28h62.11L237,166l-8.41,24.58-14.24,13.27H182.51l-7.76,22.64H144Zm20.16,30.84h10.68l2.8-8.3H193.19Z"/><path d="M251,150.28h30.73l-18.44,53.6H296.6l-7.76,22.64H234l-4.1-14.77Z"/><path d="M318.28,165.81l14.55-15.53h52.84L390.31,166,374,213.26,359.9,226.52H306.74l-4.32-14.66Zm28.36,38,10.56-31H346.53l-10.57,31Z"/><path d="M404.33,150.28h62.11L471.08,166l-8.41,24.58-15.1,13.27H458l-7.76,22.64H419.21l-3.88-18.87-6.47,18.87H378.12Zm30.84,30.84,2.8-8.3H427.3l-2.81,8.3Z"/><path d="M480,165.06l14.23-14.78h54.68l-7.77,22.65h-33.1l-1.84,5.5h21.25l-6.91,19.95H499.33l-1.94,5.5H530.5l-7.77,22.64H468.06L464,211.75Z"/><path d="M557.56,150.28h62.12L624.31,166l-8.41,24.58-15.1,13.27h10.47l-7.77,22.64H572.44l-3.88-18.87-6.47,18.87H531.36Zm30.84,30.84,2.81-8.3H580.53l-2.8,8.3Z"/><path class="cls-1" d="M204.46,266.12H175.55l7.77-22.65h55l4.09,14.78-3.77,10.89L200,297.07h29l-7.76,22.64H157.55l8.84-25.66Z"/><path class="cls-1" d="M250.72,259l14.55-15.53h52.84l4.64,15.75-16.28,47.23-14.13,13.26H239.07l-4.21-14.66Zm28.36,38L289.65,266H279L268.4,297Z"/><path class="cls-1" d="M331.49,259,346,243.47h52.84l4.64,15.75-16.28,47.23-14.13,13.26H319.84l-4.21-14.66Zm28.36,38L370.41,266H359.74L349.17,297Z"/><path class="cls-1" d="M461.21,281.65,466,319.71H435l-1.73-16.6-13,16.6H389.39L420,281.65l-4.42-38.18h30.84l1.62,16.61,13.15-16.61h31Z"/></svg>