<svg id="Capa_1" data-name="Capa 1" xmlns="http://www.w3.org/2000/svg" viewBox="0 0 640 470"><defs><style>.cls-1{fill:#d2121c;}</style></defs><path d="M51,186.78h78.57l5.86,19.92-10.64,31.1-19.09,16.77H119l-9.82,28.65H69.84l-4.91-23.87-8.18,23.87H17.88Zm39,39,3.55-10.5H80.07l-3.54,10.5Z"/><path d="M146.77,205.47l18-18.69h69.15l-9.82,28.65H182.24l-13.51,39.14h41.88l-9.82,28.65H131.63l-5.18-18.69Z"/><path class="cls-1" d="M211.84,283.22l9.82-28.37h8.86l13.64-39.7h-9l9.68-28.37h47.88L269.4,254.85h9l-9.82,28.37Z"/><path class="cls-1" d="M279.63,283.22l9.82-28.37h8.86L312,215.15h-9l9.68-28.37h47.88l-23.32,68.07h9l-9.82,28.37Z"/><path class="cls-1" d="M373.74,206.42l18.41-19.64H459l5.87,19.92-20.6,59.74-17.87,16.78H359l-5.32-18.55Zm35.87,48L423,215.29h-13.5l-13.37,39.15Z"/><path class="cls-1" d="M476.18,205.47l18-18.69h69.16l-9.82,28.65H511.64l-13.5,39.14H540l-9.82,28.65H461l-5.19-18.69Z"/><path class="cls-1" d="M541.24,283.22l9.82-28.37h8.87l13.64-39.7h-9l9.69-28.37h47.87L598.8,254.85h9L598,283.22Z"/></svg>