<svg id="Capa_1" data-name="Capa 1" xmlns="http://www.w3.org/2000/svg" viewBox="0 0 640 470"><defs><style>.cls-1{fill:#d2121c;}</style></defs><path d="M41.61,214l10.22-29.95h92.61l6.19,21L139.4,238l-20.16,17.72h14l-10.37,30.24H81.36l-5.19-25.2-8.64,25.2h-41L51.26,214Zm61.06,11.24,3.75-11.09H92.16l-3.74,11.09Z"/><path d="M185.92,255.52h14.26l3.45-10.08h41.05l-7.92,23-18.44,17.43H147l-6.62-17.71,22.9-66.4L182,184.09h71.29l5.76,19.58-7.2,20.89h-41l3.46-10.08H200Z"/><path class="cls-1" d="M242.37,285.91l10.37-30h9.36L276.51,214H267l10.23-29.95h50.55L303.15,256h9.51l-10.37,30Z"/><path class="cls-1" d="M314,285.91l10.37-30h9.36L348.08,214h-9.5l10.22-29.95h50.56L374.73,256h9.5l-10.37,30Z"/><path class="cls-1" d="M413.33,204.83l19.44-20.74h70.57l6.19,21L487.78,268.2l-18.86,17.71H397.77l-5.62-19.59Zm37.87,50.69,14.12-41.33H451.06l-14.12,41.33Z"/><path class="cls-1" d="M521.48,203.82l19-19.73h73l-10.37,30.24H558.93l-14.26,41.34h44.22l-10.37,30.24h-73L500,266.18Z"/></svg>