<svg id="Capa_1" data-name="Capa 1" xmlns="http://www.w3.org/2000/svg" viewBox="0 0 640 470"><defs><style>.cls-1{fill:#d2121c;}</style></defs><path d="M27.32,234.93l13.94-40.42H35.83l5.75-16.85H96.09l3.49,11.83L87.35,225l-10.53,10Zm36.94-40.34-8,23.33h8l8-23.33Z"/><path d="M106.14,189.33l10.93-11.67h39.69l3.49,11.83L148,225l-10.61,10h-40l-3.16-11Zm21.3,28.51,7.94-23.25h-8l-7.94,23.25Z"/><path d="M205.77,202.77l23.89-25.19h28.68l-19.77,57.35H215.41l7.93-23-22,23H188.19l-6-23-7.94,23H151.09l19.68-57.27h28.68Z"/><path d="M293.08,177.66,273.4,234.93h-23l13.93-40.42H258.9l5.75-16.85Z"/><path d="M336.82,234.93H313.66l3.08-9-6.08-13.28L303,234.93H279.88l19.68-57.27h17.26l9.56,20.17,6.88-20.17h23.25Z"/><path d="M408,234.93h-24.3v-5.34h-14l-3.65,5.34H341.77l25.83-40.42h-5.34L368,177.66h42.77Zm-23.33-19.68,1.14-12.07-7.13,12.07Z"/><path d="M426.49,194.51h-5.43l5.76-16.85h53.46l-5.84,17H449.5l-8,23.25h19.36l-5.84,17H419.44l-3.07-11.1Z"/><path d="M482.71,189.33l10.93-11.67h39.69l3.48,11.83L524.58,225l-10.61,10H474l-3.16-11ZM504,217.84,512,194.59h-8L496,217.84Z"/><path d="M541.59,194.51l5.75-16.85h52.09l3.48,11.83L596.59,208l-11.34,10h7.86l-5.83,17H564L561,220.76l-4.86,14.17H533.09L547,194.51Zm34.35,6.32,2.1-6.24h-8l-2.1,6.24Z"/><path class="cls-1" d="M258.46,264.67H236.75l5.83-17h41.31l3.08,11.1-2.84,8.18-29,21h21.79l-5.84,17H223.22l6.64-19.28Z"/><path class="cls-1" d="M330.63,268.81l4.13,8.58-5.67,16.44-10.69,11.1H277.49l5.83-17H308l1.46-4.13H293l-5.34-8.59,9.48-27.54h48.19l-5.83,17H314.43l-1.38,4.14Z"/><path class="cls-1" d="M347.8,259.33l10.93-11.67h39.69l3.49,11.83L389.68,295l-10.61,10h-40l-3.16-11Zm21.3,28.51L377,264.59h-8l-7.94,23.25Z"/></svg>