<svg id="Capa_1" data-name="Capa 1" xmlns="http://www.w3.org/2000/svg" viewBox="0 0 640 470"><defs><style>.cls-1{fill:#d2121c;}</style></defs><path d="M95,188.51l4.75,38.07H68.8L67.07,210,54,226.58H23.18l30.63-38.07-4.42-38.17H80.23l1.62,16.6L95,150.34h31Z"/><path d="M152.26,199.62H109.45l7.77-22.43H160Z"/><path d="M177.28,172.77h-7.22l7.65-22.43h71.17L241.12,173H207.91l-10.68,31H223l-7.76,22.65H167.9l-4.1-14.78Z"/><path d="M249.75,172.77l7.65-22.43h69.34l4.64,15.74L323,190.67l-15.1,13.26h10.46l-7.76,22.65H279.51l-3.88-18.87-6.47,18.87H238.42L257,172.77Zm45.72,8.41,2.8-8.3H287.6l-2.81,8.3Z"/><path d="M408.8,173H375.59l-1.83,5.5H395l-6.9,20H366.86l-1.95,5.5h33.22l-7.77,22.65H326.42L345,172.77h-7.23l7.66-22.43h71.17Z"/><path d="M471.67,183.77l31.81-33.54h38.18l-26.31,76.35H484.51L495.07,196l-29.33,30.63H448.27l-8-30.63-10.57,30.63H398.88l26.21-76.24h38.17Z"/><path d="M544.79,165.87l14.55-15.53h52.84l4.64,15.74-16.28,47.23-14.13,13.27H533.14l-4.21-14.67Zm28.36,37.95,10.56-30.94H573l-10.57,30.94Z"/><path class="cls-1" d="M196,297h10.68l2.58-7.55H240l-5.93,17.25-13.81,13H166.87l-5-13.26,17.15-49.72,14-13.26h53.38l4.31,14.67-5.39,15.63H214.65l2.58-7.55H206.56Z"/><path class="cls-1" d="M285.49,266.17h-28.9l7.77-22.64h55l4.1,14.77-3.77,10.89-38.61,27.93h29l-7.76,22.65H238.59l8.84-25.67Z"/><path class="cls-1" d="M331.76,259.06l14.55-15.53h52.84l4.64,15.74-16.28,47.24-14.13,13.26H320.11L315.9,305.1Zm28.36,38,10.56-30.95H360L349.44,297Z"/><path class="cls-1" d="M412.52,259.06l14.56-15.53h52.84l4.64,15.74-16.28,47.24-14.13,13.26H400.88l-4.21-14.67Zm28.36,38,10.57-30.95H440.78L430.21,297Z"/></svg>