<svg id="Capa_1" data-name="Capa 1" xmlns="http://www.w3.org/2000/svg" viewBox="0 0 640 470"><defs><style>.cls-1{fill:#d2121c;}</style></defs><path d="M59.13,235l3.33,26.69H40.76l-1.21-11.65L30.4,261.73H8.78L30.25,235l-3.1-26.77H48.77l1.14,11.64,9.22-11.64H80.84Z"/><path d="M85.52,208.27h43.56l3.25,11-5.9,17.24-10,9.3H94.14L88.7,261.73H67.15Zm14.14,21.62h7.49l2-5.82h-7.49Z"/><path d="M142.16,208.27h21.55l-12.93,37.58h23.36l-5.44,15.88H130.21l-2.87-10.36Z"/><path d="M189.34,219.16l10.21-10.89h37l3.25,11-11.42,33.12-9.9,9.3H181.25l-3-10.28Zm19.89,26.62,7.41-21.71h-7.49l-7.41,21.71Z"/><path d="M249.68,208.27h43.55l3.25,11-5.89,17.24L280,245.85h7.34l-5.45,15.88H260.11l-2.72-13.23-4.53,13.23H231.31Zm21.63,21.62,2-5.82h-7.48l-2,5.82Z"/><path d="M302.76,218.63l10-10.36h38.34l-5.45,15.88H322.42L321.13,228H336l-4.84,14H316.3l-1.37,3.86h23.22l-5.45,15.88H294.37l-2.88-10.36Z"/><path d="M357.13,208.27h43.55l3.25,11L398,236.55l-10.58,9.3h7.33l-5.44,15.88H367.56l-2.72-13.23-4.54,13.23H338.75Zm21.62,21.62,2-5.82h-7.49l-2,5.82Z"/><path class="cls-1" d="M428.58,224.15H408.32l5.44-15.88h38.56l2.88,10.36-2.65,7.64-27.07,19.58h20.34l-5.44,15.88H395.69l6.2-18Z"/><path class="cls-1" d="M461,219.16l10.21-10.89h37l3.25,11-11.42,33.12-9.9,9.3H452.85l-3-10.28Zm19.89,26.62,7.41-21.71h-7.49l-7.41,21.71Z"/><path class="cls-1" d="M517.65,219.16l10.21-10.89h37l3.25,11-11.41,33.12-9.91,9.3H509.49l-2.95-10.28Zm19.89,26.62L545,224.07h-7.49l-7.41,21.71Z"/><path class="cls-1" d="M578,208.27h43.56l3.25,11-5.9,17.24-10.59,9.3h7.34l-5.44,15.88H588.43l-2.72-13.23-4.54,13.23H559.62Zm21.63,21.62,2-5.82H594.1l-2,5.82Z"/></svg>