<svg id="Capa_1" data-name="Capa 1" xmlns="http://www.w3.org/2000/svg" viewBox="0 0 640 470"><defs><style>.cls-1{fill:#d2121c;}</style></defs><path d="M42.29,172.21H35l7.72-22.62h69.9l4.67,15.88-8.48,24.78L94.58,203.62H62.4l-7.82,22.83h-31Zm28.05,8.48H81.1l2.83-8.38H73.17Z"/><path d="M184.6,226.45H152v-7.17h-18.8l-4.9,7.17H95.67l34.68-54.24h-7.18l7.72-22.62h57.4ZM153.29,200l1.52-16.2L145.24,200Z"/><path d="M267.76,226.45H236.67l4.13-12.06-8.15-17.83-10.33,29.89h-31l26.42-76.86h23.15l12.83,27.07L263,149.59h31.2Z"/><path d="M302.34,172.21h-7.29l7.72-22.62h71.75l-7.83,22.83H333.21l-10.76,31.2h26l-7.83,22.83H292.88l-4.13-14.89Z"/><path d="M447,172.42H413.55L411.7,178h21.42l-7,20.11H404.74l-1.95,5.54h33.48l-7.83,22.83H364l18.69-54.24h-7.28l7.72-22.62h71.75Z"/><path d="M455.73,172.21l7.72-22.62h69.9L538,165.47l-8.48,24.78-15.22,13.37h10.54l-7.82,22.83H485.74l-3.92-19-6.52,19h-31L463,172.21Zm46.1,8.48,2.82-8.38H493.89l-2.83,8.38Z"/><path d="M612.71,226.45H580.1v-7.17H561.29l-4.89,7.17H523.78l34.68-54.24h-7.17L559,149.59h57.4ZM581.4,200l1.53-16.2L573.36,200Z"/><path class="cls-1" d="M203.19,266.37H174.05l7.83-22.83h55.44l4.14,14.9-3.81,11-38.92,28.15H228l-7.83,22.83H155.9l8.91-25.87Z"/><path class="cls-1" d="M249.83,259.2l14.67-15.66h53.27l4.68,15.88L306,307,291.79,320.4h-53.7l-4.24-14.78Zm28.59,38.27,10.65-31.21H278.31l-10.65,31.21Z"/><path class="cls-1" d="M331.25,259.2l14.68-15.66H399.2l4.67,15.88L387.46,307,373.22,320.4H319.51l-4.24-14.78Zm28.59,38.27,10.66-31.21H359.74l-10.66,31.21Z"/><path class="cls-1" d="M410.29,266.16,418,243.54h69.9l4.67,15.88L484.1,284.2l-15.22,13.37h10.55L471.6,320.4H440.29l-3.91-19-6.52,19h-31l18.7-54.24Zm46.09,8.48,2.83-8.38H448.45l-2.83,8.38Z"/></svg>