<svg id="Capa_1" data-name="Capa 1" xmlns="http://www.w3.org/2000/svg" viewBox="0 0 640 470"><defs><style>.cls-1{fill:#d2121c;}</style></defs><path d="M68.39,171.72H50.87L58,150.93h63.56l-7.13,20.79H96.71l-16.93,49.2H51.46Z"/><path d="M124.53,165.18l13.36-14.25H186.4l4.26,14.45-14.95,43.36-13,12.18H113.93l-4-13.46Zm26,34.85,9.71-28.41h-9.81L140.76,200Z"/><path d="M203.53,150.93h57l4.26,14.45L257.09,188l-13.86,12.18h9.6l-7.13,20.79H217.19l-3.56-17.32-5.94,17.32H179.47Zm28.31,28.31,2.58-7.62h-9.81L222,179.24Z"/><path d="M277.68,150.93h57L339,165.38,331.24,188l-13.86,12.18H327l-7.13,20.79H291.34l-3.56-17.32-5.94,17.32H253.62ZM306,179.24l2.58-7.62h-9.8l-2.58,7.62Z"/><path d="M347.18,164.49l13.06-13.56h50.2l-7.13,20.79H372.92l-1.69,5.05h19.51l-6.34,18.31H364.9l-1.79,5h30.4l-7.13,20.79H336.19l-3.77-13.56Z"/><path d="M394.3,220.92l24.06-70h57l4.26,14.45-19.11,55.54H432.32l16.92-49.3h-9.8l-16.93,49.3Z"/><path d="M502.9,171.72H485.38l7.13-20.79h63.55l-7.12,20.79H531.22l-16.93,49.2H486Z"/><path d="M559,165.18l13.37-14.25h48.51l4.26,14.45-14.95,43.36-13,12.18H548.44l-4-13.46Zm26,34.85,9.7-28.41H585L575.27,200Z"/><path class="cls-1" d="M263.62,251.72H237.09l7.13-20.79h50.49l3.76,13.56-3.47,10-35.44,25.64h26.63l-7.13,20.79h-58.5l8.11-23.56Z"/><path class="cls-1" d="M351.83,256.77l5.05,10.49L350,287.36l-13.07,13.56h-50L294,280.13h30.1l1.78-5.05h-20l-6.53-10.49,11.58-33.66h58.91l-7.13,20.79H332l-1.68,5Z"/><path class="cls-1" d="M372.82,245.18l13.36-14.25h48.51L439,245.38,424,288.74l-13,12.18H362.12l-3.86-13.46Zm26,34.85,9.71-28.41h-9.81L389.05,280Z"/></svg>