<svg id="Capa_1" data-name="Capa 1" xmlns="http://www.w3.org/2000/svg" viewBox="0 0 640 470"><defs><style>.cls-1{fill:#d2121c;}</style></defs><path d="M135.81,145.38H170.2l-51.93,81.05H72.64l3.78-81.05h34.4l-3,45.05Z"/><path d="M169.86,161.88l15.47-16.5h56.18l4.93,16.73-17.31,50.22-15,14.1H157.48L153,210.84ZM200,202.24l11.23-32.9H199.89l-11.23,32.9Z"/><path d="M261.34,145.38H294l-19.6,57h42.42l-8.26,24.08H243.23l-4.36-15.71Z"/><path d="M337.23,169.22h-7.68l8.14-23.84h75.67l-8.26,24.07H369.79l-11.35,32.9h27.4l-8.25,24.08H327.26l-4.36-15.71Z"/><path d="M414.27,169.22l8.14-23.84h73.72l4.93,16.73-8.94,26.14-16.05,14.1h11.12l-8.26,24.08h-33l-4.13-20.06-6.88,20.06H402.24L422,169.22Zm48.61,8.94,3-8.82H454.51l-3,8.82Z"/><path d="M579.82,226.43h-34.4v-7.57H525.59l-5.16,7.57H486l36.57-57.21H515l8.14-23.84h60.53Zm-33-27.86,1.6-17.08-10.08,17.08Z"/><path class="cls-1" d="M197.83,268.52H167.11l8.25-24.07h58.47l4.35,15.71-4,11.57-41,29.7H224l-8.26,24.07H148l9.4-27.28Z"/><path class="cls-1" d="M247,261l15.48-16.51h56.17l4.93,16.74L306.28,311.4l-15,14.1H234.63l-4.47-15.59Zm30.15,40.35,11.24-32.9H277.05l-11.24,32.9Z"/><path class="cls-1" d="M332.88,261l15.47-16.51h56.18l4.93,16.74L392.15,311.4l-15,14.1H320.5L316,309.91ZM363,301.31l11.23-32.9H362.91l-11.23,32.9Z"/><path class="cls-1" d="M416.22,268.3l8.14-23.85h73.72L503,261.19l-8.95,26.14L478,301.43h11.12l-8.25,24.07h-33l-4.12-20.06-6.88,20.06H404.18l19.72-57.2Zm48.61,8.94,3-8.83H456.46l-3,8.83Z"/></svg>