<svg id="Capa_1" data-name="Capa 1" xmlns="http://www.w3.org/2000/svg" viewBox="0 0 640 470"><defs><style>.cls-1{fill:#d2121c;}</style></defs><path class="cls-1" d="M61,205l11.36-33.28H175.22L182.1,195l-12.48,36.48-22.4,19.68h15.52l-11.52,33.6H105.14l-5.76-28-9.6,28H44.18L71.7,205Zm67.84,12.48L133,205.12H117.14L113,217.44Z"/><path class="cls-1" d="M234.26,205.28H191.38l11.52-33.6h95.2L285,209.76,227.54,251.2h43.2l-11.52,33.6H164.66l13.12-38.08Z"/><path d="M342.1,205.28H299.22l11.52-33.6h81.6l6.08,21.92-5.6,16.16L335.54,251.2h43l-11.52,33.6H272.5l13.12-38.08Z"/><path d="M410.74,194.72l21.6-23h78.4L517.62,195l-24.16,70.08-21,19.68h-79L387.22,263ZM452.82,251l15.68-45.92H452.66L437,251Z"/><path d="M530.58,194.72l21.6-23h78.4L637.46,195,613.3,265.12l-21,19.68h-79L507.06,263ZM572.66,251l15.68-45.92H572.5L556.82,251Z"/></svg>