<svg id="Capa_1" data-name="Capa 1" xmlns="http://www.w3.org/2000/svg" viewBox="0 0 640 470"><defs><style>.cls-1{fill:#d2121c;}</style></defs><path d="M49.94,182.06h86.25l6.44,21.87L131,238.07l-21,18.42h14.52l-10.78,31.44H70.6l-5.39-26.2-9,26.2H13.55Zm42.82,42.83,3.9-11.53H81.83l-3.89,11.53Z"/><path d="M155.06,202.58l19.76-20.52h75.92L240,213.51H194l-14.82,43h46l-10.78,31.44H138.44l-5.69-20.51Z"/><path class="cls-1" d="M226.49,287.93l10.78-31.14H247l15-43.58h-9.89l10.63-31.15h52.56l-25.6,74.73h9.88l-10.78,31.14Z"/><path class="cls-1" d="M366.5,213.51H326.37l10.78-31.45h76.37l5.69,20.52L414,217.7l-53.61,38.79h40.28l-10.78,31.44h-88.5l12.28-35.64Z"/><path class="cls-1" d="M499.92,221.15,507.56,237l-10.49,30.4-19.76,20.51H401.69l10.78-31.44H458l2.7-7.64H430.44L420.55,233l17.52-50.92h89.1l-10.78,31.45H470l-2.55,7.64Z"/><path class="cls-1" d="M556.22,256.34h14.83l8.53-24.86h42.68l-12.43,36.09-19.91,20.36H515.79l-6.89-18.41,23.81-69,19.47-18.42h74.27l-10.78,31.6H570.9Z"/></svg>