<svg id="Capa_1" data-name="Capa 1" xmlns="http://www.w3.org/2000/svg" viewBox="0 0 640 470"><defs><style>.cls-1{fill:#d2121c;}</style></defs><path d="M75.34,171.73l12.22-15.42h28.75L87.56,191.77,92,227.13H63.22l-1.6-15.43L49.5,227.13H20.85L49.3,191.77l-1.61-14.63H38.08l7.11-20.83H73.84Z"/><path d="M140.75,202.08H101l7.22-20.83H148Z"/><path d="M164,177.14h-6.71l7.11-20.83H228.8l4.31,14.62-7.82,22.84-13.12,12.32H182.52l-7.21,21H146.76ZM189.83,185h9.92l2.6-7.72h-9.91Z"/><path d="M246.13,156.31h28.55l-17.13,49.78h37.06l-7.21,21H230.3l-3.81-13.73Z"/><path d="M314.74,170.73l13.52-14.42h49.09l4.3,14.62-15.12,43.88-13.12,12.32H303.92L300,213.5ZM341.09,206l9.81-28.75H341L331.17,206Z"/><path d="M387.56,177.14l7.12-20.83h64.4l4.31,14.62-7.81,22.84-14,12.32h9.72l-7.21,21H415.21L411.6,209.6l-6,17.53H377.05l17.23-50ZM430,185l2.6-7.72h-9.92l-2.6,7.72Z"/><path d="M535.31,177.34H504.46l-1.7,5.11h19.73L516.08,201H496.35l-1.81,5.11H525.4l-7.22,21h-59.4l17.23-50H469.3l7.11-20.83h66.11Z"/><path d="M543.33,177.14l7.11-20.83h64.41l4.3,14.62-7.81,22.84-14,12.32H607l-7.21,21H571l-3.6-17.53-6,17.53H532.81l17.23-50ZM585.8,185l2.6-7.72h-9.92l-2.6,7.72Z"/><path class="cls-1" d="M185.68,263.91H158.83l7.21-21h51.09l3.8,13.73-3.5,10.11-35.86,26h26.94l-7.21,21H142.1l8.22-23.84Z"/><path class="cls-1" d="M228.65,257.3l13.52-14.43h49.08l4.31,14.63-15.13,43.87-13.12,12.32H217.83l-3.91-13.62ZM255,292.56l9.82-28.75h-9.92l-9.82,28.75Z"/><path class="cls-1" d="M303.67,257.3l13.53-14.43h49.08l4.31,14.63-15.13,43.87-13.12,12.32H292.85L289,300.07ZM330,292.56l9.81-28.75h-9.91l-9.82,28.75Z"/><path class="cls-1" d="M433.69,242.87h30.05l-45.37,70.82H378.5l3.3-70.82h30.05l-2.6,39.37Z"/><path class="cls-1" d="M505.11,242.87l-24.34,70.82H452.32l17.23-50h-6.71L470,242.87Z"/></svg>