<svg id="Capa_1" data-name="Capa 1" xmlns="http://www.w3.org/2000/svg" viewBox="0 0 640 470"><defs><style>.cls-1{fill:#d2121c;}</style></defs><path d="M67.22,186h79.87l6,20.25-10.81,31.61L122.83,254.9h13.45l-10,29.12H86.36l-5-24.27L73.05,284H33.53Zm39.66,39.66,3.6-10.68H96.76l-3.61,10.68Z"/><path d="M164.56,205l18.3-19h70.31l-10,29.12H200.61l-13.72,39.8h42.57l-10,29.12h-70.3l-5.27-19Z"/><path class="cls-1" d="M230.7,284l10-28.85h9l13.87-40.35h-9.16L264.26,186h48.67l-23.71,69.19h9.15l-10,28.85Z"/><path class="cls-1" d="M360.35,215.1H323.19l10-29.12h70.72l5.27,19-4.85,14L354.67,254.9H392L382,284H300l11.37-33Z"/><path class="cls-1" d="M483.9,222.17l7.07,14.7L481.26,265,463,284h-70l10-29.12h42.15l2.5-7.08h-28l-9.15-14.69L426.63,186h82.5l-10,29.12h-43l-2.36,7.07Z"/><path class="cls-1" d="M536,254.76h13.73l3.33-9.71h39.52L585,267.24,567.23,284H498.6L492.22,267l22-63.92,18-17.06h68.64l5.54,18.86L599.54,225H560l3.33-9.71H549.62Z"/></svg>