<svg id="Capa_1" data-name="Capa 1" xmlns="http://www.w3.org/2000/svg" viewBox="0 0 640 470"><defs><style>.cls-1{fill:#d2121c;}</style></defs><path d="M65.55,235l3.32,26.64H47.21L46,250.05l-9.13,11.63H15.29L36.72,235l-3.09-26.72H55.21l1.13,11.62,9.21-11.62H87.2Z"/><path d="M91.88,208.32h43.47l3.24,11-5.88,17.21-10,9.28H100.49l-5.44,15.85H73.55ZM106,229.91h7.47l2-5.81H108Z"/><path d="M148.4,208.32h21.51L157,245.83h23.31l-5.43,15.85H136.48l-2.87-10.34Z"/><path d="M195.49,219.19l10.19-10.87h37l3.25,11-11.4,33-9.88,9.29h-37.2l-3-10.27Zm19.85,26.56,7.39-21.65h-7.47l-7.39,21.65Z"/><path d="M255.71,208.32h43.46l3.25,11-5.89,17.21L286,245.83h7.32l-5.44,15.85H266.12l-2.72-13.21-4.52,13.21H237.37Zm21.58,21.59,2-5.81h-7.47l-2,5.81Z"/><path d="M308.68,218.66l10-10.34H356.9l-5.43,15.85H328.3L327,228h14.86l-4.83,14H322.19l-1.36,3.85H344l-5.44,15.85H300.3l-2.86-10.34Z"/><path d="M362.94,208.32H406.4l3.25,11-5.89,17.21-10.56,9.28h7.32l-5.44,15.85H373.35l-2.71-13.21-4.53,13.21H344.6Zm21.58,21.59,2-5.81H379l-2,5.81Z"/><path class="cls-1" d="M401.2,261.68l5.43-15.7h4.9l7.55-22h-5l5.36-15.7H446L433,246h5l-5.43,15.7Z"/><path class="cls-1" d="M488.13,228l3.85,8-5.29,15.32-10,10.34h-38.1l5.43-15.85H467l1.36-3.85H453.11l-5-8L457,208.32h44.9l-5.43,15.85H473L471.75,228Z"/><path class="cls-1" d="M504.13,219.19l10.18-10.87h37l3.24,11-11.39,33-9.89,9.29H496l-3-10.27ZM524,245.75l7.4-21.65H523.9l-7.4,21.65Z"/><path class="cls-1" d="M602.07,208.32h22.64l-34.18,53.36h-30L563,208.32h22.64l-2,29.66Z"/></svg>