<svg id="Capa_1" data-name="Capa 1" xmlns="http://www.w3.org/2000/svg" viewBox="0 0 640 470"><defs><style>.cls-1{fill:#d2121c;}</style></defs><path d="M53,146.79h64.67l4.83,16.4-8.76,25.6L98.92,202.6H65.8l-8.08,23.57h-32ZM74,178.9H85.11L88,170.26H76.92Z"/><path d="M155.4,226.17v-7.41H136l-5.06,7.41H97.24l50.64-79.38h45l-3.82,79.38Zm-7-27.28h8.31l1.57-16.73Z"/><path d="M196.05,226.17l27.28-79.38H288l4.83,16.4-21.67,63h-32l19.2-55.91H247.25l-19.2,55.91Z"/><path d="M319.22,170.37H299.34l8.09-23.58h72.08l-8.08,23.58h-20.1l-19.2,55.8H300Z"/><path d="M383.1,162.17l14.82-15.38h56.93l-8.09,23.58H412.29l-1.9,5.73H432.5l-7.18,20.77H403.2l-2,5.73h34.47l-8.09,23.57H370.64l-4.27-15.38Z"/><path d="M463.83,146.79H528.5l4.83,16.4-8.76,25.6L508.85,202.6h10.9l-8.09,23.57H479.32l-4-19.64-6.73,19.64h-32Zm32.11,32.11,2.92-8.64H487.75l-2.92,8.64Z"/><path d="M576.78,226.17v-7.41H557.36l-5.05,7.41H518.62l50.64-79.38h45l-3.81,79.38Zm-7-27.28h8.31l1.57-16.73Z"/><path class="cls-1" d="M171.85,323.21l8.08-23.36h7.3l11.23-32.67h-7.41l8-23.36h39.41l-19.2,56h7.41l-8.08,23.36Z"/><path class="cls-1" d="M301.19,273.13l5.73,11.9-7.86,22.79-14.82,15.39h-56.7l8.08-23.58h34.14l2-5.73H249.1L241.69,282l13.13-38.18h66.81l-8.08,23.58H278.74l-1.91,5.73Z"/><path class="cls-1" d="M325,260l15.16-16.17h55l4.83,16.4L383.05,309.4l-14.71,13.81H312.87l-4.38-15.27Zm29.53,39.52,11-32.22H354.41l-11,32.22Z"/><path class="cls-1" d="M414.6,243.82h64.67l4.83,16.4-8.76,25.6-15.72,13.81h10.89l-8.08,23.58H430.09l-4-19.65-6.74,19.65h-32Zm32.11,32.12,2.92-8.65H438.51l-2.92,8.65Z"/></svg>