<svg id="Capa_1" data-name="Capa 1" xmlns="http://www.w3.org/2000/svg" viewBox="0 0 640 470"><defs><style>.cls-1{fill:#d2121c;}</style></defs><path d="M54.66,217.52H33.25L42,192.12h77.66l-8.71,25.4H89.26L68.57,277.64H34Z"/><path d="M129.18,192.12h69.67l5.21,17.66-9.44,27.58-16.94,14.88h11.74l-8.71,25.4H145.87l-4.36-21.17-7.25,21.17H99.78Zm34.59,34.59,3.15-9.31h-12l-3.14,9.31Z"/><path class="cls-1" d="M190.51,277.64l8.71-25.16h7.86l12.1-35.2h-8l8.59-25.16h42.46l-20.69,60.36h8l-8.71,25.16Z"/><path class="cls-1" d="M329.86,223.69,336,236.51l-8.47,24.56-16,16.57H250.51l8.71-25.4H296l2.18-6.17H273.73l-8-12.82,14.15-41.13h72l-8.71,25.4h-37.5l-2.06,6.17Z"/><path class="cls-1" d="M355.51,209.54l16.33-17.42h59.27l5.2,17.66-18.26,53L402.2,277.64H342.44l-4.72-16.45Zm31.81,42.58,11.86-34.72h-12l-11.85,34.72Z"/><path d="M452,192.12h69.68l5.2,17.66-9.44,27.58-16.93,14.88h11.73l-8.71,25.4H468.73l-4.35-21.17-7.26,21.17H422.64Zm34.6,34.59,3.14-9.31h-12l-3.15,9.31Z"/><path d="M591.64,234.94l5.32,42.7H562.24L560.31,259l-14.64,18.63h-34.6l34.36-42.7-5-42.82h34.59l1.82,18.63,14.76-18.63h34.71Z"/></svg>