<svg id="Capa_1" data-name="Capa 1" xmlns="http://www.w3.org/2000/svg" viewBox="0 0 640 470"><defs><style>.cls-1{fill:#d2121c;}</style></defs><path d="M133.28,138.62h36l-54.36,84.84H67.16l4-84.84h36L104,185.78Z"/><path d="M168.92,155.9l16.2-17.28h58.8l5.16,17.52L231,208.7l-15.72,14.76H156l-4.68-16.32Zm31.56,42.24,11.76-34.44H200.36L188.6,198.14Z"/><path d="M264.68,138.62h34.2l-20.52,59.64h44.4l-8.64,25.2h-68.4L241.16,207Z"/><path d="M344.12,163.58h-8l8.52-25h79.2l-8.64,25.2h-37l-11.88,34.44H395l-8.64,25.2H333.68L329.12,207Z"/><path d="M424.76,163.58l8.52-25h77.16l5.16,17.52-9.36,27.36-16.8,14.76h11.64l-8.64,25.2H457.88l-4.32-21-7.2,21h-34.2l20.64-59.88Zm50.88,9.36,3.12-9.24H466.88l-3.12,9.24Z"/><path d="M598,223.46H562v-7.92H541.28l-5.4,7.92h-36l38.28-59.88h-7.92l8.52-25h63.36ZM563.48,194.3l1.68-17.88L554.6,194.3Z"/><path class="cls-1" d="M139.52,321.46l8.64-25H156l12-34.92H160l8.52-25h42.12L190.16,296.5h7.92l-8.64,25Z"/><path class="cls-1" d="M277.76,267.94l6.12,12.72L275.48,305l-15.84,16.44H199l8.64-25.2h36.48l2.16-6.12H222.08l-7.92-12.72,14-40.8h71.4L291,261.82h-37.2l-2,6.12Z"/><path class="cls-1" d="M303.2,253.9l16.2-17.28h58.8l5.16,17.52L365.24,306.7l-15.72,14.76H290.24l-4.68-16.32Zm31.56,42.24,11.76-34.44H334.64l-11.76,34.44Z"/><path d="M469.52,261.82h-37l-2,6.12h23.64l-7.68,22.2H422.84L412,321.46h-34.2l20.64-59.88h-8l8.52-25h79.2Z"/><path d="M529.76,236.62,500.6,321.46H466.52l20.64-59.88h-8l8.52-25Z"/></svg>