<svg id="Capa_1" data-name="Capa 1" xmlns="http://www.w3.org/2000/svg" viewBox="0 0 640 470"><defs><style>.cls-1{fill:#d2121c;}</style></defs><path d="M40.63,214.12l10.19-29.86H143.1l6.18,21-11.2,32.72L118,255.6h13.92l-10.33,30.14H80.24l-5.17-25.12-8.61,25.12H25.56l24.68-71.62Zm60.85,11.19,3.73-11.05H91l-3.73,11.05Z"/><path d="M184.44,255.45h14.21l3.44-10H243l-7.89,23-18.38,17.37h-71l-6.6-17.66,22.82-66.16,18.65-17.66h71.05l5.74,19.52-7.17,20.81H209.27l3.44-10h-14.2Z"/><path class="cls-1" d="M240.7,285.74,251,255.88h9.33l14.35-41.76h-9.47l10.19-29.86h50.37l-24.54,71.62h9.47l-10.33,29.86Z"/><path class="cls-1" d="M312,285.74l10.34-29.86h9.33l14.35-41.76h-9.47l10.19-29.86h50.38L372.6,255.88h9.48l-10.34,29.86Z"/><path class="cls-1" d="M411.07,204.93l19.37-20.67h70.33l6.17,21-21.67,62.86-18.8,17.66h-70.9L390,266.22Zm37.75,50.52,14.06-41.19H448.67l-14.06,41.19Z"/><path class="cls-1" d="M525.6,184.26h82.67l6.18,21-11.2,32.72L583.16,255.6h13.92l-10.33,30.14H545.41l-5.17-25.12-8.61,25.12h-40.9Zm41,41.05,3.73-11.05H556.17l-3.73,11.05Z"/></svg>