<svg id="Capa_1" data-name="Capa 1" xmlns="http://www.w3.org/2000/svg" viewBox="0 0 640 470"><defs><style>.cls-1{fill:#d2121c;}</style></defs><path d="M40.31,220.05h58.6l4.38,14.85-7.94,23.2L81.11,270.62H91L83.65,292H54.35l-3.67-17.8L44.58,292h-29Zm29.1,29.1,2.64-7.84H62l-2.65,7.84Z"/><path d="M111.73,234l13.43-13.94h51.59l-7.33,21.36H138.18l-10.07,29.21h31.24L152,292H100.44L96.57,278Z"/><path class="cls-1" d="M160.26,292l7.33-21.16h6.61l10.18-29.61h-6.72l7.22-21.16H220.6l-17.4,50.77h6.71L202.59,292Z"/><path class="cls-1" d="M255.39,241.41H228.13l7.32-21.36h51.89L291.21,234l-3.56,10.27-36.43,26.36h27.37L271.27,292H211.13l8.35-24.21Z"/><path class="cls-1" d="M346.05,246.6l5.19,10.79L344.11,278,330.68,292H279.3l7.33-21.36h30.93l1.83-5.19H298.84l-6.72-10.79L304,220.05h60.54l-7.33,21.36H325.7L324,246.6Z"/><path d="M372.6,220.05h29l-17.4,50.57h31.44L408.32,292H356.53L352.66,278Z"/><path d="M436.29,234l13.43-13.94h51.59L494,241.41H462.75L461,246.6h20l-6.51,18.83h-20l-1.83,5.19h31.23L476.59,292H425L421.13,278Z"/><path d="M484.72,292l24.73-71.93h61.66l4.37,14.85-15.36,44.57L546.79,292Zm46.4-50.67-10.07,29.31h10.07l10.07-29.31Z"/><path d="M564.08,292l7.33-21.16H578l10.18-29.61h-6.72l7.23-21.16h35.71L607,270.82h6.72L606.41,292Z"/></svg>