<?xml version="1.0" encoding="UTF-8"?>
<svg id="Capa_1" xmlns="http://www.w3.org/2000/svg" viewBox="0 0 640 470">
  <defs>
    <style>
      .cls-1 {
        fill: #d2121c;
      }
    </style>
  </defs>
  <path d="M43.2,214.28l9.33-27.32h84.45l5.65,19.18-10.24,29.95-18.39,16.15h12.74l-9.46,27.58h-37.83l-4.73-22.98-7.88,22.98H29.41l22.59-65.54h-8.8ZM98.89,224.52l3.41-10.11h-13l-3.41,10.11h13Z"/>
  <path d="M174.8,252.11h13l3.15-9.19h37.43l-7.22,21.01-16.81,15.89h-65.01l-6.04-16.15,20.88-60.55,17.07-16.15h65.01l5.25,17.86-6.57,19.04h-37.43l3.15-9.19h-13l-12.87,37.43Z"/>
  <path d="M251.64,205.87l17.73-18.91h64.36l5.65,19.18-19.83,57.53-17.21,16.15h-64.88l-5.12-17.86,19.31-56.08ZM286.18,252.11l12.87-37.69h-13l-12.87,37.69h13Z"/>
  <path class="cls-1" d="M382.19,214.54h-35.2l9.46-27.58h66.98l4.99,17.99-4.6,13.27-47.02,34.02h35.33l-9.46,27.58h-77.62l10.77-31.26,46.36-34.02Z"/>
  <path class="cls-1" d="M438.53,205.87l17.73-18.91h64.36l5.65,19.18-19.83,57.53-17.21,16.15h-64.88l-5.12-17.86,19.31-56.08ZM473.08,252.11l12.87-37.69h-13l-12.87,37.69h13Z"/>
  <path class="cls-1" d="M536.91,205.87l17.73-18.91h64.36l5.65,19.18-19.83,57.53-17.21,16.15h-64.88l-5.12-17.86,19.31-56.08ZM571.45,252.11l12.87-37.69h-13l-12.87,37.69h13Z"/>
</svg>