<svg id="Capa_1" data-name="Capa 1" xmlns="http://www.w3.org/2000/svg" viewBox="0 0 640 470"><defs><style>.cls-1{fill:#d2121c;}</style></defs><path d="M55.72,186.12h79.64l5.94,20.19-10.78,31.52-19.36,17h13.41l-9.95,29H74.8l-5-24.19-8.29,24.19H22.12Zm39.54,39.55L98.86,215H85.17l-3.6,10.65Z"/><path d="M152.78,205.07,171,186.12h70.09l-10,29H188.72L175,254.84h42.44l-9.95,29h-70.1l-5.25-18.94Z"/><path class="cls-1" d="M218.73,283.87l10-28.75h9l13.82-40.24h-9.12l9.81-28.76h48.53l-23.64,69h9.13l-10,28.75Z"/><path class="cls-1" d="M348,215.16H310.94l10-29h70.51l5.26,18.95-4.84,14-49.5,35.81h37.19l-9.95,29H287.85L299.19,251Z"/><path class="cls-1" d="M471.19,222.21l7.05,14.66-9.68,28.06-18.25,18.94H380.49l9.95-29h42l2.49-7.05H407l-9.12-14.66,16.18-47h82.26l-10,29H443.54l-2.36,7.05Z"/><path d="M576.4,186.12h41.48l-62.63,97.75h-55l4.56-97.75h41.48l-3.59,54.34Z"/></svg>