<svg id="Capa_1" data-name="Capa 1" xmlns="http://www.w3.org/2000/svg" viewBox="0 0 640 470"><defs><style>.cls-1{fill:#d2121c;}</style></defs><path d="M88.74,186.44l30.15-31.79h36.19L130.14,227H100.91l10-29-27.8,29H66.56L59,198,49,227H19.75l24.84-72.27H80.77Z"/><path d="M220,227H189.32v-6.75H171.64L167,227H136.37L169,176h-6.75l7.26-21.26h54Zm-29.43-24.84L192,187l-9,15.23Z"/><path d="M261.18,205.45H271.3l5.82-17h29.13l-8.48,24.64L284.18,227h-50.6l-4.7-12.58,16.25-47.12,13.29-12.57H317.8l-7.36,21.57H271.19Z"/><path d="M373,227H343.77l3.88-11.35L340,198.91,330.27,227H301.14L326,154.75h21.77l12.06,25.45,8.69-25.45h29.34Z"/><path d="M466,176.22H434.53l-1.74,5.21h20.14l-6.54,18.91H426.25l-1.84,5.21h31.48L448.53,227H387.92l17.58-51h-6.85l7.26-21.26h67.46Z"/><path d="M481,176h-6.85l7.26-21.26h67.46l-7.36,21.47H510.07L500,205.55h24.43L517,227H472.15l-3.89-14Z"/><path d="M552,169.47l13.79-14.72h50.09l4.39,14.92-15.43,44.77L591.43,227H540.94l-4-13.9Zm26.88,36,10-29.34H578.76l-10,29.34Z"/><path class="cls-1" d="M209.56,264.55H182.17l7.35-21.47h52.13l3.89,14L242,267.41l-36.59,26.48h27.49l-7.36,21.46H165.1L173.48,291Z"/><path class="cls-1" d="M253.41,257.8l13.8-14.72h50.08l4.4,14.93-15.44,44.77-13.39,12.57H242.37l-4-13.9Zm26.88,36,10-29.33H280.19l-10,29.33Z"/><path class="cls-1" d="M330,257.8l13.8-14.72h50.08l4.4,14.93-15.44,44.77-13.39,12.57H318.93l-4-13.9Zm26.88,36,10-29.33H356.75l-10,29.33Z"/><path class="cls-1" d="M440.46,258.83l12.47-15.75h29.33l-29.33,36.19,4.5,36.08H428.09l-1.63-15.74-12.37,15.74H384.85l29-36.08-1.63-14.92h-9.81l7.25-21.27h29.24Z"/></svg>