<svg id="Capa_1" data-name="Capa 1" xmlns="http://www.w3.org/2000/svg" viewBox="0 0 640 470"><defs><style>.cls-1{fill:#d2121c;}</style></defs><path d="M62.38,235l3.43,27.55H43.41l-1.25-12-9.45,12H10.39L32.56,235l-3.2-27.63H51.68l1.17,12,9.53-12h22.4Z"/><path d="M97.81,223.8H84l5.62-16.39h50.11l-5.62,16.39h-14l-13.35,38.79H84.47Z"/><path d="M145.9,207.41h45l3.35,11.39-6.09,17.8-10.92,9.6h7.57l-5.62,16.39H156.67l-2.81-13.66-4.69,13.66H126.93Zm22.32,22.32,2-6h-7.73l-2,6Z"/><path d="M200.69,218.1,211,207.41h39.58L245,223.8H221l-1.33,4H235l-5,14.44H214.66l-1.4,4h24l-5.62,16.39H192l-3-10.69Z"/><path d="M290.14,262.59H267.9l13.34-38.71h-7.8l-13.35,38.71H237.85l19-55.18h75.48L336,217l-15.69,45.58H298l13.35-38.71h-7.81Z"/><path d="M341.58,218.65l10.54-11.24h38.25l3.35,11.39L381.94,253l-10.23,9.6H333.23L330.11,252Zm20.53,27.47,7.65-22.4H362l-7.65,22.4Z"/><path class="cls-1" d="M423,262.59v-5.15h-13.5L406,262.59H382.56l35.21-55.18h31.3l-2.66,55.18Zm-4.83-19h5.77L425,232Z"/><path class="cls-1" d="M485.52,223.8H464.6l5.62-16.39H510l3,10.69L510.26,226,482.32,246.2h21l-5.62,16.39H451.56L458,244Z"/><path class="cls-1" d="M519,218.65l10.54-11.24h38.25l3.36,11.39L559.36,253l-10.23,9.6H510.57l-3-10.61Zm20.53,27.47,7.65-22.4h-7.73l-7.64,22.4Z"/><path class="cls-1" d="M577.47,218.65,588,207.41h38.24l3.36,11.39L617.82,253l-10.22,9.6H569L566,252ZM598,246.12l7.65-22.4h-7.73l-7.65,22.4Z"/></svg>