<svg id="Capa_1" data-name="Capa 1" xmlns="http://www.w3.org/2000/svg" viewBox="0 0 640 470"><defs><style>.cls-1{fill:#d2121c;}</style></defs><path d="M36.18,172.35l7.71-22.58h69.8l4.67,15.85-8.47,24.75L94.7,203.72h10.53l-7.82,22.8H66.15l-3.91-19-6.52,19H24.79l18.67-54.17Zm46,8.47L85,172.46H74.29l-2.82,8.36Z"/><path d="M127.15,165.41l14.66-15.64H195l4.67,15.85-16.39,47.55-14.22,13.35H115.43l-4.23-14.76Zm28.55,38.21,10.64-31.16H155.59L145,203.62Z"/><path d="M263.72,226.52H232.67l4.12-12.05-8.14-17.8-10.31,29.85H187.4l26.38-76.75H236.9l12.81,27,9.23-27h31.15Z"/><path d="M345.24,200.69l-3.8,11-14.33,14.87H272.29l7.82-22.8h29.31l-19.65-28.11,3.8-11,14.33-14.88h55.36l-7.82,22.8h-29.2Z"/><path d="M425.57,226.52H394.52l9.34-27.14H393l-9.33,27.14H352.73l18.67-54.17h-7.27l7.71-22.58h38.21l-7.6,22.15,18-22.26h31.59L430,176.8h12.7Z"/><path d="M524.35,172.57H490.92l-1.85,5.54h21.39l-6.95,20.08H482.13l-2,5.53h33.44l-7.82,22.8H441.42l18.67-54.17h-7.27l7.7-22.58h71.65Z"/><path d="M533,172.35l7.71-22.58h69.8l4.66,15.85-8.46,24.75-15.2,13.35h10.53l-7.82,22.8H563l-3.91-19-6.51,19H521.64l18.67-54.17Zm46,8.47,2.82-8.36H571.14l-2.82,8.36Z"/><path class="cls-1" d="M195.71,266.38h-29.1l7.82-22.79h55.36l4.13,14.87-3.8,11-38.87,28.12h29.21l-7.82,22.79H148.48l8.91-25.83Z"/><path class="cls-1" d="M242.28,259.22l14.65-15.63h53.19l4.67,15.85L298.4,307l-14.22,13.35H230.55l-4.23-14.76Zm28.55,38.21,10.63-31.16H270.72l-10.64,31.16Z"/><path class="cls-1" d="M323.58,259.22l14.66-15.63h53.19l4.67,15.85L379.71,307l-14.23,13.35H311.86l-4.23-14.76Zm28.55,38.21,10.64-31.16H352l-10.63,31.16Z"/><path class="cls-1" d="M402.5,266.17l7.71-22.58H480l4.67,15.85-8.47,24.75L461,297.54h10.53l-7.81,22.79H432.46l-3.91-19-6.51,19H391.1l18.67-54.16Zm46,8.46,2.82-8.36H440.6l-2.82,8.36Z"/></svg>