<svg id="Capa_1" data-name="Capa 1" xmlns="http://www.w3.org/2000/svg" viewBox="0 0 640 470"><defs><style>.cls-1{fill:#d2121c;}</style></defs><path d="M78.27,165.92l13.36-16.85H123L91.63,187.81l4.81,38.64H65L63.28,209.6,50,226.45H18.73l31.08-38.64-1.75-16H37.55l7.78-22.76h31.3Z"/><path d="M149.75,199.09H106.29l7.88-22.77h43.46Z"/><path d="M175.14,171.83h-7.33l7.77-22.76h72.24l-7.88,23H206.22l-10.83,31.42h26.16l-7.88,23h-48l-4.16-15Z"/><path d="M248.69,171.83l7.77-22.76h70.38l4.71,16L323,190l-15.32,13.47H318.3l-7.88,23H278.9L275,207.3l-6.57,19.15H237.2L256,171.83Zm46.41,8.54,2.85-8.43H287.11l-2.85,8.43Z"/><path d="M410.14,172.05H376.42l-1.86,5.59h21.57l-7,20.24H367.56l-2,5.59H399.3l-7.88,23H326.51l18.83-54.62H338l7.77-22.76H418Z"/><path d="M474,183l32.29-34H545l-26.7,77.49H487l10.73-31.08-29.77,31.08H450.2l-8.1-31.08-10.73,31.08h-31.3l26.59-77.38h38.75Z"/><path d="M548.16,164.83l14.77-15.76h53.64l4.7,16L604.75,213l-14.34,13.46H536.34l-4.27-14.88Zm28.78,38.53,10.73-31.42H576.83l-10.72,31.42Z"/><path class="cls-1" d="M199.33,266.64H170l7.89-23H233.7l4.16,15L234,269.71l-39.19,28.35h29.44l-7.88,23H151.72l9-26.05Z"/><path class="cls-1" d="M246.28,259.42l14.78-15.76h53.63l4.71,16-16.53,47.94L288.53,321H234.46l-4.27-14.88ZM275.07,298l10.73-31.42H275L264.23,298Z"/><path class="cls-1" d="M328.26,259.42,343,243.66h53.63l4.71,16-16.53,47.94L370.51,321H316.44l-4.27-14.88ZM357.05,298l10.73-31.42H356.94L346.21,298Z"/><path class="cls-1" d="M407.84,266.42l7.77-22.76H486l4.7,16-8.53,24.95-15.33,13.47h10.62l-7.88,23H438.05l-3.94-19.15L427.54,321h-31.2l18.83-54.62ZM454.25,275l2.84-8.43H446.26L443.41,275Z"/></svg>