<svg id="Capa_1" data-name="Capa 1" xmlns="http://www.w3.org/2000/svg" viewBox="0 0 640 470"><defs><style>.cls-1{fill:#d2121c;}</style></defs><path d="M34.91,214l10.23-29.95h92.6l6.2,21L132.7,238l-20.16,17.72h14l-10.37,30.24H74.66l-5.18-25.2-8.64,25.2H19.79L44.56,214ZM96,225.28l3.74-11.09H85.46l-3.74,11.09Z"/><path d="M179.22,255.52h14.26l3.46-10.08h41l-7.92,23-18.43,17.43H140.34l-6.63-17.71,22.9-66.4,18.72-17.71h71.29l5.76,19.58-7.2,20.89h-41l3.45-10.08H193.34Z"/><path class="cls-1" d="M235.68,285.91l10.37-30h9.36L269.81,214H260.3l10.23-29.95h50.55L296.45,256H306l-10.37,30Z"/><path class="cls-1" d="M307.25,285.91l10.37-30H327L341.39,214h-9.51l10.23-29.95h50.55L368,256h9.51l-10.37,30Z"/><path class="cls-1" d="M406.63,204.83l19.44-20.74h70.57l6.2,21L481.09,268.2l-18.87,17.71H391.07l-5.61-19.59Zm37.88,50.69,14.11-41.33H444.36l-14.11,41.33Z"/><path class="cls-1" d="M614,184.09l6.19,21L614.74,221,598.9,235.07l6.19,14-5.47,15.84-20.6,21H496.07L520.84,214h-9.51l10.23-29.95Zm-52.28,71.72,2.59-7.63H550.07l-2.59,7.63Zm11.67-34,2.59-7.63H561.74l-2.59,7.63Z"/><text/></svg>