<svg id="Capa_1" data-name="Capa 1" xmlns="http://www.w3.org/2000/svg" viewBox="0 0 640 470"><defs><style>.cls-1{fill:#d2121c;}.cls-2{fill:#fff;}</style></defs><path d="M75.3,213.44,85.18,201h23.25L85.18,229.64l3.57,28.6H65.5l-1.3-12.48-9.8,12.48H31.24l23-28.6-1.3-11.82H45.17L50.92,201H74.09Z"/><path d="M128.19,238H96l5.83-16.85H134Z"/><path d="M147,217.82h-5.43L147.31,201h53.46l-5.83,17H170l-8,23.25h19.36l-5.83,17H139.94l-3.08-11.1Z"/><path d="M254.8,218h-25l-1.38,4.13h16l-5.19,15h-16l-1.46,4.13h24.95l-5.84,17h-48l13.93-40.42h-5.42L207.17,201h53.46Z"/><path d="M261.28,217.82,267,201h52.08l3.48,11.83-6.32,18.46-11.34,10h7.86l-5.83,17H283.63l-2.91-14.18-4.86,14.18H252.77l13.93-40.42Zm34.34,6.32,2.11-6.24h-8l-2.11,6.24Z"/><path d="M333.12,201h46.66l3.48,11.83-6.32,18.46-11.34,10h7.86l-5.83,17H344.3l-2.92-14.18-4.86,14.18H313.44Zm23.17,23.17,2.1-6.24h-8l-2.11,6.24Z"/><path d="M414.61,258.24v-5.35h-14L397,258.24h-24.3L409.18,201h32.48l-2.75,57.27Zm-5-19.69h6l1.13-12.06Z"/><path class="cls-1" d="M479.49,218H457.78l5.83-17h41.31l3.08,11.1-2.83,8.18-29,21H498l-5.84,17H444.25L450.9,239Z"/><path class="cls-1" d="M551.66,222.11l4.13,8.59-5.67,16.44-10.69,11.1H498.52l5.84-17H529l1.46-4.13H514.08l-5.35-8.59L518.21,201H566.4l-5.83,17H535.46l-1.38,4.13Z"/><path class="cls-1" d="M568.83,212.63,579.77,201h39.69l3.48,11.83-12.23,35.47-10.61,10h-40l-3.16-11Zm21.3,28.52,7.94-23.25h-8l-7.93,23.25Z"/><rect class="cls-2" x="13.66" y="-0.07" width="150.32" height="43.1"/></svg>