<svg id="Capa_1" data-name="Capa 1" xmlns="http://www.w3.org/2000/svg" viewBox="0 0 640 470"><defs><style>.cls-1{fill:#d2121c;}</style></defs><path d="M79.74,223.4H56.45l-1.28,3.86h14.9l-4.84,14H50.33L49,245.1H72.26L66.81,261H22l13-37.73H29.91l5.37-15.73H85.19Z"/><path d="M112.56,219.17l9.23-11.65h21.7l-21.7,26.77L125.11,261h-21.7l-1.21-11.64L93.05,261H71.43L92.9,234.29l-1.21-11H84.43l5.37-15.73h21.63Z"/><path d="M147.87,223.25h-5.06l5.36-15.73h48.62l3.26,11-5.9,17.24-9.91,9.3H161.86L156.42,261H134.87Zm19.51,5.9h7.49l2-5.82h-7.48Z"/><path d="M204.51,223.25l5.37-15.73H258.5l3.25,11-5.9,17.24-10.59,9.3h7.34L247.15,261H225.38l-2.73-13.23L218.12,261H196.57l13-37.73Zm32.06,5.9,2-5.82h-7.48l-2,5.82Z"/><path d="M316,223.4H292.75l-1.29,3.86h14.9l-4.84,14h-14.9l-1.36,3.85h23.29L303.11,261H258.27l13-37.73h-5.06l5.37-15.73h49.9Z"/><path d="M359.89,243l-2.64,7.63-10,10.36H309.08l5.44-15.88h20.42l-13.69-19.58,2.65-7.64,10-10.36h38.57L367,223.4H346.66Z"/><path d="M410.86,243l-2.65,7.63-10,10.36H360l5.45-15.88H385.9l-13.68-19.58,2.64-7.64,10-10.36h38.56L418,223.4H397.62Z"/><path class="cls-1" d="M477.93,207.52l3.25,11-2.88,8.32L470,234.29l3.25,7.34-2.88,8.31-10.81,11H416l13-37.73h-5l5.37-15.73Zm-27.45,37.66,1.36-4h-7.49l-1.36,4Zm6.12-17.85,1.36-4h-7.48l-1.36,4Z"/><path class="cls-1" d="M472.71,261l5.44-15.72h4.92l7.56-22h-5L491,207.52h26.54l-12.93,37.74h5L504.16,261Z"/><path class="cls-1" d="M559.81,227.26l3.86,8-5.29,15.35L548.4,261H510.21l5.45-15.88h23l1.36-3.85H524.73l-5-8,8.85-25.71h45l-5.45,15.88H544.69l-1.28,3.86Z"/><path class="cls-1" d="M575.84,218.41l10.21-10.89H623.1l3.26,11-11.42,33.12L605,261H567.68l-2.95-10.28ZM595.73,245l7.41-21.7h-7.48L588.25,245Z"/></svg>