<?xml version="1.0" encoding="UTF-8"?>
<svg id="Capa_1" xmlns="http://www.w3.org/2000/svg" viewBox="0 0 640 470">
  <defs>
    <style>
      .cls-1 {
        fill: #d2121c;
      }
    </style>
  </defs>
  <path d="M41.27,211.87h8.54l2.07-6.04h24.58l-4.74,13.8-11.04,10.44H17.99l-3.97-10.61,13.71-39.76,11.21-10.61h42.69l3.45,11.73-4.31,12.5h-24.58l2.07-6.04h-8.54l-8.45,24.58Z"/>
  <path d="M138.64,230.07h-24.67l7.42-21.56h-8.62l-7.42,21.56h-24.58l14.83-43.03h-5.78l6.12-17.94h30.36l-7.33,21.47h8.62l7.33-21.47h24.67l-20.96,60.97Z"/>
  <path d="M214.44,230.07h-25.87v-5.69h-14.92l-3.88,5.69h-25.87l27.51-43.03h-5.69l6.12-17.94h45.54l-2.93,60.97ZM189.6,209.11l1.21-12.85-7.59,12.85h6.38Z"/>
  <path d="M249.63,211.87h8.54l2.07-6.04h24.58l-4.74,13.8-11.04,10.44h-42.69l-3.97-10.61,13.71-39.76,11.21-10.61h42.69l3.45,11.73-4.31,12.5h-24.58l2.07-6.04h-8.54l-8.45,24.58Z"/>
  <path d="M351.31,230.07h-25.87v-5.69h-14.92l-3.88,5.69h-25.87l27.51-43.03h-5.69l6.12-17.94h45.54l-2.93,60.97ZM326.47,209.11l1.21-12.85-7.59,12.85h6.38Z"/>
  <path d="M371.49,187.03l6.12-17.94h55.45l3.71,12.59-6.73,19.66-12.07,10.61h8.37l-6.21,18.11h-24.84l-3.1-15.09-5.17,15.09h-24.58l14.83-43.03h-5.78ZM408.05,193.76l2.24-6.64h-8.54l-2.24,6.64h8.54Z"/>
  <path d="M498.69,187.2h-26.56l-1.47,4.4h16.99l-5.52,15.95h-16.99l-1.55,4.4h26.56l-6.21,18.11h-51.14l14.83-43.03h-5.78l6.12-17.94h56.92l-6.21,18.11Z"/>
  <path d="M505.59,187.03l6.12-17.94h55.45l3.71,12.59-6.73,19.66-12.07,10.61h8.37l-6.21,18.11h-24.84l-3.1-15.09-5.17,15.09h-24.58l14.83-43.03h-5.78ZM542.16,193.76l2.24-6.64h-8.54l-2.24,6.64h8.54Z"/>
  <path d="M630.12,230.07h-25.87v-5.69h-14.92l-3.88,5.69h-25.87l27.51-43.03h-5.69l6.12-17.94h45.54l-2.93,60.97ZM605.28,209.11l1.21-12.85-7.59,12.85h6.38Z"/>
  <path class="cls-1" d="M267.14,255.93h-23.11l6.21-18.11h43.98l3.28,11.81-3.02,8.71-30.87,22.34h23.2l-6.21,18.11h-50.97l7.07-20.53,30.44-22.34Z"/>
  <path class="cls-1" d="M304.13,250.24l11.64-12.42h42.26l3.71,12.59-13.02,37.77-11.3,10.61h-42.6l-3.36-11.73,12.68-36.83ZM326.81,280.6l8.45-24.75h-8.54l-8.45,24.75h8.54Z"/>
  <path class="cls-1" d="M368.73,250.24l11.64-12.42h42.26l3.71,12.59-13.02,37.77-11.3,10.61h-42.6l-3.36-11.73,12.68-36.83ZM391.41,280.6l8.45-24.75h-8.54l-8.45,24.75h8.54Z"/>
</svg>