<?xml version="1.0" encoding="UTF-8"?>
<svg id="Capa_1" xmlns="http://www.w3.org/2000/svg" viewBox="0 0 640 470">
  <defs>
    <style>
      .cls-1 {
        fill: #d2121c;
      }
    </style>
  </defs>
  <path d="M37.53,183.35h-6.22l6.59-19.31h59.71l3.99,13.56-7.24,21.17-12.16,11.42h-27.49l-6.69,19.5h-26.46l15.97-46.34ZM61.48,190.59h9.19l2.41-7.15h-9.19l-2.41,7.15Z"/>
  <path d="M159.08,229.69h-27.86v-6.13h-16.06l-4.18,6.13h-27.86l29.62-46.34h-6.13l6.59-19.31h49.03l-3.16,65.65ZM132.34,207.12l1.3-13.84-8.17,13.84h6.87Z"/>
  <path d="M180.25,183.35h-6.22l6.59-19.31h61.29l-6.69,19.5h-28.6l-9.19,26.65h22.19l-6.69,19.5h-40.76l-3.53-12.72,11.61-33.61Z"/>
  <path d="M295.02,229.69h-27.86v-6.13h-16.06l-4.18,6.13h-27.86l29.62-46.34h-6.13l6.59-19.31h49.03l-3.16,65.65ZM268.28,207.12l1.3-13.84-8.17,13.84h6.87Z"/>
  <path d="M332.44,210.09h9.19l5.29-15.41h26.46l-7.71,22.38-12.35,12.63h-45.96l-4.27-11.42,14.76-42.81,12.07-11.42h53.95l-6.69,19.59h-35.66l-9.1,26.46Z"/>
  <path d="M386.77,177.41l12.54-13.37h45.5l3.99,13.56-14.02,40.67-12.16,11.42h-45.87l-3.62-12.63,13.65-39.65ZM411.19,210.09l9.1-26.65h-9.19l-9.1,26.65h9.19Z"/>
  <path d="M503.58,229.69h-26.56l3.53-10.31-6.96-15.23-8.82,25.54h-26.46l22.56-65.65h19.78l10.96,23.12,7.89-23.12h26.65l-22.56,65.65Z"/>
  <path d="M566.07,164.04l-22.56,65.65h-26.37l15.97-46.34h-6.22l6.59-19.31h32.59Z"/>
  <path d="M625.23,229.69h-27.86v-6.13h-16.06l-4.18,6.13h-27.86l29.62-46.34h-6.13l6.59-19.31h49.03l-3.16,65.65ZM598.48,207.12l1.3-13.84-8.17,13.84h6.87Z"/>
  <path class="cls-1" d="M266.56,257.54h-24.89l6.69-19.5h47.36l3.53,12.72-3.25,9.38-33.24,24.05h24.98l-6.69,19.5h-54.88l7.61-22.1,32.78-24.05Z"/>
  <path class="cls-1" d="M349.3,262.27l4.74,9.84-6.5,18.85-12.26,12.72h-46.89l6.69-19.5h28.23l1.67-4.74h-18.76l-6.13-9.84,10.86-31.57h55.25l-6.69,19.5h-28.79l-1.58,4.74h20.15Z"/>
  <path class="cls-1" d="M368.98,251.41l12.54-13.37h45.5l3.99,13.56-14.02,40.67-12.16,11.42h-45.87l-3.62-12.63,13.65-39.65ZM393.4,284.09l9.1-26.65h-9.19l-9.1,26.65h9.19Z"/>
</svg>