<?xml version="1.0" encoding="UTF-8"?>
<svg id="Capa_1" xmlns="http://www.w3.org/2000/svg" viewBox="0 0 640 470">
  <defs>
    <style>
      .cls-1 {
        fill: #d2121c;
      }
    </style>
  </defs>
  <path d="M97.98,198.8l-4.17,12.04-15.73,16.33H17.89l8.58-25.03h32.18l-21.57-30.87,4.17-12.04,15.73-16.33h60.78l-8.58,25.03h-32.06l20.86,30.87Z"/>
  <path d="M178.3,198.8l-4.17,12.04-15.73,16.33h-60.18l8.58-25.03h32.18l-21.57-30.87,4.17-12.04,15.73-16.33h60.78l-8.58,25.03h-32.06l20.86,30.87Z"/>
  <path d="M254.69,210.84l-15.73,16.33h-60.42l8.58-25.03h36.59l2.15-6.08h-23.48l7.63-22.05h23.48l2.03-6.08h-36.59l8.58-25.03h60.42l4.53,16.33-17.76,51.6Z"/>
  <path d="M281.75,160.07l16.09-17.16h58.4l5.12,17.4-18,52.2-15.61,14.66h-58.87l-4.65-16.21,17.52-50.89ZM313.09,202.02l11.68-34.2h-11.8l-11.68,34.2h11.8Z"/>
  <path d="M371.01,160.07l16.09-17.16h58.4l5.12,17.4-18,52.2-15.61,14.66h-58.87l-4.65-16.21,17.52-50.89ZM402.35,202.02l11.68-34.2h-11.8l-11.68,34.2h11.8Z"/>
  <path class="cls-1" d="M499.83,161.26l14.54-18.35h34.2l-34.2,42.19,5.24,42.07h-34.2l-1.91-18.35-14.42,18.35h-34.08l33.85-42.07-1.91-17.4h-11.44l8.46-24.79h34.08l1.79,18.35Z"/>
  <path class="cls-1" d="M581.71,167.94h-34.32l8.58-25.03h70.91l-9.77,28.36-45.05,55.89h-38.26l47.91-59.23Z"/>
  <path class="cls-1" d="M234.14,256.24l15.73-16.33h60.42l-8.58,25.03h-36.59l-2.03,6.08h23.48l-7.63,22.05h-23.48l-2.15,6.08h36.59l-8.58,25.03h-60.42l-4.53-16.33,17.76-51.6Z"/>
  <path class="cls-1" d="M329.95,239.91h60.42l-8.58,25.03h-36.59l-2.03,6.08h23.48l-7.63,22.05h-23.48l-10.73,31.1h-33.96l23.36-67.93,15.73-16.33Z"/>
  <path class="cls-1" d="M433.87,239.91l-28.96,84.26h-33.96l28.96-84.26h33.96Z"/>
</svg>