<?xml version="1.0" encoding="UTF-8"?>
<svg id="Capa_1" xmlns="http://www.w3.org/2000/svg" viewBox="0 0 640 470">
  <defs>
    <style>
      .cls-1 {
        fill: #d2121c;
      }
    </style>
  </defs>
  <path d="M65.98,215.35l11.32-14.29h26.63l-26.63,32.84,4.08,32.75h-26.63l-1.48-14.29-11.23,14.29H15.51l26.35-32.75-1.48-13.55h-8.91l6.59-19.3h26.53l1.39,14.29Z"/>
  <path d="M109.3,220.36h-6.22l6.59-19.3h61.23l-6.68,19.48h-28.58l-9.18,26.63h22.17l-6.68,19.48h-40.73l-3.53-12.71,11.6-33.58Z"/>
  <path d="M171.65,220.36l6.59-19.3h59.66l3.99,13.55-7.24,21.15-12.99,11.41h9l-6.68,19.48h-26.72l-3.34-16.24-5.57,16.24h-26.44l15.96-46.3h-6.22ZM210.99,227.6l2.41-7.14h-9.19l-2.41,7.14h9.19Z"/>
  <path d="M305.62,266.66h-27.83v-6.12h-16.05l-4.18,6.12h-27.83l29.6-46.3h-6.12l6.59-19.3h48.99l-3.15,65.59ZM278.9,244.11l1.3-13.82-8.16,13.82h6.87Z"/>
  <path d="M361.57,201.07l-22.54,65.59h-26.35l15.96-46.3h-6.22l6.59-19.3h32.56Z"/>
  <path d="M368.99,201.07h26.44l-15.86,46.11h34.33l-6.68,19.48h-52.88l-3.53-12.71,18.18-52.88Z"/>
  <path class="cls-1" d="M455.27,220.55h-24.86l6.68-19.48h47.32l3.53,12.71-3.25,9.37-33.21,24.03h24.96l-6.68,19.48h-54.83l7.61-22.08,32.75-24.03Z"/>
  <path class="cls-1" d="M495.07,214.43l12.52-13.36h45.46l3.99,13.55-14.01,40.64-12.15,11.41h-45.83l-3.62-12.62,13.64-39.62ZM519.47,247.08l9.09-26.63h-9.18l-9.09,26.63h9.19Z"/>
  <path class="cls-1" d="M564.56,214.43l12.52-13.36h45.46l3.99,13.55-14.01,40.64-12.15,11.41h-45.83l-3.62-12.62,13.64-39.62ZM588.96,247.08l9.09-26.63h-9.18l-9.09,26.63h9.19Z"/>
</svg>