<?xml version="1.0" encoding="UTF-8"?>
<svg id="Capa_1" xmlns="http://www.w3.org/2000/svg" viewBox="0 0 640 470">
  <defs>
    <style>
      .cls-1 {
        fill: #d2121c;
      }
    </style>
  </defs>
  <path d="M25.74,273.64l19.48-56.51h-7.59l8.04-23.55h76.21l4.87,16.53-17.1,49.6-14.72,13.93H25.74ZM77.38,217.25l-11.21,32.61h11.21l11.21-32.61h-11.21Z"/>
  <path d="M154.5,249.75h11.32l19.25-56.17h32.27l-27.52,80.06h-66.13l-4.42-15.4,22.2-64.66h32.27l-19.25,56.17Z"/>
  <path d="M218.37,217.14l8.04-23.55h72.81l4.87,16.53-8.83,25.82-15.85,13.93h10.98l-8.15,23.78h-32.61l-4.08-19.82-6.79,19.82h-32.27l19.48-56.51h-7.59ZM266.38,225.97l2.94-8.72h-11.21l-2.94,8.72h11.21Z"/>
  <path d="M313.26,209.89l15.29-16.31h55.49l4.87,16.53-17.1,49.6-14.83,13.93h-55.94l-4.42-15.4,16.65-48.35ZM343.05,249.75l11.1-32.5h-11.21l-11.1,32.5h11.21Z"/>
  <path class="cls-1" d="M425.83,217.36h-30.35l8.15-23.78h57.75l4.3,15.51-3.96,11.44-40.54,29.33h30.46l-8.15,23.78h-66.93l9.29-26.95,39.97-29.33Z"/>
  <path class="cls-1" d="M526.72,223.14l5.78,12-7.93,22.99-14.95,15.51h-57.19l8.15-23.78h34.43l2.04-5.78h-22.88l-7.47-12,13.25-38.5h67.38l-8.15,23.78h-35.1l-1.93,5.78h24.57Z"/>
  <path class="cls-1" d="M550.73,209.89l15.29-16.31h55.49l4.87,16.53-17.1,49.6-14.83,13.93h-55.94l-4.42-15.4,16.65-48.35ZM580.51,249.75l11.1-32.5h-11.21l-11.1,32.5h11.21Z"/>
</svg>