<?xml version="1.0" encoding="UTF-8"?>
<svg id="Capa_1" xmlns="http://www.w3.org/2000/svg" viewBox="0 0 640 470">
  <defs>
    <style>
      .cls-1 {
        fill: #d2121c;
      }
    </style>
  </defs>
  <path d="M83.56,216.2l8.46-24.79h76.63l5.12,17.4-9.3,27.17-16.68,14.66h11.56l-8.58,25.03h-34.32l-4.29-20.86-7.15,20.86h-33.96l20.5-59.47h-7.98ZM134.09,225.49l3.1-9.18h-11.8l-3.1,9.18h11.8Z"/>
  <path d="M246.83,191.41h35.75l-53.99,84.26h-47.43l3.93-84.26h35.75l-3.1,46.84,29.08-46.84Z"/>
  <path d="M339.19,247.3l-4.17,12.04-15.73,16.33h-60.18l8.58-25.03h32.18l-21.57-30.87,4.17-12.04,15.73-16.33h60.78l-8.58,25.03h-32.06l20.86,30.87Z"/>
  <path class="cls-1" d="M339.55,275.67l8.58-24.79h7.75l11.92-34.68h-7.87l8.46-24.79h41.83l-20.38,59.47h7.87l-8.58,24.79h-49.58Z"/>
  <path class="cls-1" d="M476.83,222.51l6.08,12.63-8.34,24.19-15.73,16.33h-60.18l8.58-25.03h36.23l2.15-6.08h-24.07l-7.87-12.63,13.94-40.52h70.91l-8.58,25.03h-36.94l-2.03,6.08h25.86Z"/>
  <path class="cls-1" d="M502.1,208.57l16.09-17.16h58.4l5.12,17.4-18,52.2-15.61,14.66h-58.87l-4.65-16.21,17.52-50.89ZM533.44,250.52l11.68-34.2h-11.8l-11.68,34.2h11.8Z"/>
</svg>