<?xml version="1.0" encoding="UTF-8"?>
<svg id="Capa_1" xmlns="http://www.w3.org/2000/svg" viewBox="0 0 640 470">
  <defs>
    <style>
      .cls-1 {
        fill: #d2121c;
      }
    </style>
  </defs>
  <path d="M82.99,159.56h31.61l-47.74,74.5H24.93l3.48-74.5h31.61l-2.74,41.42,25.71-41.42Z"/>
  <path d="M158.13,159.56l-25.61,74.5h-29.93l18.13-52.59h-7.06l7.48-21.92h36.99Z"/>
  <path d="M166.14,181.48h-7.06l7.48-21.92h67.76l4.53,15.39-8.22,24.03-13.8,12.96h-31.19l-7.59,22.13h-30.03l18.13-52.59ZM193.33,189.7h10.43l2.74-8.11h-10.43l-2.74,8.11Z"/>
  <path d="M314.52,181.69h-32.46l-1.79,5.37h20.76l-6.74,19.5h-20.76l-1.9,5.38h32.46l-7.59,22.13h-62.49l18.13-52.59h-7.06l7.48-21.92h69.55l-7.59,22.13Z"/>
  <path d="M322.95,181.48l7.48-21.92h67.76l4.53,15.39-8.22,24.03-14.75,12.96h10.22l-7.59,22.13h-30.35l-3.79-18.44-6.32,18.44h-30.03l18.13-52.59h-7.06ZM367.63,189.7l2.74-8.11h-10.43l-2.74,8.11h10.43Z"/>
  <path class="cls-1" d="M437.08,181.69h-28.24l7.59-22.13h53.75l4,14.44-3.69,10.64-37.73,27.29h28.35l-7.59,22.13h-62.28l8.64-25.08,37.2-27.29Z"/>
  <path class="cls-1" d="M530.97,187.06l5.37,11.17-7.38,21.39-13.91,14.44h-53.22l7.59-22.13h32.04l1.9-5.38h-21.29l-6.96-11.17,12.33-35.83h62.7l-7.59,22.13h-32.67l-1.79,5.37h22.87Z"/>
  <path class="cls-1" d="M553.31,174.73l14.23-15.17h51.64l4.53,15.39-15.91,46.16-13.81,12.96h-52.06l-4.11-14.33,15.49-45ZM581.03,211.83l10.33-30.25h-10.43l-10.33,30.25h10.43Z"/>
  <path class="cls-1" d="M184.69,316.3l18.13-52.59h-7.06l7.48-21.92h70.92l4.53,15.39-15.91,46.16-13.7,12.96h-64.39ZM232.74,263.82l-10.43,30.35h10.43l10.43-30.35h-10.43Z"/>
  <path class="cls-1" d="M344.55,316.3h-30.14l9.06-26.35h-10.54l-9.06,26.35h-30.03l18.13-52.59h-7.06l7.48-21.92h37.09l-7.38,21.5,17.49-21.6h30.67l-21.39,26.35h12.33l-16.65,48.26Z"/>
  <path class="cls-1" d="M371,263.71l7.48-21.92h67.76l4.53,15.39-8.22,24.03-14.75,12.96h10.22l-7.59,22.13h-30.35l-3.79-18.44-6.32,18.44h-30.03l18.13-52.59h-7.06ZM415.68,271.93l2.74-8.11h-10.43l-2.74,8.11h10.43Z"/>
</svg>