<?xml version="1.0" encoding="UTF-8"?>
<svg id="Capa_1" xmlns="http://www.w3.org/2000/svg" viewBox="0 0 640 470">
  <defs>
    <style>
      .cls-1 {
        fill: #d2121c;
      }
    </style>
  </defs>
  <path d="M69.42,182.39h41l-24.6,71.49h53.22l-10.36,30.21H46.7l-5.47-19.71,28.19-81.99Z"/>
  <path d="M249.81,212.59h-44.3l-2.45,7.34h28.34l-9.21,26.61h-28.34l-2.59,7.34h44.3l-10.36,30.21h-85.3l24.74-71.78h-9.64l10.21-29.92h94.94l-10.36,30.21Z"/>
  <path d="M264.48,203.1l19.42-20.71h70.48l6.19,21-21.72,63-18.84,17.69h-71.06l-5.61-19.56,21.15-61.42ZM302.31,253.73l14.1-41.28h-14.24l-14.1,41.28h14.24Z"/>
  <path class="cls-1" d="M344.45,284.09l10.36-29.92h9.35l14.38-41.86h-9.49l10.21-29.92h50.49l-24.6,71.78h9.49l-10.36,29.92h-59.84Z"/>
  <path class="cls-1" d="M415.94,284.09l10.36-29.92h9.35l14.38-41.86h-9.49l10.21-29.92h50.49l-24.6,71.78h9.49l-10.36,29.92h-59.84Z"/>
  <path class="cls-1" d="M515.2,203.1l19.42-20.71h70.48l6.19,21-21.72,63-18.84,17.69h-71.06l-5.61-19.56,21.15-61.42ZM553.03,253.73l14.1-41.28h-14.24l-14.1,41.28h14.24Z"/>
</svg>