<?xml version="1.0" encoding="UTF-8"?>
<svg id="Capa_1" xmlns="http://www.w3.org/2000/svg" viewBox="0 0 640 470">
  <defs>
    <style>
      .cls-1 {
        fill: #d2121c;
      }
    </style>
  </defs>
  <path d="M89.11,155.85h32.21l-48.63,75.9H29.96l3.54-75.9h32.21l-2.79,42.19,26.19-42.19Z"/>
  <path d="M165.66,155.85l-26.09,75.9h-30.49l18.47-53.57h-7.19l7.62-22.33h37.68Z"/>
  <path d="M173.82,178.18h-7.19l7.62-22.33h69.03l4.62,15.67-8.37,24.48-14.06,13.2h-31.78l-7.73,22.54h-30.6l18.47-53.57ZM201.51,186.55h10.63l2.79-8.27h-10.63l-2.79,8.27Z"/>
  <path d="M324.97,178.39h-33.06l-1.83,5.48h21.15l-6.87,19.86h-21.15l-1.93,5.47h33.07l-7.73,22.54h-63.66l18.47-53.57h-7.19l7.62-22.33h70.85l-7.73,22.54Z"/>
  <path d="M333.56,178.18l7.62-22.33h69.03l4.62,15.67-8.37,24.48-15.03,13.2h10.41l-7.73,22.54h-30.92l-3.86-18.79-6.44,18.79h-30.6l18.47-53.57h-7.19ZM379.08,186.55l2.79-8.27h-10.63l-2.79,8.27h10.63Z"/>
  <path class="cls-1" d="M402.8,231.75l7.73-22.33h6.98l10.74-31.24h-7.09l7.62-22.33h37.68l-18.36,53.57h7.09l-7.73,22.33h-44.66Z"/>
  <path class="cls-1" d="M526.47,183.87l5.48,11.38-7.51,21.79-14.17,14.71h-54.21l7.73-22.54h32.64l1.93-5.47h-21.69l-7.09-11.38,12.56-36.5h63.88l-7.73,22.54h-33.28l-1.83,5.48h23.3Z"/>
  <path class="cls-1" d="M549.23,171.31l14.49-15.46h52.6l4.62,15.67-16.21,47.02-14.06,13.21h-53.03l-4.19-14.6,15.78-45.84ZM577.47,209.09l10.52-30.81h-10.63l-10.52,30.81h10.63Z"/>
  <path class="cls-1" d="M253.31,315.52h-30.7l4.08-11.92-8.05-17.61-10.2,29.52h-30.6l26.09-75.9h22.87l12.67,26.73,9.12-26.73h30.81l-26.09,75.9Z"/>
  <path class="cls-1" d="M341.02,315.52h-30.7l9.23-26.84h-10.74l-9.23,26.84h-30.6l18.47-53.57h-7.19l7.62-22.33h37.79l-7.52,21.9,17.82-22.01h31.24l-21.79,26.84h12.56l-16.96,49.17Z"/>
  <path class="cls-1" d="M356.69,315.52l18.47-53.57h-7.19l7.62-22.33h72.25l4.62,15.67-16.21,47.02-13.96,13.21h-65.59ZM405.65,262.06l-10.63,30.92h10.63l10.63-30.92h-10.63Z"/>
</svg>