<?xml version="1.0" encoding="UTF-8"?>
<svg id="Capa_1" xmlns="http://www.w3.org/2000/svg" viewBox="0 0 640 470">
  <defs>
    <style>
      .cls-1 {
        fill: #fff;
      }

      .cls-2 {
        fill: #1d1d1b;
      }

      .cls-3 {
        fill: #e20613;
      }
    </style>
  </defs>
  <path class="cls-2" d="M198.57,247.83c.36-.52.69-1.07,1-1.64,1.16-1.84,1.33-4.33.44-6.37-.87-1.71-2.2-3.01-3.76-3.68h7.56l4.18-5.77,11.28,10.3c-5.1,1.79-13.02,4.56-20.71,7.15M149.64,247.83c-1.01.35-2.06.53-3.11.53h-34.47l3.91-5.64c.69.23,1.38.42,2.09.55,2.63,3.8,8.67,4.23,11.32,4.23h20.37l-.19.3M403.64,245.71c1.57-.63,12.83-5.04,13.5-5.24,1.76-.56,3.04-2.38,3.22-4.56.06-2.39-1.18-4.54-3.05-5.31-2.4-1.39-14.63-8.11-18.16-9.8-2.37-1.05-4.89-1.53-7.42-1.41h-111.59l-26.26,9.09-5.16-5.24-6.96-3.75h-107.92c-4.59-.04-9.15.81-13.52,2.52l2.09-2.52s-68.45-.2-79.79-.2-19.72,3.02-22.98,7.83c-1.96,3.15-8.65,13.1-12.37,18.59-1.72,2.14-2.19,5.34-1.17,8.06.66,1.49,1.67,2.72,2.9,3.53,1.5,1.08,7.67,4.43,9.23,5.24,3.9,1.48,7.97,2.18,12.06,2.09h182.74l.17-.96c1.45-1.18,3.06-2.03,4.76-2.52l17.88-6.02.25.25c.38.43.36.71.33.81l-1.25,4.56,6.94,3.85h50.29l-22.48-21.11,22.98-7.86-9.21,13.25,6.94,3.85h28.5l11.12-16.2-6.94-3.93h-20.89c4.78-1.44,13.39-3.9,19.31-5.59l17.34,7.68c-4.95,4.51-13.77,12.59-14.63,13.42-1.29,1.19-2.01,3.08-1.92,5.04.32,1.86,1.42,3.37,2.9,4,1.78.98,13.54,7.15,13.54,7.15h56.33l2.09,1.21h47.01l-40.74-19.65"/>
  <polygon class="cls-1" points="296.31 236.11 317.39 236.11 310.89 245.56 289.75 245.56 296.31 236.11"/>
  <path class="cls-1" d="M283.42,229.16c6.98-2.52,14.63-4.74,20.68-6.22h-23.57l-29.73,10.3-10.13-10.45h-37.75c2.21,1.24,4.36,2.65,6.41,4.23,1.44,1.36,16.26,14.84,16.26,14.84,0,0-14.81,5.24-28.02,9.7h-15.06l.38-.45c2.09-2.92,6.27-8.89,7.42-10.78,2.49-4.56-4.35-6.75-11.22-6.78h-28.42c-2.7,0-4.18-.78-3.93-1.64s.9-1.33,1.59-2.12c1.72-.83,3.58-1.18,5.43-1.01h41.79l4.35-5.97h-66.04c-8.36,0-15.06,2.85-16.71,5.24-1.27,1.65-2.45,3.4-3.53,5.24-2.72,4.21,2.47,6.88,8.98,6.88h28.21c5.89,0,6.16.86,5.95,1.59s-4.55,7.56-5.12,8.44c-1.52,1.09-3.27,1.63-5.04,1.54h-50.08l10.01-14.51h-50.92l-3.7,5.72h17.45l-4.64,6.88c-.75,1.11-2.09,1.74-5.7,1.94h-13.96c-2.74,0-4.03-1.18-2.7-3.12,1.34-1.94,10.22-15.69,11.32-16.8,1.11-1.11,2.34-2.52,8.15-2.52h48.31l5.29-5.97s-61.32-.15-72.69,0-18.55,3.27-20.89,6.73c-1.8,2.52-8.67,12.59-12.35,18.31-4.6,6.98,5.95,9.5,13.83,9.5h180.5c.19-.98,6.37-3.25,6.37-3.25l20.89-7.3s5.56,4.48,6.87,5.89c1.07,1.05,1.51,2.77,1.11,4.36h38.21l-20.35-19.42,26.53-9.04"/>
  <path class="cls-3" d="M364.74,240.67c1.19-.5,23.38-8.24,23.38-8.24h-44.69l-21.37-9.39h69.66c2.13-.11,4.26.29,6.27,1.16,3.26,1.59,6.83,3.48,11.05,5.92,1.92,1.11,1.9,2.52,0,3.58-1.23.58-15.19,5.97-19.51,7.83-.59.23-.69,1.08.13,1.46,6.96,3.48,32.2,15.69,32.2,15.69h-30.92l-26.7-14.48c-.74-.45-1.04-1.54-.67-2.43.21-.5.59-.86,1.05-.97"/>
  <path class="cls-3" d="M353.93,250.14c-1.78,2.22.71,3.15,2.63,3.5l18.66,3.65h-42.62s-3.82-1.84-5.91-3.02c-1.71-.96-1.71-1.94-.25-3.5.9-.96,16.59-15.26,16.59-15.26h22.67l-11.78,14.63"/>
  <path class="cls-2" d="M633.78,234.02c1.18,2.5.73,5.66-1.07,7.56l-6.1,9.62c-1.21,1.91-2.73,3.5-4.47,4.68-2.2,1.21-4.53,2.06-6.92,2.52-3.78.85-7.59,1.4-11.43,1.66-4.55.38-10.03.58-16.21.58-6.94,0-13.02-.28-18.01-.83-7.15-.81-9.51-2.07-10.68-2.92-1.08-.78-1.84-2.08-2.09-3.58-.82.96-1.74,1.79-2.74,2.47-2.22,1.22-4.57,2.07-6.98,2.52-3.81.88-7.66,1.46-11.53,1.74-4.6.4-10.11.58-16.38.58-6.98,0-13.02-.28-18.16-.86-7.21-.83-9.59-2.12-10.84-3-1.12-.84-1.88-2.23-2.09-3.8,0-.1,0-.2,0-.3h-.17l-4.89,6.12-.73.93h-34.31l-3.84-5.04,4.05-5.24,6.5-8.11h-10.84l-3.84-5.04,4.05-5.24,2.09-2.77.69-.88h1.02c11.1-.26,22.16-1.62,33.07-4.08h83.39l3.34,3.6s2.7-.93,4.45-1.39c3.78-.85,7.59-1.4,11.43-1.66,4.55-.38,10.03-.58,16.21-.58,6.94,0,13.02.28,18.01.83,7.15.81,9.51,2.07,10.68,2.92.44.32.84.72,1.19,1.18,1.53,1.84,2.98,3.77,4.35,5.79"/>
  <path class="cls-1" d="M553.11,234.7c-5.26-1.24-10.61-1.78-15.96-1.59-5.81-.08-11.62.52-17.34,1.79l2.93-4.31h33.43l2.74-4.18h-58.08l-9.84,13.07h26.93c.34-.59.78-1.08,1.3-1.44.67-.3,1.38-.5,2.09-.58,1.08-.2,2.17-.29,3.26-.28,1.28-.1,2.56.07,3.78.53.61.34.61.99,0,1.96l-3.32,5.04-2.09,3.02c-.53.37-1.12.59-1.73.65-1.12.21-2.25.3-3.38.28-2.84,0-4.35-.33-4.35-1.01.22-1.32.76-2.53,1.55-3.48l1.02-1.56h-27.16l-.9,1.39c-1.56,2.37-1.56,4.11,0,5.24,3.06,1.58,6.34,2.44,9.67,2.52,4.96.55,10.93.84,17.91.86,6.23,0,11.62-.19,16.19-.58,3.76-.26,7.5-.82,11.2-1.66,2.17-.45,4.28-1.24,6.27-2.37,1.46-1.03,2.73-2.4,3.74-4.03l2.4-3.65c1.84-2.82,1.14-4.72-2.09-5.69"/>
  <path class="cls-1" d="M481.28,226.32c-10.98,2.52-22.11,3.95-33.28,4.28l-2.09,2.77h18.7l-14.4,18.31h27.41l19.91-25.19-16.26-.18Z"/>
  <path class="cls-1" d="M626.95,229.64c-3.04-1.57-6.29-2.42-9.59-2.52-4.92-.55-10.84-.83-17.76-.83-6.17,0-11.52.18-16.05.55-3.73.25-7.44.79-11.12,1.61-2.16.42-4.27,1.19-6.27,2.29-1.44.95-2.72,2.25-3.74,3.8l-6.08,9.72c-1.55,2.32-1.55,4.06,0,5.24,3.04,1.57,6.29,2.42,9.59,2.52,4.92.55,10.84.83,17.76.83,6.17,0,11.52-.19,16.05-.58,3.73-.25,7.44-.79,11.12-1.61,2.17-.5,4.28-1.34,6.27-2.52,1.46-.92,2.75-2.17,3.8-3.7l6.08-9.57c1.55-2.32,1.55-4.06,0-5.24M600.04,234.68l-6.64,10.45c-1.23,1.76-1.96,2.52-2.09,2.95-.53.36-1.11.57-1.71.63-1.11.2-2.22.3-3.34.28-2.9,0-4.35-.33-4.35-.98.24-1.28.77-2.45,1.55-3.38l6.62-10.45c1.23-1.76,1.96-2.52,2.09-2.95.5-.34,1.04-.55,1.61-.63,1.11-.2,2.22-.3,3.34-.28,2.82,0,4.35.33,4.35.98-.24,1.28-.77,2.45-1.55,3.38"/>
</svg>