<?xml version="1.0" encoding="UTF-8"?>
<svg id="Capa_1" xmlns="http://www.w3.org/2000/svg" viewBox="0 0 640 470">
  <defs>
    <style>
      .cls-1 {
        fill: #d2121c;
      }
    </style>
  </defs>
  <polygon points="427.65 217.61 432.96 210.52 381.44 210.52 374.03 210.52 342.29 210.52 305.69 259.48 344.84 259.48 362.36 236.07 399.55 236.07 404.31 229.67 367.12 229.67 376.15 217.61 427.65 217.61"/>
  <path d="M278.91,219.34c1.46-1.8,3.65-2.85,5.97-2.85h47.44l4.39-5.97h-65.51c-9.88,0-19.17,4.66-25.07,12.59l-5.4,10.57c-.56.73-.42,1.78.32,2.34.3.23.67.35,1.04.34h38.18c1.34-.01,2.45,1.07,2.46,2.41,0,.63-.23,1.23-.66,1.69l-9.34,10.15c-1.3,1.41-3.13,2.2-5.04,2.19h-43.62l-4.96,6.58h68.34c8.04,0,15.61-3.82,20.4-10.29l10.42-13.99c1.04-1.4.75-3.38-.65-4.42-.55-.41-1.21-.63-1.9-.63h-42.17c-.9.01-1.63-.71-1.64-1.6,0-.38.13-.75.37-1.05l6.65-8.07Z"/>
  <polygon points="90.48 229.25 84.58 223.88 92.6 223.92 93.2 222.46 75.45 222.5 64.4 249.91 71.84 249.91 84.38 244.41 90.48 229.25"/>
  <path d="M150.06,233.73l21.23-6.58,2.48-6.16h17.15l13.82-4.39h-27.92l-32.33,13.16-3.25-2.19,24.85-8.77h-19.87l-10.7,4.69-1.34-.99h-19.96l8.47,6.58-7.22,3.16-8.47-6.82-19.1-.29,14.12,12.92-41.67,18.22,44.37-15.79,4.21,3.84-24.76,10.15,26.62-8.36,3.79,3.49h22.24l-10.29-8.38,8.38-2.68,10.75,8.33h17.55l1.14-2.83-14.3-10.33ZM123.22,238.51l-3.88-3.14,7.85-2.79,3.66,2.79-7.63,3.14Z"/>
  <polygon points="166.14 218.62 146.27 218.68 115.48 232.17 107.01 225.31 87.98 225.17 102.06 238.05 60.37 256.27 104.71 240.48 114.62 249.54 136.8 249.52 119.32 235.31 166.14 218.62"/>
  <path d="M254.5,222.06h-38.07l-10.97,27.37h17.7l4.82-11.95h1.25c1.97-.04,3.93.08,5.88.35,2.39.44,2.65,1.23,2.19,2.65l-3.68,9.01h17.24s2.94-7.24,3.66-9.06c.42-1.01.75-2.19-1.54-3.18-3.28-.96-6.69-1.42-10.11-1.36,3.51,0,7.01-.38,10.44-1.1,2.51-.52,4.57-2.3,5.44-4.72l1.38-3.42c.72-1.8-.68-4.56-5.55-4.56M242.59,228.22l-.96,2.06c-1.64,3.47-3.95,4.08-12.28,4.08h-.11l3.27-8.14h8.16c2.94,0,2.57.72,1.95,2"/>
  <polygon points="202.57 249.56 163.49 249.63 174.52 222.28 213.58 222.19 212.09 225.9 190.7 225.94 187.94 232.85 208.8 232.81 207.33 236.43 186.47 236.47 182.7 245.83 204.06 245.81 202.57 249.56"/>
  <path d="M60.85,249.76H21.61c-3.86,0-5.11-2.92-4.52-4.58l7.35-17.55c2.06-3.46,5.88-5.47,9.89-5.2h37.88l-4.39,10.61h-17.55l2.7-6.38h-8.36c-1.25-.08-2.4.67-2.83,1.84l-6.43,15.35s-.79,1.58,1.47,1.58h8.18l2.39-5.81h-7.5l1.38-3.33h25.16l-5.59,13.47Z"/>
  <polygon class="cls-1" points="533.26 227.43 535.61 222.46 461.59 222.46 453.69 239.15 517.36 239.15 514.79 244.58 451.13 244.58 448.6 249.91 522.64 249.91 530.69 232.87 467 232.87 469.59 227.43 533.26 227.43"/>
  <path class="cls-1" d="M610.08,249.89h-76.54l12.96-27.44h76.54l-12.96,27.44ZM610.65,227.32h-56.47l-8.11,17.15h56.47l8.11-17.15Z"/>
  <polygon class="cls-1" points="441.86 222.47 433.21 240.26 431.21 244.49 431.16 244.49 428.53 249.9 438.76 249.9 451.72 222.47 441.86 222.47"/>
</svg>