<?xml version="1.0" encoding="UTF-8"?>
<svg id="Capa_1" xmlns="http://www.w3.org/2000/svg" viewBox="0 0 640 470">
  <defs>
    <style>
      .cls-1 {
        fill: #d2121c;
      }
    </style>
  </defs>
  <polygon points="388.35 219.27 393.15 212.87 346.56 212.87 339.86 212.87 311.16 212.87 278.06 257.13 313.46 257.13 329.31 235.97 362.94 235.97 367.24 230.18 333.61 230.18 341.78 219.27 388.35 219.27"/>
  <path d="M253.84,220.84c1.32-1.63,3.3-2.58,5.39-2.58h42.9l3.97-5.39h-59.24c-8.93,0-17.34,4.22-22.67,11.38l-4.88,9.56c-.5.66-.38,1.61.29,2.11.27.21.6.31.94.31h34.53c1.22-.01,2.21.96,2.22,2.18,0,.57-.21,1.12-.6,1.53l-8.45,9.18c-1.17,1.27-2.83,1.99-4.56,1.98h-39.45l-4.48,5.95h61.8c7.27,0,14.12-3.45,18.44-9.3l9.42-12.65c.94-1.27.68-3.05-.58-4-.5-.37-1.1-.57-1.72-.57h-38.14c-.81,0-1.48-.64-1.48-1.45,0-.35.11-.68.33-.95l6.01-7.3Z"/>
  <polygon points="83.44 229.8 78.11 224.94 85.36 224.98 85.9 223.66 69.86 223.7 59.86 248.49 66.58 248.49 77.93 243.51 83.44 229.8"/>
  <path d="M137.33,233.85l19.2-5.95,2.24-5.57h15.51l12.49-3.97h-25.25l-29.23,11.9-2.94-1.98,22.47-7.93h-17.97l-9.68,4.24-1.21-.89h-18.05l7.66,5.95-6.52,2.86-7.66-6.17-17.27-.26,12.77,11.68-37.68,16.48,40.12-14.28,3.81,3.47-22.39,9.18,24.08-7.56,3.43,3.15h20.11l-9.3-7.58,7.58-2.42,9.72,7.54h15.87l1.03-2.56-12.93-9.34ZM113.05,238.17l-3.51-2.84,7.1-2.52,3.31,2.52-6.9,2.84Z"/>
  <polygon points="151.86 220.19 133.9 220.24 106.05 232.44 98.39 226.23 81.18 226.12 93.91 237.76 56.21 254.24 96.31 239.96 105.28 248.15 125.33 248.13 109.52 235.28 151.86 220.19"/>
  <path d="M231.77,223.3h-34.43l-9.92,24.75h16l4.36-10.81h1.13c1.78-.04,3.55.07,5.32.32,2.16.4,2.4,1.11,1.98,2.4l-3.33,8.15h15.59s2.66-6.54,3.31-8.19c.38-.91.67-1.98-1.39-2.88-2.97-.87-6.05-1.28-9.14-1.23,3.17,0,6.34-.34,9.44-.99,2.27-.47,4.14-2.08,4.92-4.26l1.25-3.09c.65-1.63-.61-4.13-5.02-4.13M221,228.87l-.87,1.86c-1.49,3.13-3.57,3.69-11.11,3.69h-.1l2.96-7.36h7.38c2.66,0,2.32.65,1.77,1.8"/>
  <polygon points="184.81 248.17 149.46 248.23 159.44 223.5 194.76 223.42 193.41 226.77 174.08 226.81 171.58 233.06 190.44 233.02 189.11 236.29 170.25 236.33 166.84 244.8 186.15 244.78 184.81 248.17"/>
  <path d="M56.65,248.35H21.17c-3.49,0-4.62-2.64-4.09-4.15l6.64-15.87c1.86-3.13,5.32-4.94,8.94-4.7h34.25l-3.97,9.6h-15.87l2.44-5.77h-7.56c-1.13-.08-2.17.6-2.56,1.67l-5.81,13.88s-.71,1.43,1.33,1.43h7.4l2.16-5.26h-6.78l1.25-3.01h22.75l-5.06,12.18Z"/>
  <polygon class="cls-1" points="459.31 238.75 466.43 223.66 399.49 223.66 397.35 228.16 454.61 228.16 452.29 233.08 395.03 233.08 387.75 248.49 454.71 248.49 456.99 243.67 399.57 243.67 401.89 238.75 459.31 238.75"/>
  <polygon class="cls-1" points="541.85 228.16 543.97 223.66 477.04 223.66 469.9 238.75 527.47 238.75 525.15 243.67 467.58 243.67 465.3 248.49 532.25 248.49 539.53 233.08 481.94 233.08 484.28 228.16 541.85 228.16"/>
  <path class="cls-1" d="M611.32,248.47h-69.22l11.72-24.81h69.22l-11.72,24.81ZM611.84,228.06h-51.07l-7.34,15.51h51.07l7.34-15.51Z"/>
</svg>