<?xml version="1.0" encoding="UTF-8"?>
<svg id="Capa_1" xmlns="http://www.w3.org/2000/svg" viewBox="0 0 640 470">
  <defs>
    <style>
      .cls-1, .cls-2 {
        fill: #4a4b4c;
      }

      .cls-2, .cls-3 {
        fill-rule: evenodd;
      }

      .cls-3 {
        fill: #e01812;
      }
    </style>
  </defs>
  <path class="cls-3" d="M496.88,217.08v-20.05l98.24.35,24.72-.35v20.05h-122.96ZM345.52,275.31h-19.03v-80.61h19.03v80.61ZM482.84,252.92v20.05h-122.96v-28.49c0-6.69,2.01-11.37,6.04-14.04,5.75-3.02,12.22-4.41,18.71-4h98.21c.19,5.3-2.31,10.33-6.65,13.37-5.42,3.01-11.51,4.61-17.72,4.67h-78.19v8.35l102.56.09ZM482.84,217.17v-.99c-.02-5.33-2.63-10.32-7-13.37-5.07-3.88-11.31-5.92-17.69-5.78l-73.49.35-24.75-.35v20.05h122.96l-.03.09ZM496.88,252.92v20.05h98.24c6.3.25,12.51-1.53,17.72-5.08,4.74-3.5,7.38-9.18,7-15.06v-8.35c0-6.68-1.98-11.35-6.01-14.04-5.75-3.02-12.22-4.4-18.71-4h-98.24c-.03,5.27,2.46,10.23,6.68,13.37,5.42,3.01,11.51,4.61,17.72,4.67h78.19v8.35l-102.59.09Z"/>
  <polygon class="cls-2" points="275.82 194.69 275.82 225.72 275.82 253.33 187.27 194.69 176.24 194.69 165.91 194.69 165.91 216.06 176.24 216.06 186.98 216.06 275.82 275.22 296.63 275.22 296.63 255.08 296.63 194.69 275.82 194.69"/>
  <polygon class="cls-2" points="165.91 225.72 165.91 275.22 176.24 275.22 186.72 275.22 186.72 245.57 186.72 225.72 176.24 225.72 165.91 225.72"/>
  <path class="cls-1" d="M42.95,275.31h85.22c12.52,0,22.68-10.15,22.68-22.68v-27.46H60.37v18.65h68.85v3.71c0,3.22-2.61,5.84-5.84,5.84H46.63c-3.22,0-5.84-2.61-5.84-5.84v-25.63c0-3.22,2.61-5.84,5.84-5.84h104.22v-21.36H43.13c-12.7,0-23,10.3-23,23,0,0,0,.02,0,.03v34.67c-.05,12.6,10.13,22.86,22.74,22.91.03,0,.06,0,.09,0"/>
</svg>