<?xml version="1.0" encoding="UTF-8"?>
<svg id="Capa_1" xmlns="http://www.w3.org/2000/svg" viewBox="0 0 640 470">
  <defs>
    <style>
      .cls-1 {
        fill: #d2121c;
      }
    </style>
  </defs>
  <polygon points="117.94 224.99 109.72 217.51 120.9 217.57 121.73 215.52 97.01 215.58 81.61 253.78 91.96 253.78 109.44 246.11 117.94 224.99"/>
  <path d="M200.96,231.23l29.58-9.17,3.45-8.59h23.9l19.25-6.11h-38.9l-45.04,18.33-4.52-3.06,34.62-12.22h-27.68l-14.91,6.54-1.86-1.38h-27.81l11.8,9.17-10.05,4.4-11.8-9.5-26.62-.4,19.68,18-58.06,25.39,61.82-22,5.87,5.35-34.5,14.15,37.1-11.64,5.29,4.86h30.98l-14.33-11.67,11.67-3.73,14.97,11.61h24.45l1.59-3.94-19.92-14.39ZM163.56,237.89l-5.41-4.37,10.94-3.88,5.1,3.88-10.63,4.37Z"/>
  <polygon points="223.36 210.17 195.67 210.26 152.77 229.06 140.98 219.49 114.45 219.31 134.07 237.25 75.98 262.64 137.77 240.64 151.58 253.26 182.47 253.23 158.12 233.43 223.36 210.17"/>
  <path d="M346.47,214.97h-53.05l-15.28,38.14h24.66l6.72-16.65h1.74c2.74-.06,5.48.1,8.19.49,3.33.61,3.7,1.71,3.06,3.7l-5.13,12.56h24.02s4.09-10.08,5.1-12.62c.58-1.41,1.04-3.06-2.14-4.43-4.57-1.34-9.32-1.98-14.09-1.89,4.89-.01,9.76-.52,14.55-1.53,3.5-.72,6.37-3.21,7.58-6.57l1.93-4.77c1.01-2.51-.95-6.36-7.73-6.36M329.88,223.56l-1.34,2.87c-2.29,4.83-5.5,5.68-17.11,5.68h-.15l4.55-11.34h11.37c4.09,0,3.58,1.01,2.72,2.78"/>
  <polygon points="274.11 253.29 219.66 253.38 235.03 215.28 289.45 215.15 287.38 220.32 257.58 220.38 253.73 230 282.79 229.94 280.75 234.98 251.69 235.05 246.43 248.09 276.19 248.06 274.11 253.29"/>
  <path d="M76.65,253.56H21.99c-5.38,0-7.12-4.06-6.29-6.39l10.24-24.45c2.86-4.82,8.19-7.62,13.78-7.24h52.77l-6.11,14.79h-24.45l3.76-8.89h-11.64c-1.74-.12-3.35.93-3.94,2.57l-8.95,21.39s-1.1,2.2,2.05,2.2h11.4l3.33-8.1h-10.45l1.93-4.64h35.05l-7.79,18.76Z"/>
  <polygon class="cls-1" points="499.4 222.46 502.67 215.52 399.54 215.52 388.54 238.77 477.25 238.77 473.67 246.35 384.96 246.35 381.45 253.78 484.61 253.78 495.83 230.03 407.09 230.03 410.69 222.46 499.4 222.46"/>
  <path class="cls-1" d="M606.44,253.75h-106.64l18.06-38.23h106.64l-18.06,38.23ZM607.24,222.3h-78.68l-11.31,23.9h78.68l11.31-23.9Z"/>
  <polygon class="cls-1" points="372.05 215.54 360.01 240.32 357.22 246.21 357.14 246.21 353.48 253.76 367.73 253.76 385.79 215.54 372.05 215.54"/>
</svg>