<?xml version="1.0" encoding="UTF-8"?>
<svg id="Capa_1" xmlns="http://www.w3.org/2000/svg" viewBox="0 0 640 61.95">
  <defs>
    <style>
      .cls-1 {
        fill: #d2121c;
      }
    </style>
  </defs>
  <polygon points="430.78 13.16 436.25 5.86 383.23 5.86 375.61 5.86 342.94 5.86 305.28 56.25 345.57 56.25 363.6 32.15 401.87 32.15 406.77 25.57 368.49 25.57 377.79 13.16 430.78 13.16"/>
  <path d="M277.72,14.94c1.5-1.85,3.76-2.93,6.14-2.93h48.82l4.52-6.14h-67.42c-10.17,0-19.73,4.8-25.8,12.96l-5.56,10.88c-.58.75-.43,1.83.33,2.41.31.24.69.36,1.07.35h39.29c1.38-.01,2.52,1.1,2.53,2.48,0,.65-.24,1.27-.68,1.74l-9.61,10.45c-1.34,1.45-3.22,2.26-5.19,2.25h-44.89l-5.1,6.77h70.33c8.27,0,16.06-3.93,20.99-10.59l10.72-14.4c1.07-1.44.77-3.48-.67-4.55-.57-.42-1.25-.65-1.96-.65h-43.4c-.93.01-1.68-.73-1.69-1.65,0-.39.13-.77.38-1.08l6.84-8.3h-.02Z"/>
  <polygon points="83.81 25.14 77.74 19.61 85.99 19.65 86.61 18.15 68.34 18.19 56.97 46.4 64.63 46.4 77.53 40.74 83.81 25.14"/>
  <path d="M145.12,29.75l21.85-6.77,2.55-6.34h17.65l14.22-4.52h-28.73l-33.27,13.54-3.34-2.25,25.57-9.03h-20.45l-11.01,4.83-1.38-1.02h-20.54l8.72,6.77-7.43,3.25-8.72-7.02-19.66-.3,14.53,13.3-42.88,18.75,45.66-16.25,4.33,3.95-25.48,10.45,27.39-8.6,3.9,3.59h22.89l-10.59-8.62,8.62-2.76,11.06,8.57h18.06l1.17-2.91-14.72-10.63v.02ZM117.5,34.67l-3.99-3.23,8.08-2.87,3.77,2.87s-7.85,3.23-7.85,3.23Z"/>
  <polygon points="161.67 14.2 141.22 14.26 109.54 28.14 100.82 21.08 81.24 20.94 95.73 34.19 52.82 52.94 98.45 36.69 108.65 46.02 131.48 46 113.49 31.37 161.67 14.2"/>
  <path d="M252.6,17.74h-39.18l-11.29,28.17h18.21l4.96-12.3h1.29c2.03-.04,4.04.08,6.05.36,2.46.45,2.73,1.27,2.25,2.73l-3.79,9.27h17.74s3.03-7.45,3.77-9.32c.43-1.04.77-2.25-1.58-3.27-3.38-.99-6.88-1.46-10.4-1.4,3.61,0,7.21-.39,10.74-1.13,2.58-.54,4.7-2.37,5.6-4.86l1.42-3.52c.74-1.85-.7-4.69-5.71-4.69M240.34,24.08l-.99,2.12c-1.69,3.57-4.06,4.2-12.64,4.2h-.11l3.37-8.38h8.4c3.03,0,2.64.74,2.01,2.06"/>
  <polygon points="199.16 46.04 158.94 46.11 170.29 17.96 210.49 17.87 208.96 21.69 186.94 21.73 184.1 28.84 205.57 28.8 204.06 32.52 182.59 32.57 178.71 42.2 200.69 42.18 199.16 46.04"/>
  <path d="M53.32,46.24H12.94c-3.97,0-5.26-3-4.65-4.71l7.56-18.06c2.12-3.56,6.05-5.63,10.18-5.35h38.98l-4.52,10.92h-18.06l2.78-6.57h-8.6c-1.29-.08-2.47.69-2.91,1.89l-6.62,15.8s-.81,1.63,1.51,1.63h8.42l2.46-5.98h-7.72l1.42-3.43h25.89l-5.75,13.86h.01Z"/>
  <polygon class="cls-1" points="539.47 23.26 541.88 18.15 465.71 18.15 457.58 35.32 523.1 35.32 520.46 40.91 454.95 40.91 452.34 46.4 528.54 46.4 536.82 28.86 471.28 28.86 473.94 23.26 539.47 23.26"/>
  <path class="cls-1" d="M618.52,46.38h-78.77l13.34-28.24h78.77l-13.34,28.24ZM619.11,23.15h-58.11l-8.35,17.65h58.11l8.35-17.65Z"/>
  <polygon class="cls-1" points="445.41 18.16 436.51 36.47 434.45 40.82 434.4 40.82 431.69 46.39 442.22 46.39 455.55 18.16 445.41 18.16"/>
</svg>