<?xml version="1.0" encoding="UTF-8"?>
<svg id="Capa_1" xmlns="http://www.w3.org/2000/svg" viewBox="0 0 640 470">
  <defs>
    <style>
      .cls-1 {
        fill: #d2121c;
      }
    </style>
  </defs>
  <path class="cls-1" d="M386.72,278.68c-.37-.7.64-1.45,1.11-1.95,3.77-3.43,6.52-9.2,12.01-9.42,24.11-.44,48.34.52,72.4-.33,1.72-.11,7.42-4.15,2.93-4.12-21.45,0-42.79,0-64.49,0-.76-.07-1.5.04-1.51-.65.12-.83,2.57-2.56,2.27-3.23-.62-1.24-6.07.7-4.13-2.23,1.94-2.77,5.04-5.16,7.49-7.76,1-1.05,2.06-2.04,3.29-2.82,5.74-3.46,12.55-5.59,18.84-8.03,27.3-.67,54.76-.03,82.06-.23,1.54.01,1.87.68.91,1.82-2.16,2.75-5.3,5.34-7.79,8.04-1.09,1.17-2.48,1.8-4.1,1.79-24.1.05-48.25.03-72.37-.05-1.35.03-2.65.16-3.83.78-1.44.8-3.57,2.78-1.08,2.91,22.79.33,45.52-.51,68.12.29,1.06.67-3.74,3.72-2.89,4.71.5.69,4.4-.28,4.66.86.03.71-.84,1.54-1.37,2.17-9.01,9.94-12.73,11.8-25.34,17-1.49.59-3.06.92-4.59.91-27.44-.37-55.26.73-82.54-.39l-.07-.07Z"/>
  <path d="M139.88,191.12c-25.61,15.3-55.47,26.73-82.31,40.7-14.85.85-29.89.04-44.8.31-3.49.12-3.75-1.77-2.83-4.65,3.11-9.91,4.69-21.01,7.2-31.4.64-2.12.1-3.95,2.88-4.46,6.27-1.6,24.15.11,29.8-.25,1.67-.08,1.52,1.86,1.26,3.05-.96,4.72-2.31,9.27-3.06,14.01-.06.51-.12,1.1.21,1.42.57.28,1.05-.03,1.77-.36,45.49-23.96,39.23-17.28,88.86-18.61.47.02.8-.07,1.03.19v.05Z"/>
  <path class="cls-1" d="M525.08,238.32c.79-.59,2.31-.22,3.32-.17,6.81.71,14.27,0,21.15.05.83.27,1.49.93,2.41,1.75,2.5,2.25,6.31,5.57,9.21,7.46,2.8,1.94,4.02,1.82,6.63.54,8.34-3.17,16.61-6.76,24.93-9.84,9.46-.55,19.01-.04,28.5-.21,1.74-.02,2.96.12.67,1.24-10.83,5.43-23.99,9.39-35.3,14.74-3.61,1.53-7.56,2.38-11.39,2.79-1.8.22-1.23.98-.18,1.81,7.82,6.24,16.11,12.18,23.52,18.78,1.51,1.29,1.43,1.94-.76,1.88-6.92,0-13.92.02-20.8-.01-1.16-.02-2.24-.2-3.12-.92-3.7-3-12.47-11.33-18.21-14.07-.82-.35-1.37-.34-2.33,0-11.61,4.76-23.57,9.02-35.05,14.08-1.41.61-2.91.91-4.44.91-7.66.22-15.16-.35-22.83-.5-1.44.06-2.82.35-4.17.43-.53.02-.86-.04-.89-.19,12.07-7.07,27.5-11.35,40.77-17.35,5.46-2.47,11.12-5.03,17.16-5.42.72-.07,1.75-.28.88-1.15-5.68-4.82-11.71-9.32-17.5-14.04-.72-.7-2.41-1.49-2.23-2.53l.05-.07Z"/>
  <path d="M88.65,191.05c16.44-.56,33.2-.01,49.73-.2,1.14,0,1.21.04.04.11-16.29.8-33.32.18-49.74.11l-.02-.02Z"/>
  <path d="M19.34,191.07c10.16-.57,20.72-.07,30.99-.18,1.01.07,1.03.26,0,.34-10.29-.05-20.72.25-30.97-.13l-.02-.02Z"/>
  <path class="cls-1" d="M488.77,279.09c3.05-1.1,6.73-.06,10.01-.32.59,0,1.65-.21,2.03.26-3.86.29-8.1.07-12.03.08v-.03Z"/>
  <path d="M588.17,220.7c2.74-6.71-.67-2.65-2.77.15-3.78,4.77-6.2,10.95-13.28,10.26-7.14-.26-14.29-.2-21.4-.07-1.03,0-2.53.19-3.12-.59-1.38-1.92,2.2-9.93,2.71-13.01,0-.28.13-.81-.21-.82-.3.02-.86.62-1.13.96-2.75,3.48-5.18,7.7-8.03,11.31-.75.93-1.59,1.98-2.84,1.9.46-.6-32.78,1.99-31.46-1.09.68-1.06,2.05-2.84,2.96-4.09,5.23-5.64,17.39-29.63,25.33-33.04,11.79-.13,23.81.02,35.64-.02,1.54,0,3.09.21,2.66,2.13-.77,3.51-1.92,6.94-2.55,10.48-.31,1.86.72.83,1.36,0,4.21-5.36,7.27-13.22,14.81-12.69,13.63.11,27.26,0,40.89.06.42.02,1.7.1,2.03.49.76.62.14,2.21-.13,3.01-3.92,10.59-7.84,21.13-11.76,31.73-.9,2.59-2.6,3.37-5.22,3.28-8.21-.06-16.41-.06-24.59,0-.89,0-2.14,0-2.65-.68-1.09-1.74,2.11-6.81,2.73-9.5l.06-.16Z"/>
  <path d="M402.36,218.95c-.02.26.25.58.64.94,1.34,1.16,2.44,2.02,3.88,3.24,2.53,2.03,8.54,7.14,7.56,7.59-.4,1.08-4.7.45-12.34.18-3.12-.11-6.09-.15-9.16-.08-3.59-.02-8.26.78-11.84-.46-6.83-2.54-10.3-11-19.21-10.53-6.97-.11-8.21,5.15-11.94,9.56-1.11,1.32-2.84,1.68-4.51,1.64-8.69,0-17.39,0-26.05,0-3.55.14-4.17.38-1.53-4.05,3.24-5.25,10.35-14.15,12.42-17.39.89-1.72,2.6-2.65,4.6-2.66,14.01-.13,28.05.16,42.06-.15,3.57-.03,7.8,1.25,10.99-.88.77-.55,1.42-1.58.33-2.06-6.33-.67-12.87-.04-19.25-.25-10.71-.06-21.39.1-32.14-.08-1.61-.17-1.49-1.29-.73-2.36.93-1.32,1.82-2.65,2.66-4.05,1.74-3.19,4.29-4.9,7.89-4.58,20.79.04,41.59-.02,62.37.03,5.19.11,9.64,3.03,14.36,4.95,2.06.8,3.39,1.81,1.88,4.06-2.51,3.72-5.23,8.43-8.24,11.3-2.38,2.18-5.33,3.37-11.11,4.78-1,.37-3.04.41-3.6,1.23v.08Z"/>
  <path d="M160.25,231.02c-10.76-.26-21.94.45-32.52-.14-2.65-.14-2.32-1.38-.91-3.12,2.28-3.1,3.82-7.52,8.09-7.64,17.28-.29,34.64.31,51.89-.18,2.52-.49,3.8-3.07.39-3.07-15.47-.85-31.67.05-47.15-.18-1.25-.09-3.07.25-4.03-.6-.6-.98.67-2.17,1.22-2.99,4.21-5.45,6.78-12.94,13.69-15.17,28.09-9.32,58.17-4.23,87.36-5.33,1.87.01,2.48.87,1.26,2.53-2.38,3.23-3.93,8.03-8.16,8.38-16.87.26-33.8.02-50.68.09-1.02.01-2.13.13-2.99.66-1.32.8-1.52,2.15.16,2.4,16.2,1.12,33.75-.54,50.01.43.76.03,2.06.2,2.17.9.05,1.22-2.14,3.28-2.88,4.67-2.68,4.06-5,8.68-8.8,11.39-18.07,8.56-38.58,7.02-58.13,6.97Z"/>
  <path d="M455.34,230.99c-12.79,0-25.78,1.58-37.43-4.98-1.22-.62-2.43-1.73-1.64-3.17.84-1.59,2.34-3.34,3.44-5.02,9.12-12.71,8.92-19.13,28.47-23.19,2.49-.57,4.75-1.22,7.03-1.52,17.42-.74,35.51-1.64,52.81.22,1.23.19,2.2.59,3.46,1.12,2.14,1.19,11.27,2.87,9.52,6.32-5.17,7.43-10.18,15.26-15.85,22.34-5.37,4.24-13.07,4.43-19.66,6.46-9.66,2.85-20,.89-29.95,1.4h-.19ZM463.5,219.08c3.42-.46,7.79.95,10.81-.58,1.75-.96,2.71-3.15,4.03-4.76,2.09-3.01,4.76-5.91,6.14-9.13.13-.86-.91-.92-1.58-.99-5.91-.33-12.28-.06-18.31.05-1.86.23-2.74,2.17-3.63,3.5-.72,1.11-1.71,2.5-2.65,3.73-5.08,6.73-8.11,8.34-.91,8.36,2,0,4.34-.05,6.1-.19Z"/>
  <path d="M266.44,203.94c.01-.24-.14-.37-.45-.42-4.64-.36-26.45,1.37-26.1-.98.21-.64.85-1.18,1.28-1.8,2.47-3.35,4.2-8.41,8.97-8.21,27.88.02,55.78-.08,83.68.06,2.03.17,1.47,1.59.61,2.67-5.89,9.5-5.54,8.32-16.17,8.31-4.81,0-9.62-.01-14.44,0-2.16-.14-3.95,1-5.05,2.83-5.38,7.57-10.51,15.39-16.06,22.8-.77.8-1.65,1.12-2.94,1.45-8.77,1.75-19.65-.24-28.46.29-1.07.14-3.06.05-2.29-1.55,5.49-8.61,12.12-16.64,17.41-25.37v-.08Z"/>
  <path class="cls-1" d="M351.37,278.68c-8.48.24-17.19.5-25.05-3.28-.79-.44-2.1-.85-2.06-1.84,1.5-4.72,6.83-10.24,9.73-14.48,1.45-1.89,2.05-3.54,4.1-4.25,12.91-5.36,29.26-7.49,42.32-1.56,3.57,1.44,2.01,3.15.31,5.52-3.77,5.4-6.6,10.25-9.08,12.65-2.78,3.67-13.28,6.28-20.09,7.23l-.17.02ZM349.81,269.94c4.43.92,6.03-4.12,8.38-7.19,1.13-1.43,4.55-4.72.43-4.51-4.24.06-4.83,0-7.09,3.83-1.53,2.17-3.63,4.35-4.61,6.5-.17.38-.24.76-.09,1.02.33.64,1.9.27,2.78.35h.2Z"/>
  <path class="cls-1" d="M303.1,267.88c-.17-.29-.63-.45-1.23-.51-4.28-.22-8.29-.18-12.54-.02-8.64.34-12.07,1.13-11.26-1.27,1.88-3.86,6.44-9.11,9.01-12.93,1.19-1.86,2.95-2.68,5.17-2.55,13.87.11,27.77-.25,41.58.12,1.81.04,1.57.92.68,2.22-1.73,2.97-3.44,5.72-7.04,5.43-7.31.05-14.63-.02-21.96.04-.89.02-2.38.4-2.59,1.21-.15,1.08,1.52,1.16,2.94,1.23,4.62.26,8.19-.77,12.97.5,2.17.69,5.25,1.32,6.59,3.18.34.64-.4,1.68-.91,2.41-2.1,3.36-4.17,6.84-8.25,7.74-14.12,4.64-28.85,3.42-43.64,3.41-.85,0-2.26-.06-2.17-1.09,1.44-4.27,5.01-7.31,9.62-7.29,6.55.33,13.1.28,19.66.16,1.17.03,3.58-.49,3.4-1.9l-.04-.09Z"/>
  <path class="cls-1" d="M255.27,269.66c.23.2.86.24,1.26.26,4,.08,8.38-.38,12.24.02,2.19.22,1.86,1.35.78,2.8-1.23,1.72-2.25,3.73-3.97,4.57-1.58.85-3.67.91-5.49.9-12.12-.18-24.15-.09-36.24-.08-3.89.13-5.08-.16-2.45-3.88,2.82-4.55,8.01-6.26,13.03-7.44,3.53-.98,10.61-2.32,16.32-3.93,2.65-.8,6.21-1.76,7.87-3.37,1.1-1.48-2.99-1.2-3.83-1.16-.52.05-1.05.14-1.53.33-1.35.54-1.91,1.84-3.39,2.12-1.74.35-4.01.09-6.12.25-4.66.16-10.8.44-11.81-.55-.37-.39.02-.96.28-1.41,1.47-2.39,3.61-4.11,6.28-5.17,8.38-3.76,39.33-6.16,42.55,1.47.11.98-1.15,2.51-2.12,4.09-.98,1.55-2.12,3.19-3.73,4.03-5.93,2.3-12.35,3.33-18.42,5.24-.46.2-1.52.36-1.55.86l.03.04Z"/>
  <path d="M101.45,215.9c.15-.37,1.05-.82,1.57-1.05,10.87-5.17,17.9-10.19,30.53-9.22,2.85.07,2.85,1.08,1.2,3.05-2.48,3.24-4.1,8.38-8.86,7.96-7.52-.03-15.06-.02-22.56-.03-.58-.01-1.21-.04-1.69-.27-.13-.11-.22-.08-.22-.35l.03-.09Z"/>
</svg>