<svg id="Layer_1" data-name="Layer 1" xmlns="http://www.w3.org/2000/svg" viewBox="0 0 180 35"><defs><style>.cls-1{fill:#f3f4f5;}</style></defs><path class="cls-1" d="M22.24,16.39l.41-.25,6.7-3.67a1.49,1.49,0,0,1,.69-.16l9.83-.08a2.31,2.31,0,0,0,.83-.16C48,9.17,55.3,6.4,62.79,4.12c1.36-.42,2.7-.88,4.08-1.2,1.1-.25,2.24-.34,3.36-.48L80,1.21,82,1l.07.12a4.64,4.64,0,0,1-.36.4l-11.45,10a.5.5,0,0,0-.13.12c-.08.11-.13.22-.2.33a1,1,0,0,0,.36.13c.71,0,1.42,0,2.12-.09a.79.79,0,0,0,.46-.24c.77-.73,1.51-1.48,2.28-2.2a1.35,1.35,0,0,1,.58-.33l8.56-1.9a.43.43,0,0,1,.36.07l-.83.73c-.33.28-.67.56-1,.86a1.77,1.77,0,0,0-.2.36,1.29,1.29,0,0,0,.41.08c1-.17,2-.36,3.08-.55a48.72,48.72,0,0,1,8.16-1c.82,0,1,.24.7,1a17.88,17.88,0,0,1-3.36,5,1.74,1.74,0,0,0-.23.4,1.63,1.63,0,0,0,.49.05c3.7-.62,7.4-1.28,11.11-1.88,1-.17,2-.2,3.06-.29a1.24,1.24,0,0,0,1-.82.47.47,0,0,0-.28-.4,3.5,3.5,0,0,0-1.07-.14c-2.14.09-4.28.18-6.43.3-.79,0-1.59.14-2.39.2a1.6,1.6,0,0,1-.41-.09c0-.12.08-.25.13-.37a1.05,1.05,0,0,1,.85-.6c1.74-.33,3.48-.74,5.25-1,2.37-.3,4.77-.53,7.16-.68a29.48,29.48,0,0,1,4,.14,1.24,1.24,0,0,1,.82,2c-.78,1-1.58,1.91-2.37,2.87a1.72,1.72,0,0,0-.19.41,1.65,1.65,0,0,0,.45,0A59.75,59.75,0,0,1,126,10.15c2.17-.34,4.37-.54,6.56-.8H133c-.17.21-.24.33-.34.43-.88.87-1.76,1.74-2.66,2.59a1.35,1.35,0,0,1-.68.29,32.43,32.43,0,0,0-8.54,2.3,37.46,37.46,0,0,0-3.63,2.09,3,3,0,0,0-.83.89.88.88,0,0,0,.65,1.45,13.49,13.49,0,0,0,2.84-.06c2.28-.33,4.55-.74,6.82-1.15a1.41,1.41,0,0,0,.73-.39Q132.72,12.6,138,7.39A2.35,2.35,0,0,1,138.6,7L152.37.21a5,5,0,0,1,.54-.21l.07.12c-.12.12-.23.25-.36.37q-6.1,6-12.24,12a2.28,2.28,0,0,0-.22.22,2.69,2.69,0,0,0-.19.38,1.37,1.37,0,0,0,.45,0c1.67-.54,3.32-1.12,5-1.63a6.51,6.51,0,0,1,3.05-.5c1,.18,2.1.4,3.14.65.6.15.63.35.22.8l-6.73,7.47a.59.59,0,0,0-.15.17c-.05.11-.08.24-.12.36a1.35,1.35,0,0,0,.34.06c.59-.09,1.18-.23,1.78-.28a2.45,2.45,0,0,0,1.77-1,19.3,19.3,0,0,1,7.39-5.33,29,29,0,0,1,7.76-2.22,9,9,0,0,1,5.28.88c1.05.52,2.1,1.05,3.11,1.65.79.47.89,1,.44,1.8a3.57,3.57,0,0,1-2.42,1.88c-4.24.94-8.46,1.94-12.7,2.93-.52.12-.65.31-.62.85s.39.56.74.56c1.58,0,3.17,0,4.74-.15,5.67-.6,11.26-1.65,16.83-2.81a2.75,2.75,0,0,1,.39,0,3.13,3.13,0,0,1-.39.25,88.73,88.73,0,0,1-13.77,5A54.11,54.11,0,0,1,156,26.05a15,15,0,0,1-5.22-.32,4,4,0,0,1-3-2.71c-.12-.36-.32-.28-.56-.22L133,26.32c-.43.1-.85.22-1.28.3a1.81,1.81,0,0,1-.46,0,2.05,2.05,0,0,1,.18-.43c1.2-1.46,2.41-2.91,3.61-4.36l3.37-4.09a1.73,1.73,0,0,0,.18-.39c-.15,0-.31-.12-.45-.09-1.07.22-2.13.45-3.18.7a1.25,1.25,0,0,0-.52.33L128,24.56a1.48,1.48,0,0,1-.69.36c-2.67.52-5.34,1-8,1.51-.17,0-.34,0-.66,0,.2-.25.3-.4.43-.53,1.15-1.11,2.3-2.22,3.45-3.35a1.64,1.64,0,0,0,.22-.39,1.36,1.36,0,0,0-.49,0,57.11,57.11,0,0,1-8,1.86,18.18,18.18,0,0,1-4.83.17A2.49,2.49,0,0,1,107.63,23a4.65,4.65,0,0,1-.7-2.27,1.22,1.22,0,0,0-.14-.39,1.41,1.41,0,0,0-.35.23c-1.06,1.24-2.09,2.5-3.16,3.73a1.32,1.32,0,0,1-.74.42c-2.34.4-4.68.76-7,1.13a5.89,5.89,0,0,1-.6,0,4.41,4.41,0,0,1,.32-.46c.66-.73,1.33-1.44,2-2.17a1.79,1.79,0,0,0,.19-.42,1.25,1.25,0,0,0-.42-.08c-2,.21-3.92.49-5.9.64a19.8,19.8,0,0,1-3.61,0c-1.88-.22-2.64-1.49-2-3.31a14.35,14.35,0,0,1,.75-1.59,2.57,2.57,0,0,0,.11-.48,1.63,1.63,0,0,0-.45.09,50.32,50.32,0,0,1-9.52,3.43,31.86,31.86,0,0,1-7.66,1,1.24,1.24,0,0,0-.74.32c-3,2.73-6,5.47-9,8.21a1.76,1.76,0,0,1-.56.37q-4.63,1.85-9.3,3.67a.42.42,0,0,1-.35,0c.12-.13.24-.27.37-.39l17.4-16.76c.79-.76,1.59-1.53,2.37-2.3a1.34,1.34,0,0,0,.22-.37,1.27,1.27,0,0,0-.4-.11c-.89.05-1.78.1-2.67.19a1.21,1.21,0,0,0-.57.32c-3.18,2.74-6.35,5.49-9.54,8.23a1.83,1.83,0,0,1-.65.37l-9.93,2.95a.72.72,0,0,1-.48,0c.13-.14.26-.29.41-.43L56.75,16.2a3.14,3.14,0,0,0,.38-.52,2.78,2.78,0,0,0-.63-.11c-3.13,0-6.26.1-9.38.2a5.8,5.8,0,0,0-2,.43c-9.58,4-19.13,8-28.72,12a9.08,9.08,0,0,1-2.57.38c-3.14.31-6.29.6-9.43.89-1.14.11-2.28.22-3.43.3a2.56,2.56,0,0,1-.65-.12,2.66,2.66,0,0,1,.5-.4C4.42,27.64,8,26,11.59,24.38c5.83-2.57,11.68-5.08,17.52-7.61a.63.63,0,0,0,.2-.1,1.41,1.41,0,0,0,.18-.23,1.28,1.28,0,0,0-.25-.15,1.61,1.61,0,0,0-.31,0l-5.85.18c-.27,0-.54,0-.81,0Zm52.45.18.23-.05A34.52,34.52,0,0,0,83,13.91a25.74,25.74,0,0,0,2.68-1.65c.13-.08.16-.31.24-.47a1.71,1.71,0,0,0-.5-.06c-1.43.21-2.85.45-4.28.68s-2.63.29-3.68,1.35c-.86.87-1.88,1.6-2.82,2.39a.34.34,0,0,0-.12.27C74.51,16.49,74.64,16.53,74.69,16.57ZM58.5,12.14v0h2.26a1.22,1.22,0,0,0,1-.37c.51-.51,1.06-1,1.6-1.47L66,7.84a1.36,1.36,0,0,0,.2-.4,2.32,2.32,0,0,0-.46,0,4.16,4.16,0,0,0-.54.23l-9.16,4a1.43,1.43,0,0,0-.35.3,1.35,1.35,0,0,0,.45.16C56.9,12.15,57.7,12.14,58.5,12.14Zm35.31,6.73.08.14a.75.75,0,0,0,.21,0c2.24-.18,4.48-.36,6.72-.56a.73.73,0,0,0,.42-.23c.8-.76,1.59-1.53,2.37-2.3a1.34,1.34,0,0,0,.22-.41,1.23,1.23,0,0,0-.46,0c-1.92.46-3.85.88-5.73,1.44a22.37,22.37,0,0,0-3.11,1.33A3.49,3.49,0,0,0,93.81,18.87Zm64.51-.57.27-.05,3.8-.59c1.39-.22,2.77-.43,4.16-.67.31,0,.64-.15.67-.55s-.28-.5-.56-.61a7.28,7.28,0,0,0-7.95,1.45,5.23,5.23,0,0,0-.54.61.37.37,0,0,0-.07.28C158.13,18.24,158.26,18.27,158.32,18.3Z"/></svg>