<svg id="Layer_1" data-name="Layer 1" xmlns="http://www.w3.org/2000/svg" viewBox="0 0 180 35"><defs><style>.cls-1{fill:#f3f4f5;}</style></defs><path class="cls-1" d="M11.12,28.66l-8.32-3a6.13,6.13,0,0,1-1.08-.48,1.34,1.34,0,0,1-.67-1.4,1.17,1.17,0,0,1,1-1.17,23.67,23.67,0,0,1,3.46-.41c3.27-.06,6.54,0,9.81,0a1.08,1.08,0,0,0,1-.53c2.09-3.08,4.18-6.15,6.3-9.2a29.37,29.37,0,0,1,2.1-2.72,9.82,9.82,0,0,1,6.46-3.13,28,28,0,0,1,3.3-.2c2.26,0,4.52,0,6.78,0l.65,0-.49.89a4.15,4.15,0,0,0-.47.81c-.26.77-.77,1-1.56.95C37.25,9,35.09,9,33,9a9.28,9.28,0,0,0-5.25,1.53,10.28,10.28,0,0,0-2.53,2.77l-5.83,8.55a.62.62,0,0,0-.07.2,4.7,4.7,0,0,0,.5.05H25.6a.77.77,0,0,0,.79-.45c.85-1.54,1.71-3.08,2.63-4.59A5.58,5.58,0,0,1,34,14.21c4.55,0,9.1,0,13.65,0a3.17,3.17,0,0,1,3.14,4.05,3.31,3.31,0,0,1-3.35,2.28H32.1c-.54,0-1.07,0-1.61,0a.68.68,0,0,0-.46.17c-.28.42-.5.86-.79,1.38.25,0,.42,0,.58,0H50.3c.32,0,.66.05.64-.45a5.74,5.74,0,0,1,1.66-4.14,9.4,9.4,0,0,1,5.85-3.29A3.66,3.66,0,0,1,59,14.2H71.68a3.73,3.73,0,0,1,2.54.87,3.32,3.32,0,0,1,.91,3.67,7,7,0,0,1-1.7,2.86L73,22A1.38,1.38,0,0,0,75,21.38q1.77-3.12,3.56-6.23a2,2,0,0,1,3-.48.57.57,0,0,0,.49.09,9.92,9.92,0,0,1,3.54-.57c3.77,0,7.55,0,11.33,0a3.24,3.24,0,0,1,2.51,1,2.68,2.68,0,0,1,.19,3.17c-.59,1-1.17,2.05-1.75,3.07-.1.18-.19.36-.28.54.66.26,1,.17,1.28-.39l2.31-4.12a6.09,6.09,0,0,1,4.4-3.25,4.24,4.24,0,0,1,.71-.05h15l.62,0c-.09.21-.14.36-.21.49a6.91,6.91,0,0,0-.65,1.15c-.3.88-.91,1-1.76,1-4.28,0-8.56,0-12.84,0a3,3,0,0,0-2.66,1.44c-.73,1.12-1.35,2.31-2,3.47a1.47,1.47,0,0,0-.12.33c.2,0,.36,0,.52,0h17.49a.91.91,0,0,0,.91-.51c.63-1.17,1.35-2.28,1.94-3.47a2.18,2.18,0,0,1,2.55-1.1.69.69,0,0,1,.5,1.1c-.59,1.07-1.21,2.13-1.81,3.2-.12.2-.22.41-.36.69a2.39,2.39,0,0,0,.45.08h2a.65.65,0,0,0,.64-.37l3.79-6.65a2.06,2.06,0,0,1,2.94-.48.61.61,0,0,0,.53.11,11.07,11.07,0,0,1,3.87-.55c3.67,0,7.33,0,11,0a3.11,3.11,0,0,1,2.56,1.11,2.77,2.77,0,0,1,.14,3.11c-.68,1.18-1.35,2.37-2,3.59.38.2.63.15.84-.21.87-1.55,1.73-3.11,2.65-4.63a5.73,5.73,0,0,1,5.2-3q9.57,0,19.15,0a1.64,1.64,0,0,1,1.69,1v.75a1.64,1.64,0,0,1-1.69,1c-.75,0-1.5,0-2.33,0,.09.24.14.38.2.52A5.3,5.3,0,0,1,170,24.79H147.83a4.29,4.29,0,0,1-1.07-.13,1.28,1.28,0,0,1-.85-2q1.46-2.52,2.89-5.05c.36-.62.31-.71-.4-.71-3.72,0-7.45,0-11.18,0a8.07,8.07,0,0,0-6.53,3.27,32.8,32.8,0,0,0-2.51,4.1,1,1,0,0,1-.93.58q-15.63,0-31.28,0a3.85,3.85,0,0,1-1.07-.16,1.21,1.21,0,0,1-.83-1.81c.09-.18.18-.37.28-.55Q95.7,19.91,97,17.55c.35-.61.3-.7-.38-.7H84.86a3.31,3.31,0,0,0-.7.06,8.83,8.83,0,0,0-5.52,3.55,33.42,33.42,0,0,0-2.17,3.65,1.18,1.18,0,0,1-1.2.68q-22.11,0-44.22,0H17.92a.92.92,0,0,0-.89.47,14.54,14.54,0,0,1-1.16,1.55,6.25,6.25,0,0,1-3.23,1.86Zm141.94-6.57c.26,0,.42,0,.57,0h16.53a2.64,2.64,0,1,0-.16-5.27H157.73a2.67,2.67,0,0,0-2.3,1.17c-.74,1.08-1.34,2.24-2,3.37C153.32,21.59,153.22,21.8,153.06,22.09ZM65.31,16.85c-1.87,0-3.75,0-5.63,0a5.33,5.33,0,0,0-3,.72,8.88,8.88,0,0,0-1.43,1,4.81,4.81,0,0,0-1.72,2.64.69.69,0,0,0,.67.92,3,3,0,0,0,.52,0c3.84,0,7.67,0,11.51,0a6.4,6.4,0,0,0,3.43-.86,6.53,6.53,0,0,0,2.76-3c.44-1,.13-1.48-1-1.48Zm-33.54,1c.37,0,.61,0,.84,0H46.77a3.26,3.26,0,0,0,.89-.05.8.8,0,0,0,.49-.46c.07-.3-.17-.47-.49-.49H33.79A2.91,2.91,0,0,0,31.77,17.83ZM14,24.82H8.46c.89.41,1.8.74,2.71,1.07a1.6,1.6,0,0,0,.31.1A2.63,2.63,0,0,0,14,24.82Z"/><path class="cls-1" d="M125.16,16.37a5,5,0,0,1-.64-.19.6.6,0,0,1-.34-.89,12.62,12.62,0,0,1,1-1.62,2.3,2.3,0,0,1,2.45-.38.61.61,0,0,1,.23.9c-.25.47-.51.94-.8,1.39A2.16,2.16,0,0,1,125.16,16.37Z"/></svg>