<svg id="Layer_1" data-name="Layer 1" xmlns="http://www.w3.org/2000/svg" viewBox="0 0 180 35"><defs><style>.cls-1{fill:#f3f4f5;fill-rule:evenodd;}</style></defs><path class="cls-1" d="M9.12,14.35,28.52,14l7.15-4.61,2.9,2.49-1.79,1.42,15.46.11c1.45.07,2.09.49,1.89.93l2.55.11L57.5,14a4.53,4.53,0,0,1,3-.65c1.93,0,3.84.14,5.76.21a50.55,50.55,0,0,0-10.5,5.06c-3.38,2.36,1.37.92,3,.53,5.86-1.37,10.83-3.73,16-5.93l6.55.09c-3.61,2-7.28,3.81-10.81,5.85-4.86,2.8-.48,1.36,2.32.65a122.31,122.31,0,0,0,13.56-4.18c7.17-4.84,14.2-9.83,21.5-14.52.92-.59,1.64-1,2.27.6.48,1.2.93,2,1.49,3.2L91.87,17l-1.46.74C86.74,19.67,88,20,91.3,18.91c3-.92,5.75-1.76,8.85-2.75.77-1.05,2.34-1.77,4.39-2.29a15.3,15.3,0,0,1,4.13-.45c4.47,0,8.69.18,12.74.46q-1.39,1.6-6.4,2L107.3,16c-1.48,0-4.19-.11-2.07,1.69,2.27,1.25,4.41,2.55,6.51,2,2.34-.68,4.8-.83,6.89-1.58,12.14-4.42,23.7-5.34,28.13-4.41a1.86,1.86,0,0,1,.61.78c.17.43.18.41-.29.69-2.13,1.27-4.34,2.9-6.44,4.12-1.4,1,0,1,.71.74,0,0,9.87-2.95,11.11-3.39a1.27,1.27,0,0,0,1.31-1.27l.06-.66c3.44-.25,7.17-.43,10.64-.47,1.51,0,3-.23,1.14.85a65.21,65.21,0,0,0-6.36,3.78c-2.17,1.24-.57,1.28,1.57,1.15L175,17.52l3.88-.49,1,.84-4.77.95c-8.79,1.64-16.76,3.32-22.9,5.11-3.12,1-4.89.81-5.35-1-.22-.87-.15-.91.7-1.45,1.62-1.06,2.58-1.79,4.25-2.83,1.39-1.31-.76-.55-2.55.1-5.11,1.64-7.87,2.9-13.36,5.18l-1,.41c-1.24.5-1.4.58-2.18,0a12,12,0,0,1-1.4-1.22c-.52-.52-.58-.8.11-1.46s2-1.25,2.74-1.9a67.6,67.6,0,0,1-13.81,4c-4.28,1-9.59.56-6.47-2.68a3.41,3.41,0,0,1,1.28-1,59.88,59.88,0,0,0-10,3.06c-2.87,1.22-4.33,1.12-7.48,1.17l-11.11.17,4-2.22c5.28.08,10.15-.09,13.79-1.05-1.08-1-1.59-1.59-2.67-2.56-.84-.77-1.11-1.19-2.65-.66-5.61,1.93-11.64,3.69-18.17,5.93-1.36.46-1.36.57-2.6.12-.85-.31-1.64-.57-2.51-.89s-.84-.6,0-1.24C78,20.15,77.91,20.35,79,19.59c-5.18,1.66-8.38,2.46-13.52,4.13a4.76,4.76,0,0,1-2.93.15,3.61,3.61,0,0,1-2.38-1.55c-.3-.63-.11-.71.52-1.12,1.72-1.13,1.64-1.1,3.48-2.18-5.49,2-8.82,2.69-14.62,4.81a4.42,4.42,0,0,1-2.85.05c-1.42-.32-2.6-.72-3-1.39s0-.71.61-1.07L54.9,15.3a14.24,14.24,0,0,0-5,.44,141.63,141.63,0,0,1-29.14,7.51C14,26.07,7.09,30.32.18,34.42c0-1.51,0-3,.05-4.53,8.3-4.21,16.53-8.65,24.56-13.65l-12.35.69s-3.3-2.67-3.32-2.58Zm24.32,1.46-8.6,5c4.25-.88,12.9-2.26,17-3.87,1.12-.44,1.49-1.18-.1-1.38-1.75-.21-8.08.68-8.27.29Zm92,2c-2.62,1.31-2.35,2.4,1.11,2.09a41.42,41.42,0,0,0,8.27-2.1c5.92-2.23,3.39-3.18-1.34-2.33A35.56,35.56,0,0,0,125.47,17.77Z"/></svg>