<?xml version="1.0" encoding="utf-8"?>
<!-- Generator: Adobe Illustrator 24.1.2, SVG Export Plug-In . SVG Version: 6.00 Build 0)  -->
<svg version="1.1" id="Layer_1" xmlns="http://www.w3.org/2000/svg" xmlns:xlink="http://www.w3.org/1999/xlink" x="0px" y="0px"
	 viewBox="0 0 150 68.9" style="enable-background:new 0 0 150 68.9;" xml:space="preserve">
<style type="text/css">
	.st0{fill-rule:evenodd;clip-rule:evenodd;fill:#FFFFFF;}
</style>
<path class="st0" d="M41.9-255.7l-16.6-7.6l-0.1-19.9l38.3,17.6l10.2-4.7c0.7-0.3,1.2-1,1.3-1.8c-0.1-0.8-0.6-1.5-1.4-1.7
	l-34.5-15.7l30.8-14.1c0.8-0.3,1.7-0.5,2.6-0.5c0.9,0,1.8,0.2,2.6,0.5l46.2,21.1c2.1,1.1,4.8,2.1,4.8,5.2c0,3-2.4,3.9-4.7,5
	l-36.3,16.6l36.3,16.6c2.2,1.1,4.7,2,4.7,5s-2.6,4.1-4.8,5.2l-46.2,21.1c-0.8,0.3-1.7,0.5-2.6,0.5c-0.9,0-1.8-0.2-2.6-0.5L39.2-222
	l34.5-15.7c0.8-0.3,1.3-1,1.4-1.8c-0.1-0.8-0.6-1.4-1.3-1.8l-10.2-4.7l-38.3,17.5l0.1-19.9L41.9-255.7z"/>
<path class="st0" d="M138,32.5c1.6,0,2.9-0.8,2.9-2.4V14.9h7.1v15.9c0,4.8-3.1,6.4-7.2,6.4h-11.8c-0.9,0-1.8-0.5-2.3-1.3l-1.8-3
	v-0.4L138,32.5z M124.8,37.1h0.2l-0.2-0.4V37.1z M124.8,32.9l-0.2-0.4h0.2V32.9z M124.8,36.8l-13.2-21.9h-9.2l-13,21.7v0.6h8
	l9.6-16.9l4.7,8.3h-5.4c-0.9,0-1.8,0.5-2.3,1.3l-2.1,3.4h12.4l2.3,4h8.1L124.8,36.8L124.8,36.8z M89.5,33.3V14.9h0.4v15.9
	C89.9,31.6,89.7,32.5,89.5,33.3L89.5,33.3z M89.5,14.9v18.4c-0.9,2.8-3.6,3.8-6.8,3.8H70.8c-0.9,0-1.8-0.5-2.3-1.3l-1.8-3v-0.4h13.2
	c1.6,0,2.9-0.8,2.9-2.4V14.9L89.5,14.9z M89.5,36.5l-0.4,0.6h0.4V36.5L89.5,36.5z M66.6,37.2h0.3l-0.2-0.4L66.6,37.2z M66.6,32.5
	v0.4l-0.2-0.4H66.6z M66.6,36.8L53.5,14.9h-9.1l-13,21.7v0.6h8l9.6-16.9l4.6,8.3h-5.3c-0.9,0-1.8,0.5-2.3,1.3l-2,3.4h12.4l2.2,4h8.1
	L66.6,36.8L66.6,36.8z M31.4,33.3v-4.1c0.3,0.6,0.4,1.3,0.4,2C31.8,31.9,31.7,32.6,31.4,33.3z M31.4,22.6v-3.8
	c0.3,0.6,0.4,1.3,0.4,2C31.8,21.4,31.7,22,31.4,22.6L31.4,22.6z M31.4,18.8v3.8c-0.9,1.7-2.6,2.9-4.5,3.3c2.3,0.7,3.8,1.9,4.5,3.4
	v4.1c-1.4,3.5-6.4,3.8-10,3.8h-4.9v-4.7h4.8c1.3,0,2.3-1,2.3-2.3s-1-2.3-2.3-2.3h-4.8v-4.7h4.9c1.4,0,2.5-0.7,2.5-1.8
	s-1.2-1.7-2.5-1.7h-4.9v-4.7h4.9C24.8,14.9,30,15.3,31.4,18.8L31.4,18.8z M31.4,36.5L31,37.2h0.4V36.5z M16.5,14.9v4.7H9.1v8.2
	l2-3.5c0.5-0.8,1.4-1.2,2.3-1.3h3v4.7H9.1v9.3l2-3.5c0.5-0.8,1.4-1.2,2.3-1.3h3v4.7H2V14.9H16.5z"/>
</svg>
