<?xml version="1.0" encoding="utf-8"?>
<!-- Generator: Adobe Illustrator 24.1.2, SVG Export Plug-In . SVG Version: 6.00 Build 0)  -->
<svg version="1.1" id="Layer_1" xmlns="http://www.w3.org/2000/svg" xmlns:xlink="http://www.w3.org/1999/xlink" x="0px" y="0px"
	 viewBox="0 0 150 61.8" style="enable-background:new 0 0 150 61.8;" xml:space="preserve">
<style type="text/css">
	.st0{fill:#FFFFFF;}
	.st1{fill:#009141;}
	.st2{fill:#E03133;}
</style>
<path class="st0" d="M2.6,44.5L2.6,44.5c0.1,0,0.2,0,0.3,0c0.4,0,0.7-0.2,0.7-0.6c0-0.3-0.2-0.5-0.6-0.5c-0.1,0-0.2,0-0.3,0
	L2.6,44.5z M1.8,42.9c0.4,0,0.7,0,1.1,0c0.4,0,0.8,0.1,1.1,0.3c0.2,0.2,0.4,0.5,0.4,0.8c0,0.3-0.1,0.6-0.3,0.8
	c-0.3,0.3-0.7,0.4-1.2,0.4H2.6v1.2H1.9L1.8,42.9z"/>
<path class="st0" d="M9.8,42.9v2c0,0.6,0.2,0.9,0.6,0.9c0.4,0,0.7-0.3,0.7-0.9v-2h0.8v1.9c0.1,0.7-0.3,1.4-1,1.6c-0.1,0-0.3,0-0.5,0
	c-0.9,0-1.4-0.5-1.4-1.6v-1.9L9.8,42.9z"/>
<path class="st0" d="M17.5,44.4h0.4c0.4,0,0.6-0.2,0.6-0.5c0-0.3-0.2-0.5-0.6-0.5c-0.1,0-0.2,0-0.4,0L17.5,44.4z M16.7,42.9
	c0.4,0,0.7,0,1.1,0c0.4,0,0.8,0.1,1.1,0.3c0.2,0.2,0.4,0.4,0.3,0.7c0,0.4-0.3,0.7-0.6,0.9l0,0c0.3,0.1,0.4,0.4,0.5,0.6
	c0.1,0.4,0.2,0.8,0.3,1h-0.8c-0.1-0.3-0.2-0.5-0.2-0.8C18.2,45.2,18,45,17.7,45h-0.2v1.3h-0.8L16.7,42.9z"/>
<path class="st0" d="M25.7,44.9L25.7,44.9l-0.2-0.7l-0.2-0.7l0,0c0,0.2-0.1,0.5-0.2,0.7l-0.2,0.7H25.7z M24.8,45.5l-0.2,0.9h-0.8
	l1.1-3.4h1l1.1,3.4H26l-0.3-0.9H24.8z"/>
<path class="st0" d="M37.5,44.5L37.5,44.5c0.1,0,0.2,0,0.3,0c0.4,0,0.7-0.2,0.7-0.6c0-0.3-0.2-0.5-0.6-0.5h-0.3V44.5z M36.7,42.9
	c0.4,0,0.7,0,1.1,0c0.4,0,0.8,0.1,1.1,0.3c0.2,0.2,0.4,0.5,0.4,0.8c0,0.3-0.1,0.6-0.3,0.8c-0.3,0.2-0.8,0.3-1.2,0.3h-0.3v1.2h-0.8
	V42.9z"/>
<path class="st0" d="M45.2,44.9L45.2,44.9L45,44.1c-0.1-0.2-0.1-0.5-0.2-0.7l0,0c0,0.2-0.1,0.5-0.2,0.7l-0.2,0.7H45.2z M44.3,45.5
	l-0.3,0.9h-0.8l1.1-3.4h1.1l1.1,3.4h-0.9l-0.3-0.9H44.3z"/>
<path class="st0" d="M51.1,45.5c0.3,0.1,0.6,0.2,0.9,0.2c0.4,0,0.6-0.1,0.6-0.4s-0.2-0.3-0.6-0.5c-0.4-0.1-1-0.5-1-1s0.5-1,1.3-1
	c0.3,0,0.6,0.1,0.9,0.2L53,43.6c-0.2-0.1-0.5-0.2-0.7-0.2c-0.3,0-0.5,0.2-0.5,0.3s0.2,0.3,0.7,0.5c0.5,0.2,0.9,0.5,0.9,1
	c0,0.5-0.5,1.1-1.4,1.1c-0.3,0-0.7-0.1-1-0.2L51.1,45.5z"/>
<path class="st0" d="M58.1,45.5c0.3,0.1,0.6,0.2,0.9,0.2c0.4,0,0.6-0.1,0.6-0.4s-0.2-0.3-0.6-0.5c-0.4-0.1-1-0.5-1-1s0.5-1,1.3-1
	c0.3,0,0.6,0.1,0.9,0.2L60,43.6c-0.2-0.1-0.5-0.2-0.7-0.2c-0.3,0-0.5,0.2-0.5,0.3s0.2,0.3,0.7,0.5c0.5,0.2,0.9,0.5,0.9,1
	c0,0.5-0.5,1.1-1.4,1.1c-0.3,0-0.7-0.1-1-0.2L58.1,45.5z"/>
<rect x="65" y="42.9" class="st0" width="0.8" height="3.4"/>
<path class="st0" d="M72.1,45.8L72.1,45.8c0.5,0,0.9-0.5,0.9-1.2c0-0.7-0.3-1.1-0.9-1.1c-0.6,0-0.9,0.5-0.9,1.2
	C71.3,45.3,71.6,45.8,72.1,45.8L72.1,45.8z M72.1,46.4c-0.9,0-1.6-0.7-1.7-1.6c0-0.1,0-0.1,0-0.2c-0.1-0.9,0.6-1.7,1.6-1.8
	c0.1,0,0.1,0,0.2,0c0.9,0,1.7,0.7,1.7,1.6c0,0.1,0,0.1,0,0.2c0.1,0.9-0.6,1.7-1.5,1.8C72.3,46.4,72.2,46.4,72.1,46.4L72.1,46.4z"/>
<path class="st0" d="M78.5,46.3v-3.4h0.9l0.7,1.3c0.2,0.4,0.4,0.8,0.6,1.2l0,0c0-0.5,0-1,0-1.4v-1h0.7v3.4h-0.9l-0.8-1.3
	c-0.2-0.4-0.4-0.8-0.6-1.2l0,0c0,0.5,0,0.9,0,1.5v1L78.5,46.3z"/>
<polygon class="st0" points="88.3,44.9 87,44.9 87,45.7 88.5,45.7 88.5,46.3 86.2,46.3 86.2,42.9 88.4,42.9 88.4,43.5 87,43.5 
	87,44.3 88.3,44.3 "/>
<path class="st0" d="M99.1,45.8h0.3c0.6,0.1,1.1-0.3,1.2-0.9c0-0.1,0-0.2,0-0.3c0.1-0.6-0.3-1.1-0.9-1.1c-0.1,0-0.2,0-0.2,0
	c-0.1,0-0.2,0-0.4,0L99.1,45.8z M98.3,42.9c0.4,0,0.7,0,1.1,0c0.5,0,1,0.1,1.4,0.4c0.4,0.3,0.6,0.8,0.6,1.3c0,0.5-0.2,1-0.6,1.3
	c-0.5,0.3-1.1,0.5-1.6,0.4c-0.3,0-0.6,0-0.9,0L98.3,42.9z"/>
<path class="st0" d="M107.8,44.9L107.8,44.9l-0.2-0.7l-0.2-0.7l0,0c0,0.2-0.1,0.5-0.2,0.7l-0.2,0.7H107.8z M106.9,45.5l-0.3,0.9
	h-0.8l1.1-3.4h1.1l1.1,3.4h-0.9l-0.3-0.9H106.9z"/>
<polygon class="st0" points="113.7,42.9 114.5,42.9 114.5,45.7 115.9,45.7 115.9,46.3 113.7,46.3 "/>
<polygon class="st0" points="126.5,43.7 126.5,43.7 125.9,44 125.7,43.4 126.6,43 127.3,43 127.3,46.3 126.5,46.3 "/>
<path class="st0" d="M133.7,43.5L133.7,43.5c-0.3,0-0.5,0.2-0.5,0.6c0,0.3,0.2,0.5,0.4,0.5c0,0,0,0,0.1,0c0.2,0,0.4-0.1,0.5-0.2
	c0-0.1,0-0.1,0-0.2C134.2,43.9,134.1,43.5,133.7,43.5L133.7,43.5z M132.8,45.8h0.3c0.2,0,0.5-0.1,0.7-0.2c0.2-0.1,0.4-0.4,0.4-0.6
	l0,0c-0.2,0.2-0.4,0.3-0.7,0.2c-0.6,0-1-0.4-1.1-1c0,0,0-0.1,0-0.1c0-0.7,0.6-1.2,1.3-1.2c0,0,0,0,0.1,0c0.7,0,1.3,0.6,1.3,1.3
	c0,0,0,0.1,0,0.1c0,0.6-0.2,1.1-0.6,1.5c-0.4,0.3-0.8,0.5-1.3,0.5c-0.1,0-0.2,0-0.4,0L132.8,45.8z"/>
<polygon class="st0" points="140.6,43.7 140.6,43.7 139.9,44 139.8,43.4 140.7,43 141.4,43 141.4,46.3 140.6,46.3 "/>
<polygon class="st0" points="147.7,43.7 147.6,43.7 147,44 146.9,43.4 147.8,43 148.4,43 148.4,46.3 147.7,46.3 "/>
<path class="st0" d="M118.4,34.3l-1.1-0.7V4.4c-0.2-0.8-0.6-1-1.4-0.6l-9.7,4.7c-0.4,0.2-0.6,0.7-0.4,1.1c0.1,0.2,0.2,0.3,0.4,0.4
	l1.6,0.7c0.3,0.1,0.1,0.3,0.2,0.3v22.6l-1.4,0.8c-1.1,0.6-0.9,1.6,0.2,1.8h11.5C119.4,36.1,119.8,34.8,118.4,34.3 M90.1,21.5
	c-0.3-1.8,0.3-5.3,3.7-5.7c1.9-0.2,3.6,1.2,3.8,3.1c0,0.2,0,0.4,0,0.5c0,0.3,0,0.4-0.1,0.4l-6.8,2.4C90.4,22.3,90.2,21.8,90.1,21.5
	L90.1,21.5z M103.8,27.8c-2.1,1.8-4.6,3.3-6.6,3.3c-2.5,0.1-4.8-1.4-5.7-3.7c0-0.1,0-0.2,0.1-0.2c0,0,0,0,0,0
	c0.1,0,13.7-4.9,13.7-4.9c0.4-0.3,0.4-0.5,0.4-1.1c-1.1-5.6-6.1-9.6-11.8-9.5c-6.4,0-11.8,5.8-11.8,12.7
	c-0.4,6.7,4.7,12.4,11.3,12.8c0.2,0,0.4,0,0.6,0c5.1-0.1,9.8-2.9,12.2-7.5C106.8,27.8,104.5,26.9,103.8,27.8L103.8,27.8z
	 M147.5,34.3l-1.1-0.7V14.4c-0.2-0.8-0.6-1-1.4-0.6l-9.7,4.7c-0.4,0.2-0.6,0.7-0.4,1.1c0.1,0.2,0.2,0.3,0.4,0.4l1.6,0.7
	c0.3,0,0.1,0.3,0.2,0.3v12.5l-1.4,0.8c-1.1,0.6-0.9,1.6,0.2,1.8h11.5C148.7,36.1,149,34.8,147.5,34.3L147.5,34.3z M132.9,34.3
	l-1.1-0.7V4.4c-0.2-0.8-0.6-1-1.4-0.6l-9.7,4.7c-0.4,0.2-0.6,0.7-0.4,1.1c0.1,0.2,0.2,0.3,0.4,0.4l1.6,0.7c0.3,0.1,0.1,0.3,0.2,0.3
	v22.6l-1.4,0.8c-1.1,0.6-0.9,1.6,0.2,1.8h11.5C134,36.1,134.3,34.8,132.9,34.3L132.9,34.3z M81.4,34.3l-1.1-0.7V19.6
	c0-1.9-0.7-3.7-1.9-5.1c-1.5-1.6-3.6-2.4-5.8-2.4c-2.1-0.1-4.2,0.6-5.9,1.9c-1.1,0.8-1,0.2-1-0.1V12c-0.1-0.5-0.6-0.8-1.1-0.7
	c-0.1,0-0.3,0.1-0.4,0.2l-9.3,4.5c-1,0.5-0.8,1.3-0.3,1.6l1.5,0.7c0.3,0.1,0.2,0.5,0.2,0.5v14.8l-1.5,0.8c-1.1,0.6-0.9,1.6,0.2,1.8
	h11.6c1.2,0,1.6-1.3,0.2-1.8l-1.1-0.7V20.8c-0.1-1.6,1-3,2.6-3.1c0.2,0,0.4,0,0.5,0c1.5,0,2.7,0.6,2.7,3.1v12.7L70,34.3
	c-1.1,0.6-0.9,1.6,0.2,1.8h11.1C82.5,36.1,82.8,34.8,81.4,34.3L81.4,34.3z M18.5,30.7c-0.7,0.6-1.6,1-2.5,1c-1.2,0-2.4-0.2-2.4-1.2
	v-8.3c0.1-0.7,1-0.9,2-0.9c1.1-0.1,2.2,0.3,2.9,1.2c1.1,1.2,0.9,2.8,1,4.1C19.5,28,19.2,29.4,18.5,30.7L18.5,30.7z M13.5,9.8
	c0.3-1.1,3.3-1.3,4.3-0.2c0.9,1,1.3,2.4,1.1,3.7c0.2,1.1-0.1,2.1-0.7,3c-0.9,0.7-2.1,1.1-3.2,1.1c-0.8,0-1.6,0-1.6-0.9L13.5,9.8z
	 M22.4,19.6c-0.1,0-0.2-0.2,0-0.3c2.7,0,5.6-3,5.6-6.6s-2.7-7.4-9.4-7.8h-16c-1.3,0-1,1.5-0.3,1.8l1.3,0.8C4,7.6,4,7.5,4.1,8.1v24.9
	c0,0.7-0.3,0.7-0.3,0.7l-1.5,0.8c-0.5,0.1-0.8,0.6-0.7,1.1c0.1,0.5,0.6,0.8,1.1,0.7c-1.1,0,16.4,0,16.4,0c5.1,0.2,9.5-3.8,9.7-8.9
	c0-0.1,0-0.2,0-0.4C28.9,23.3,25.2,19.6,22.4,19.6L22.4,19.6z M38.3,21.5c-0.3-1.8,0.3-5.3,3.7-5.7c1.9-0.2,3.6,1.2,3.8,3.1
	c0,0.2,0,0.3,0,0.5c0,0.3,0,0.4,0,0.4l-6.8,2.4C38.6,22.3,38.3,21.8,38.3,21.5L38.3,21.5z M52,27.8c-2.2,1.8-4.6,3.3-6.6,3.3
	c-2.5,0.1-4.8-1.4-5.7-3.7c0-0.1,0-0.2,0-0.2c0,0,0,0,0.1,0c0.1,0,13.7-4.9,13.7-4.9c0.4-0.3,0.4-0.5,0.4-1.1
	c-1.1-5.6-6.1-9.6-11.8-9.5c-6.4,0-11.7,5.8-11.8,12.7c-0.4,6.6,4.7,12.4,11.3,12.8c0.2,0,0.4,0,0.6,0c5.1-0.1,9.8-2.9,12.2-7.5
	C54.9,27.8,52.7,26.9,52,27.8L52,27.8z M141.7,13.6c2.8,0.1,5.1-2.1,5.2-4.9c0.1-2.8-2.1-5.1-4.9-5.2c-2.8-0.1-5.1,2.1-5.2,4.9
	c0,0,0,0.1,0,0.1C136.8,11.3,139,13.6,141.7,13.6L141.7,13.6z"/>
<rect x="1.8" y="49.7" class="st1" width="48.8" height="1.1"/>
<rect x="50.7" y="49.7" class="st0" width="48.8" height="1.1"/>
<rect x="99.6" y="49.7" class="st2" width="48.8" height="1.1"/>
</svg>
