<svg id="Layer_1" data-name="Layer 1" xmlns="http://www.w3.org/2000/svg" viewBox="0 0 150 150"><defs><style>.cls-1{fill:#fff;}</style></defs><path class="cls-1" d="M74.94,96.71a36.19,36.19,0,1,1,36.49-36.27C111.56,80.36,95.08,96.74,74.94,96.71Zm-28-36.24A28.09,28.09,0,1,0,75,32.55,28,28,0,0,0,46.91,60.47Z"/><path class="cls-1" d="M74.45,125.48H69.83v-7.94l-.73-.27-5.86,7.91-6.44-8.63v8.79H52v-16.1c2.94-.82,5.34-.34,7,2.64,1.13,2,2.62,3.77,4.23,6.05a65.42,65.42,0,0,0,4-5.75c1.61-2.9,3.86-3.87,7.24-3Z"/><path class="cls-1" d="M27.78,109.06c-.33,2.66-1.21,4.09-4,3.84-2.59-.22-5.22,0-7.82-.06-1.83-.06-2.44.76-2.56,2.49-.41,6.17-.39,6.24,5.71,6.24h8.3c-.34,2.88-1.37,4.32-4.39,4.07s-6.22,0-9.33-.06c-3.46-.07-5.21-1.77-5.29-5.13-.06-2.3-.1-4.6,0-6.9s1.32-4.29,3.7-4.41C17.27,108.89,22.45,109.06,27.78,109.06Z"/><path class="cls-1" d="M49.16,109c-.16,3-1.46,4.15-4.24,3.88-2.09-.19-4.22,0-6.33,0-3.83,0-3.87,0-3.38,4.17H46.05c-.17,3-1.31,4.46-4.31,4.19-2.09-.19-4.21,0-6.63,0l-.3,4.16H30c0-4.12-.12-8.2,0-12.27a4,4,0,0,1,3.83-4C38.9,108.86,44,109,49.16,109Z"/><path class="cls-1" d="M112.22,125.43h-5V112.92h-6.9c.16-3.07,1.53-4.16,4.46-4,5,.21,10,.06,15,.06-.3,5.62-4.66,3.26-7.54,4.24Z"/><path class="cls-1" d="M65.84,55.34l-1.7,6.37c10.15,1.1,19.65,6.11,30.53,1.44-.85,3.12-1.11,5.47-2.16,7.39a5.41,5.41,0,0,1-3.83,2.38,112.65,112.65,0,0,1-14.35-.23c-3.67-.32-7.26-1.73-10.92-1.93s-7.16.53-11.07.88c.13-.68.24-1.5.46-2.3,1.56-5.8,3.24-11.57,4.68-17.4A4.89,4.89,0,0,1,61.79,48a30.32,30.32,0,0,1,15.51.54,34.09,34.09,0,0,0,19.6.66,4.4,4.4,0,0,1,1.15,0c-.18,7.15-2,9.39-9,9.43-4.56,0-9.14-.86-13.68-1.49C72.31,56.69,69.29,56,65.84,55.34Z"/><path class="cls-1" d="M98.23,113.72A4.49,4.49,0,0,0,93.54,109c-1.8-.09-3.61,0-5.42,0s-3.61-.06-5.41,0c-3.22.12-4.92,1.86-5,5.11,0,2.29-.09,4.59,0,6.89a4.44,4.44,0,0,0,4.56,4.58q5.72.18,11.43,0a4.41,4.41,0,0,0,4.49-4.62C98.31,118.51,98.3,116.11,98.23,113.72Zm-4.83,5.6a2.51,2.51,0,0,1-2.51,2.52H85.16a2.52,2.52,0,0,1-2.52-2.52v-4a2.45,2.45,0,0,1,.47-1.46.52.52,0,0,1,.17-.2,2.46,2.46,0,0,1,1.88-.86h5.73a2.51,2.51,0,0,1,2.51,2.52Z"/><path class="cls-1" d="M141.62,113.72c-.09-2.92-1.76-4.6-4.69-4.75-1.8-.09-3.61,0-5.41,0s-3.61-.06-5.42,0c-3.22.12-4.91,1.86-5,5.11-.05,2.29-.09,4.59,0,6.89a4.44,4.44,0,0,0,4.56,4.58q5.72.18,11.43,0a4.43,4.43,0,0,0,4.5-4.62Q141.74,117.31,141.62,113.72Zm-4.82,5.6a2.52,2.52,0,0,1-2.52,2.52h-5.73a2.52,2.52,0,0,1-2.52-2.52v-4a2.52,2.52,0,0,1,.47-1.46.79.79,0,0,1,.17-.2,2.48,2.48,0,0,1,1.88-.86h5.73a2.52,2.52,0,0,1,2.52,2.52Z"/></svg>