<svg id="Layer_1" data-name="Layer 1" xmlns="http://www.w3.org/2000/svg" viewBox="0 0 150 150"><defs><style>.cls-1,.cls-2{fill:#fff;}.cls-1{fill-rule:evenodd;}</style></defs><polygon class="cls-1" points="49.09 20.06 48.87 78.58 67.93 92.71 67.93 34.18 49.09 20.06"/><polygon class="cls-1" points="81.46 7.5 81.46 47.86 100.97 33.96 100.97 21.85 81.46 7.5"/><polygon class="cls-1" points="100.97 52.35 81.91 66.02 100.97 80.15 100.97 52.35"/><polygon class="cls-2" points="37.4 122.53 24.24 122.53 24.24 111.3 15.9 111.3 15.9 141.8 24.24 141.8 24.24 129.58 37.4 129.58 37.4 141.8 45.72 141.8 45.72 111.3 37.4 111.3 37.4 122.53"/><path class="cls-2" d="M57.73,123c.7-4.12,3-6.27,6.66-6.27A6.11,6.11,0,0,1,70.78,123Zm6.71-12.48c-9.18,0-15.33,6.33-15.33,15.83,0,9.89,6.08,16.17,15.59,16.17,7.6,0,12.82-3.48,14.77-10.08h-9c-.81,2.41-2.71,3.62-5.58,3.62-4.3,0-6.88-2.55-7.1-7H79.47c0-1.07.06-1.45.06-2,0-10.27-5.82-16.6-15.09-16.6"/><path class="cls-2" d="M93.71,111c-2.95.58-10.52,2.86-10.52,14.41V141.8h8.43V128.29c0-5,.7-7.34,2.79-8.86a8.36,8.36,0,0,1,5.26-1.58,10,10,0,0,1,2.28.25v-6.93a17.86,17.86,0,0,0-8.24-.13"/><path class="cls-2" d="M118.63,136.15c-4.44,0-7-3.61-7-9.63s2.54-9.63,7-9.63,7,3.49,7,9.57-2.54,9.69-7,9.69m0-25.66c-9.45,0-15.53,6.28-15.53,16s6.08,16,15.53,16,15.47-6.28,15.47-16-6.09-16-15.47-16"/></svg>