<svg id="Layer_1" data-name="Layer 1" xmlns="http://www.w3.org/2000/svg" viewBox="0 0 150 150"><defs><style>.cls-1{fill:#fff;fill-rule:evenodd;}</style></defs><path class="cls-1" d="M7.5,81.38a10.21,10.21,0,0,1,3.14-5.72,19.86,19.86,0,0,1,5.87-3.45c29.45-12,58.95-23.82,88.32-36,11.22-4.65,22.15-10,33.21-15.08a2.85,2.85,0,0,0,.46-.31h.38a2.68,2.68,0,0,1,0,.9c-1.5,3.69-2.87,7.45-4.6,11a15,15,0,0,1-8.61,7.65q-17.14,6.24-34.32,12.37Q55.18,65.59,19,78.32A14.4,14.4,0,0,0,16,79.8a4.35,4.35,0,0,0-1.32,6.38,13.11,13.11,0,0,0,2.06,2.35q11.36,10.64,22.75,21.23a10.43,10.43,0,0,0,.87.67,7.08,7.08,0,0,1-.72.09c-3.24,0-6.47,0-9.71,0a.9.9,0,0,1-1-.7A11.27,11.27,0,0,0,26,105.51c-4.18-4.17-8.3-8.39-12.52-12.51-2.74-2.66-5.28-5.39-6-9.34Z"/><path class="cls-1" d="M48.44,129.17c-1.81-.26-3.65-.42-5.43-.81a10.65,10.65,0,0,1-3.14-1.3,7.1,7.1,0,0,1,0-12.17,13.14,13.14,0,0,1,5.67-1.78A23.72,23.72,0,0,1,56,114c4.24,1.5,6.28,5.29,5,9.3-1,3-3.31,4.41-6.14,5.09-1.77.43-3.62.55-5.43.81Zm.49-13.44c-.48,0-1.06,0-1.62.11a3.85,3.85,0,0,0-3.67,3.29c-.38,2.28-.57,4.6,1.6,6.25a2.73,2.73,0,0,0,1.28.56,18.76,18.76,0,0,0,3.58.21c2.59-.19,3.91-1.48,4.2-4a9.73,9.73,0,0,0-.09-2.64,4,4,0,0,0-4-3.65C49.84,115.78,49.43,115.76,48.93,115.73Z"/><path class="cls-1" d="M142.5,128.6H129.39v-2c.47-.06,1-.11,1.45-.19s1.3-.18,1.13-.83-.76-1.55-1.2-1.57c-2.88-.14-5.78-.14-8.66,0-.45,0-1,1-1.23,1.57s.57.78,1.1.85.87.11,1.35.16v1.94h-9.56v-1.85c.08-.07.1-.11.12-.11,2,.15,3.06-1,3.94-2.63,1.19-2.2,2.6-4.28,3.9-6.42.77-1.26.5-1.74-1-1.87-.63,0-1.25-.14-1.92-.22v-2h2.5c2.79,0,5.58,0,8.37,0a2.46,2.46,0,0,1,2.35,1.25c2.09,3.26,4.33,6.42,6.31,9.74a4,4,0,0,0,4.15,2.13Zm-19.08-7.4h5.94l-3.07-4.68Z"/><path class="cls-1" d="M44.25,81.67,31,85.15c-3.55.93-7.11,1.85-10.66,2.79a1.28,1.28,0,0,1-1.45-.34c-.49-.54-1.08-1-1.57-1.52a2.83,2.83,0,0,1,.65-4.65,12.93,12.93,0,0,1,2.36-1Q68,64.74,115.76,49c4.26-1.41,8.45-3.07,12.67-4.62l1-.33c.05.23.11.33.09.4A49,49,0,0,1,123,55.7a14.38,14.38,0,0,1-7.72,4.94l-52.3,14L45,79.49C43.76,79.84,43.52,80.42,44.25,81.67Z"/><path class="cls-1" d="M118.54,64.61a6.32,6.32,0,0,1-.36.74c-1.9,2.69-3.72,5.44-5.72,8.05s-5.09,3.91-8.41,4.55c-15.56,3-31.1,6-46.65,9L57,87c-1.28.29-1.51.93-.64,2.14l-4.73.93q-11.94,2.28-23.89,4.56a1.82,1.82,0,0,1-1.86-.51c-1.58-1.55-3.24-3-5-4.67l97.48-25.11Z"/><path class="cls-1" d="M70.32,97.85l-8.1,1-19,2.4c-2.61.33-5.22.68-7.83,1a1.3,1.3,0,0,1-1-.24c-2-1.84-4.06-3.73-6.09-5.61-.06,0-.08-.15-.16-.3l78.14-14.65a6,6,0,0,1-.51.83c-2,2.27-4,4.6-6.13,6.76C97.23,91.58,94,92.52,90.55,93c-6.37.87-12.73,1.84-19.1,2.78C70,96,69.74,96.41,70.32,97.85Z"/><path class="cls-1" d="M90.92,110.52H89.71q-22.54,0-45.09,0a2.33,2.33,0,0,1-1.76-.69c-2.09-2-4.21-3.93-6.49-6l3.63-.46L60.39,101c4.06-.48,8.12-1,12.18-1.42a1.93,1.93,0,0,1,1.16.19q8.37,5.16,16.72,10.37C90.54,110.2,90.63,110.28,90.92,110.52Z"/><path class="cls-1" d="M8.27,115.42v-2h12v1.94c-.57.08-1.13.17-1.69.22a1.19,1.19,0,0,0-1.25,1.27c0,.82,0,1.64,0,2.52h9.43c0-.88,0-1.73,0-2.57a1.17,1.17,0,0,0-1.21-1.21l-1.75-.21v-2h12v2c-.55.07-1.08.17-1.61.2a1.27,1.27,0,0,0-1.38,1.44c0,2.63,0,5.27,0,7.9a1.23,1.23,0,0,0,1.31,1.4c.54,0,1.07.13,1.67.21v1.94h-12v-1.94c.57-.07,1.15-.18,1.74-.22a1.2,1.2,0,0,0,1.22-1.3c0-.79,0-1.59,0-2.47H17.36a21.3,21.3,0,0,0,0,2.88c.05.33.58.71,1,.84a9.48,9.48,0,0,0,1.86.26v1.94h-12v-1.93c.61-.08,1.17-.18,1.73-.22a1.15,1.15,0,0,0,1.21-1.2q0-4.14,0-8.28A1.19,1.19,0,0,0,10,115.63C9.42,115.59,8.89,115.5,8.27,115.42Z"/><path class="cls-1" d="M71.64,126.57v2H62.1v-2l1.8-.23a1.14,1.14,0,0,0,1.15-1.25c0-2.73,0-5.46,0-8.19a1.17,1.17,0,0,0-1.24-1.27c-.56,0-1.13-.14-1.74-.21v-2h1.16c3,0,6,0,9,0a2.36,2.36,0,0,1,2.1,1c2.31,3.1,4.66,6.17,7,9.25l.71.9c.05-.4.11-.62.11-.84,0-2.06,0-4.13,0-6.19,0-1.55-.22-1.78-1.77-2-.38,0-.75-.11-1.2-.18v-1.93h9.53v1.93c-.51.07-1,.15-1.5.21-1.2.13-1.48.39-1.48,1.63,0,3.36,0,6.72,0,10.09v1.21c-2.69,0-5.28,0-7.87-.05-.45,0-1-.54-1.31-1-2.31-3-4.57-6-6.86-9l-.87-1.14a6.77,6.77,0,0,0-.11.85c0,2,0,4,0,6,0,1.8.11,1.93,1.85,2.18Z"/><path class="cls-1" d="M89.79,128.52v-1.94c.57-.08,1.13-.19,1.69-.22a1.24,1.24,0,0,0,1.3-1.33c0-2.73,0-5.45,0-8.18a1.12,1.12,0,0,0-1.16-1.23c-.53,0-1.06-.13-1.62-.2v-2c.32,0,.6,0,.88,0,4.72,0,9.45-.08,14.17,0a18.28,18.28,0,0,1,5.28,1,7.07,7.07,0,0,1,0,13.18,15,15,0,0,1-4.71.94c-5.14.12-10.27,0-15.41,0A3.36,3.36,0,0,1,89.79,128.52Zm8.95-2.92c2.18,0,4.24.07,6.29,0a2.61,2.61,0,0,0,2.59-2.37,19.3,19.3,0,0,0,0-4.43,2.44,2.44,0,0,0-2.15-2.26c-2.22-.23-4.46-.23-6.73-.33Z"/></svg>