<svg id="Layer_1" data-name="Layer 1" xmlns="http://www.w3.org/2000/svg" viewBox="0 0 150 45"><defs><style>.cls-1{fill:#fff;}</style></defs><path class="cls-1" d="M17.76,12.86H15.14l1.64-6.19L12,12.86H10.08L8.6,6.67,7,12.86H5.73l1.9-7.23h3.46l1.25,5.25L16.4,5.63h3.27Z"/><path class="cls-1" d="M29.14,11.44A2,2,0,0,1,27,12.86h-5.5c-1.21,0-1.69-.47-1.44-1.42l1.16-4.39a2,2,0,0,1,2.19-1.42h5.5c1.21,0,1.69.48,1.44,1.42Zm-2.74.11,1.22-4.61c.07-.25-.06-.38-.39-.38H24.5c-.33,0-.53.13-.59.38l-1.22,4.61c-.07.26.06.38.39.38h2.73C26.14,11.93,26.34,11.81,26.4,11.55Z"/><path class="cls-1" d="M40.32,6.56H37.49l-1.67,6.3h-2.7l1.66-6.3H31.94l.25-.93h8.38Z"/><path class="cls-1" d="M49.68,11.44a2,2,0,0,1-2.19,1.42H42c-1.2,0-1.68-.47-1.43-1.42L41.7,7.05a2,2,0,0,1,2.19-1.42h5.5c1.21,0,1.69.48,1.44,1.42Zm-2.74.11,1.21-4.61c.07-.25-.06-.38-.38-.38H45a.53.53,0,0,0-.59.38l-1.22,4.61c-.06.26.07.38.39.38h2.74A.53.53,0,0,0,46.94,11.55Z"/><path class="cls-1" d="M60,11.46a1.93,1.93,0,0,1-2.14,1.4H51.17l.25-.93h5.32a.54.54,0,0,0,.59-.43l.26-1c.07-.27-.05-.4-.37-.4H53.67c-1.19,0-1.65-.48-1.4-1.43l.44-1.65a1.93,1.93,0,0,1,2.14-1.42H61.5l-.24.93H56c-.35,0-.56.13-.63.4l-.2.77c-.07.26.05.39.37.39H59c1.21,0,1.7.46,1.45,1.4Z"/><path class="cls-1" d="M58.78,30C54,37,47.93,40.51,40.45,40.51c-3.71,0-6-.94-6.9-2.84s-1-4.83,1.06-8.37A22.94,22.94,0,0,1,52.23,18.22c3.65-.26,6.7.86,7.63,2.72A9.35,9.35,0,0,1,58.78,30Zm-9.05-.5c1.82-3.12,2.78-5.19,2.88-6.23s-.4-1.56-1.5-1.57a4.83,4.83,0,0,0-3.31,1.54,29.46,29.46,0,0,0-4.39,6.19Q40.74,34,40.54,35.62c-.12,1.08.36,1.62,1.47,1.63a4.87,4.87,0,0,0,3.3-1.51A29.11,29.11,0,0,0,49.73,29.51Z"/><path class="cls-1" d="M147.79,29.67c-4.75,6.95-10.85,10.51-18.33,10.51q-5.58,0-6.9-2.84c-.89-1.9-1-4.83,1.06-8.37a22.91,22.91,0,0,1,17.62-11.08c3.64-.26,6.69.85,7.63,2.71A9.38,9.38,0,0,1,147.79,29.67Zm-9-.5q2.73-4.67,2.88-6.22c.1-1-.4-1.56-1.51-1.57a4.85,4.85,0,0,0-3.3,1.53,29.23,29.23,0,0,0-4.39,6.2c-1.79,3-2.74,5.1-2.87,6.18s.36,1.62,1.47,1.63a4.88,4.88,0,0,0,3.3-1.52A29.47,29.47,0,0,0,138.74,29.17Z"/><path class="cls-1" d="M115.31,32.44h0c.76,0,1.14,1.29.73,1.93a11.88,11.88,0,0,1-4.75,4.11,18.47,18.47,0,0,1-8.79,2c-3.45,0-5.09-1.62-6.59-3.06s-2-5.52.07-9,7.11-6.45,10.14-8.4c2.53-1.62,6.91-2,10.45-2,9.43,0,8.89,0,5.07,6.43-.41.69-2,1.77-2.7-.11-.77-2.06-2-2.73-4.5-2.73a10.62,10.62,0,0,0-5,2A22,22,0,0,0,103.81,29c-1.8,2.55-2,3.79-1.73,5.52.14,1,1.47,1.9,2.85,2.08,2.51.33,6-1,8.27-3.33A2.77,2.77,0,0,1,115.31,32.44Z"/><path class="cls-1" d="M13.43,18.09v2.85h2.51L4.55,37.48H.81v3H15v-3h-2.8l4.07-5.91h1.5L25,41.25h7.66L25.19,31a17.17,17.17,0,0,0,9-6.34,8.64,8.64,0,0,0,1.69-3.68V18.09Zm14.63,6.82a7.17,7.17,0,0,1-6.29,3.14h-3.1l4.2-6.1h2.82a7,7,0,0,1,2.21.24,1.19,1.19,0,0,1,.77.94A2.54,2.54,0,0,1,28.06,24.91Z"/><polygon class="cls-1" points="89.64 18.43 83.19 30.01 81.85 30.01 78.13 18.43 71.75 18.43 71.31 18.43 69.02 18.43 67.35 21.71 69.05 21.71 58.35 37.25 55.5 37.25 55.5 40.51 66.03 40.51 66.03 37.25 63.79 37.25 72.62 24.43 79.56 40.18 85.85 40.18 98.78 18.43 89.64 18.43"/></svg>