<svg id="Layer_1" data-name="Layer 1" xmlns="http://www.w3.org/2000/svg" viewBox="0 0 150 150"><defs><style>.cls-1{fill:#fff;fill-rule:evenodd;}</style></defs><path class="cls-1" d="M65.22,84.65c.17-.62.54-1.86.72-2.48s.18-.63.24-.63h9.94c1.95,0,2,0,2.09-.07a2.16,2.16,0,0,0,.34-.37,3.67,3.67,0,0,0,.36-.57,1.93,1.93,0,0,0,.2-.49.28.28,0,0,0,0-.21s-.06-.08-.24-.09-.5,0-2.53,0-5.78,0-7.67,0-1.92,0-1.94-.1,0-.1.06-.36.2-.72.4-1.44.48-1.7.74-2.52a6.41,6.41,0,0,1,2.62-3.73A4.4,4.4,0,0,1,72,70.88a12.54,12.54,0,0,1,2.81-.1h7.82a8.8,8.8,0,0,1,2,0s0,.1-.17.67-.51,1.66-.69,2.22a3.39,3.39,0,0,1-.21.59,15.11,15.11,0,0,1-2,0l-8,0c-2,0-2,0-2.1.07a1.31,1.31,0,0,0-.37.38,4.22,4.22,0,0,0-.39.76.75.75,0,0,0-.09.4.43.43,0,0,0,.08.18,9.14,9.14,0,0,0,2.09,0l8.1-.06a11.19,11.19,0,0,1,2.07,0s0,.08-.18.83-.65,2.19-1,3.24a9.26,9.26,0,0,1-.9,2.27A8.08,8.08,0,0,1,79.58,84a5.23,5.23,0,0,1-1.06.81,3,3,0,0,1-.91.26,17.84,17.84,0,0,1-2.83.14c-2.1,0-5.9,0-7.81,0H65.05a3.66,3.66,0,0,1,.16-.61Zm22.47-8.5a.65.65,0,0,1,0-.51,4.19,4.19,0,0,1,.41-.82,2.69,2.69,0,0,1,.33-.47c.1-.09.19-.13,1.73-.15s4.55,0,6.08,0,1.58,0,1.61.06,0,.08,0,.25a2.66,2.66,0,0,1-.25.74,3,3,0,0,1-.54.75.93.93,0,0,1-.4.26,9.44,9.44,0,0,1-1.62,0H89.3C87.83,76.24,87.75,76.24,87.69,76.15Zm-5.11,7.21,2-6.91a10.76,10.76,0,0,1,1.3-3.37,8.52,8.52,0,0,1,1.91-1.77c.61-.42,1-.59,3.3-.65s6.45,0,8.55,0,2.11,0,2.08.16-.13.35-.38,1.15-.65,2.17-1,3.19a8.18,8.18,0,0,1-1.07,2.31A6.36,6.36,0,0,1,97.76,79a3.6,3.6,0,0,1-1.9.64c-.87.08-2.11.06-2.79,0l-1.75,0-3.66,0c-.91,0-.93,0-1,0a1.38,1.38,0,0,0-.15.38c-.1.27-.26.75-.35,1a1.12,1.12,0,0,0-.08.34.16.16,0,0,0,0,.1,11.47,11.47,0,0,0,1.81,0l6.8,0c1.69,0,1.7,0,1.69.07a5.54,5.54,0,0,1-.19.69l-.67,2.11a3.34,3.34,0,0,1-.21.63,14.12,14.12,0,0,1-2.27.05l-8.8.1c-2.2,0-2.2,0-2.21,0a.35.35,0,0,1,0-.06,9.46,9.46,0,0,1,.47-1.72Zm16.5.22c.41-1.41,1.24-4.23,1.75-6a23.5,23.5,0,0,1,1.06-3.46,7,7,0,0,1,1.66-2.22,4.54,4.54,0,0,1,2.5-1,39.9,39.9,0,0,1,4.63-.07h6.15c1.37,0,1.38,0,1.31.28s-.22.68-.94,3-2,6.6-2.62,8.75-.64,2.21-.66,2.24,0,0-.54,0h-1.87c-.45,0-.42,0-.35-.22s.2-.63.74-2.41,1.5-4.92,2-6.52a7.52,7.52,0,0,0,.45-1.68s0,0-1.56-.06-4.58,0-6.2,0-1.83.15-2,.42a4.74,4.74,0,0,0-.5,1.13c-.13.41-.2.79-.63,2.3s-1.19,4.14-1.58,5.48-.39,1.36-.41,1.39-.05,0-.5,0l-1.75,0h-.49S98.66,85,99.08,83.58ZM120,80.31c.29-1,.89-2.9,1.22-4a13.93,13.93,0,0,1,.49-1.5,1,1,0,0,1,.41-.45,1.9,1.9,0,0,1,.73-.15c.25,0,.48,0,1.6,0s3.11,0,4.11,0,1,0,1,.1-.09.36-.4,1.4-.84,2.88-1.15,3.9a5.06,5.06,0,0,1-.5,1.4,1.3,1.3,0,0,1-.88.52,17.61,17.61,0,0,1-2.5,0c-1.19,0-2.77,0-3.57,0s-.82,0-.83-.08a.56.56,0,0,1,0-.13,7.34,7.34,0,0,1,.3-1Zm-3.53,2.9c.51-1.75,1.52-5.22,2.17-7.29a9.52,9.52,0,0,1,1.42-3.31,7.5,7.5,0,0,1,1.69-1.44c.51-.32.82-.41,2.27-.44s4,0,5.33,0,1.36,0,1.39,0a7.93,7.93,0,0,0,.26-1c.23-.89.67-2.6.9-3.45s.24-.85.26-.85h2.33c.45,0,.45,0,.45,0s0,.06-.77,2.63-2.28,7.66-3.09,10.43-.92,3.23-1.39,3.88a12.21,12.21,0,0,1-1.86,1.93,2.1,2.1,0,0,1-1.3.57,24.41,24.41,0,0,1-2.91.14c-1.78,0-4.68,0-6.15,0H116a.05.05,0,0,1,0,0s0,0,.5-1.79ZM134,81.49a3.28,3.28,0,0,1,.27-.92,2.91,2.91,0,0,1,.55-.82c.17-.16.27-.17,1.84-.18h6.12c1.52,0,1.53,0,1.56,0s.06.11,0,.32a4.67,4.67,0,0,1-.38.85,3.09,3.09,0,0,1-.4.6.75.75,0,0,1-.41.24,18,18,0,0,1-1.91,0l-5.79,0c-1.44,0-1.48,0-1.45-.2Zm-3.59,2.67c.24-.88.75-2.63,1.18-3.85a7.26,7.26,0,0,1,1.28-2.45,6.5,6.5,0,0,1,1.52-1.23,2.57,2.57,0,0,1,1.09-.43,22.17,22.17,0,0,1,2.74-.09c1.66,0,4.36,0,5.73,0s1.42,0,1.45,0,0-.18.12-.44.21-.65.28-.89a1,1,0,0,0,.05-.4c0-.06,0-.08-1.75-.09s-5.17,0-6.89,0-1.71,0-1.69-.08,0-.19.2-.78.43-1.64.6-2.15.21-.45.94-.43,2.14,0,4.3,0h6.56c1.47,0,1.49,0,1.5,0a8,8,0,0,1-.48,1.8c-.51,1.73-1.54,5.16-2.16,7.16s-.83,2.56-1.41,3.21a11.39,11.39,0,0,1-2.08,1.73c-.53.33-.65.28-2.8.27s-6.32,0-8.41,0-2.11,0-1.87-.91Zm-85.28.4c.17-.62.53-1.87.72-2.49s.18-.62.24-.63h2.17l7.77,0c2,0,2,0,2.09-.08a2.16,2.16,0,0,0,.34-.37,3.57,3.57,0,0,0,.36-.56A1.93,1.93,0,0,0,59,80a.26.26,0,0,0,0-.21s-.06-.09-.24-.1-.5,0-2.53,0-5.78,0-7.67,0-1.92,0-1.94-.09,0-.1.06-.36.19-.73.4-1.45.48-1.7.74-2.51a7.17,7.17,0,0,1,1-2.11,7.49,7.49,0,0,1,1.65-1.63,4.61,4.61,0,0,1,1.45-.74,13,13,0,0,1,2.81-.09h7.82c1.93,0,2,0,2,0s0,.09-.17.67-.51,1.66-.69,2.21a4.17,4.17,0,0,1-.21.6s0,0-2,0l-8,.05c-2,0-2,0-2.11.07a1.19,1.19,0,0,0-.36.38,3.91,3.91,0,0,0-.39.76.74.74,0,0,0-.09.39.42.42,0,0,0,.08.19,12.24,12.24,0,0,0,2.1,0l8.09,0a11.58,11.58,0,0,1,2.08,0s0,.08-.19.83-.65,2.19-1,3.23a8.88,8.88,0,0,1-.9,2.27,7.86,7.86,0,0,1-1.33,1.54,4.76,4.76,0,0,1-1,.8,3.19,3.19,0,0,1-.91.27,19.64,19.64,0,0,1-2.83.14c-2.11,0-5.91,0-7.82,0H44.91a6.19,6.19,0,0,1,.17-.62ZM40.26,66.32h-.52c-4.7,0-14-.06-18.83,0s-5,.07-5.33.28a4.83,4.83,0,0,0-1.14,1,5.22,5.22,0,0,0-.73,1.32,2.2,2.2,0,0,0-.19.72.21.21,0,0,0,.13.22,1,1,0,0,0,.33,0h4l14.41,0c3.6,0,3.67,0,3.68.09s0,.15-.45,1.21-1.23,3.06-1.75,4.32A7.78,7.78,0,0,1,32.5,78a11.38,11.38,0,0,1-2.45,2.13,8.55,8.55,0,0,1-2.22.94c-.5.15-.68.22-3.37.24s-7.86,0-12,0l-3.67,0A31.15,31.15,0,0,0,23.38,95C33.79,88.22,38.62,77.87,40.26,66.32ZM7.17,77.68H23.31c4.53,0,4.62,0,4.91-.18a4.51,4.51,0,0,0,1.16-1A7.69,7.69,0,0,0,30.56,74c0-.19,0-.25-.42-.27s-1.28,0-5,.05-10.23,0-13.49,0-3.27,0-3.22-.15.16-.42.62-1.6,1.28-3.26,2-4.68a8.7,8.7,0,0,1,2.21-2.8,17.33,17.33,0,0,1,2.14-1.5,2.78,2.78,0,0,1,1.24-.51A27.13,27.13,0,0,1,20,62.44c2,0,5.26,0,9.8,0,3.48,0,7.73.1,10.84.17.13-1.6.21-3.22.25-4.85-12.63-3.85-25.2-4.19-37.75.15a59.43,59.43,0,0,0,4,19.76ZM23.52,97A33.06,33.06,0,0,1,6.81,81.16l-2.89,0-1.62,0s-.06,0-.39-.56S.94,78.87.65,78.3.4,77.71.5,77.69H5.25a63.2,63.2,0,0,1-3.9-21c13.79-5.11,27.58-4.68,41.38-.22,0,2.14-.1,4.2-.27,6.19h.69c2.91.07,2.88.11,2.85.17s-.06.15-.29.73-.67,1.67-.9,2.21-.25.55-.29.55-.06,0-2.47,0c-2,14.23-8.27,24.35-18.54,30.68Z"/></svg>