<?xml version="1.0" encoding="utf-8"?>
<!-- Generator: Adobe Illustrator 24.1.2, SVG Export Plug-In . SVG Version: 6.00 Build 0)  -->
<svg version="1.1" id="Layer_1" xmlns="http://www.w3.org/2000/svg" xmlns:xlink="http://www.w3.org/1999/xlink" x="0px" y="0px"
	 viewBox="0 0 150 79.2" style="enable-background:new 0 0 150 79.2;" xml:space="preserve">
<style type="text/css">
	.st0{fill:#FFFFFF;}
</style>
<path class="st0" d="M18.3,56.5h-5.4l-2.1,7.8H37l2.1-7.8h-6.4L39,30.6h4.4L43,34.9h9l3.7-13.6H12.1L8.5,34.9h9.4l2-4.3h4.7
	L18.3,56.5z M86.5,21.3h20.2l-27,43.1H62.9l-2.4-35.3H57l2.1-7.8h22.4l-2.1,7.8h-3.8l-0.1,22.1l13-22.1h-4.3L86.5,21.3z M138.4,34
	c0.2-4.2,1.2-8.3,3.1-12.1c-7.7-1.6-15.6-1.6-23.3,0c-4.4,1.1-8.3,3.8-11,7.5c-2.7,4.1-2.2,9.6,1.3,13.2c1.8,1.7,3.8,3,6,3.9
	c1.7,0.8,4.8,2.1,5.2,4.1c1.3,5.1-7,5.6-10.3,4.6v-4.1H101l-3.3,12c7.7,2.1,15.8,2.4,23.6,0.9c4.7-1,8.9-3.6,12-7.2
	c2.6-3.2,4.1-9.1,1.3-12.6c-1.5-1.9-3.3-3.4-5.4-4.6c-2.1-1-4.1-2.1-6-3.3c-1.5-0.9-2.1-2.8-1.3-4.3c0.3-0.6,0.8-1,1.4-1.3
	c1.8-1.2,4.8-0.6,6.9-0.3l0.3,3.6h8L138.4,34z"/>
<g>
	<path class="st0" d="M12.8-17.9h-2.6l-1,3.8h12.7l1-3.8h-3.1l3.1-12.6H25l-0.2,2.1h4.4L31-35H9.8L8-28.4h4.6l1-2.1h2.3L12.8-17.9z
		 M46.1-35h9.9L42.8-14h-8.3l-1.2-17.2h-1.7l1-3.8h10.9l-1,3.8h-1.9l0,10.8L47-31.2h-2.1L46.1-35z M71.3-28.8c0.1-2,0.6-4.1,1.5-5.9
		c-3.7-0.8-7.6-0.8-11.4,0c-2.2,0.5-4.1,1.8-5.3,3.7c-1.3,2-1.1,4.7,0.6,6.4c0.9,0.8,1.9,1.5,2.9,1.9c0.8,0.4,2.3,1,2.5,2
		c0.6,2.5-3.4,2.7-5,2.2v-2h-4.2l-1.6,5.8c3.7,1,7.7,1.2,11.5,0.4c2.3-0.5,4.3-1.7,5.8-3.5c1.3-1.6,2-4.5,0.6-6.1
		c-0.7-0.9-1.6-1.7-2.6-2.2c-1-0.5-2-1-2.9-1.6c-0.8-0.4-1-1.4-0.6-2.1c0.2-0.3,0.4-0.5,0.7-0.6c0.9-0.6,2.4-0.3,3.4-0.1l0.2,1.7
		L71.3-28.8L71.3-28.8z"/>
	<path class="st0" d="M91.9-21.4c1.8-0.1,3.3-1.9,4.4-3.2s1.9-3.6,3.6-4.4c2.6-1.2,5.3-0.2,7.7,1.1c2.4,1,5.2,1,7.6,0
		c2.4-1.1,4.3-2.9,6.4-4.5c2.1-1.7,4.9-2.4,7.5-1.7l1.3-1.6l0.3,2.6l4.7,4.8l-0.9,1.1h-3V-28c-0.8-0.7-1.9-1-3-0.9
		c-1.2,0.1-2.4,0.7-2.2,2c0.1,0.9,1.5,1.8,2.1,2.3c0.9,0.6,1.9,1.2,2.9,1.8c2,1.3,3.9,2.6,5.8,4.1c1.8,1.3,3.5,2.8,4.9,4.5l-4.1-0.8
		c0.8-0.5-0.1-1.1-0.6-1.5c-0.6-0.5-1.3-0.9-2-1.3c-1.4-0.7-2.8-1.2-4.4-1.5c-2.9-0.7-6.6-1.2-9.2,0.7c-0.1,0-0.2,0.1-0.3,0.2
		l-1.4-1.2c-4.6,1.6-9.7,1.2-14-1.2c-1.7,1-3.7,1.6-5.8,1.7c-2,0.2-3.9,0.1-5.9-0.1c-4.7,3.9-11.1,6.1-17,4.1l4-1v0.9
		C85.7-15.2,89.3-18.2,91.9-21.4L91.9-21.4z"/>
</g>
</svg>
