<svg id="Layer_1" data-name="Layer 1" xmlns="http://www.w3.org/2000/svg" viewBox="0 0 150 45"><defs><style>.cls-1{fill:#fff;}.cls-2{fill:#a5a5a5;opacity:0.66;isolation:isolate;}.cls-3{fill:#eaeaea;}</style></defs><path class="cls-1" d="M22.56,8A14.54,14.54,0,1,0,37.11,22.5,14.54,14.54,0,0,0,22.56,8Z"/><path class="cls-2" d="M22.61,8.9A13.93,13.93,0,1,0,36.54,22.82,13.92,13.92,0,0,0,22.61,8.9Zm0,.32a.48.48,0,0,1,.23.07A.41.41,0,0,1,23,9.5h0l.47,1.69a11.66,11.66,0,0,1,9.65,16.7l1.2,1.21h0a.41.41,0,0,1,.09.23.43.43,0,0,1-.05.25.35.35,0,0,1-.18.16.37.37,0,0,1-.25,0h0l-1.64-.43a11.66,11.66,0,0,1-19.35,0l-1.63.44h0a.47.47,0,0,1-.24,0,.38.38,0,0,1-.19-.16.4.4,0,0,1,0-.24.43.43,0,0,1,.1-.23h0l1.19-1.2a11.67,11.67,0,0,1,9.66-16.71l.45-1.68h0a.36.36,0,0,1,.15-.21.42.42,0,0,1,.24-.07Zm0,.17a.23.23,0,0,0-.14,0,.18.18,0,0,0-.09.12l-1,3.75a.45.45,0,0,0,0,.23.46.46,0,0,0,.13.18,1.18,1.18,0,0,1,.34.59,1.06,1.06,0,0,1,0,.66,1.17,1.17,0,0,1-.39.61,3.32,3.32,0,0,0-.82,1,3.14,3.14,0,0,0-.25,1.28V19l-5.23-3-.58,1,5.81,3.35v1.22l-1,.6-5.82-3.35-.58,1,5.24,3-.94.54a2.81,2.81,0,0,0-1.47,2.09,1.21,1.21,0,0,1-.34.64,1,1,0,0,1-.59.29,1.22,1.22,0,0,1-.68,0,.29.29,0,0,0-.22,0,.37.37,0,0,0-.2.12L11,29.22a.38.38,0,0,0-.06.13.32.32,0,0,0,0,.14.27.27,0,0,0,.11.1.22.22,0,0,0,.14,0l3.76-1a.38.38,0,0,0,.2-.1.4.4,0,0,0,.09-.21,1.2,1.2,0,0,1,.34-.58,1.11,1.11,0,0,1,.56-.37,1.26,1.26,0,0,1,.72,0,3.1,3.1,0,0,0,1.31.19,3,3,0,0,0,1.24-.42l.93-.54v6h1.16V26l1.05-.61,1,.6v6.71h1.16v-6l.94.54a3,3,0,0,0,1.23.42,3.05,3.05,0,0,0,1.31-.19,1.29,1.29,0,0,1,.73,0,1,1,0,0,1,.54.37c.16.19.34.36.35.58a.37.37,0,0,0,.09.2.35.35,0,0,0,.2.12l3.76,1a.39.39,0,0,0,.15,0,.24.24,0,0,0,.1-.1.17.17,0,0,0,0-.14.24.24,0,0,0,0-.14l-2.74-2.75a.32.32,0,0,0-.2-.12.34.34,0,0,0-.22,0,1.1,1.1,0,0,1-.67,0,1,1,0,0,1-.6-.29,1.25,1.25,0,0,1-.34-.64,3,3,0,0,0-.49-1.23,2.89,2.89,0,0,0-1-.86L27,22.79l5.24-3-.58-1-5.81,3.36-1.05-.61V20.31L30.63,17l-.58-1-5.23,3V17.89a3.14,3.14,0,0,0-.25-1.28,3.21,3.21,0,0,0-.83-1,1.22,1.22,0,0,1-.38-.61,1.06,1.06,0,0,1,0-.66,1.17,1.17,0,0,1,.33-.59.49.49,0,0,0,.14-.18.45.45,0,0,0,0-.23l-1-3.75a.34.34,0,0,0-.09-.12.2.2,0,0,0-.13,0Zm0,7.24a1,1,0,0,1,1,1.05v2l-1,.61-1.05-.61v-2a1,1,0,0,1,1.05-1.05Zm0,4.95,1,.6V23.4l-1,.6-1.05-.6V22.19Zm-3.25,1.88,1,.6v1.22l-1.7,1a1,1,0,0,1-.79.1,1.05,1.05,0,0,1-.64-.49,1,1,0,0,1-.1-.79,1.07,1.07,0,0,1,.48-.64l1.71-1Zm6.5,0,1.7,1A1,1,0,0,1,28,25.87a1,1,0,0,1-.63.49,1.11,1.11,0,0,1-.8-.1l-1.7-1V24.06l1.05-.6Z"/><path class="cls-3" d="M22.56,8.57A13.93,13.93,0,1,0,36.49,22.5,13.93,13.93,0,0,0,22.56,8.57Zm0,.33A.39.39,0,0,1,22.8,9a.43.43,0,0,1,.15.2h0l.47,1.69a11.66,11.66,0,0,1,9.65,16.7l1.2,1.2h0a.43.43,0,0,1,.1.23.4.4,0,0,1,0,.24.42.42,0,0,1-.18.17.54.54,0,0,1-.25,0h0L32.24,29a11.68,11.68,0,0,1-19.35,0l-1.64.43h0a.43.43,0,0,1-.25,0,.49.49,0,0,1-.18-.17.39.39,0,0,1-.05-.24.43.43,0,0,1,.1-.23h0l1.19-1.21a11.66,11.66,0,0,1,9.66-16.7l.45-1.68h0a.45.45,0,0,1,.16-.2.4.4,0,0,1,.24-.07Zm0,.17a.23.23,0,0,0-.14,0,.18.18,0,0,0-.09.12l-1,3.74a.45.45,0,0,0,0,.23.3.3,0,0,0,.13.18,1.23,1.23,0,0,1,.34.59,1.1,1.1,0,0,1,0,.67,1.17,1.17,0,0,1-.39.61,3.21,3.21,0,0,0-.82,1,3.14,3.14,0,0,0-.25,1.28v1.08l-5.23-3-.58,1L20.36,20V21.2l-1.05.6L13.5,18.44l-.58,1,5.24,3-.94.54a3,3,0,0,0-1,.86,3.06,3.06,0,0,0-.49,1.23,1.25,1.25,0,0,1-.34.64,1,1,0,0,1-.59.29,1.13,1.13,0,0,1-.68,0,.34.34,0,0,0-.22,0,.31.31,0,0,0-.2.11L11,28.89a.2.2,0,0,0-.06.14.18.18,0,0,0,0,.14.2.2,0,0,0,.11.09.22.22,0,0,0,.14,0l3.75-1a.33.33,0,0,0,.21-.11.34.34,0,0,0,.09-.2,1.09,1.09,0,0,1,.34-.58,1.07,1.07,0,0,1,.56-.37,1.18,1.18,0,0,1,.72,0,3.05,3.05,0,0,0,1.31.19,3,3,0,0,0,1.23-.42l.94-.55v6h1.15V25.62l1-.61,1.05.61v6.71h1.16v-6l.93.55a3,3,0,0,0,1.24.42,3.21,3.21,0,0,0,1.31-.19A1.11,1.11,0,0,1,29,27a1,1,0,0,1,.55.37,1.09,1.09,0,0,1,.35.57.4.4,0,0,0,.09.21.41.41,0,0,0,.2.12l3.76,1a.22.22,0,0,0,.14,0,.27.27,0,0,0,.11-.1.35.35,0,0,0,0-.14.2.2,0,0,0-.06-.14l-2.73-2.75a.39.39,0,0,0-.2-.13A.42.42,0,0,0,31,26a1.21,1.21,0,0,1-.68,0,1,1,0,0,1-.59-.3,1.21,1.21,0,0,1-.34-.64,3.12,3.12,0,0,0-.49-1.23,3.08,3.08,0,0,0-1-.85L27,22.47l5.24-3-.58-1L25.82,21.8l-1.05-.6V20l5.81-3.35-.58-1-5.23,3V17.57a2.84,2.84,0,0,0-1.08-2.32,1.27,1.27,0,0,1-.38-.61,1.1,1.1,0,0,1,0-.67,1.22,1.22,0,0,1,.33-.59.37.37,0,0,0,.14-.18.45.45,0,0,0,0-.23l-1-3.74a.27.27,0,0,0-.09-.12A.22.22,0,0,0,22.57,9.07Zm0,7.24a1,1,0,0,1,1,1v2l-1,.6-1.06-.61v-2a1,1,0,0,1,1.06-1Zm0,5,1,.6v1.22l-1,.6-1.06-.61V21.86Zm-3.26,1.87,1.05.61V25l-1.7,1a1,1,0,0,1-.79.1,1.05,1.05,0,0,1-.64-.49,1,1,0,0,1-.1-.79,1,1,0,0,1,.48-.64l1.7-1Zm6.51,0,1.7,1a1,1,0,0,1,.49.63,1.06,1.06,0,0,1-.11.8,1.09,1.09,0,0,1-.64.49,1,1,0,0,1-.79-.11l-1.7-1V23.74l1.05-.61Z"/><path class="cls-1" d="M39.51,10.28l5.37,16.38v8h5.29v-8l5.06-16.38H50.45l-3,10.64L44.52,10.28Zm33,0V34.66H77V18.85l2.53,15.81H82.8l2.52-15.81V34.66H89.8V10.28H83.08l-1.92,11.6-1.84-11.6Zm37.67,0V34.66h4.91V24.38h4.18V34.66h4.79V10.28h-4.79V20h-4.18v-9.7Zm20.85,0-4.24,24.39h4.79l.94-6h3.67l.92,6H142l-4.24-24.39Zm3.37,5.35,1.24,8.82h-2.54ZM96.71,10.27,92.47,34.66h4.78l1-6h3.66l.93,6h4.82l-4.24-24.39Zm3.36,5.35,1.25,8.82H98.77Zm-41-5.35L54.81,34.66H59.6l.94-6h3.67l.92,6H70L65.72,10.27Zm3.37,5.35,1.24,8.82H61.11Z"/></svg>